<?xml version="1.0" encoding="UTF-8"?>
<svg xmlns="http://www.w3.org/2000/svg" width="1714" height="824" viewBox="0 0 1714 824" role="img" aria-labelledby="title desc">
<title id="title">Route schedule for flrp-ssr_instance_25_6</title>
<desc id="desc">Non-geographic route schedule with route totals and customer service times.</desc>
<style>
text{font-family:Arial,Helvetica,sans-serif;fill:#111827}
.title{font-size:24px;font-weight:700}
.meta{font-size:13px;fill:#374151}
.caption{font-size:12px;fill:#374151}
</style>
<rect x="0" y="0" width="100%" height="100%" fill="#ffffff"/>
<text class="title" x="28" y="34">FLRP-SSR route schedule: flrp-ssr_instance_25_6</text>
<text class="meta" x="28" y="58">cost = 5275.600; No. of customers = 25; No. of routes= 5</text>
<defs>
<marker id="arrow-0" viewBox="0 0 10 10" refX="8.5" refY="5" markerWidth="6" markerHeight="6" orient="auto">
<path d="M 0 0 L 10 5 L 0 10 z" fill="#174ea6"/>
</marker>
<marker id="arrow-1" viewBox="0 0 10 10" refX="8.5" refY="5" markerWidth="6" markerHeight="6" orient="auto">
<path d="M 0 0 L 10 5 L 0 10 z" fill="#c65f00"/>
</marker>
<marker id="arrow-2" viewBox="0 0 10 10" refX="8.5" refY="5" markerWidth="6" markerHeight="6" orient="auto">
<path d="M 0 0 L 10 5 L 0 10 z" fill="#0b7d25"/>
</marker>
<marker id="arrow-3" viewBox="0 0 10 10" refX="8.5" refY="5" markerWidth="6" markerHeight="6" orient="auto">
<path d="M 0 0 L 10 5 L 0 10 z" fill="#7a3db8"/>
</marker>
<marker id="arrow-4" viewBox="0 0 10 10" refX="8.5" refY="5" markerWidth="6" markerHeight="6" orient="auto">
<path d="M 0 0 L 10 5 L 0 10 z" fill="#9a3412"/>
</marker>
</defs>
<rect x="28.0" y="106.0" width="390.0" height="86.0" rx="5" ry="5" fill="#edf4ff" stroke="#174ea6" stroke-width="1.6"/>
<text x="39.0" y="126.0" font-size="12" text-anchor="start"><tspan x="39.0" font-weight="700">Vehicle 0, base 1001</tspan><tspan x="39.0" dy="16.0">1001 -&gt; 16 -&gt; 25 -&gt; 5 -&gt; 22 -&gt; 6 -&gt; 10 -&gt; 1001</tspan><tspan x="39.0" dy="16.0">travel 83.4; service 114.0; wait 225.8</tspan><tspan x="39.0" dy="16.0">depart 0.0; finish 423.3; elapsed 423.3</tspan></text>
<line x1="418.0" y1="149.0" x2="445.0" y2="149.0" stroke="#174ea6" stroke-width="1.7" marker-end="url(#arrow-0)"/>
<rect x="450.0" y="106.0" width="126.0" height="86.0" rx="5" ry="5" fill="#edf4ff" stroke="#174ea6" stroke-width="1.6"/>
<text x="513.0" y="123.0" font-size="12" text-anchor="middle"><tspan x="513.0" font-weight="700">C16</tspan><tspan x="513.0" dy="15.0">TW [24, 144]</tspan><tspan x="513.0" dy="15.0">start 24.0</tspan><tspan x="513.0" dy="15.0">end 43.0</tspan><tspan x="513.0" dy="15.0">dur. 19.0</tspan></text>
<line x1="576.0" y1="149.0" x2="597.0" y2="149.0" stroke="#174ea6" stroke-width="1.7" marker-end="url(#arrow-0)"/>
<rect x="602.0" y="106.0" width="126.0" height="86.0" rx="5" ry="5" fill="#edf4ff" stroke="#174ea6" stroke-width="1.6"/>
<text x="665.0" y="123.0" font-size="12" text-anchor="middle"><tspan x="665.0" font-weight="700">C25</tspan><tspan x="665.0" dy="15.0">TW [56, 176]</tspan><tspan x="665.0" dy="15.0">start 64.3</tspan><tspan x="665.0" dy="15.0">end 83.3</tspan><tspan x="665.0" dy="15.0">dur. 19.0</tspan></text>
<line x1="728.0" y1="149.0" x2="749.0" y2="149.0" stroke="#174ea6" stroke-width="1.7" marker-end="url(#arrow-0)"/>
<rect x="754.0" y="106.0" width="126.0" height="86.0" rx="5" ry="5" fill="#edf4ff" stroke="#174ea6" stroke-width="1.6"/>
<text x="817.0" y="123.0" font-size="12" text-anchor="middle"><tspan x="817.0" font-weight="700">C5</tspan><tspan x="817.0" dy="15.0">TW [1, 121]</tspan><tspan x="817.0" dy="15.0">start 109.5</tspan><tspan x="817.0" dy="15.0">end 128.5</tspan><tspan x="817.0" dy="15.0">dur. 19.0</tspan></text>
<line x1="880.0" y1="149.0" x2="901.0" y2="149.0" stroke="#174ea6" stroke-width="1.7" marker-end="url(#arrow-0)"/>
<rect x="906.0" y="106.0" width="126.0" height="86.0" rx="5" ry="5" fill="#edf4ff" stroke="#174ea6" stroke-width="1.6"/>
<text x="969.0" y="123.0" font-size="12" text-anchor="middle"><tspan x="969.0" font-weight="700">C22</tspan><tspan x="969.0" dy="15.0">TW [128, 248]</tspan><tspan x="969.0" dy="15.0">start 131.7</tspan><tspan x="969.0" dy="15.0">end 150.7</tspan><tspan x="969.0" dy="15.0">dur. 19.0</tspan></text>
<line x1="1032.0" y1="149.0" x2="1053.0" y2="149.0" stroke="#174ea6" stroke-width="1.7" marker-end="url(#arrow-0)"/>
<rect x="1058.0" y="106.0" width="126.0" height="86.0" rx="5" ry="5" fill="#edf4ff" stroke="#174ea6" stroke-width="1.6"/>
<text x="1121.0" y="123.0" font-size="12" text-anchor="middle"><tspan x="1121.0" font-weight="700">C6</tspan><tspan x="1121.0" dy="15.0">TW [83, 203]</tspan><tspan x="1121.0" dy="15.0">start 169.1</tspan><tspan x="1121.0" dy="15.0">end 188.1</tspan><tspan x="1121.0" dy="15.0">dur. 19.0</tspan></text>
<line x1="1184.0" y1="149.0" x2="1205.0" y2="149.0" stroke="#174ea6" stroke-width="1.7" marker-end="url(#arrow-0)"/>
<rect x="1210.0" y="106.0" width="126.0" height="86.0" rx="5" ry="5" fill="#edf4ff" stroke="#174ea6" stroke-width="1.6"/>
<text x="1273.0" y="123.0" font-size="12" text-anchor="middle"><tspan x="1273.0" font-weight="700">C10</tspan><tspan x="1273.0" dy="15.0">TW [401, 521]</tspan><tspan x="1273.0" dy="15.0">start 401.0</tspan><tspan x="1273.0" dy="15.0">end 420.0</tspan><tspan x="1273.0" dy="15.0">dur. 19.0</tspan></text>
<line x1="1336.0" y1="149.0" x2="1357.0" y2="149.0" stroke="#174ea6" stroke-width="1.7" marker-end="url(#arrow-0)"/>
<rect x="1362.0" y="117.0" width="100.0" height="64.0" rx="0" ry="0" fill="#edf4ff" stroke="#174ea6" stroke-width="1.6"/>
<text x="1412.0" y="136.0" font-size="12" text-anchor="middle"><tspan x="1412.0" font-weight="700">1001</tspan><tspan x="1412.0" dy="15.0">return</tspan><tspan x="1412.0" dy="15.0">423.3</tspan></text>
<rect x="28.0" y="224.0" width="390.0" height="98.0" rx="5" ry="5" fill="#fff3e5" stroke="#c65f00" stroke-width="1.6"/>
<text x="39.0" y="244.0" font-size="12" text-anchor="start"><tspan x="39.0" font-weight="700">Vehicle 1, base 1008</tspan><tspan x="39.0" dy="16.0">1008 -&gt; 3 -&gt; 17 -&gt; 8 -&gt; 18 -&gt; 9 -&gt; 21 -&gt; 23 -&gt;</tspan><tspan x="39.0" dy="16.0">1008</tspan><tspan x="39.0" dy="16.0">travel 80.3; service 133.0; wait 187.3</tspan><tspan x="39.0" dy="16.0">depart 0.0; finish 400.6; elapsed 400.6</tspan></text>
<line x1="418.0" y1="273.0" x2="445.0" y2="273.0" stroke="#c65f00" stroke-width="1.7" marker-end="url(#arrow-1)"/>
<rect x="450.0" y="230.0" width="126.0" height="86.0" rx="5" ry="5" fill="#fff3e5" stroke="#c65f00" stroke-width="1.6"/>
<text x="513.0" y="247.0" font-size="12" text-anchor="middle"><tspan x="513.0" font-weight="700">C3</tspan><tspan x="513.0" dy="15.0">TW [146, 266]</tspan><tspan x="513.0" dy="15.0">start 146.0</tspan><tspan x="513.0" dy="15.0">end 165.0</tspan><tspan x="513.0" dy="15.0">dur. 19.0</tspan></text>
<line x1="576.0" y1="273.0" x2="597.0" y2="273.0" stroke="#c65f00" stroke-width="1.7" marker-end="url(#arrow-1)"/>
<rect x="602.0" y="230.0" width="126.0" height="86.0" rx="5" ry="5" fill="#fff3e5" stroke="#c65f00" stroke-width="1.6"/>
<text x="665.0" y="247.0" font-size="12" text-anchor="middle"><tspan x="665.0" font-weight="700">C17</tspan><tspan x="665.0" dy="15.0">TW [173, 293]</tspan><tspan x="665.0" dy="15.0">start 173.0</tspan><tspan x="665.0" dy="15.0">end 192.0</tspan><tspan x="665.0" dy="15.0">dur. 19.0</tspan></text>
<line x1="728.0" y1="273.0" x2="749.0" y2="273.0" stroke="#c65f00" stroke-width="1.7" marker-end="url(#arrow-1)"/>
<rect x="754.0" y="230.0" width="126.0" height="86.0" rx="5" ry="5" fill="#fff3e5" stroke="#c65f00" stroke-width="1.6"/>
<text x="817.0" y="247.0" font-size="12" text-anchor="middle"><tspan x="817.0" font-weight="700">C8</tspan><tspan x="817.0" dy="15.0">TW [124, 244]</tspan><tspan x="817.0" dy="15.0">start 212.9</tspan><tspan x="817.0" dy="15.0">end 231.9</tspan><tspan x="817.0" dy="15.0">dur. 19.0</tspan></text>
<line x1="880.0" y1="273.0" x2="901.0" y2="273.0" stroke="#c65f00" stroke-width="1.7" marker-end="url(#arrow-1)"/>
<rect x="906.0" y="230.0" width="126.0" height="86.0" rx="5" ry="5" fill="#fff3e5" stroke="#c65f00" stroke-width="1.6"/>
<text x="969.0" y="247.0" font-size="12" text-anchor="middle"><tspan x="969.0" font-weight="700">C18</tspan><tspan x="969.0" dy="15.0">TW [120, 240]</tspan><tspan x="969.0" dy="15.0">start 238.0</tspan><tspan x="969.0" dy="15.0">end 257.0</tspan><tspan x="969.0" dy="15.0">dur. 19.0</tspan></text>
<line x1="1032.0" y1="273.0" x2="1053.0" y2="273.0" stroke="#c65f00" stroke-width="1.7" marker-end="url(#arrow-1)"/>
<rect x="1058.0" y="230.0" width="126.0" height="86.0" rx="5" ry="5" fill="#fff3e5" stroke="#c65f00" stroke-width="1.6"/>
<text x="1121.0" y="247.0" font-size="12" text-anchor="middle"><tspan x="1121.0" font-weight="700">C9</tspan><tspan x="1121.0" dy="15.0">TW [310, 430]</tspan><tspan x="1121.0" dy="15.0">start 310.0</tspan><tspan x="1121.0" dy="15.0">end 329.0</tspan><tspan x="1121.0" dy="15.0">dur. 19.0</tspan></text>
<line x1="1184.0" y1="273.0" x2="1205.0" y2="273.0" stroke="#c65f00" stroke-width="1.7" marker-end="url(#arrow-1)"/>
<rect x="1210.0" y="230.0" width="126.0" height="86.0" rx="5" ry="5" fill="#fff3e5" stroke="#c65f00" stroke-width="1.6"/>
<text x="1273.0" y="247.0" font-size="12" text-anchor="middle"><tspan x="1273.0" font-weight="700">C21</tspan><tspan x="1273.0" dy="15.0">TW [249, 369]</tspan><tspan x="1273.0" dy="15.0">start 341.0</tspan><tspan x="1273.0" dy="15.0">end 360.0</tspan><tspan x="1273.0" dy="15.0">dur. 19.0</tspan></text>
<line x1="1336.0" y1="273.0" x2="1357.0" y2="273.0" stroke="#c65f00" stroke-width="1.7" marker-end="url(#arrow-1)"/>
<rect x="1362.0" y="230.0" width="126.0" height="86.0" rx="5" ry="5" fill="#fff3e5" stroke="#c65f00" stroke-width="1.6"/>
<text x="1425.0" y="247.0" font-size="12" text-anchor="middle"><tspan x="1425.0" font-weight="700">C23</tspan><tspan x="1425.0" dy="15.0">TW [337, 457]</tspan><tspan x="1425.0" dy="15.0">start 375.8</tspan><tspan x="1425.0" dy="15.0">end 394.8</tspan><tspan x="1425.0" dy="15.0">dur. 19.0</tspan></text>
<line x1="1488.0" y1="273.0" x2="1509.0" y2="273.0" stroke="#c65f00" stroke-width="1.7" marker-end="url(#arrow-1)"/>
<rect x="1514.0" y="241.0" width="100.0" height="64.0" rx="0" ry="0" fill="#fff3e5" stroke="#c65f00" stroke-width="1.6"/>
<text x="1564.0" y="260.0" font-size="12" text-anchor="middle"><tspan x="1564.0" font-weight="700">1008</tspan><tspan x="1564.0" dy="15.0">return</tspan><tspan x="1564.0" dy="15.0">400.6</tspan></text>
<rect x="28.0" y="354.0" width="390.0" height="86.0" rx="5" ry="5" fill="#ecf9ee" stroke="#0b7d25" stroke-width="1.6"/>
<text x="39.0" y="374.0" font-size="12" text-anchor="start"><tspan x="39.0" font-weight="700">Vehicle 2, base 1003</tspan><tspan x="39.0" dy="16.0">1003 -&gt; 7 -&gt; 2 -&gt; 14 -&gt; 1003</tspan><tspan x="39.0" dy="16.0">travel 45.4; service 57.0; wait 395.6</tspan><tspan x="39.0" dy="16.0">depart 0.0; finish 498.0; elapsed 498.0</tspan></text>
<line x1="418.0" y1="397.0" x2="445.0" y2="397.0" stroke="#0b7d25" stroke-width="1.7" marker-end="url(#arrow-2)"/>
<rect x="450.0" y="354.0" width="126.0" height="86.0" rx="5" ry="5" fill="#ecf9ee" stroke="#0b7d25" stroke-width="1.6"/>
<text x="513.0" y="371.0" font-size="12" text-anchor="middle"><tspan x="513.0" font-weight="700">C7</tspan><tspan x="513.0" dy="15.0">TW [137, 257]</tspan><tspan x="513.0" dy="15.0">start 137.0</tspan><tspan x="513.0" dy="15.0">end 156.0</tspan><tspan x="513.0" dy="15.0">dur. 19.0</tspan></text>
<line x1="576.0" y1="397.0" x2="597.0" y2="397.0" stroke="#0b7d25" stroke-width="1.7" marker-end="url(#arrow-2)"/>
<rect x="602.0" y="354.0" width="126.0" height="86.0" rx="5" ry="5" fill="#ecf9ee" stroke="#0b7d25" stroke-width="1.6"/>
<text x="665.0" y="371.0" font-size="12" text-anchor="middle"><tspan x="665.0" font-weight="700">C2</tspan><tspan x="665.0" dy="15.0">TW [156, 276]</tspan><tspan x="665.0" dy="15.0">start 173.0</tspan><tspan x="665.0" dy="15.0">end 192.0</tspan><tspan x="665.0" dy="15.0">dur. 19.0</tspan></text>
<line x1="728.0" y1="397.0" x2="749.0" y2="397.0" stroke="#0b7d25" stroke-width="1.7" marker-end="url(#arrow-2)"/>
<rect x="754.0" y="354.0" width="126.0" height="86.0" rx="5" ry="5" fill="#ecf9ee" stroke="#0b7d25" stroke-width="1.6"/>
<text x="817.0" y="371.0" font-size="12" text-anchor="middle"><tspan x="817.0" font-weight="700">C14</tspan><tspan x="817.0" dy="15.0">TW [471, 591]</tspan><tspan x="817.0" dy="15.0">start 471.0</tspan><tspan x="817.0" dy="15.0">end 490.0</tspan><tspan x="817.0" dy="15.0">dur. 19.0</tspan></text>
<line x1="880.0" y1="397.0" x2="901.0" y2="397.0" stroke="#0b7d25" stroke-width="1.7" marker-end="url(#arrow-2)"/>
<rect x="906.0" y="365.0" width="100.0" height="64.0" rx="0" ry="0" fill="#ecf9ee" stroke="#0b7d25" stroke-width="1.6"/>
<text x="956.0" y="384.0" font-size="12" text-anchor="middle"><tspan x="956.0" font-weight="700">1003</tspan><tspan x="956.0" dy="15.0">return</tspan><tspan x="956.0" dy="15.0">498.0</tspan></text>
<rect x="28.0" y="472.0" width="390.0" height="86.0" rx="5" ry="5" fill="#f5edff" stroke="#7a3db8" stroke-width="1.6"/>
<text x="39.0" y="492.0" font-size="12" text-anchor="start"><tspan x="39.0" font-weight="700">Vehicle 3, base 1000</tspan><tspan x="39.0" dy="16.0">1000 -&gt; 11 -&gt; 13 -&gt; 4 -&gt; 24 -&gt; 12 -&gt; 1000</tspan><tspan x="39.0" dy="16.0">travel 32.5; service 95.0; wait 320.3</tspan><tspan x="39.0" dy="16.0">depart 0.0; finish 447.8; elapsed 447.8</tspan></text>
<line x1="418.0" y1="515.0" x2="445.0" y2="515.0" stroke="#7a3db8" stroke-width="1.7" marker-end="url(#arrow-3)"/>
<rect x="450.0" y="472.0" width="126.0" height="86.0" rx="5" ry="5" fill="#f5edff" stroke="#7a3db8" stroke-width="1.6"/>
<text x="513.0" y="489.0" font-size="12" text-anchor="middle"><tspan x="513.0" font-weight="700">C11</tspan><tspan x="513.0" dy="15.0">TW [28, 148]</tspan><tspan x="513.0" dy="15.0">start 28.0</tspan><tspan x="513.0" dy="15.0">end 47.0</tspan><tspan x="513.0" dy="15.0">dur. 19.0</tspan></text>
<line x1="576.0" y1="515.0" x2="597.0" y2="515.0" stroke="#7a3db8" stroke-width="1.7" marker-end="url(#arrow-3)"/>
<rect x="602.0" y="472.0" width="126.0" height="86.0" rx="5" ry="5" fill="#f5edff" stroke="#7a3db8" stroke-width="1.6"/>
<text x="665.0" y="489.0" font-size="12" text-anchor="middle"><tspan x="665.0" font-weight="700">C13</tspan><tspan x="665.0" dy="15.0">TW [72, 192]</tspan><tspan x="665.0" dy="15.0">start 72.0</tspan><tspan x="665.0" dy="15.0">end 91.0</tspan><tspan x="665.0" dy="15.0">dur. 19.0</tspan></text>
<line x1="728.0" y1="515.0" x2="749.0" y2="515.0" stroke="#7a3db8" stroke-width="1.7" marker-end="url(#arrow-3)"/>
<rect x="754.0" y="472.0" width="126.0" height="86.0" rx="5" ry="5" fill="#f5edff" stroke="#7a3db8" stroke-width="1.6"/>
<text x="817.0" y="489.0" font-size="12" text-anchor="middle"><tspan x="817.0" font-weight="700">C4</tspan><tspan x="817.0" dy="15.0">TW [18, 138]</tspan><tspan x="817.0" dy="15.0">start 101.2</tspan><tspan x="817.0" dy="15.0">end 120.2</tspan><tspan x="817.0" dy="15.0">dur. 19.0</tspan></text>
<line x1="880.0" y1="515.0" x2="901.0" y2="515.0" stroke="#7a3db8" stroke-width="1.7" marker-end="url(#arrow-3)"/>
<rect x="906.0" y="472.0" width="126.0" height="86.0" rx="5" ry="5" fill="#f5edff" stroke="#7a3db8" stroke-width="1.6"/>
<text x="969.0" y="489.0" font-size="12" text-anchor="middle"><tspan x="969.0" font-weight="700">C24</tspan><tspan x="969.0" dy="15.0">TW [379, 499]</tspan><tspan x="969.0" dy="15.0">start 379.0</tspan><tspan x="969.0" dy="15.0">end 398.0</tspan><tspan x="969.0" dy="15.0">dur. 19.0</tspan></text>
<line x1="1032.0" y1="515.0" x2="1053.0" y2="515.0" stroke="#7a3db8" stroke-width="1.7" marker-end="url(#arrow-3)"/>
<rect x="1058.0" y="472.0" width="126.0" height="86.0" rx="5" ry="5" fill="#f5edff" stroke="#7a3db8" stroke-width="1.6"/>
<text x="1121.0" y="489.0" font-size="12" text-anchor="middle"><tspan x="1121.0" font-weight="700">C12</tspan><tspan x="1121.0" dy="15.0">TW [428, 548]</tspan><tspan x="1121.0" dy="15.0">start 428.0</tspan><tspan x="1121.0" dy="15.0">end 447.0</tspan><tspan x="1121.0" dy="15.0">dur. 19.0</tspan></text>
<line x1="1184.0" y1="515.0" x2="1205.0" y2="515.0" stroke="#7a3db8" stroke-width="1.7" marker-end="url(#arrow-3)"/>
<rect x="1210.0" y="483.0" width="100.0" height="64.0" rx="0" ry="0" fill="#f5edff" stroke="#7a3db8" stroke-width="1.6"/>
<text x="1260.0" y="502.0" font-size="12" text-anchor="middle"><tspan x="1260.0" font-weight="700">1000</tspan><tspan x="1260.0" dy="15.0">return</tspan><tspan x="1260.0" dy="15.0">447.8</tspan></text>
<rect x="28.0" y="590.0" width="390.0" height="86.0" rx="5" ry="5" fill="#fff1ed" stroke="#9a3412" stroke-width="1.6"/>
<text x="39.0" y="610.0" font-size="12" text-anchor="start"><tspan x="39.0" font-weight="700">Vehicle 4, base 1002</tspan><tspan x="39.0" dy="16.0">1002 -&gt; 20 -&gt; 15 -&gt; 19 -&gt; 1 -&gt; 1002</tspan><tspan x="39.0" dy="16.0">travel 33.9; service 76.0; wait 363.4</tspan><tspan x="39.0" dy="16.0">depart 0.0; finish 473.3; elapsed 473.3</tspan></text>
<line x1="418.0" y1="633.0" x2="445.0" y2="633.0" stroke="#9a3412" stroke-width="1.7" marker-end="url(#arrow-4)"/>
<rect x="450.0" y="590.0" width="126.0" height="86.0" rx="5" ry="5" fill="#fff1ed" stroke="#9a3412" stroke-width="1.6"/>
<text x="513.0" y="607.0" font-size="12" text-anchor="middle"><tspan x="513.0" font-weight="700">C20</tspan><tspan x="513.0" dy="15.0">TW [98, 218]</tspan><tspan x="513.0" dy="15.0">start 98.0</tspan><tspan x="513.0" dy="15.0">end 117.0</tspan><tspan x="513.0" dy="15.0">dur. 19.0</tspan></text>
<line x1="576.0" y1="633.0" x2="597.0" y2="633.0" stroke="#9a3412" stroke-width="1.7" marker-end="url(#arrow-4)"/>
<rect x="602.0" y="590.0" width="126.0" height="86.0" rx="5" ry="5" fill="#fff1ed" stroke="#9a3412" stroke-width="1.6"/>
<text x="665.0" y="607.0" font-size="12" text-anchor="middle"><tspan x="665.0" font-weight="700">C15</tspan><tspan x="665.0" dy="15.0">TW [349, 469]</tspan><tspan x="665.0" dy="15.0">start 349.0</tspan><tspan x="665.0" dy="15.0">end 368.0</tspan><tspan x="665.0" dy="15.0">dur. 19.0</tspan></text>
<line x1="728.0" y1="633.0" x2="749.0" y2="633.0" stroke="#9a3412" stroke-width="1.7" marker-end="url(#arrow-4)"/>
<rect x="754.0" y="590.0" width="126.0" height="86.0" rx="5" ry="5" fill="#fff1ed" stroke="#9a3412" stroke-width="1.6"/>
<text x="817.0" y="607.0" font-size="12" text-anchor="middle"><tspan x="817.0" font-weight="700">C19</tspan><tspan x="817.0" dy="15.0">TW [271, 391]</tspan><tspan x="817.0" dy="15.0">start 379.4</tspan><tspan x="817.0" dy="15.0">end 398.4</tspan><tspan x="817.0" dy="15.0">dur. 19.0</tspan></text>
<line x1="880.0" y1="633.0" x2="901.0" y2="633.0" stroke="#9a3412" stroke-width="1.7" marker-end="url(#arrow-4)"/>
<rect x="906.0" y="590.0" width="126.0" height="86.0" rx="5" ry="5" fill="#fff1ed" stroke="#9a3412" stroke-width="1.6"/>
<text x="969.0" y="607.0" font-size="12" text-anchor="middle"><tspan x="969.0" font-weight="700">C1</tspan><tspan x="969.0" dy="15.0">TW [451, 571]</tspan><tspan x="969.0" dy="15.0">start 451.0</tspan><tspan x="969.0" dy="15.0">end 470.0</tspan><tspan x="969.0" dy="15.0">dur. 19.0</tspan></text>
<line x1="1032.0" y1="633.0" x2="1053.0" y2="633.0" stroke="#9a3412" stroke-width="1.7" marker-end="url(#arrow-4)"/>
<rect x="1058.0" y="601.0" width="100.0" height="64.0" rx="0" ry="0" fill="#fff1ed" stroke="#9a3412" stroke-width="1.6"/>
<text x="1108.0" y="620.0" font-size="12" text-anchor="middle"><tspan x="1108.0" font-weight="700">1002</tspan><tspan x="1108.0" dy="15.0">return</tspan><tspan x="1108.0" dy="15.0">473.3</tspan></text>
<rect x="28.0" y="714.0" width="1638.0" height="74.0" rx="5" ry="5" fill="#f8fafc" stroke="#c9ced6" stroke-width="1.6"/>
<text x="40.0" y="736.0" font-size="12" text-anchor="start"><tspan x="40.0">Open facilities: 1000, 1001, 1002, 1003, 1008; unselected candidates: 1004, 1005, 1006, 1007, 1009.</tspan><tspan x="40.0" dy="17.0">Times use nominal service durations and earliest-start propagation from a time-zero facility departure.</tspan><tspan x="40.0" dy="17.0">TW denotes the customer time window; start and end denote nominal service start and service completion.</tspan></text>
</svg>
