<?xml version="1.0" encoding="UTF-8"?>
<svg xmlns="http://www.w3.org/2000/svg" width="1410" height="576" viewBox="0 0 1410 576" role="img" aria-labelledby="title desc">
<title id="title">Route schedule for flrp-ssr_instance_10_1</title>
<desc id="desc">Non-geographic route schedule with route totals and customer service times.</desc>
<style>
text{font-family:Arial,Helvetica,sans-serif;fill:#111827}
.title{font-size:24px;font-weight:700}
.meta{font-size:13px;fill:#374151}
.caption{font-size:12px;fill:#374151}
</style>
<rect x="0" y="0" width="100%" height="100%" fill="#ffffff"/>
<text class="title" x="28" y="34">FLRP-SSR route schedule: flrp-ssr_instance_10_1</text>
<text class="meta" x="28" y="58">cost = 3291.101; No. of customers = 10; No. of routes= 3</text>
<defs>
<marker id="arrow-0" viewBox="0 0 10 10" refX="8.5" refY="5" markerWidth="6" markerHeight="6" orient="auto">
<path d="M 0 0 L 10 5 L 0 10 z" fill="#174ea6"/>
</marker>
<marker id="arrow-1" viewBox="0 0 10 10" refX="8.5" refY="5" markerWidth="6" markerHeight="6" orient="auto">
<path d="M 0 0 L 10 5 L 0 10 z" fill="#c65f00"/>
</marker>
<marker id="arrow-2" viewBox="0 0 10 10" refX="8.5" refY="5" markerWidth="6" markerHeight="6" orient="auto">
<path d="M 0 0 L 10 5 L 0 10 z" fill="#0b7d25"/>
</marker>
</defs>
<rect x="28.0" y="106.0" width="390.0" height="86.0" rx="5" ry="5" fill="#edf4ff" stroke="#174ea6" stroke-width="1.6"/>
<text x="39.0" y="126.0" font-size="12" text-anchor="start"><tspan x="39.0" font-weight="700">Vehicle 0, base 1000</tspan><tspan x="39.0" dy="16.0">1000 -&gt; 10 -&gt; 6 -&gt; 3 -&gt; 1 -&gt; 2 -&gt; 1000</tspan><tspan x="39.0" dy="16.0">travel 178.1; service 70.0; wait 154.5</tspan><tspan x="39.0" dy="16.0">depart 0.0; finish 402.6; elapsed 402.6</tspan></text>
<line x1="418.0" y1="149.0" x2="445.0" y2="149.0" stroke="#174ea6" stroke-width="1.7" marker-end="url(#arrow-0)"/>
<rect x="450.0" y="106.0" width="126.0" height="86.0" rx="5" ry="5" fill="#edf4ff" stroke="#174ea6" stroke-width="1.6"/>
<text x="513.0" y="123.0" font-size="12" text-anchor="middle"><tspan x="513.0" font-weight="700">C10</tspan><tspan x="513.0" dy="15.0">TW [148, 268]</tspan><tspan x="513.0" dy="15.0">start 148.0</tspan><tspan x="513.0" dy="15.0">end 162.0</tspan><tspan x="513.0" dy="15.0">dur. 14.0</tspan></text>
<line x1="576.0" y1="149.0" x2="597.0" y2="149.0" stroke="#174ea6" stroke-width="1.7" marker-end="url(#arrow-0)"/>
<rect x="602.0" y="106.0" width="126.0" height="86.0" rx="5" ry="5" fill="#edf4ff" stroke="#174ea6" stroke-width="1.6"/>
<text x="665.0" y="123.0" font-size="12" text-anchor="middle"><tspan x="665.0" font-weight="700">C6</tspan><tspan x="665.0" dy="15.0">TW [184, 304]</tspan><tspan x="665.0" dy="15.0">start 212.9</tspan><tspan x="665.0" dy="15.0">end 226.9</tspan><tspan x="665.0" dy="15.0">dur. 14.0</tspan></text>
<line x1="728.0" y1="149.0" x2="749.0" y2="149.0" stroke="#174ea6" stroke-width="1.7" marker-end="url(#arrow-0)"/>
<rect x="754.0" y="106.0" width="126.0" height="86.0" rx="5" ry="5" fill="#edf4ff" stroke="#174ea6" stroke-width="1.6"/>
<text x="817.0" y="123.0" font-size="12" text-anchor="middle"><tspan x="817.0" font-weight="700">C3</tspan><tspan x="817.0" dy="15.0">TW [247, 367]</tspan><tspan x="817.0" dy="15.0">start 247.0</tspan><tspan x="817.0" dy="15.0">end 261.0</tspan><tspan x="817.0" dy="15.0">dur. 14.0</tspan></text>
<line x1="880.0" y1="149.0" x2="901.0" y2="149.0" stroke="#174ea6" stroke-width="1.7" marker-end="url(#arrow-0)"/>
<rect x="906.0" y="106.0" width="126.0" height="86.0" rx="5" ry="5" fill="#edf4ff" stroke="#174ea6" stroke-width="1.6"/>
<text x="969.0" y="123.0" font-size="12" text-anchor="middle"><tspan x="969.0" font-weight="700">C1</tspan><tspan x="969.0" dy="15.0">TW [345, 465]</tspan><tspan x="969.0" dy="15.0">start 345.0</tspan><tspan x="969.0" dy="15.0">end 359.0</tspan><tspan x="969.0" dy="15.0">dur. 14.0</tspan></text>
<line x1="1032.0" y1="149.0" x2="1053.0" y2="149.0" stroke="#174ea6" stroke-width="1.7" marker-end="url(#arrow-0)"/>
<rect x="1058.0" y="106.0" width="126.0" height="86.0" rx="5" ry="5" fill="#edf4ff" stroke="#174ea6" stroke-width="1.6"/>
<text x="1121.0" y="123.0" font-size="12" text-anchor="middle"><tspan x="1121.0" font-weight="700">C2</tspan><tspan x="1121.0" dy="15.0">TW [268, 388]</tspan><tspan x="1121.0" dy="15.0">start 382.1</tspan><tspan x="1121.0" dy="15.0">end 396.1</tspan><tspan x="1121.0" dy="15.0">dur. 14.0</tspan></text>
<line x1="1184.0" y1="149.0" x2="1205.0" y2="149.0" stroke="#174ea6" stroke-width="1.7" marker-end="url(#arrow-0)"/>
<rect x="1210.0" y="117.0" width="100.0" height="64.0" rx="0" ry="0" fill="#edf4ff" stroke="#174ea6" stroke-width="1.6"/>
<text x="1260.0" y="136.0" font-size="12" text-anchor="middle"><tspan x="1260.0" font-weight="700">1000</tspan><tspan x="1260.0" dy="15.0">return</tspan><tspan x="1260.0" dy="15.0">402.6</tspan></text>
<rect x="28.0" y="224.0" width="390.0" height="86.0" rx="5" ry="5" fill="#fff3e5" stroke="#c65f00" stroke-width="1.6"/>
<text x="39.0" y="244.0" font-size="12" text-anchor="start"><tspan x="39.0" font-weight="700">Vehicle 1, base 1002</tspan><tspan x="39.0" dy="16.0">1002 -&gt; 8 -&gt; 1002</tspan><tspan x="39.0" dy="16.0">travel 13.7; service 14.0; wait 39.2</tspan><tspan x="39.0" dy="16.0">depart 0.0; finish 66.8; elapsed 66.8</tspan></text>
<line x1="418.0" y1="267.0" x2="445.0" y2="267.0" stroke="#c65f00" stroke-width="1.7" marker-end="url(#arrow-1)"/>
<rect x="450.0" y="224.0" width="126.0" height="86.0" rx="5" ry="5" fill="#fff3e5" stroke="#c65f00" stroke-width="1.6"/>
<text x="513.0" y="241.0" font-size="12" text-anchor="middle"><tspan x="513.0" font-weight="700">C8</tspan><tspan x="513.0" dy="15.0">TW [46, 166]</tspan><tspan x="513.0" dy="15.0">start 46.0</tspan><tspan x="513.0" dy="15.0">end 60.0</tspan><tspan x="513.0" dy="15.0">dur. 14.0</tspan></text>
<line x1="576.0" y1="267.0" x2="597.0" y2="267.0" stroke="#c65f00" stroke-width="1.7" marker-end="url(#arrow-1)"/>
<rect x="602.0" y="235.0" width="100.0" height="64.0" rx="0" ry="0" fill="#fff3e5" stroke="#c65f00" stroke-width="1.6"/>
<text x="652.0" y="254.0" font-size="12" text-anchor="middle"><tspan x="652.0" font-weight="700">1002</tspan><tspan x="652.0" dy="15.0">return</tspan><tspan x="652.0" dy="15.0">66.8</tspan></text>
<rect x="28.0" y="342.0" width="390.0" height="86.0" rx="5" ry="5" fill="#ecf9ee" stroke="#0b7d25" stroke-width="1.6"/>
<text x="39.0" y="362.0" font-size="12" text-anchor="start"><tspan x="39.0" font-weight="700">Vehicle 2, base 1004</tspan><tspan x="39.0" dy="16.0">1004 -&gt; 5 -&gt; 9 -&gt; 4 -&gt; 7 -&gt; 1004</tspan><tspan x="39.0" dy="16.0">travel 99.3; service 56.0; wait 304.7</tspan><tspan x="39.0" dy="16.0">depart 0.0; finish 460.0; elapsed 460.0</tspan></text>
<line x1="418.0" y1="385.0" x2="445.0" y2="385.0" stroke="#0b7d25" stroke-width="1.7" marker-end="url(#arrow-2)"/>
<rect x="450.0" y="342.0" width="126.0" height="86.0" rx="5" ry="5" fill="#ecf9ee" stroke="#0b7d25" stroke-width="1.6"/>
<text x="513.0" y="359.0" font-size="12" text-anchor="middle"><tspan x="513.0" font-weight="700">C5</tspan><tspan x="513.0" dy="15.0">TW [254, 374]</tspan><tspan x="513.0" dy="15.0">start 254.0</tspan><tspan x="513.0" dy="15.0">end 268.0</tspan><tspan x="513.0" dy="15.0">dur. 14.0</tspan></text>
<line x1="576.0" y1="385.0" x2="597.0" y2="385.0" stroke="#0b7d25" stroke-width="1.7" marker-end="url(#arrow-2)"/>
<rect x="602.0" y="342.0" width="126.0" height="86.0" rx="5" ry="5" fill="#ecf9ee" stroke="#0b7d25" stroke-width="1.6"/>
<text x="665.0" y="359.0" font-size="12" text-anchor="middle"><tspan x="665.0" font-weight="700">C9</tspan><tspan x="665.0" dy="15.0">TW [298, 418]</tspan><tspan x="665.0" dy="15.0">start 298.0</tspan><tspan x="665.0" dy="15.0">end 312.0</tspan><tspan x="665.0" dy="15.0">dur. 14.0</tspan></text>
<line x1="728.0" y1="385.0" x2="749.0" y2="385.0" stroke="#0b7d25" stroke-width="1.7" marker-end="url(#arrow-2)"/>
<rect x="754.0" y="342.0" width="126.0" height="86.0" rx="5" ry="5" fill="#ecf9ee" stroke="#0b7d25" stroke-width="1.6"/>
<text x="817.0" y="359.0" font-size="12" text-anchor="middle"><tspan x="817.0" font-weight="700">C4</tspan><tspan x="817.0" dy="15.0">TW [393, 513]</tspan><tspan x="817.0" dy="15.0">start 393.0</tspan><tspan x="817.0" dy="15.0">end 407.0</tspan><tspan x="817.0" dy="15.0">dur. 14.0</tspan></text>
<line x1="880.0" y1="385.0" x2="901.0" y2="385.0" stroke="#0b7d25" stroke-width="1.7" marker-end="url(#arrow-2)"/>
<rect x="906.0" y="342.0" width="126.0" height="86.0" rx="5" ry="5" fill="#ecf9ee" stroke="#0b7d25" stroke-width="1.6"/>
<text x="969.0" y="359.0" font-size="12" text-anchor="middle"><tspan x="969.0" font-weight="700">C7</tspan><tspan x="969.0" dy="15.0">TW [434, 554]</tspan><tspan x="969.0" dy="15.0">start 434.0</tspan><tspan x="969.0" dy="15.0">end 448.0</tspan><tspan x="969.0" dy="15.0">dur. 14.0</tspan></text>
<line x1="1032.0" y1="385.0" x2="1053.0" y2="385.0" stroke="#0b7d25" stroke-width="1.7" marker-end="url(#arrow-2)"/>
<rect x="1058.0" y="353.0" width="100.0" height="64.0" rx="0" ry="0" fill="#ecf9ee" stroke="#0b7d25" stroke-width="1.6"/>
<text x="1108.0" y="372.0" font-size="12" text-anchor="middle"><tspan x="1108.0" font-weight="700">1004</tspan><tspan x="1108.0" dy="15.0">return</tspan><tspan x="1108.0" dy="15.0">460.0</tspan></text>
<rect x="28.0" y="466.0" width="1334.0" height="74.0" rx="5" ry="5" fill="#f8fafc" stroke="#c9ced6" stroke-width="1.6"/>
<text x="40.0" y="488.0" font-size="12" text-anchor="start"><tspan x="40.0">Open facilities: 1000, 1002, 1004; unselected candidates: 1001, 1003, 1005.</tspan><tspan x="40.0" dy="17.0">Times use nominal service durations and earliest-start propagation from a time-zero facility departure.</tspan><tspan x="40.0" dy="17.0">TW denotes the customer time window; start and end denote nominal service start and service completion.</tspan></text>
</svg>
