<?xml version="1.0" encoding="UTF-8"?>
<svg xmlns="http://www.w3.org/2000/svg" width="2018" height="848" viewBox="0 0 2018 848" role="img" aria-labelledby="title desc">
<title id="title">Route schedule for flrp-ssr_instance_25_4</title>
<desc id="desc">Non-geographic route schedule with route totals and customer service times.</desc>
<style>
text{font-family:Arial,Helvetica,sans-serif;fill:#111827}
.title{font-size:24px;font-weight:700}
.meta{font-size:13px;fill:#374151}
.caption{font-size:12px;fill:#374151}
</style>
<rect x="0" y="0" width="100%" height="100%" fill="#ffffff"/>
<text class="title" x="28" y="34">FLRP-SSR route schedule: flrp-ssr_instance_25_4</text>
<text class="meta" x="28" y="58">cost = 5418.886; No. of customers = 25; No. of routes= 5</text>
<defs>
<marker id="arrow-0" viewBox="0 0 10 10" refX="8.5" refY="5" markerWidth="6" markerHeight="6" orient="auto">
<path d="M 0 0 L 10 5 L 0 10 z" fill="#174ea6"/>
</marker>
<marker id="arrow-1" viewBox="0 0 10 10" refX="8.5" refY="5" markerWidth="6" markerHeight="6" orient="auto">
<path d="M 0 0 L 10 5 L 0 10 z" fill="#c65f00"/>
</marker>
<marker id="arrow-2" viewBox="0 0 10 10" refX="8.5" refY="5" markerWidth="6" markerHeight="6" orient="auto">
<path d="M 0 0 L 10 5 L 0 10 z" fill="#0b7d25"/>
</marker>
<marker id="arrow-3" viewBox="0 0 10 10" refX="8.5" refY="5" markerWidth="6" markerHeight="6" orient="auto">
<path d="M 0 0 L 10 5 L 0 10 z" fill="#7a3db8"/>
</marker>
<marker id="arrow-4" viewBox="0 0 10 10" refX="8.5" refY="5" markerWidth="6" markerHeight="6" orient="auto">
<path d="M 0 0 L 10 5 L 0 10 z" fill="#9a3412"/>
</marker>
</defs>
<rect x="28.0" y="106.0" width="390.0" height="86.0" rx="5" ry="5" fill="#edf4ff" stroke="#174ea6" stroke-width="1.6"/>
<text x="39.0" y="126.0" font-size="12" text-anchor="start"><tspan x="39.0" font-weight="700">Vehicle 0, base 1004</tspan><tspan x="39.0" dy="16.0">1004 -&gt; 13 -&gt; 17 -&gt; 1004</tspan><tspan x="39.0" dy="16.0">travel 33.7; service 34.0; wait 427.6</tspan><tspan x="39.0" dy="16.0">depart 0.0; finish 495.3; elapsed 495.3</tspan></text>
<line x1="418.0" y1="149.0" x2="445.0" y2="149.0" stroke="#174ea6" stroke-width="1.7" marker-end="url(#arrow-0)"/>
<rect x="450.0" y="106.0" width="126.0" height="86.0" rx="5" ry="5" fill="#edf4ff" stroke="#174ea6" stroke-width="1.6"/>
<text x="513.0" y="123.0" font-size="12" text-anchor="middle"><tspan x="513.0" font-weight="700">C13</tspan><tspan x="513.0" dy="15.0">TW [32, 152]</tspan><tspan x="513.0" dy="15.0">start 32.0</tspan><tspan x="513.0" dy="15.0">end 49.0</tspan><tspan x="513.0" dy="15.0">dur. 17.0</tspan></text>
<line x1="576.0" y1="149.0" x2="597.0" y2="149.0" stroke="#174ea6" stroke-width="1.7" marker-end="url(#arrow-0)"/>
<rect x="602.0" y="106.0" width="126.0" height="86.0" rx="5" ry="5" fill="#edf4ff" stroke="#174ea6" stroke-width="1.6"/>
<text x="665.0" y="123.0" font-size="12" text-anchor="middle"><tspan x="665.0" font-weight="700">C17</tspan><tspan x="665.0" dy="15.0">TW [469, 589]</tspan><tspan x="665.0" dy="15.0">start 469.0</tspan><tspan x="665.0" dy="15.0">end 486.0</tspan><tspan x="665.0" dy="15.0">dur. 17.0</tspan></text>
<line x1="728.0" y1="149.0" x2="749.0" y2="149.0" stroke="#174ea6" stroke-width="1.7" marker-end="url(#arrow-0)"/>
<rect x="754.0" y="117.0" width="100.0" height="64.0" rx="0" ry="0" fill="#edf4ff" stroke="#174ea6" stroke-width="1.6"/>
<text x="804.0" y="136.0" font-size="12" text-anchor="middle"><tspan x="804.0" font-weight="700">1004</tspan><tspan x="804.0" dy="15.0">return</tspan><tspan x="804.0" dy="15.0">495.3</tspan></text>
<rect x="28.0" y="224.0" width="390.0" height="98.0" rx="5" ry="5" fill="#fff3e5" stroke="#c65f00" stroke-width="1.6"/>
<text x="39.0" y="244.0" font-size="12" text-anchor="start"><tspan x="39.0" font-weight="700">Vehicle 1, base 1001</tspan><tspan x="39.0" dy="16.0">1001 -&gt; 15 -&gt; 16 -&gt; 5 -&gt; 21 -&gt; 22 -&gt; 8 -&gt; 18</tspan><tspan x="39.0" dy="16.0">-&gt; 10 -&gt; 9 -&gt; 1001</tspan><tspan x="39.0" dy="16.0">travel 139.2; service 153.0; wait 295.9</tspan><tspan x="39.0" dy="16.0">depart 0.0; finish 588.1; elapsed 588.1</tspan></text>
<line x1="418.0" y1="273.0" x2="445.0" y2="273.0" stroke="#c65f00" stroke-width="1.7" marker-end="url(#arrow-1)"/>
<rect x="450.0" y="230.0" width="126.0" height="86.0" rx="5" ry="5" fill="#fff3e5" stroke="#c65f00" stroke-width="1.6"/>
<text x="513.0" y="247.0" font-size="12" text-anchor="middle"><tspan x="513.0" font-weight="700">C15</tspan><tspan x="513.0" dy="15.0">TW [2, 122]</tspan><tspan x="513.0" dy="15.0">start 15.9</tspan><tspan x="513.0" dy="15.0">end 32.9</tspan><tspan x="513.0" dy="15.0">dur. 17.0</tspan></text>
<line x1="576.0" y1="273.0" x2="597.0" y2="273.0" stroke="#c65f00" stroke-width="1.7" marker-end="url(#arrow-1)"/>
<rect x="602.0" y="230.0" width="126.0" height="86.0" rx="5" ry="5" fill="#fff3e5" stroke="#c65f00" stroke-width="1.6"/>
<text x="665.0" y="247.0" font-size="12" text-anchor="middle"><tspan x="665.0" font-weight="700">C16</tspan><tspan x="665.0" dy="15.0">TW [132, 252]</tspan><tspan x="665.0" dy="15.0">start 132.0</tspan><tspan x="665.0" dy="15.0">end 149.0</tspan><tspan x="665.0" dy="15.0">dur. 17.0</tspan></text>
<line x1="728.0" y1="273.0" x2="749.0" y2="273.0" stroke="#c65f00" stroke-width="1.7" marker-end="url(#arrow-1)"/>
<rect x="754.0" y="230.0" width="126.0" height="86.0" rx="5" ry="5" fill="#fff3e5" stroke="#c65f00" stroke-width="1.6"/>
<text x="817.0" y="247.0" font-size="12" text-anchor="middle"><tspan x="817.0" font-weight="700">C5</tspan><tspan x="817.0" dy="15.0">TW [327, 447]</tspan><tspan x="817.0" dy="15.0">start 327.0</tspan><tspan x="817.0" dy="15.0">end 344.0</tspan><tspan x="817.0" dy="15.0">dur. 17.0</tspan></text>
<line x1="880.0" y1="273.0" x2="901.0" y2="273.0" stroke="#c65f00" stroke-width="1.7" marker-end="url(#arrow-1)"/>
<rect x="906.0" y="230.0" width="126.0" height="86.0" rx="5" ry="5" fill="#fff3e5" stroke="#c65f00" stroke-width="1.6"/>
<text x="969.0" y="247.0" font-size="12" text-anchor="middle"><tspan x="969.0" font-weight="700">C21</tspan><tspan x="969.0" dy="15.0">TW [395, 515]</tspan><tspan x="969.0" dy="15.0">start 395.0</tspan><tspan x="969.0" dy="15.0">end 412.0</tspan><tspan x="969.0" dy="15.0">dur. 17.0</tspan></text>
<line x1="1032.0" y1="273.0" x2="1053.0" y2="273.0" stroke="#c65f00" stroke-width="1.7" marker-end="url(#arrow-1)"/>
<rect x="1058.0" y="230.0" width="126.0" height="86.0" rx="5" ry="5" fill="#fff3e5" stroke="#c65f00" stroke-width="1.6"/>
<text x="1121.0" y="247.0" font-size="12" text-anchor="middle"><tspan x="1121.0" font-weight="700">C22</tspan><tspan x="1121.0" dy="15.0">TW [329, 449]</tspan><tspan x="1121.0" dy="15.0">start 446.1</tspan><tspan x="1121.0" dy="15.0">end 463.1</tspan><tspan x="1121.0" dy="15.0">dur. 17.0</tspan></text>
<line x1="1184.0" y1="273.0" x2="1205.0" y2="273.0" stroke="#c65f00" stroke-width="1.7" marker-end="url(#arrow-1)"/>
<rect x="1210.0" y="230.0" width="126.0" height="86.0" rx="5" ry="5" fill="#fff3e5" stroke="#c65f00" stroke-width="1.6"/>
<text x="1273.0" y="247.0" font-size="12" text-anchor="middle"><tspan x="1273.0" font-weight="700">C8</tspan><tspan x="1273.0" dy="15.0">TW [406, 526]</tspan><tspan x="1273.0" dy="15.0">start 476.7</tspan><tspan x="1273.0" dy="15.0">end 493.7</tspan><tspan x="1273.0" dy="15.0">dur. 17.0</tspan></text>
<line x1="1336.0" y1="273.0" x2="1357.0" y2="273.0" stroke="#c65f00" stroke-width="1.7" marker-end="url(#arrow-1)"/>
<rect x="1362.0" y="230.0" width="126.0" height="86.0" rx="5" ry="5" fill="#fff3e5" stroke="#c65f00" stroke-width="1.6"/>
<text x="1425.0" y="247.0" font-size="12" text-anchor="middle"><tspan x="1425.0" font-weight="700">C18</tspan><tspan x="1425.0" dy="15.0">TW [396, 516]</tspan><tspan x="1425.0" dy="15.0">start 506.7</tspan><tspan x="1425.0" dy="15.0">end 523.7</tspan><tspan x="1425.0" dy="15.0">dur. 17.0</tspan></text>
<line x1="1488.0" y1="273.0" x2="1509.0" y2="273.0" stroke="#c65f00" stroke-width="1.7" marker-end="url(#arrow-1)"/>
<rect x="1514.0" y="230.0" width="126.0" height="86.0" rx="5" ry="5" fill="#fff3e5" stroke="#c65f00" stroke-width="1.6"/>
<text x="1577.0" y="247.0" font-size="12" text-anchor="middle"><tspan x="1577.0" font-weight="700">C10</tspan><tspan x="1577.0" dy="15.0">TW [427, 547]</tspan><tspan x="1577.0" dy="15.0">start 530.7</tspan><tspan x="1577.0" dy="15.0">end 547.7</tspan><tspan x="1577.0" dy="15.0">dur. 17.0</tspan></text>
<line x1="1640.0" y1="273.0" x2="1661.0" y2="273.0" stroke="#c65f00" stroke-width="1.7" marker-end="url(#arrow-1)"/>
<rect x="1666.0" y="230.0" width="126.0" height="86.0" rx="5" ry="5" fill="#fff3e5" stroke="#c65f00" stroke-width="1.6"/>
<text x="1729.0" y="247.0" font-size="12" text-anchor="middle"><tspan x="1729.0" font-weight="700">C9</tspan><tspan x="1729.0" dy="15.0">TW [462, 582]</tspan><tspan x="1729.0" dy="15.0">start 563.0</tspan><tspan x="1729.0" dy="15.0">end 580.0</tspan><tspan x="1729.0" dy="15.0">dur. 17.0</tspan></text>
<line x1="1792.0" y1="273.0" x2="1813.0" y2="273.0" stroke="#c65f00" stroke-width="1.7" marker-end="url(#arrow-1)"/>
<rect x="1818.0" y="241.0" width="100.0" height="64.0" rx="0" ry="0" fill="#fff3e5" stroke="#c65f00" stroke-width="1.6"/>
<text x="1868.0" y="260.0" font-size="12" text-anchor="middle"><tspan x="1868.0" font-weight="700">1001</tspan><tspan x="1868.0" dy="15.0">return</tspan><tspan x="1868.0" dy="15.0">588.1</tspan></text>
<rect x="28.0" y="354.0" width="390.0" height="98.0" rx="5" ry="5" fill="#ecf9ee" stroke="#0b7d25" stroke-width="1.6"/>
<text x="39.0" y="374.0" font-size="12" text-anchor="start"><tspan x="39.0" font-weight="700">Vehicle 2, base 1003</tspan><tspan x="39.0" dy="16.0">1003 -&gt; 6 -&gt; 7 -&gt; 24 -&gt; 14 -&gt; 19 -&gt; 2 -&gt; 4 -&gt;</tspan><tspan x="39.0" dy="16.0">1003</tspan><tspan x="39.0" dy="16.0">travel 89.0; service 119.0; wait 266.0</tspan><tspan x="39.0" dy="16.0">depart 0.0; finish 474.1; elapsed 474.1</tspan></text>
<line x1="418.0" y1="403.0" x2="445.0" y2="403.0" stroke="#0b7d25" stroke-width="1.7" marker-end="url(#arrow-2)"/>
<rect x="450.0" y="360.0" width="126.0" height="86.0" rx="5" ry="5" fill="#ecf9ee" stroke="#0b7d25" stroke-width="1.6"/>
<text x="513.0" y="377.0" font-size="12" text-anchor="middle"><tspan x="513.0" font-weight="700">C6</tspan><tspan x="513.0" dy="15.0">TW [105, 225]</tspan><tspan x="513.0" dy="15.0">start 105.0</tspan><tspan x="513.0" dy="15.0">end 122.0</tspan><tspan x="513.0" dy="15.0">dur. 17.0</tspan></text>
<line x1="576.0" y1="403.0" x2="597.0" y2="403.0" stroke="#0b7d25" stroke-width="1.7" marker-end="url(#arrow-2)"/>
<rect x="602.0" y="360.0" width="126.0" height="86.0" rx="5" ry="5" fill="#ecf9ee" stroke="#0b7d25" stroke-width="1.6"/>
<text x="665.0" y="377.0" font-size="12" text-anchor="middle"><tspan x="665.0" font-weight="700">C7</tspan><tspan x="665.0" dy="15.0">TW [151, 271]</tspan><tspan x="665.0" dy="15.0">start 151.0</tspan><tspan x="665.0" dy="15.0">end 168.0</tspan><tspan x="665.0" dy="15.0">dur. 17.0</tspan></text>
<line x1="728.0" y1="403.0" x2="749.0" y2="403.0" stroke="#0b7d25" stroke-width="1.7" marker-end="url(#arrow-2)"/>
<rect x="754.0" y="360.0" width="126.0" height="86.0" rx="5" ry="5" fill="#ecf9ee" stroke="#0b7d25" stroke-width="1.6"/>
<text x="817.0" y="377.0" font-size="12" text-anchor="middle"><tspan x="817.0" font-weight="700">C24</tspan><tspan x="817.0" dy="15.0">TW [283, 403]</tspan><tspan x="817.0" dy="15.0">start 283.0</tspan><tspan x="817.0" dy="15.0">end 300.0</tspan><tspan x="817.0" dy="15.0">dur. 17.0</tspan></text>
<line x1="880.0" y1="403.0" x2="901.0" y2="403.0" stroke="#0b7d25" stroke-width="1.7" marker-end="url(#arrow-2)"/>
<rect x="906.0" y="360.0" width="126.0" height="86.0" rx="5" ry="5" fill="#ecf9ee" stroke="#0b7d25" stroke-width="1.6"/>
<text x="969.0" y="377.0" font-size="12" text-anchor="middle"><tspan x="969.0" font-weight="700">C14</tspan><tspan x="969.0" dy="15.0">TW [200, 320]</tspan><tspan x="969.0" dy="15.0">start 305.0</tspan><tspan x="969.0" dy="15.0">end 322.0</tspan><tspan x="969.0" dy="15.0">dur. 17.0</tspan></text>
<line x1="1032.0" y1="403.0" x2="1053.0" y2="403.0" stroke="#0b7d25" stroke-width="1.7" marker-end="url(#arrow-2)"/>
<rect x="1058.0" y="360.0" width="126.0" height="86.0" rx="5" ry="5" fill="#ecf9ee" stroke="#0b7d25" stroke-width="1.6"/>
<text x="1121.0" y="377.0" font-size="12" text-anchor="middle"><tspan x="1121.0" font-weight="700">C19</tspan><tspan x="1121.0" dy="15.0">TW [262, 382]</tspan><tspan x="1121.0" dy="15.0">start 337.0</tspan><tspan x="1121.0" dy="15.0">end 354.0</tspan><tspan x="1121.0" dy="15.0">dur. 17.0</tspan></text>
<line x1="1184.0" y1="403.0" x2="1205.0" y2="403.0" stroke="#0b7d25" stroke-width="1.7" marker-end="url(#arrow-2)"/>
<rect x="1210.0" y="360.0" width="126.0" height="86.0" rx="5" ry="5" fill="#ecf9ee" stroke="#0b7d25" stroke-width="1.6"/>
<text x="1273.0" y="377.0" font-size="12" text-anchor="middle"><tspan x="1273.0" font-weight="700">C2</tspan><tspan x="1273.0" dy="15.0">TW [412, 532]</tspan><tspan x="1273.0" dy="15.0">start 412.0</tspan><tspan x="1273.0" dy="15.0">end 429.0</tspan><tspan x="1273.0" dy="15.0">dur. 17.0</tspan></text>
<line x1="1336.0" y1="403.0" x2="1357.0" y2="403.0" stroke="#0b7d25" stroke-width="1.7" marker-end="url(#arrow-2)"/>
<rect x="1362.0" y="360.0" width="126.0" height="86.0" rx="5" ry="5" fill="#ecf9ee" stroke="#0b7d25" stroke-width="1.6"/>
<text x="1425.0" y="377.0" font-size="12" text-anchor="middle"><tspan x="1425.0" font-weight="700">C4</tspan><tspan x="1425.0" dy="15.0">TW [358, 478]</tspan><tspan x="1425.0" dy="15.0">start 449.6</tspan><tspan x="1425.0" dy="15.0">end 466.6</tspan><tspan x="1425.0" dy="15.0">dur. 17.0</tspan></text>
<line x1="1488.0" y1="403.0" x2="1509.0" y2="403.0" stroke="#0b7d25" stroke-width="1.7" marker-end="url(#arrow-2)"/>
<rect x="1514.0" y="371.0" width="100.0" height="64.0" rx="0" ry="0" fill="#ecf9ee" stroke="#0b7d25" stroke-width="1.6"/>
<text x="1564.0" y="390.0" font-size="12" text-anchor="middle"><tspan x="1564.0" font-weight="700">1003</tspan><tspan x="1564.0" dy="15.0">return</tspan><tspan x="1564.0" dy="15.0">474.1</tspan></text>
<rect x="28.0" y="484.0" width="390.0" height="98.0" rx="5" ry="5" fill="#f5edff" stroke="#7a3db8" stroke-width="1.6"/>
<text x="39.0" y="504.0" font-size="12" text-anchor="start"><tspan x="39.0" font-weight="700">Vehicle 3, base 1007</tspan><tspan x="39.0" dy="16.0">1007 -&gt; 23 -&gt; 20 -&gt; 12 -&gt; 25 -&gt; 3 -&gt; 11 -&gt;</tspan><tspan x="39.0" dy="16.0">1007</tspan><tspan x="39.0" dy="16.0">travel 154.5; service 102.0; wait 226.7</tspan><tspan x="39.0" dy="16.0">depart 0.0; finish 483.2; elapsed 483.2</tspan></text>
<line x1="418.0" y1="533.0" x2="445.0" y2="533.0" stroke="#7a3db8" stroke-width="1.7" marker-end="url(#arrow-3)"/>
<rect x="450.0" y="490.0" width="126.0" height="86.0" rx="5" ry="5" fill="#f5edff" stroke="#7a3db8" stroke-width="1.6"/>
<text x="513.0" y="507.0" font-size="12" text-anchor="middle"><tspan x="513.0" font-weight="700">C23</tspan><tspan x="513.0" dy="15.0">TW [22, 142]</tspan><tspan x="513.0" dy="15.0">start 22.0</tspan><tspan x="513.0" dy="15.0">end 39.0</tspan><tspan x="513.0" dy="15.0">dur. 17.0</tspan></text>
<line x1="576.0" y1="533.0" x2="597.0" y2="533.0" stroke="#7a3db8" stroke-width="1.7" marker-end="url(#arrow-3)"/>
<rect x="602.0" y="490.0" width="126.0" height="86.0" rx="5" ry="5" fill="#f5edff" stroke="#7a3db8" stroke-width="1.6"/>
<text x="665.0" y="507.0" font-size="12" text-anchor="middle"><tspan x="665.0" font-weight="700">C20</tspan><tspan x="665.0" dy="15.0">TW [108, 228]</tspan><tspan x="665.0" dy="15.0">start 108.0</tspan><tspan x="665.0" dy="15.0">end 125.0</tspan><tspan x="665.0" dy="15.0">dur. 17.0</tspan></text>
<line x1="728.0" y1="533.0" x2="749.0" y2="533.0" stroke="#7a3db8" stroke-width="1.7" marker-end="url(#arrow-3)"/>
<rect x="754.0" y="490.0" width="126.0" height="86.0" rx="5" ry="5" fill="#f5edff" stroke="#7a3db8" stroke-width="1.6"/>
<text x="817.0" y="507.0" font-size="12" text-anchor="middle"><tspan x="817.0" font-weight="700">C12</tspan><tspan x="817.0" dy="15.0">TW [308, 428]</tspan><tspan x="817.0" dy="15.0">start 308.0</tspan><tspan x="817.0" dy="15.0">end 325.0</tspan><tspan x="817.0" dy="15.0">dur. 17.0</tspan></text>
<line x1="880.0" y1="533.0" x2="901.0" y2="533.0" stroke="#7a3db8" stroke-width="1.7" marker-end="url(#arrow-3)"/>
<rect x="906.0" y="490.0" width="126.0" height="86.0" rx="5" ry="5" fill="#f5edff" stroke="#7a3db8" stroke-width="1.6"/>
<text x="969.0" y="507.0" font-size="12" text-anchor="middle"><tspan x="969.0" font-weight="700">C25</tspan><tspan x="969.0" dy="15.0">TW [259, 379]</tspan><tspan x="969.0" dy="15.0">start 371.9</tspan><tspan x="969.0" dy="15.0">end 388.9</tspan><tspan x="969.0" dy="15.0">dur. 17.0</tspan></text>
<line x1="1032.0" y1="533.0" x2="1053.0" y2="533.0" stroke="#7a3db8" stroke-width="1.7" marker-end="url(#arrow-3)"/>
<rect x="1058.0" y="490.0" width="126.0" height="86.0" rx="5" ry="5" fill="#f5edff" stroke="#7a3db8" stroke-width="1.6"/>
<text x="1121.0" y="507.0" font-size="12" text-anchor="middle"><tspan x="1121.0" font-weight="700">C3</tspan><tspan x="1121.0" dy="15.0">TW [423, 543]</tspan><tspan x="1121.0" dy="15.0">start 423.0</tspan><tspan x="1121.0" dy="15.0">end 440.0</tspan><tspan x="1121.0" dy="15.0">dur. 17.0</tspan></text>
<line x1="1184.0" y1="533.0" x2="1205.0" y2="533.0" stroke="#7a3db8" stroke-width="1.7" marker-end="url(#arrow-3)"/>
<rect x="1210.0" y="490.0" width="126.0" height="86.0" rx="5" ry="5" fill="#f5edff" stroke="#7a3db8" stroke-width="1.6"/>
<text x="1273.0" y="507.0" font-size="12" text-anchor="middle"><tspan x="1273.0" font-weight="700">C11</tspan><tspan x="1273.0" dy="15.0">TW [452, 572]</tspan><tspan x="1273.0" dy="15.0">start 453.6</tspan><tspan x="1273.0" dy="15.0">end 470.6</tspan><tspan x="1273.0" dy="15.0">dur. 17.0</tspan></text>
<line x1="1336.0" y1="533.0" x2="1357.0" y2="533.0" stroke="#7a3db8" stroke-width="1.7" marker-end="url(#arrow-3)"/>
<rect x="1362.0" y="501.0" width="100.0" height="64.0" rx="0" ry="0" fill="#f5edff" stroke="#7a3db8" stroke-width="1.6"/>
<text x="1412.0" y="520.0" font-size="12" text-anchor="middle"><tspan x="1412.0" font-weight="700">1007</tspan><tspan x="1412.0" dy="15.0">return</tspan><tspan x="1412.0" dy="15.0">483.2</tspan></text>
<rect x="28.0" y="614.0" width="390.0" height="86.0" rx="5" ry="5" fill="#fff1ed" stroke="#9a3412" stroke-width="1.6"/>
<text x="39.0" y="634.0" font-size="12" text-anchor="start"><tspan x="39.0" font-weight="700">Vehicle 4, base 1009</tspan><tspan x="39.0" dy="16.0">1009 -&gt; 1 -&gt; 1009</tspan><tspan x="39.0" dy="16.0">travel 2.5; service 17.0; wait 180.8</tspan><tspan x="39.0" dy="16.0">depart 0.0; finish 200.2; elapsed 200.2</tspan></text>
<line x1="418.0" y1="657.0" x2="445.0" y2="657.0" stroke="#9a3412" stroke-width="1.7" marker-end="url(#arrow-4)"/>
<rect x="450.0" y="614.0" width="126.0" height="86.0" rx="5" ry="5" fill="#fff1ed" stroke="#9a3412" stroke-width="1.6"/>
<text x="513.0" y="631.0" font-size="12" text-anchor="middle"><tspan x="513.0" font-weight="700">C1</tspan><tspan x="513.0" dy="15.0">TW [182, 302]</tspan><tspan x="513.0" dy="15.0">start 182.0</tspan><tspan x="513.0" dy="15.0">end 199.0</tspan><tspan x="513.0" dy="15.0">dur. 17.0</tspan></text>
<line x1="576.0" y1="657.0" x2="597.0" y2="657.0" stroke="#9a3412" stroke-width="1.7" marker-end="url(#arrow-4)"/>
<rect x="602.0" y="625.0" width="100.0" height="64.0" rx="0" ry="0" fill="#fff1ed" stroke="#9a3412" stroke-width="1.6"/>
<text x="652.0" y="644.0" font-size="12" text-anchor="middle"><tspan x="652.0" font-weight="700">1009</tspan><tspan x="652.0" dy="15.0">return</tspan><tspan x="652.0" dy="15.0">200.2</tspan></text>
<rect x="28.0" y="738.0" width="1942.0" height="74.0" rx="5" ry="5" fill="#f8fafc" stroke="#c9ced6" stroke-width="1.6"/>
<text x="40.0" y="760.0" font-size="12" text-anchor="start"><tspan x="40.0">Open facilities: 1001, 1003, 1004, 1007, 1009; unselected candidates: 1000, 1002, 1005, 1006, 1008.</tspan><tspan x="40.0" dy="17.0">Times use nominal service durations and earliest-start propagation from a time-zero facility departure.</tspan><tspan x="40.0" dy="17.0">TW denotes the customer time window; start and end denote nominal service start and service completion.</tspan></text>
</svg>
