<?xml version="1.0" encoding="UTF-8"?>
<svg xmlns="http://www.w3.org/2000/svg" width="2322" height="1438" viewBox="0 0 2322 1438" role="img" aria-labelledby="title desc">
<title id="title">Route schedule for flrp-ssr_instance_50_2</title>
<desc id="desc">Non-geographic route schedule with route totals and customer service times.</desc>
<style>
text{font-family:Arial,Helvetica,sans-serif;fill:#111827}
.title{font-size:24px;font-weight:700}
.meta{font-size:13px;fill:#374151}
.caption{font-size:12px;fill:#374151}
</style>
<rect x="0" y="0" width="100%" height="100%" fill="#ffffff"/>
<text class="title" x="28" y="34">FLRP-SSR route schedule: flrp-ssr_instance_50_2</text>
<text class="meta" x="28" y="58">cost = 10530.880; No. of customers = 50; No. of routes= 10</text>
<defs>
<marker id="arrow-0" viewBox="0 0 10 10" refX="8.5" refY="5" markerWidth="6" markerHeight="6" orient="auto">
<path d="M 0 0 L 10 5 L 0 10 z" fill="#174ea6"/>
</marker>
<marker id="arrow-1" viewBox="0 0 10 10" refX="8.5" refY="5" markerWidth="6" markerHeight="6" orient="auto">
<path d="M 0 0 L 10 5 L 0 10 z" fill="#c65f00"/>
</marker>
<marker id="arrow-2" viewBox="0 0 10 10" refX="8.5" refY="5" markerWidth="6" markerHeight="6" orient="auto">
<path d="M 0 0 L 10 5 L 0 10 z" fill="#0b7d25"/>
</marker>
<marker id="arrow-3" viewBox="0 0 10 10" refX="8.5" refY="5" markerWidth="6" markerHeight="6" orient="auto">
<path d="M 0 0 L 10 5 L 0 10 z" fill="#7a3db8"/>
</marker>
<marker id="arrow-4" viewBox="0 0 10 10" refX="8.5" refY="5" markerWidth="6" markerHeight="6" orient="auto">
<path d="M 0 0 L 10 5 L 0 10 z" fill="#9a3412"/>
</marker>
<marker id="arrow-5" viewBox="0 0 10 10" refX="8.5" refY="5" markerWidth="6" markerHeight="6" orient="auto">
<path d="M 0 0 L 10 5 L 0 10 z" fill="#006d77"/>
</marker>
<marker id="arrow-6" viewBox="0 0 10 10" refX="8.5" refY="5" markerWidth="6" markerHeight="6" orient="auto">
<path d="M 0 0 L 10 5 L 0 10 z" fill="#9d174d"/>
</marker>
<marker id="arrow-7" viewBox="0 0 10 10" refX="8.5" refY="5" markerWidth="6" markerHeight="6" orient="auto">
<path d="M 0 0 L 10 5 L 0 10 z" fill="#4d7c0f"/>
</marker>
<marker id="arrow-8" viewBox="0 0 10 10" refX="8.5" refY="5" markerWidth="6" markerHeight="6" orient="auto">
<path d="M 0 0 L 10 5 L 0 10 z" fill="#334155"/>
</marker>
<marker id="arrow-9" viewBox="0 0 10 10" refX="8.5" refY="5" markerWidth="6" markerHeight="6" orient="auto">
<path d="M 0 0 L 10 5 L 0 10 z" fill="#0e7490"/>
</marker>
</defs>
<rect x="28.0" y="106.0" width="390.0" height="98.0" rx="5" ry="5" fill="#edf4ff" stroke="#174ea6" stroke-width="1.6"/>
<text x="39.0" y="126.0" font-size="12" text-anchor="start"><tspan x="39.0" font-weight="700">Vehicle 0, base 1004</tspan><tspan x="39.0" dy="16.0">1004 -&gt; 8 -&gt; 13 -&gt; 28 -&gt; 29 -&gt; 19 -&gt; 25 -&gt;</tspan><tspan x="39.0" dy="16.0">1004</tspan><tspan x="39.0" dy="16.0">travel 56.7; service 66.0; wait 198.8</tspan><tspan x="39.0" dy="16.0">depart 0.0; finish 321.5; elapsed 321.5</tspan></text>
<line x1="418.0" y1="155.0" x2="445.0" y2="155.0" stroke="#174ea6" stroke-width="1.7" marker-end="url(#arrow-0)"/>
<rect x="450.0" y="112.0" width="126.0" height="86.0" rx="5" ry="5" fill="#edf4ff" stroke="#174ea6" stroke-width="1.6"/>
<text x="513.0" y="129.0" font-size="12" text-anchor="middle"><tspan x="513.0" font-weight="700">C8</tspan><tspan x="513.0" dy="15.0">TW [39, 159]</tspan><tspan x="513.0" dy="15.0">start 39.0</tspan><tspan x="513.0" dy="15.0">end 50.0</tspan><tspan x="513.0" dy="15.0">dur. 11.0</tspan></text>
<line x1="576.0" y1="155.0" x2="597.0" y2="155.0" stroke="#174ea6" stroke-width="1.7" marker-end="url(#arrow-0)"/>
<rect x="602.0" y="112.0" width="126.0" height="86.0" rx="5" ry="5" fill="#edf4ff" stroke="#174ea6" stroke-width="1.6"/>
<text x="665.0" y="129.0" font-size="12" text-anchor="middle"><tspan x="665.0" font-weight="700">C13</tspan><tspan x="665.0" dy="15.0">TW [154, 274]</tspan><tspan x="665.0" dy="15.0">start 154.0</tspan><tspan x="665.0" dy="15.0">end 165.0</tspan><tspan x="665.0" dy="15.0">dur. 11.0</tspan></text>
<line x1="728.0" y1="155.0" x2="749.0" y2="155.0" stroke="#174ea6" stroke-width="1.7" marker-end="url(#arrow-0)"/>
<rect x="754.0" y="112.0" width="126.0" height="86.0" rx="5" ry="5" fill="#edf4ff" stroke="#174ea6" stroke-width="1.6"/>
<text x="817.0" y="129.0" font-size="12" text-anchor="middle"><tspan x="817.0" font-weight="700">C28</tspan><tspan x="817.0" dy="15.0">TW [155, 275]</tspan><tspan x="817.0" dy="15.0">start 173.1</tspan><tspan x="817.0" dy="15.0">end 184.1</tspan><tspan x="817.0" dy="15.0">dur. 11.0</tspan></text>
<line x1="880.0" y1="155.0" x2="901.0" y2="155.0" stroke="#174ea6" stroke-width="1.7" marker-end="url(#arrow-0)"/>
<rect x="906.0" y="112.0" width="126.0" height="86.0" rx="5" ry="5" fill="#edf4ff" stroke="#174ea6" stroke-width="1.6"/>
<text x="969.0" y="129.0" font-size="12" text-anchor="middle"><tspan x="969.0" font-weight="700">C29</tspan><tspan x="969.0" dy="15.0">TW [273, 393]</tspan><tspan x="969.0" dy="15.0">start 273.0</tspan><tspan x="969.0" dy="15.0">end 284.0</tspan><tspan x="969.0" dy="15.0">dur. 11.0</tspan></text>
<line x1="1032.0" y1="155.0" x2="1053.0" y2="155.0" stroke="#174ea6" stroke-width="1.7" marker-end="url(#arrow-0)"/>
<rect x="1058.0" y="112.0" width="126.0" height="86.0" rx="5" ry="5" fill="#edf4ff" stroke="#174ea6" stroke-width="1.6"/>
<text x="1121.0" y="129.0" font-size="12" text-anchor="middle"><tspan x="1121.0" font-weight="700">C19</tspan><tspan x="1121.0" dy="15.0">TW [290, 410]</tspan><tspan x="1121.0" dy="15.0">start 290.0</tspan><tspan x="1121.0" dy="15.0">end 301.0</tspan><tspan x="1121.0" dy="15.0">dur. 11.0</tspan></text>
<line x1="1184.0" y1="155.0" x2="1205.0" y2="155.0" stroke="#174ea6" stroke-width="1.7" marker-end="url(#arrow-0)"/>
<rect x="1210.0" y="112.0" width="126.0" height="86.0" rx="5" ry="5" fill="#edf4ff" stroke="#174ea6" stroke-width="1.6"/>
<text x="1273.0" y="129.0" font-size="12" text-anchor="middle"><tspan x="1273.0" font-weight="700">C25</tspan><tspan x="1273.0" dy="15.0">TW [256, 376]</tspan><tspan x="1273.0" dy="15.0">start 309.2</tspan><tspan x="1273.0" dy="15.0">end 320.2</tspan><tspan x="1273.0" dy="15.0">dur. 11.0</tspan></text>
<line x1="1336.0" y1="155.0" x2="1357.0" y2="155.0" stroke="#174ea6" stroke-width="1.7" marker-end="url(#arrow-0)"/>
<rect x="1362.0" y="123.0" width="100.0" height="64.0" rx="0" ry="0" fill="#edf4ff" stroke="#174ea6" stroke-width="1.6"/>
<text x="1412.0" y="142.0" font-size="12" text-anchor="middle"><tspan x="1412.0" font-weight="700">1004</tspan><tspan x="1412.0" dy="15.0">return</tspan><tspan x="1412.0" dy="15.0">321.5</tspan></text>
<rect x="28.0" y="236.0" width="390.0" height="86.0" rx="5" ry="5" fill="#fff3e5" stroke="#c65f00" stroke-width="1.6"/>
<text x="39.0" y="256.0" font-size="12" text-anchor="start"><tspan x="39.0" font-weight="700">Vehicle 1, base 1006</tspan><tspan x="39.0" dy="16.0">1006 -&gt; 40 -&gt; 17 -&gt; 33 -&gt; 24 -&gt; 6 -&gt; 1006</tspan><tspan x="39.0" dy="16.0">travel 26.8; service 55.0; wait 386.0</tspan><tspan x="39.0" dy="16.0">depart 0.0; finish 467.8; elapsed 467.8</tspan></text>
<line x1="418.0" y1="279.0" x2="445.0" y2="279.0" stroke="#c65f00" stroke-width="1.7" marker-end="url(#arrow-1)"/>
<rect x="450.0" y="236.0" width="126.0" height="86.0" rx="5" ry="5" fill="#fff3e5" stroke="#c65f00" stroke-width="1.6"/>
<text x="513.0" y="253.0" font-size="12" text-anchor="middle"><tspan x="513.0" font-weight="700">C40</tspan><tspan x="513.0" dy="15.0">TW [188, 308]</tspan><tspan x="513.0" dy="15.0">start 188.0</tspan><tspan x="513.0" dy="15.0">end 199.0</tspan><tspan x="513.0" dy="15.0">dur. 11.0</tspan></text>
<line x1="576.0" y1="279.0" x2="597.0" y2="279.0" stroke="#c65f00" stroke-width="1.7" marker-end="url(#arrow-1)"/>
<rect x="602.0" y="236.0" width="126.0" height="86.0" rx="5" ry="5" fill="#fff3e5" stroke="#c65f00" stroke-width="1.6"/>
<text x="665.0" y="253.0" font-size="12" text-anchor="middle"><tspan x="665.0" font-weight="700">C17</tspan><tspan x="665.0" dy="15.0">TW [187, 307]</tspan><tspan x="665.0" dy="15.0">start 207.1</tspan><tspan x="665.0" dy="15.0">end 218.1</tspan><tspan x="665.0" dy="15.0">dur. 11.0</tspan></text>
<line x1="728.0" y1="279.0" x2="749.0" y2="279.0" stroke="#c65f00" stroke-width="1.7" marker-end="url(#arrow-1)"/>
<rect x="754.0" y="236.0" width="126.0" height="86.0" rx="5" ry="5" fill="#fff3e5" stroke="#c65f00" stroke-width="1.6"/>
<text x="817.0" y="253.0" font-size="12" text-anchor="middle"><tspan x="817.0" font-weight="700">C33</tspan><tspan x="817.0" dy="15.0">TW [367, 487]</tspan><tspan x="817.0" dy="15.0">start 367.0</tspan><tspan x="817.0" dy="15.0">end 378.0</tspan><tspan x="817.0" dy="15.0">dur. 11.0</tspan></text>
<line x1="880.0" y1="279.0" x2="901.0" y2="279.0" stroke="#c65f00" stroke-width="1.7" marker-end="url(#arrow-1)"/>
<rect x="906.0" y="236.0" width="126.0" height="86.0" rx="5" ry="5" fill="#fff3e5" stroke="#c65f00" stroke-width="1.6"/>
<text x="969.0" y="253.0" font-size="12" text-anchor="middle"><tspan x="969.0" font-weight="700">C24</tspan><tspan x="969.0" dy="15.0">TW [442, 562]</tspan><tspan x="969.0" dy="15.0">start 442.0</tspan><tspan x="969.0" dy="15.0">end 453.0</tspan><tspan x="969.0" dy="15.0">dur. 11.0</tspan></text>
<line x1="1032.0" y1="279.0" x2="1053.0" y2="279.0" stroke="#c65f00" stroke-width="1.7" marker-end="url(#arrow-1)"/>
<rect x="1058.0" y="236.0" width="126.0" height="86.0" rx="5" ry="5" fill="#fff3e5" stroke="#c65f00" stroke-width="1.6"/>
<text x="1121.0" y="253.0" font-size="12" text-anchor="middle"><tspan x="1121.0" font-weight="700">C6</tspan><tspan x="1121.0" dy="15.0">TW [390, 510]</tspan><tspan x="1121.0" dy="15.0">start 455.0</tspan><tspan x="1121.0" dy="15.0">end 466.0</tspan><tspan x="1121.0" dy="15.0">dur. 11.0</tspan></text>
<line x1="1184.0" y1="279.0" x2="1205.0" y2="279.0" stroke="#c65f00" stroke-width="1.7" marker-end="url(#arrow-1)"/>
<rect x="1210.0" y="247.0" width="100.0" height="64.0" rx="0" ry="0" fill="#fff3e5" stroke="#c65f00" stroke-width="1.6"/>
<text x="1260.0" y="266.0" font-size="12" text-anchor="middle"><tspan x="1260.0" font-weight="700">1006</tspan><tspan x="1260.0" dy="15.0">return</tspan><tspan x="1260.0" dy="15.0">467.8</tspan></text>
<rect x="28.0" y="354.0" width="390.0" height="98.0" rx="5" ry="5" fill="#ecf9ee" stroke="#0b7d25" stroke-width="1.6"/>
<text x="39.0" y="374.0" font-size="12" text-anchor="start"><tspan x="39.0" font-weight="700">Vehicle 2, base 1019</tspan><tspan x="39.0" dy="16.0">1019 -&gt; 11 -&gt; 26 -&gt; 27 -&gt; 49 -&gt; 2 -&gt; 34 -&gt; 10</tspan><tspan x="39.0" dy="16.0">-&gt; 5 -&gt; 18 -&gt; 31 -&gt; 35 -&gt; 1019</tspan><tspan x="39.0" dy="16.0">travel 155.5; service 121.0; wait 213.3</tspan><tspan x="39.0" dy="16.0">depart 0.0; finish 489.8; elapsed 489.8</tspan></text>
<line x1="418.0" y1="403.0" x2="445.0" y2="403.0" stroke="#0b7d25" stroke-width="1.7" marker-end="url(#arrow-2)"/>
<rect x="450.0" y="360.0" width="126.0" height="86.0" rx="5" ry="5" fill="#ecf9ee" stroke="#0b7d25" stroke-width="1.6"/>
<text x="513.0" y="377.0" font-size="12" text-anchor="middle"><tspan x="513.0" font-weight="700">C11</tspan><tspan x="513.0" dy="15.0">TW [14, 134]</tspan><tspan x="513.0" dy="15.0">start 14.0</tspan><tspan x="513.0" dy="15.0">end 25.0</tspan><tspan x="513.0" dy="15.0">dur. 11.0</tspan></text>
<line x1="576.0" y1="403.0" x2="597.0" y2="403.0" stroke="#0b7d25" stroke-width="1.7" marker-end="url(#arrow-2)"/>
<rect x="602.0" y="360.0" width="126.0" height="86.0" rx="5" ry="5" fill="#ecf9ee" stroke="#0b7d25" stroke-width="1.6"/>
<text x="665.0" y="377.0" font-size="12" text-anchor="middle"><tspan x="665.0" font-weight="700">C26</tspan><tspan x="665.0" dy="15.0">TW [54, 174]</tspan><tspan x="665.0" dy="15.0">start 54.0</tspan><tspan x="665.0" dy="15.0">end 65.0</tspan><tspan x="665.0" dy="15.0">dur. 11.0</tspan></text>
<line x1="728.0" y1="403.0" x2="749.0" y2="403.0" stroke="#0b7d25" stroke-width="1.7" marker-end="url(#arrow-2)"/>
<rect x="754.0" y="360.0" width="126.0" height="86.0" rx="5" ry="5" fill="#ecf9ee" stroke="#0b7d25" stroke-width="1.6"/>
<text x="817.0" y="377.0" font-size="12" text-anchor="middle"><tspan x="817.0" font-weight="700">C27</tspan><tspan x="817.0" dy="15.0">TW [202, 322]</tspan><tspan x="817.0" dy="15.0">start 202.0</tspan><tspan x="817.0" dy="15.0">end 213.0</tspan><tspan x="817.0" dy="15.0">dur. 11.0</tspan></text>
<line x1="880.0" y1="403.0" x2="901.0" y2="403.0" stroke="#0b7d25" stroke-width="1.7" marker-end="url(#arrow-2)"/>
<rect x="906.0" y="360.0" width="126.0" height="86.0" rx="5" ry="5" fill="#ecf9ee" stroke="#0b7d25" stroke-width="1.6"/>
<text x="969.0" y="377.0" font-size="12" text-anchor="middle"><tspan x="969.0" font-weight="700">C49</tspan><tspan x="969.0" dy="15.0">TW [136, 256]</tspan><tspan x="969.0" dy="15.0">start 217.2</tspan><tspan x="969.0" dy="15.0">end 228.2</tspan><tspan x="969.0" dy="15.0">dur. 11.0</tspan></text>
<line x1="1032.0" y1="403.0" x2="1053.0" y2="403.0" stroke="#0b7d25" stroke-width="1.7" marker-end="url(#arrow-2)"/>
<rect x="1058.0" y="360.0" width="126.0" height="86.0" rx="5" ry="5" fill="#ecf9ee" stroke="#0b7d25" stroke-width="1.6"/>
<text x="1121.0" y="377.0" font-size="12" text-anchor="middle"><tspan x="1121.0" font-weight="700">C2</tspan><tspan x="1121.0" dy="15.0">TW [252, 372]</tspan><tspan x="1121.0" dy="15.0">start 252.0</tspan><tspan x="1121.0" dy="15.0">end 263.0</tspan><tspan x="1121.0" dy="15.0">dur. 11.0</tspan></text>
<line x1="1184.0" y1="403.0" x2="1205.0" y2="403.0" stroke="#0b7d25" stroke-width="1.7" marker-end="url(#arrow-2)"/>
<rect x="1210.0" y="360.0" width="126.0" height="86.0" rx="5" ry="5" fill="#ecf9ee" stroke="#0b7d25" stroke-width="1.6"/>
<text x="1273.0" y="377.0" font-size="12" text-anchor="middle"><tspan x="1273.0" font-weight="700">C34</tspan><tspan x="1273.0" dy="15.0">TW [350, 470]</tspan><tspan x="1273.0" dy="15.0">start 350.0</tspan><tspan x="1273.0" dy="15.0">end 361.0</tspan><tspan x="1273.0" dy="15.0">dur. 11.0</tspan></text>
<line x1="1336.0" y1="403.0" x2="1357.0" y2="403.0" stroke="#0b7d25" stroke-width="1.7" marker-end="url(#arrow-2)"/>
<rect x="1362.0" y="360.0" width="126.0" height="86.0" rx="5" ry="5" fill="#ecf9ee" stroke="#0b7d25" stroke-width="1.6"/>
<text x="1425.0" y="377.0" font-size="12" text-anchor="middle"><tspan x="1425.0" font-weight="700">C10</tspan><tspan x="1425.0" dy="15.0">TW [348, 468]</tspan><tspan x="1425.0" dy="15.0">start 394.1</tspan><tspan x="1425.0" dy="15.0">end 405.1</tspan><tspan x="1425.0" dy="15.0">dur. 11.0</tspan></text>
<line x1="1488.0" y1="403.0" x2="1509.0" y2="403.0" stroke="#0b7d25" stroke-width="1.7" marker-end="url(#arrow-2)"/>
<rect x="1514.0" y="360.0" width="126.0" height="86.0" rx="5" ry="5" fill="#ecf9ee" stroke="#0b7d25" stroke-width="1.6"/>
<text x="1577.0" y="377.0" font-size="12" text-anchor="middle"><tspan x="1577.0" font-weight="700">C5</tspan><tspan x="1577.0" dy="15.0">TW [309, 429]</tspan><tspan x="1577.0" dy="15.0">start 421.2</tspan><tspan x="1577.0" dy="15.0">end 432.2</tspan><tspan x="1577.0" dy="15.0">dur. 11.0</tspan></text>
<line x1="1640.0" y1="403.0" x2="1661.0" y2="403.0" stroke="#0b7d25" stroke-width="1.7" marker-end="url(#arrow-2)"/>
<rect x="1666.0" y="360.0" width="126.0" height="86.0" rx="5" ry="5" fill="#ecf9ee" stroke="#0b7d25" stroke-width="1.6"/>
<text x="1729.0" y="377.0" font-size="12" text-anchor="middle"><tspan x="1729.0" font-weight="700">C18</tspan><tspan x="1729.0" dy="15.0">TW [399, 519]</tspan><tspan x="1729.0" dy="15.0">start 445.6</tspan><tspan x="1729.0" dy="15.0">end 456.6</tspan><tspan x="1729.0" dy="15.0">dur. 11.0</tspan></text>
<line x1="1792.0" y1="403.0" x2="1813.0" y2="403.0" stroke="#0b7d25" stroke-width="1.7" marker-end="url(#arrow-2)"/>
<rect x="1818.0" y="360.0" width="126.0" height="86.0" rx="5" ry="5" fill="#ecf9ee" stroke="#0b7d25" stroke-width="1.6"/>
<text x="1881.0" y="377.0" font-size="12" text-anchor="middle"><tspan x="1881.0" font-weight="700">C31</tspan><tspan x="1881.0" dy="15.0">TW [379, 499]</tspan><tspan x="1881.0" dy="15.0">start 459.6</tspan><tspan x="1881.0" dy="15.0">end 470.6</tspan><tspan x="1881.0" dy="15.0">dur. 11.0</tspan></text>
<line x1="1944.0" y1="403.0" x2="1965.0" y2="403.0" stroke="#0b7d25" stroke-width="1.7" marker-end="url(#arrow-2)"/>
<rect x="1970.0" y="360.0" width="126.0" height="86.0" rx="5" ry="5" fill="#ecf9ee" stroke="#0b7d25" stroke-width="1.6"/>
<text x="2033.0" y="377.0" font-size="12" text-anchor="middle"><tspan x="2033.0" font-weight="700">C35</tspan><tspan x="2033.0" dy="15.0">TW [430, 550]</tspan><tspan x="2033.0" dy="15.0">start 474.8</tspan><tspan x="2033.0" dy="15.0">end 485.8</tspan><tspan x="2033.0" dy="15.0">dur. 11.0</tspan></text>
<line x1="2096.0" y1="403.0" x2="2117.0" y2="403.0" stroke="#0b7d25" stroke-width="1.7" marker-end="url(#arrow-2)"/>
<rect x="2122.0" y="371.0" width="100.0" height="64.0" rx="0" ry="0" fill="#ecf9ee" stroke="#0b7d25" stroke-width="1.6"/>
<text x="2172.0" y="390.0" font-size="12" text-anchor="middle"><tspan x="2172.0" font-weight="700">1019</tspan><tspan x="2172.0" dy="15.0">return</tspan><tspan x="2172.0" dy="15.0">489.8</tspan></text>
<rect x="28.0" y="484.0" width="390.0" height="98.0" rx="5" ry="5" fill="#f5edff" stroke="#7a3db8" stroke-width="1.6"/>
<text x="39.0" y="504.0" font-size="12" text-anchor="start"><tspan x="39.0" font-weight="700">Vehicle 3, base 1014</tspan><tspan x="39.0" dy="16.0">1014 -&gt; 9 -&gt; 36 -&gt; 32 -&gt; 23 -&gt; 42 -&gt; 12 -&gt; 21</tspan><tspan x="39.0" dy="16.0">-&gt; 1014</tspan><tspan x="39.0" dy="16.0">travel 67.1; service 77.0; wait 396.4</tspan><tspan x="39.0" dy="16.0">depart 0.0; finish 540.4; elapsed 540.4</tspan></text>
<line x1="418.0" y1="533.0" x2="445.0" y2="533.0" stroke="#7a3db8" stroke-width="1.7" marker-end="url(#arrow-3)"/>
<rect x="450.0" y="490.0" width="126.0" height="86.0" rx="5" ry="5" fill="#f5edff" stroke="#7a3db8" stroke-width="1.6"/>
<text x="513.0" y="507.0" font-size="12" text-anchor="middle"><tspan x="513.0" font-weight="700">C9</tspan><tspan x="513.0" dy="15.0">TW [7, 127]</tspan><tspan x="513.0" dy="15.0">start 10.6</tspan><tspan x="513.0" dy="15.0">end 21.6</tspan><tspan x="513.0" dy="15.0">dur. 11.0</tspan></text>
<line x1="576.0" y1="533.0" x2="597.0" y2="533.0" stroke="#7a3db8" stroke-width="1.7" marker-end="url(#arrow-3)"/>
<rect x="602.0" y="490.0" width="126.0" height="86.0" rx="5" ry="5" fill="#f5edff" stroke="#7a3db8" stroke-width="1.6"/>
<text x="665.0" y="507.0" font-size="12" text-anchor="middle"><tspan x="665.0" font-weight="700">C36</tspan><tspan x="665.0" dy="15.0">TW [284, 404]</tspan><tspan x="665.0" dy="15.0">start 284.0</tspan><tspan x="665.0" dy="15.0">end 295.0</tspan><tspan x="665.0" dy="15.0">dur. 11.0</tspan></text>
<line x1="728.0" y1="533.0" x2="749.0" y2="533.0" stroke="#7a3db8" stroke-width="1.7" marker-end="url(#arrow-3)"/>
<rect x="754.0" y="490.0" width="126.0" height="86.0" rx="5" ry="5" fill="#f5edff" stroke="#7a3db8" stroke-width="1.6"/>
<text x="817.0" y="507.0" font-size="12" text-anchor="middle"><tspan x="817.0" font-weight="700">C32</tspan><tspan x="817.0" dy="15.0">TW [426, 546]</tspan><tspan x="817.0" dy="15.0">start 426.0</tspan><tspan x="817.0" dy="15.0">end 437.0</tspan><tspan x="817.0" dy="15.0">dur. 11.0</tspan></text>
<line x1="880.0" y1="533.0" x2="901.0" y2="533.0" stroke="#7a3db8" stroke-width="1.7" marker-end="url(#arrow-3)"/>
<rect x="906.0" y="490.0" width="126.0" height="86.0" rx="5" ry="5" fill="#f5edff" stroke="#7a3db8" stroke-width="1.6"/>
<text x="969.0" y="507.0" font-size="12" text-anchor="middle"><tspan x="969.0" font-weight="700">C23</tspan><tspan x="969.0" dy="15.0">TW [359, 479]</tspan><tspan x="969.0" dy="15.0">start 440.0</tspan><tspan x="969.0" dy="15.0">end 451.0</tspan><tspan x="969.0" dy="15.0">dur. 11.0</tspan></text>
<line x1="1032.0" y1="533.0" x2="1053.0" y2="533.0" stroke="#7a3db8" stroke-width="1.7" marker-end="url(#arrow-3)"/>
<rect x="1058.0" y="490.0" width="126.0" height="86.0" rx="5" ry="5" fill="#f5edff" stroke="#7a3db8" stroke-width="1.6"/>
<text x="1121.0" y="507.0" font-size="12" text-anchor="middle"><tspan x="1121.0" font-weight="700">C42</tspan><tspan x="1121.0" dy="15.0">TW [475, 595]</tspan><tspan x="1121.0" dy="15.0">start 475.0</tspan><tspan x="1121.0" dy="15.0">end 486.0</tspan><tspan x="1121.0" dy="15.0">dur. 11.0</tspan></text>
<line x1="1184.0" y1="533.0" x2="1205.0" y2="533.0" stroke="#7a3db8" stroke-width="1.7" marker-end="url(#arrow-3)"/>
<rect x="1210.0" y="490.0" width="126.0" height="86.0" rx="5" ry="5" fill="#f5edff" stroke="#7a3db8" stroke-width="1.6"/>
<text x="1273.0" y="507.0" font-size="12" text-anchor="middle"><tspan x="1273.0" font-weight="700">C12</tspan><tspan x="1273.0" dy="15.0">TW [446, 566]</tspan><tspan x="1273.0" dy="15.0">start 498.2</tspan><tspan x="1273.0" dy="15.0">end 509.2</tspan><tspan x="1273.0" dy="15.0">dur. 11.0</tspan></text>
<line x1="1336.0" y1="533.0" x2="1357.0" y2="533.0" stroke="#7a3db8" stroke-width="1.7" marker-end="url(#arrow-3)"/>
<rect x="1362.0" y="490.0" width="126.0" height="86.0" rx="5" ry="5" fill="#f5edff" stroke="#7a3db8" stroke-width="1.6"/>
<text x="1425.0" y="507.0" font-size="12" text-anchor="middle"><tspan x="1425.0" font-weight="700">C21</tspan><tspan x="1425.0" dy="15.0">TW [438, 558]</tspan><tspan x="1425.0" dy="15.0">start 512.0</tspan><tspan x="1425.0" dy="15.0">end 523.0</tspan><tspan x="1425.0" dy="15.0">dur. 11.0</tspan></text>
<line x1="1488.0" y1="533.0" x2="1509.0" y2="533.0" stroke="#7a3db8" stroke-width="1.7" marker-end="url(#arrow-3)"/>
<rect x="1514.0" y="501.0" width="100.0" height="64.0" rx="0" ry="0" fill="#f5edff" stroke="#7a3db8" stroke-width="1.6"/>
<text x="1564.0" y="520.0" font-size="12" text-anchor="middle"><tspan x="1564.0" font-weight="700">1014</tspan><tspan x="1564.0" dy="15.0">return</tspan><tspan x="1564.0" dy="15.0">540.4</tspan></text>
<rect x="28.0" y="614.0" width="390.0" height="86.0" rx="5" ry="5" fill="#fff1ed" stroke="#9a3412" stroke-width="1.6"/>
<text x="39.0" y="634.0" font-size="12" text-anchor="start"><tspan x="39.0" font-weight="700">Vehicle 4, base 1001</tspan><tspan x="39.0" dy="16.0">1001 -&gt; 46 -&gt; 30 -&gt; 43 -&gt; 1001</tspan><tspan x="39.0" dy="16.0">travel 54.7; service 33.0; wait 282.5</tspan><tspan x="39.0" dy="16.0">depart 0.0; finish 370.2; elapsed 370.2</tspan></text>
<line x1="418.0" y1="657.0" x2="445.0" y2="657.0" stroke="#9a3412" stroke-width="1.7" marker-end="url(#arrow-4)"/>
<rect x="450.0" y="614.0" width="126.0" height="86.0" rx="5" ry="5" fill="#fff1ed" stroke="#9a3412" stroke-width="1.6"/>
<text x="513.0" y="631.0" font-size="12" text-anchor="middle"><tspan x="513.0" font-weight="700">C46</tspan><tspan x="513.0" dy="15.0">TW [0, 120]</tspan><tspan x="513.0" dy="15.0">start 16.8</tspan><tspan x="513.0" dy="15.0">end 27.8</tspan><tspan x="513.0" dy="15.0">dur. 11.0</tspan></text>
<line x1="576.0" y1="657.0" x2="597.0" y2="657.0" stroke="#9a3412" stroke-width="1.7" marker-end="url(#arrow-4)"/>
<rect x="602.0" y="614.0" width="126.0" height="86.0" rx="5" ry="5" fill="#fff1ed" stroke="#9a3412" stroke-width="1.6"/>
<text x="665.0" y="631.0" font-size="12" text-anchor="middle"><tspan x="665.0" font-weight="700">C30</tspan><tspan x="665.0" dy="15.0">TW [322, 442]</tspan><tspan x="665.0" dy="15.0">start 322.0</tspan><tspan x="665.0" dy="15.0">end 333.0</tspan><tspan x="665.0" dy="15.0">dur. 11.0</tspan></text>
<line x1="728.0" y1="657.0" x2="749.0" y2="657.0" stroke="#9a3412" stroke-width="1.7" marker-end="url(#arrow-4)"/>
<rect x="754.0" y="614.0" width="126.0" height="86.0" rx="5" ry="5" fill="#fff1ed" stroke="#9a3412" stroke-width="1.6"/>
<text x="817.0" y="631.0" font-size="12" text-anchor="middle"><tspan x="817.0" font-weight="700">C43</tspan><tspan x="817.0" dy="15.0">TW [278, 398]</tspan><tspan x="817.0" dy="15.0">start 350.1</tspan><tspan x="817.0" dy="15.0">end 361.1</tspan><tspan x="817.0" dy="15.0">dur. 11.0</tspan></text>
<line x1="880.0" y1="657.0" x2="901.0" y2="657.0" stroke="#9a3412" stroke-width="1.7" marker-end="url(#arrow-4)"/>
<rect x="906.0" y="625.0" width="100.0" height="64.0" rx="0" ry="0" fill="#fff1ed" stroke="#9a3412" stroke-width="1.6"/>
<text x="956.0" y="644.0" font-size="12" text-anchor="middle"><tspan x="956.0" font-weight="700">1001</tspan><tspan x="956.0" dy="15.0">return</tspan><tspan x="956.0" dy="15.0">370.2</tspan></text>
<rect x="28.0" y="732.0" width="390.0" height="86.0" rx="5" ry="5" fill="#e7fbfd" stroke="#006d77" stroke-width="1.6"/>
<text x="39.0" y="752.0" font-size="12" text-anchor="start"><tspan x="39.0" font-weight="700">Vehicle 5, base 1013</tspan><tspan x="39.0" dy="16.0">1013 -&gt; 14 -&gt; 1 -&gt; 47 -&gt; 4 -&gt; 1013</tspan><tspan x="39.0" dy="16.0">travel 40.5; service 44.0; wait 406.1</tspan><tspan x="39.0" dy="16.0">depart 0.0; finish 490.6; elapsed 490.6</tspan></text>
<line x1="418.0" y1="775.0" x2="445.0" y2="775.0" stroke="#006d77" stroke-width="1.7" marker-end="url(#arrow-5)"/>
<rect x="450.0" y="732.0" width="126.0" height="86.0" rx="5" ry="5" fill="#e7fbfd" stroke="#006d77" stroke-width="1.6"/>
<text x="513.0" y="749.0" font-size="12" text-anchor="middle"><tspan x="513.0" font-weight="700">C14</tspan><tspan x="513.0" dy="15.0">TW [54, 174]</tspan><tspan x="513.0" dy="15.0">start 54.0</tspan><tspan x="513.0" dy="15.0">end 65.0</tspan><tspan x="513.0" dy="15.0">dur. 11.0</tspan></text>
<line x1="576.0" y1="775.0" x2="597.0" y2="775.0" stroke="#006d77" stroke-width="1.7" marker-end="url(#arrow-5)"/>
<rect x="602.0" y="732.0" width="126.0" height="86.0" rx="5" ry="5" fill="#e7fbfd" stroke="#006d77" stroke-width="1.6"/>
<text x="665.0" y="749.0" font-size="12" text-anchor="middle"><tspan x="665.0" font-weight="700">C1</tspan><tspan x="665.0" dy="15.0">TW [28, 148]</tspan><tspan x="665.0" dy="15.0">start 78.0</tspan><tspan x="665.0" dy="15.0">end 89.0</tspan><tspan x="665.0" dy="15.0">dur. 11.0</tspan></text>
<line x1="728.0" y1="775.0" x2="749.0" y2="775.0" stroke="#006d77" stroke-width="1.7" marker-end="url(#arrow-5)"/>
<rect x="754.0" y="732.0" width="126.0" height="86.0" rx="5" ry="5" fill="#e7fbfd" stroke="#006d77" stroke-width="1.6"/>
<text x="817.0" y="749.0" font-size="12" text-anchor="middle"><tspan x="817.0" font-weight="700">C47</tspan><tspan x="817.0" dy="15.0">TW [454, 574]</tspan><tspan x="817.0" dy="15.0">start 454.0</tspan><tspan x="817.0" dy="15.0">end 465.0</tspan><tspan x="817.0" dy="15.0">dur. 11.0</tspan></text>
<line x1="880.0" y1="775.0" x2="901.0" y2="775.0" stroke="#006d77" stroke-width="1.7" marker-end="url(#arrow-5)"/>
<rect x="906.0" y="732.0" width="126.0" height="86.0" rx="5" ry="5" fill="#e7fbfd" stroke="#006d77" stroke-width="1.6"/>
<text x="969.0" y="749.0" font-size="12" text-anchor="middle"><tspan x="969.0" font-weight="700">C4</tspan><tspan x="969.0" dy="15.0">TW [427, 547]</tspan><tspan x="969.0" dy="15.0">start 470.0</tspan><tspan x="969.0" dy="15.0">end 481.0</tspan><tspan x="969.0" dy="15.0">dur. 11.0</tspan></text>
<line x1="1032.0" y1="775.0" x2="1053.0" y2="775.0" stroke="#006d77" stroke-width="1.7" marker-end="url(#arrow-5)"/>
<rect x="1058.0" y="743.0" width="100.0" height="64.0" rx="0" ry="0" fill="#e7fbfd" stroke="#006d77" stroke-width="1.6"/>
<text x="1108.0" y="762.0" font-size="12" text-anchor="middle"><tspan x="1108.0" font-weight="700">1013</tspan><tspan x="1108.0" dy="15.0">return</tspan><tspan x="1108.0" dy="15.0">490.6</tspan></text>
<rect x="28.0" y="850.0" width="390.0" height="86.0" rx="5" ry="5" fill="#fff0f6" stroke="#9d174d" stroke-width="1.6"/>
<text x="39.0" y="870.0" font-size="12" text-anchor="start"><tspan x="39.0" font-weight="700">Vehicle 6, base 1002</tspan><tspan x="39.0" dy="16.0">1002 -&gt; 50 -&gt; 20 -&gt; 1002</tspan><tspan x="39.0" dy="16.0">travel 9.9; service 22.0; wait 414.5</tspan><tspan x="39.0" dy="16.0">depart 0.0; finish 446.4; elapsed 446.4</tspan></text>
<line x1="418.0" y1="893.0" x2="445.0" y2="893.0" stroke="#9d174d" stroke-width="1.7" marker-end="url(#arrow-6)"/>
<rect x="450.0" y="850.0" width="126.0" height="86.0" rx="5" ry="5" fill="#fff0f6" stroke="#9d174d" stroke-width="1.6"/>
<text x="513.0" y="867.0" font-size="12" text-anchor="middle"><tspan x="513.0" font-weight="700">C50</tspan><tspan x="513.0" dy="15.0">TW [47, 167]</tspan><tspan x="513.0" dy="15.0">start 47.0</tspan><tspan x="513.0" dy="15.0">end 58.0</tspan><tspan x="513.0" dy="15.0">dur. 11.0</tspan></text>
<line x1="576.0" y1="893.0" x2="597.0" y2="893.0" stroke="#9d174d" stroke-width="1.7" marker-end="url(#arrow-6)"/>
<rect x="602.0" y="850.0" width="126.0" height="86.0" rx="5" ry="5" fill="#fff0f6" stroke="#9d174d" stroke-width="1.6"/>
<text x="665.0" y="867.0" font-size="12" text-anchor="middle"><tspan x="665.0" font-weight="700">C20</tspan><tspan x="665.0" dy="15.0">TW [431, 551]</tspan><tspan x="665.0" dy="15.0">start 431.0</tspan><tspan x="665.0" dy="15.0">end 442.0</tspan><tspan x="665.0" dy="15.0">dur. 11.0</tspan></text>
<line x1="728.0" y1="893.0" x2="749.0" y2="893.0" stroke="#9d174d" stroke-width="1.7" marker-end="url(#arrow-6)"/>
<rect x="754.0" y="861.0" width="100.0" height="64.0" rx="0" ry="0" fill="#fff0f6" stroke="#9d174d" stroke-width="1.6"/>
<text x="804.0" y="880.0" font-size="12" text-anchor="middle"><tspan x="804.0" font-weight="700">1002</tspan><tspan x="804.0" dy="15.0">return</tspan><tspan x="804.0" dy="15.0">446.4</tspan></text>
<rect x="28.0" y="968.0" width="390.0" height="86.0" rx="5" ry="5" fill="#f3fae8" stroke="#4d7c0f" stroke-width="1.6"/>
<text x="39.0" y="988.0" font-size="12" text-anchor="start"><tspan x="39.0" font-weight="700">Vehicle 7, base 1017</tspan><tspan x="39.0" dy="16.0">1017 -&gt; 48 -&gt; 41 -&gt; 45 -&gt; 15 -&gt; 1017</tspan><tspan x="39.0" dy="16.0">travel 58.3; service 44.0; wait 357.0</tspan><tspan x="39.0" dy="16.0">depart 0.0; finish 459.3; elapsed 459.3</tspan></text>
<line x1="418.0" y1="1011.0" x2="445.0" y2="1011.0" stroke="#4d7c0f" stroke-width="1.7" marker-end="url(#arrow-7)"/>
<rect x="450.0" y="968.0" width="126.0" height="86.0" rx="5" ry="5" fill="#f3fae8" stroke="#4d7c0f" stroke-width="1.6"/>
<text x="513.0" y="985.0" font-size="12" text-anchor="middle"><tspan x="513.0" font-weight="700">C48</tspan><tspan x="513.0" dy="15.0">TW [183, 303]</tspan><tspan x="513.0" dy="15.0">start 183.0</tspan><tspan x="513.0" dy="15.0">end 194.0</tspan><tspan x="513.0" dy="15.0">dur. 11.0</tspan></text>
<line x1="576.0" y1="1011.0" x2="597.0" y2="1011.0" stroke="#4d7c0f" stroke-width="1.7" marker-end="url(#arrow-7)"/>
<rect x="602.0" y="968.0" width="126.0" height="86.0" rx="5" ry="5" fill="#f3fae8" stroke="#4d7c0f" stroke-width="1.6"/>
<text x="665.0" y="985.0" font-size="12" text-anchor="middle"><tspan x="665.0" font-weight="700">C41</tspan><tspan x="665.0" dy="15.0">TW [242, 362]</tspan><tspan x="665.0" dy="15.0">start 242.0</tspan><tspan x="665.0" dy="15.0">end 253.0</tspan><tspan x="665.0" dy="15.0">dur. 11.0</tspan></text>
<line x1="728.0" y1="1011.0" x2="749.0" y2="1011.0" stroke="#4d7c0f" stroke-width="1.7" marker-end="url(#arrow-7)"/>
<rect x="754.0" y="968.0" width="126.0" height="86.0" rx="5" ry="5" fill="#f3fae8" stroke="#4d7c0f" stroke-width="1.6"/>
<text x="817.0" y="985.0" font-size="12" text-anchor="middle"><tspan x="817.0" font-weight="700">C45</tspan><tspan x="817.0" dy="15.0">TW [222, 342]</tspan><tspan x="817.0" dy="15.0">start 279.9</tspan><tspan x="817.0" dy="15.0">end 290.9</tspan><tspan x="817.0" dy="15.0">dur. 11.0</tspan></text>
<line x1="880.0" y1="1011.0" x2="901.0" y2="1011.0" stroke="#4d7c0f" stroke-width="1.7" marker-end="url(#arrow-7)"/>
<rect x="906.0" y="968.0" width="126.0" height="86.0" rx="5" ry="5" fill="#f3fae8" stroke="#4d7c0f" stroke-width="1.6"/>
<text x="969.0" y="985.0" font-size="12" text-anchor="middle"><tspan x="969.0" font-weight="700">C15</tspan><tspan x="969.0" dy="15.0">TW [434, 554]</tspan><tspan x="969.0" dy="15.0">start 434.0</tspan><tspan x="969.0" dy="15.0">end 445.0</tspan><tspan x="969.0" dy="15.0">dur. 11.0</tspan></text>
<line x1="1032.0" y1="1011.0" x2="1053.0" y2="1011.0" stroke="#4d7c0f" stroke-width="1.7" marker-end="url(#arrow-7)"/>
<rect x="1058.0" y="979.0" width="100.0" height="64.0" rx="0" ry="0" fill="#f3fae8" stroke="#4d7c0f" stroke-width="1.6"/>
<text x="1108.0" y="998.0" font-size="12" text-anchor="middle"><tspan x="1108.0" font-weight="700">1017</tspan><tspan x="1108.0" dy="15.0">return</tspan><tspan x="1108.0" dy="15.0">459.3</tspan></text>
<rect x="28.0" y="1086.0" width="390.0" height="86.0" rx="5" ry="5" fill="#f1f5f9" stroke="#334155" stroke-width="1.6"/>
<text x="39.0" y="1106.0" font-size="12" text-anchor="start"><tspan x="39.0" font-weight="700">Vehicle 8, base 1011</tspan><tspan x="39.0" dy="16.0">1011 -&gt; 22 -&gt; 37 -&gt; 44 -&gt; 1011</tspan><tspan x="39.0" dy="16.0">travel 29.8; service 33.0; wait 325.7</tspan><tspan x="39.0" dy="16.0">depart 0.0; finish 388.5; elapsed 388.5</tspan></text>
<line x1="418.0" y1="1129.0" x2="445.0" y2="1129.0" stroke="#334155" stroke-width="1.7" marker-end="url(#arrow-8)"/>
<rect x="450.0" y="1086.0" width="126.0" height="86.0" rx="5" ry="5" fill="#f1f5f9" stroke="#334155" stroke-width="1.6"/>
<text x="513.0" y="1103.0" font-size="12" text-anchor="middle"><tspan x="513.0" font-weight="700">C22</tspan><tspan x="513.0" dy="15.0">TW [207, 327]</tspan><tspan x="513.0" dy="15.0">start 207.0</tspan><tspan x="513.0" dy="15.0">end 218.0</tspan><tspan x="513.0" dy="15.0">dur. 11.0</tspan></text>
<line x1="576.0" y1="1129.0" x2="597.0" y2="1129.0" stroke="#334155" stroke-width="1.7" marker-end="url(#arrow-8)"/>
<rect x="602.0" y="1086.0" width="126.0" height="86.0" rx="5" ry="5" fill="#f1f5f9" stroke="#334155" stroke-width="1.6"/>
<text x="665.0" y="1103.0" font-size="12" text-anchor="middle"><tspan x="665.0" font-weight="700">C37</tspan><tspan x="665.0" dy="15.0">TW [357, 477]</tspan><tspan x="665.0" dy="15.0">start 357.0</tspan><tspan x="665.0" dy="15.0">end 368.0</tspan><tspan x="665.0" dy="15.0">dur. 11.0</tspan></text>
<line x1="728.0" y1="1129.0" x2="749.0" y2="1129.0" stroke="#334155" stroke-width="1.7" marker-end="url(#arrow-8)"/>
<rect x="754.0" y="1086.0" width="126.0" height="86.0" rx="5" ry="5" fill="#f1f5f9" stroke="#334155" stroke-width="1.6"/>
<text x="817.0" y="1103.0" font-size="12" text-anchor="middle"><tspan x="817.0" font-weight="700">C44</tspan><tspan x="817.0" dy="15.0">TW [259, 379]</tspan><tspan x="817.0" dy="15.0">start 370.8</tspan><tspan x="817.0" dy="15.0">end 381.8</tspan><tspan x="817.0" dy="15.0">dur. 11.0</tspan></text>
<line x1="880.0" y1="1129.0" x2="901.0" y2="1129.0" stroke="#334155" stroke-width="1.7" marker-end="url(#arrow-8)"/>
<rect x="906.0" y="1097.0" width="100.0" height="64.0" rx="0" ry="0" fill="#f1f5f9" stroke="#334155" stroke-width="1.6"/>
<text x="956.0" y="1116.0" font-size="12" text-anchor="middle"><tspan x="956.0" font-weight="700">1011</tspan><tspan x="956.0" dy="15.0">return</tspan><tspan x="956.0" dy="15.0">388.5</tspan></text>
<rect x="28.0" y="1204.0" width="390.0" height="86.0" rx="5" ry="5" fill="#ecfeff" stroke="#0e7490" stroke-width="1.6"/>
<text x="39.0" y="1224.0" font-size="12" text-anchor="start"><tspan x="39.0" font-weight="700">Vehicle 9, base 1000</tspan><tspan x="39.0" dy="16.0">1000 -&gt; 3 -&gt; 39 -&gt; 38 -&gt; 16 -&gt; 7 -&gt; 1000</tspan><tspan x="39.0" dy="16.0">travel 31.6; service 55.0; wait 368.0</tspan><tspan x="39.0" dy="16.0">depart 0.0; finish 454.5; elapsed 454.5</tspan></text>
<line x1="418.0" y1="1247.0" x2="445.0" y2="1247.0" stroke="#0e7490" stroke-width="1.7" marker-end="url(#arrow-9)"/>
<rect x="450.0" y="1204.0" width="126.0" height="86.0" rx="5" ry="5" fill="#ecfeff" stroke="#0e7490" stroke-width="1.6"/>
<text x="513.0" y="1221.0" font-size="12" text-anchor="middle"><tspan x="513.0" font-weight="700">C3</tspan><tspan x="513.0" dy="15.0">TW [200, 320]</tspan><tspan x="513.0" dy="15.0">start 200.0</tspan><tspan x="513.0" dy="15.0">end 211.0</tspan><tspan x="513.0" dy="15.0">dur. 11.0</tspan></text>
<line x1="576.0" y1="1247.0" x2="597.0" y2="1247.0" stroke="#0e7490" stroke-width="1.7" marker-end="url(#arrow-9)"/>
<rect x="602.0" y="1204.0" width="126.0" height="86.0" rx="5" ry="5" fill="#ecfeff" stroke="#0e7490" stroke-width="1.6"/>
<text x="665.0" y="1221.0" font-size="12" text-anchor="middle"><tspan x="665.0" font-weight="700">C39</tspan><tspan x="665.0" dy="15.0">TW [127, 247]</tspan><tspan x="665.0" dy="15.0">start 213.2</tspan><tspan x="665.0" dy="15.0">end 224.2</tspan><tspan x="665.0" dy="15.0">dur. 11.0</tspan></text>
<line x1="728.0" y1="1247.0" x2="749.0" y2="1247.0" stroke="#0e7490" stroke-width="1.7" marker-end="url(#arrow-9)"/>
<rect x="754.0" y="1204.0" width="126.0" height="86.0" rx="5" ry="5" fill="#ecfeff" stroke="#0e7490" stroke-width="1.6"/>
<text x="817.0" y="1221.0" font-size="12" text-anchor="middle"><tspan x="817.0" font-weight="700">C38</tspan><tspan x="817.0" dy="15.0">TW [295, 415]</tspan><tspan x="817.0" dy="15.0">start 295.0</tspan><tspan x="817.0" dy="15.0">end 306.0</tspan><tspan x="817.0" dy="15.0">dur. 11.0</tspan></text>
<line x1="880.0" y1="1247.0" x2="901.0" y2="1247.0" stroke="#0e7490" stroke-width="1.7" marker-end="url(#arrow-9)"/>
<rect x="906.0" y="1204.0" width="126.0" height="86.0" rx="5" ry="5" fill="#ecfeff" stroke="#0e7490" stroke-width="1.6"/>
<text x="969.0" y="1221.0" font-size="12" text-anchor="middle"><tspan x="969.0" font-weight="700">C16</tspan><tspan x="969.0" dy="15.0">TW [416, 536]</tspan><tspan x="969.0" dy="15.0">start 416.0</tspan><tspan x="969.0" dy="15.0">end 427.0</tspan><tspan x="969.0" dy="15.0">dur. 11.0</tspan></text>
<line x1="1032.0" y1="1247.0" x2="1053.0" y2="1247.0" stroke="#0e7490" stroke-width="1.7" marker-end="url(#arrow-9)"/>
<rect x="1058.0" y="1204.0" width="126.0" height="86.0" rx="5" ry="5" fill="#ecfeff" stroke="#0e7490" stroke-width="1.6"/>
<text x="1121.0" y="1221.0" font-size="12" text-anchor="middle"><tspan x="1121.0" font-weight="700">C7</tspan><tspan x="1121.0" dy="15.0">TW [366, 486]</tspan><tspan x="1121.0" dy="15.0">start 434.0</tspan><tspan x="1121.0" dy="15.0">end 445.0</tspan><tspan x="1121.0" dy="15.0">dur. 11.0</tspan></text>
<line x1="1184.0" y1="1247.0" x2="1205.0" y2="1247.0" stroke="#0e7490" stroke-width="1.7" marker-end="url(#arrow-9)"/>
<rect x="1210.0" y="1215.0" width="100.0" height="64.0" rx="0" ry="0" fill="#ecfeff" stroke="#0e7490" stroke-width="1.6"/>
<text x="1260.0" y="1234.0" font-size="12" text-anchor="middle"><tspan x="1260.0" font-weight="700">1000</tspan><tspan x="1260.0" dy="15.0">return</tspan><tspan x="1260.0" dy="15.0">454.5</tspan></text>
<rect x="28.0" y="1328.0" width="2246.0" height="74.0" rx="5" ry="5" fill="#f8fafc" stroke="#c9ced6" stroke-width="1.6"/>
<text x="40.0" y="1350.0" font-size="12" text-anchor="start"><tspan x="40.0">Open facilities: 1000, 1001, 1002, 1004, 1006, 1011, 1013, 1014, 1017, 1019; unselected candidates: 1003, 1005, 1007, 1008, 1009, 1010, 1012, 1015, 1016, 1018.</tspan><tspan x="40.0" dy="17.0">Times use nominal service durations and earliest-start propagation from a time-zero facility departure.</tspan><tspan x="40.0" dy="17.0">TW denotes the customer time window; start and end denote nominal service start and service completion.</tspan></text>
</svg>
