<?xml version="1.0" encoding="UTF-8"?>
<svg xmlns="http://www.w3.org/2000/svg" width="1866" height="1450" viewBox="0 0 1866 1450" role="img" aria-labelledby="title desc">
<title id="title">Route schedule for flrp-ssr_instance_50_8</title>
<desc id="desc">Non-geographic route schedule with route totals and customer service times.</desc>
<style>
text{font-family:Arial,Helvetica,sans-serif;fill:#111827}
.title{font-size:24px;font-weight:700}
.meta{font-size:13px;fill:#374151}
.caption{font-size:12px;fill:#374151}
</style>
<rect x="0" y="0" width="100%" height="100%" fill="#ffffff"/>
<text class="title" x="28" y="34">FLRP-SSR route schedule: flrp-ssr_instance_50_8</text>
<text class="meta" x="28" y="58">cost = 10540.763; No. of customers = 50; No. of routes= 10</text>
<defs>
<marker id="arrow-0" viewBox="0 0 10 10" refX="8.5" refY="5" markerWidth="6" markerHeight="6" orient="auto">
<path d="M 0 0 L 10 5 L 0 10 z" fill="#174ea6"/>
</marker>
<marker id="arrow-1" viewBox="0 0 10 10" refX="8.5" refY="5" markerWidth="6" markerHeight="6" orient="auto">
<path d="M 0 0 L 10 5 L 0 10 z" fill="#c65f00"/>
</marker>
<marker id="arrow-2" viewBox="0 0 10 10" refX="8.5" refY="5" markerWidth="6" markerHeight="6" orient="auto">
<path d="M 0 0 L 10 5 L 0 10 z" fill="#0b7d25"/>
</marker>
<marker id="arrow-3" viewBox="0 0 10 10" refX="8.5" refY="5" markerWidth="6" markerHeight="6" orient="auto">
<path d="M 0 0 L 10 5 L 0 10 z" fill="#7a3db8"/>
</marker>
<marker id="arrow-4" viewBox="0 0 10 10" refX="8.5" refY="5" markerWidth="6" markerHeight="6" orient="auto">
<path d="M 0 0 L 10 5 L 0 10 z" fill="#9a3412"/>
</marker>
<marker id="arrow-5" viewBox="0 0 10 10" refX="8.5" refY="5" markerWidth="6" markerHeight="6" orient="auto">
<path d="M 0 0 L 10 5 L 0 10 z" fill="#006d77"/>
</marker>
<marker id="arrow-6" viewBox="0 0 10 10" refX="8.5" refY="5" markerWidth="6" markerHeight="6" orient="auto">
<path d="M 0 0 L 10 5 L 0 10 z" fill="#9d174d"/>
</marker>
<marker id="arrow-7" viewBox="0 0 10 10" refX="8.5" refY="5" markerWidth="6" markerHeight="6" orient="auto">
<path d="M 0 0 L 10 5 L 0 10 z" fill="#4d7c0f"/>
</marker>
<marker id="arrow-8" viewBox="0 0 10 10" refX="8.5" refY="5" markerWidth="6" markerHeight="6" orient="auto">
<path d="M 0 0 L 10 5 L 0 10 z" fill="#334155"/>
</marker>
<marker id="arrow-9" viewBox="0 0 10 10" refX="8.5" refY="5" markerWidth="6" markerHeight="6" orient="auto">
<path d="M 0 0 L 10 5 L 0 10 z" fill="#0e7490"/>
</marker>
</defs>
<rect x="28.0" y="106.0" width="390.0" height="86.0" rx="5" ry="5" fill="#edf4ff" stroke="#174ea6" stroke-width="1.6"/>
<text x="39.0" y="126.0" font-size="12" text-anchor="start"><tspan x="39.0" font-weight="700">Vehicle 0, base 1005</tspan><tspan x="39.0" dy="16.0">1005 -&gt; 17 -&gt; 12 -&gt; 29 -&gt; 1005</tspan><tspan x="39.0" dy="16.0">travel 20.8; service 39.0; wait 356.2</tspan><tspan x="39.0" dy="16.0">depart 0.0; finish 416.0; elapsed 416.0</tspan></text>
<line x1="418.0" y1="149.0" x2="445.0" y2="149.0" stroke="#174ea6" stroke-width="1.7" marker-end="url(#arrow-0)"/>
<rect x="450.0" y="106.0" width="126.0" height="86.0" rx="5" ry="5" fill="#edf4ff" stroke="#174ea6" stroke-width="1.6"/>
<text x="513.0" y="123.0" font-size="12" text-anchor="middle"><tspan x="513.0" font-weight="700">C17</tspan><tspan x="513.0" dy="15.0">TW [102, 222]</tspan><tspan x="513.0" dy="15.0">start 102.0</tspan><tspan x="513.0" dy="15.0">end 115.0</tspan><tspan x="513.0" dy="15.0">dur. 13.0</tspan></text>
<line x1="576.0" y1="149.0" x2="597.0" y2="149.0" stroke="#174ea6" stroke-width="1.7" marker-end="url(#arrow-0)"/>
<rect x="602.0" y="106.0" width="126.0" height="86.0" rx="5" ry="5" fill="#edf4ff" stroke="#174ea6" stroke-width="1.6"/>
<text x="665.0" y="123.0" font-size="12" text-anchor="middle"><tspan x="665.0" font-weight="700">C12</tspan><tspan x="665.0" dy="15.0">TW [290, 410]</tspan><tspan x="665.0" dy="15.0">start 290.0</tspan><tspan x="665.0" dy="15.0">end 303.0</tspan><tspan x="665.0" dy="15.0">dur. 13.0</tspan></text>
<line x1="728.0" y1="149.0" x2="749.0" y2="149.0" stroke="#174ea6" stroke-width="1.7" marker-end="url(#arrow-0)"/>
<rect x="754.0" y="106.0" width="126.0" height="86.0" rx="5" ry="5" fill="#edf4ff" stroke="#174ea6" stroke-width="1.6"/>
<text x="817.0" y="123.0" font-size="12" text-anchor="middle"><tspan x="817.0" font-weight="700">C29</tspan><tspan x="817.0" dy="15.0">TW [399, 519]</tspan><tspan x="817.0" dy="15.0">start 399.0</tspan><tspan x="817.0" dy="15.0">end 412.0</tspan><tspan x="817.0" dy="15.0">dur. 13.0</tspan></text>
<line x1="880.0" y1="149.0" x2="901.0" y2="149.0" stroke="#174ea6" stroke-width="1.7" marker-end="url(#arrow-0)"/>
<rect x="906.0" y="117.0" width="100.0" height="64.0" rx="0" ry="0" fill="#edf4ff" stroke="#174ea6" stroke-width="1.6"/>
<text x="956.0" y="136.0" font-size="12" text-anchor="middle"><tspan x="956.0" font-weight="700">1005</tspan><tspan x="956.0" dy="15.0">return</tspan><tspan x="956.0" dy="15.0">416.0</tspan></text>
<rect x="28.0" y="224.0" width="390.0" height="98.0" rx="5" ry="5" fill="#fff3e5" stroke="#c65f00" stroke-width="1.6"/>
<text x="39.0" y="244.0" font-size="12" text-anchor="start"><tspan x="39.0" font-weight="700">Vehicle 1, base 1002</tspan><tspan x="39.0" dy="16.0">1002 -&gt; 25 -&gt; 45 -&gt; 24 -&gt; 44 -&gt; 47 -&gt; 48 -&gt; 35</tspan><tspan x="39.0" dy="16.0">-&gt; 39 -&gt; 1002</tspan><tspan x="39.0" dy="16.0">travel 78.7; service 104.0; wait 314.2</tspan><tspan x="39.0" dy="16.0">depart 0.0; finish 496.9; elapsed 496.9</tspan></text>
<line x1="418.0" y1="273.0" x2="445.0" y2="273.0" stroke="#c65f00" stroke-width="1.7" marker-end="url(#arrow-1)"/>
<rect x="450.0" y="230.0" width="126.0" height="86.0" rx="5" ry="5" fill="#fff3e5" stroke="#c65f00" stroke-width="1.6"/>
<text x="513.0" y="247.0" font-size="12" text-anchor="middle"><tspan x="513.0" font-weight="700">C25</tspan><tspan x="513.0" dy="15.0">TW [59, 179]</tspan><tspan x="513.0" dy="15.0">start 59.0</tspan><tspan x="513.0" dy="15.0">end 72.0</tspan><tspan x="513.0" dy="15.0">dur. 13.0</tspan></text>
<line x1="576.0" y1="273.0" x2="597.0" y2="273.0" stroke="#c65f00" stroke-width="1.7" marker-end="url(#arrow-1)"/>
<rect x="602.0" y="230.0" width="126.0" height="86.0" rx="5" ry="5" fill="#fff3e5" stroke="#c65f00" stroke-width="1.6"/>
<text x="665.0" y="247.0" font-size="12" text-anchor="middle"><tspan x="665.0" font-weight="700">C45</tspan><tspan x="665.0" dy="15.0">TW [44, 164]</tspan><tspan x="665.0" dy="15.0">start 80.9</tspan><tspan x="665.0" dy="15.0">end 93.9</tspan><tspan x="665.0" dy="15.0">dur. 13.0</tspan></text>
<line x1="728.0" y1="273.0" x2="749.0" y2="273.0" stroke="#c65f00" stroke-width="1.7" marker-end="url(#arrow-1)"/>
<rect x="754.0" y="230.0" width="126.0" height="86.0" rx="5" ry="5" fill="#fff3e5" stroke="#c65f00" stroke-width="1.6"/>
<text x="817.0" y="247.0" font-size="12" text-anchor="middle"><tspan x="817.0" font-weight="700">C24</tspan><tspan x="817.0" dy="15.0">TW [220, 340]</tspan><tspan x="817.0" dy="15.0">start 220.0</tspan><tspan x="817.0" dy="15.0">end 233.0</tspan><tspan x="817.0" dy="15.0">dur. 13.0</tspan></text>
<line x1="880.0" y1="273.0" x2="901.0" y2="273.0" stroke="#c65f00" stroke-width="1.7" marker-end="url(#arrow-1)"/>
<rect x="906.0" y="230.0" width="126.0" height="86.0" rx="5" ry="5" fill="#fff3e5" stroke="#c65f00" stroke-width="1.6"/>
<text x="969.0" y="247.0" font-size="12" text-anchor="middle"><tspan x="969.0" font-weight="700">C44</tspan><tspan x="969.0" dy="15.0">TW [283, 403]</tspan><tspan x="969.0" dy="15.0">start 283.0</tspan><tspan x="969.0" dy="15.0">end 296.0</tspan><tspan x="969.0" dy="15.0">dur. 13.0</tspan></text>
<line x1="1032.0" y1="273.0" x2="1053.0" y2="273.0" stroke="#c65f00" stroke-width="1.7" marker-end="url(#arrow-1)"/>
<rect x="1058.0" y="230.0" width="126.0" height="86.0" rx="5" ry="5" fill="#fff3e5" stroke="#c65f00" stroke-width="1.6"/>
<text x="1121.0" y="247.0" font-size="12" text-anchor="middle"><tspan x="1121.0" font-weight="700">C47</tspan><tspan x="1121.0" dy="15.0">TW [250, 370]</tspan><tspan x="1121.0" dy="15.0">start 304.1</tspan><tspan x="1121.0" dy="15.0">end 317.1</tspan><tspan x="1121.0" dy="15.0">dur. 13.0</tspan></text>
<line x1="1184.0" y1="273.0" x2="1205.0" y2="273.0" stroke="#c65f00" stroke-width="1.7" marker-end="url(#arrow-1)"/>
<rect x="1210.0" y="230.0" width="126.0" height="86.0" rx="5" ry="5" fill="#fff3e5" stroke="#c65f00" stroke-width="1.6"/>
<text x="1273.0" y="247.0" font-size="12" text-anchor="middle"><tspan x="1273.0" font-weight="700">C48</tspan><tspan x="1273.0" dy="15.0">TW [427, 547]</tspan><tspan x="1273.0" dy="15.0">start 427.0</tspan><tspan x="1273.0" dy="15.0">end 440.0</tspan><tspan x="1273.0" dy="15.0">dur. 13.0</tspan></text>
<line x1="1336.0" y1="273.0" x2="1357.0" y2="273.0" stroke="#c65f00" stroke-width="1.7" marker-end="url(#arrow-1)"/>
<rect x="1362.0" y="230.0" width="126.0" height="86.0" rx="5" ry="5" fill="#fff3e5" stroke="#c65f00" stroke-width="1.6"/>
<text x="1425.0" y="247.0" font-size="12" text-anchor="middle"><tspan x="1425.0" font-weight="700">C35</tspan><tspan x="1425.0" dy="15.0">TW [448, 568]</tspan><tspan x="1425.0" dy="15.0">start 448.0</tspan><tspan x="1425.0" dy="15.0">end 461.0</tspan><tspan x="1425.0" dy="15.0">dur. 13.0</tspan></text>
<line x1="1488.0" y1="273.0" x2="1509.0" y2="273.0" stroke="#c65f00" stroke-width="1.7" marker-end="url(#arrow-1)"/>
<rect x="1514.0" y="230.0" width="126.0" height="86.0" rx="5" ry="5" fill="#fff3e5" stroke="#c65f00" stroke-width="1.6"/>
<text x="1577.0" y="247.0" font-size="12" text-anchor="middle"><tspan x="1577.0" font-weight="700">C39</tspan><tspan x="1577.0" dy="15.0">TW [478, 598]</tspan><tspan x="1577.0" dy="15.0">start 478.0</tspan><tspan x="1577.0" dy="15.0">end 491.0</tspan><tspan x="1577.0" dy="15.0">dur. 13.0</tspan></text>
<line x1="1640.0" y1="273.0" x2="1661.0" y2="273.0" stroke="#c65f00" stroke-width="1.7" marker-end="url(#arrow-1)"/>
<rect x="1666.0" y="241.0" width="100.0" height="64.0" rx="0" ry="0" fill="#fff3e5" stroke="#c65f00" stroke-width="1.6"/>
<text x="1716.0" y="260.0" font-size="12" text-anchor="middle"><tspan x="1716.0" font-weight="700">1002</tspan><tspan x="1716.0" dy="15.0">return</tspan><tspan x="1716.0" dy="15.0">496.9</tspan></text>
<rect x="28.0" y="354.0" width="390.0" height="98.0" rx="5" ry="5" fill="#ecf9ee" stroke="#0b7d25" stroke-width="1.6"/>
<text x="39.0" y="374.0" font-size="12" text-anchor="start"><tspan x="39.0" font-weight="700">Vehicle 2, base 1000</tspan><tspan x="39.0" dy="16.0">1000 -&gt; 40 -&gt; 22 -&gt; 7 -&gt; 13 -&gt; 34 -&gt; 46 -&gt;</tspan><tspan x="39.0" dy="16.0">1000</tspan><tspan x="39.0" dy="16.0">travel 49.6; service 78.0; wait 363.7</tspan><tspan x="39.0" dy="16.0">depart 0.0; finish 491.3; elapsed 491.3</tspan></text>
<line x1="418.0" y1="403.0" x2="445.0" y2="403.0" stroke="#0b7d25" stroke-width="1.7" marker-end="url(#arrow-2)"/>
<rect x="450.0" y="360.0" width="126.0" height="86.0" rx="5" ry="5" fill="#ecf9ee" stroke="#0b7d25" stroke-width="1.6"/>
<text x="513.0" y="377.0" font-size="12" text-anchor="middle"><tspan x="513.0" font-weight="700">C40</tspan><tspan x="513.0" dy="15.0">TW [72, 192]</tspan><tspan x="513.0" dy="15.0">start 72.0</tspan><tspan x="513.0" dy="15.0">end 85.0</tspan><tspan x="513.0" dy="15.0">dur. 13.0</tspan></text>
<line x1="576.0" y1="403.0" x2="597.0" y2="403.0" stroke="#0b7d25" stroke-width="1.7" marker-end="url(#arrow-2)"/>
<rect x="602.0" y="360.0" width="126.0" height="86.0" rx="5" ry="5" fill="#ecf9ee" stroke="#0b7d25" stroke-width="1.6"/>
<text x="665.0" y="377.0" font-size="12" text-anchor="middle"><tspan x="665.0" font-weight="700">C22</tspan><tspan x="665.0" dy="15.0">TW [121, 241]</tspan><tspan x="665.0" dy="15.0">start 121.0</tspan><tspan x="665.0" dy="15.0">end 134.0</tspan><tspan x="665.0" dy="15.0">dur. 13.0</tspan></text>
<line x1="728.0" y1="403.0" x2="749.0" y2="403.0" stroke="#0b7d25" stroke-width="1.7" marker-end="url(#arrow-2)"/>
<rect x="754.0" y="360.0" width="126.0" height="86.0" rx="5" ry="5" fill="#ecf9ee" stroke="#0b7d25" stroke-width="1.6"/>
<text x="817.0" y="377.0" font-size="12" text-anchor="middle"><tspan x="817.0" font-weight="700">C7</tspan><tspan x="817.0" dy="15.0">TW [51, 171]</tspan><tspan x="817.0" dy="15.0">start 138.5</tspan><tspan x="817.0" dy="15.0">end 151.5</tspan><tspan x="817.0" dy="15.0">dur. 13.0</tspan></text>
<line x1="880.0" y1="403.0" x2="901.0" y2="403.0" stroke="#0b7d25" stroke-width="1.7" marker-end="url(#arrow-2)"/>
<rect x="906.0" y="360.0" width="126.0" height="86.0" rx="5" ry="5" fill="#ecf9ee" stroke="#0b7d25" stroke-width="1.6"/>
<text x="969.0" y="377.0" font-size="12" text-anchor="middle"><tspan x="969.0" font-weight="700">C13</tspan><tspan x="969.0" dy="15.0">TW [302, 422]</tspan><tspan x="969.0" dy="15.0">start 302.0</tspan><tspan x="969.0" dy="15.0">end 315.0</tspan><tspan x="969.0" dy="15.0">dur. 13.0</tspan></text>
<line x1="1032.0" y1="403.0" x2="1053.0" y2="403.0" stroke="#0b7d25" stroke-width="1.7" marker-end="url(#arrow-2)"/>
<rect x="1058.0" y="360.0" width="126.0" height="86.0" rx="5" ry="5" fill="#ecf9ee" stroke="#0b7d25" stroke-width="1.6"/>
<text x="1121.0" y="377.0" font-size="12" text-anchor="middle"><tspan x="1121.0" font-weight="700">C34</tspan><tspan x="1121.0" dy="15.0">TW [233, 353]</tspan><tspan x="1121.0" dy="15.0">start 323.0</tspan><tspan x="1121.0" dy="15.0">end 336.0</tspan><tspan x="1121.0" dy="15.0">dur. 13.0</tspan></text>
<line x1="1184.0" y1="403.0" x2="1205.0" y2="403.0" stroke="#0b7d25" stroke-width="1.7" marker-end="url(#arrow-2)"/>
<rect x="1210.0" y="360.0" width="126.0" height="86.0" rx="5" ry="5" fill="#ecf9ee" stroke="#0b7d25" stroke-width="1.6"/>
<text x="1273.0" y="377.0" font-size="12" text-anchor="middle"><tspan x="1273.0" font-weight="700">C46</tspan><tspan x="1273.0" dy="15.0">TW [470, 590]</tspan><tspan x="1273.0" dy="15.0">start 470.0</tspan><tspan x="1273.0" dy="15.0">end 483.0</tspan><tspan x="1273.0" dy="15.0">dur. 13.0</tspan></text>
<line x1="1336.0" y1="403.0" x2="1357.0" y2="403.0" stroke="#0b7d25" stroke-width="1.7" marker-end="url(#arrow-2)"/>
<rect x="1362.0" y="371.0" width="100.0" height="64.0" rx="0" ry="0" fill="#ecf9ee" stroke="#0b7d25" stroke-width="1.6"/>
<text x="1412.0" y="390.0" font-size="12" text-anchor="middle"><tspan x="1412.0" font-weight="700">1000</tspan><tspan x="1412.0" dy="15.0">return</tspan><tspan x="1412.0" dy="15.0">491.3</tspan></text>
<rect x="28.0" y="484.0" width="390.0" height="86.0" rx="5" ry="5" fill="#f5edff" stroke="#7a3db8" stroke-width="1.6"/>
<text x="39.0" y="504.0" font-size="12" text-anchor="start"><tspan x="39.0" font-weight="700">Vehicle 3, base 1006</tspan><tspan x="39.0" dy="16.0">1006 -&gt; 33 -&gt; 8 -&gt; 1006</tspan><tspan x="39.0" dy="16.0">travel 18.7; service 26.0; wait 25.3</tspan><tspan x="39.0" dy="16.0">depart 0.0; finish 70.0; elapsed 70.0</tspan></text>
<line x1="418.0" y1="527.0" x2="445.0" y2="527.0" stroke="#7a3db8" stroke-width="1.7" marker-end="url(#arrow-3)"/>
<rect x="450.0" y="484.0" width="126.0" height="86.0" rx="5" ry="5" fill="#f5edff" stroke="#7a3db8" stroke-width="1.6"/>
<text x="513.0" y="501.0" font-size="12" text-anchor="middle"><tspan x="513.0" font-weight="700">C33</tspan><tspan x="513.0" dy="15.0">TW [31, 151]</tspan><tspan x="513.0" dy="15.0">start 31.0</tspan><tspan x="513.0" dy="15.0">end 44.0</tspan><tspan x="513.0" dy="15.0">dur. 13.0</tspan></text>
<line x1="576.0" y1="527.0" x2="597.0" y2="527.0" stroke="#7a3db8" stroke-width="1.7" marker-end="url(#arrow-3)"/>
<rect x="602.0" y="484.0" width="126.0" height="86.0" rx="5" ry="5" fill="#f5edff" stroke="#7a3db8" stroke-width="1.6"/>
<text x="665.0" y="501.0" font-size="12" text-anchor="middle"><tspan x="665.0" font-weight="700">C8</tspan><tspan x="665.0" dy="15.0">TW [11, 131]</tspan><tspan x="665.0" dy="15.0">start 50.1</tspan><tspan x="665.0" dy="15.0">end 63.1</tspan><tspan x="665.0" dy="15.0">dur. 13.0</tspan></text>
<line x1="728.0" y1="527.0" x2="749.0" y2="527.0" stroke="#7a3db8" stroke-width="1.7" marker-end="url(#arrow-3)"/>
<rect x="754.0" y="495.0" width="100.0" height="64.0" rx="0" ry="0" fill="#f5edff" stroke="#7a3db8" stroke-width="1.6"/>
<text x="804.0" y="514.0" font-size="12" text-anchor="middle"><tspan x="804.0" font-weight="700">1006</tspan><tspan x="804.0" dy="15.0">return</tspan><tspan x="804.0" dy="15.0">70.0</tspan></text>
<rect x="28.0" y="602.0" width="390.0" height="86.0" rx="5" ry="5" fill="#fff1ed" stroke="#9a3412" stroke-width="1.6"/>
<text x="39.0" y="622.0" font-size="12" text-anchor="start"><tspan x="39.0" font-weight="700">Vehicle 4, base 1013</tspan><tspan x="39.0" dy="16.0">1013 -&gt; 49 -&gt; 1 -&gt; 37 -&gt; 31 -&gt; 16 -&gt; 1013</tspan><tspan x="39.0" dy="16.0">travel 66.1; service 65.0; wait 258.7</tspan><tspan x="39.0" dy="16.0">depart 0.0; finish 389.8; elapsed 389.8</tspan></text>
<line x1="418.0" y1="645.0" x2="445.0" y2="645.0" stroke="#9a3412" stroke-width="1.7" marker-end="url(#arrow-4)"/>
<rect x="450.0" y="602.0" width="126.0" height="86.0" rx="5" ry="5" fill="#fff1ed" stroke="#9a3412" stroke-width="1.6"/>
<text x="513.0" y="619.0" font-size="12" text-anchor="middle"><tspan x="513.0" font-weight="700">C49</tspan><tspan x="513.0" dy="15.0">TW [17, 137]</tspan><tspan x="513.0" dy="15.0">start 17.0</tspan><tspan x="513.0" dy="15.0">end 30.0</tspan><tspan x="513.0" dy="15.0">dur. 13.0</tspan></text>
<line x1="576.0" y1="645.0" x2="597.0" y2="645.0" stroke="#9a3412" stroke-width="1.7" marker-end="url(#arrow-4)"/>
<rect x="602.0" y="602.0" width="126.0" height="86.0" rx="5" ry="5" fill="#fff1ed" stroke="#9a3412" stroke-width="1.6"/>
<text x="665.0" y="619.0" font-size="12" text-anchor="middle"><tspan x="665.0" font-weight="700">C1</tspan><tspan x="665.0" dy="15.0">TW [124, 244]</tspan><tspan x="665.0" dy="15.0">start 124.0</tspan><tspan x="665.0" dy="15.0">end 137.0</tspan><tspan x="665.0" dy="15.0">dur. 13.0</tspan></text>
<line x1="728.0" y1="645.0" x2="749.0" y2="645.0" stroke="#9a3412" stroke-width="1.7" marker-end="url(#arrow-4)"/>
<rect x="754.0" y="602.0" width="126.0" height="86.0" rx="5" ry="5" fill="#fff1ed" stroke="#9a3412" stroke-width="1.6"/>
<text x="817.0" y="619.0" font-size="12" text-anchor="middle"><tspan x="817.0" font-weight="700">C37</tspan><tspan x="817.0" dy="15.0">TW [239, 359]</tspan><tspan x="817.0" dy="15.0">start 239.0</tspan><tspan x="817.0" dy="15.0">end 252.0</tspan><tspan x="817.0" dy="15.0">dur. 13.0</tspan></text>
<line x1="880.0" y1="645.0" x2="901.0" y2="645.0" stroke="#9a3412" stroke-width="1.7" marker-end="url(#arrow-4)"/>
<rect x="906.0" y="602.0" width="126.0" height="86.0" rx="5" ry="5" fill="#fff1ed" stroke="#9a3412" stroke-width="1.6"/>
<text x="969.0" y="619.0" font-size="12" text-anchor="middle"><tspan x="969.0" font-weight="700">C31</tspan><tspan x="969.0" dy="15.0">TW [347, 467]</tspan><tspan x="969.0" dy="15.0">start 347.0</tspan><tspan x="969.0" dy="15.0">end 360.0</tspan><tspan x="969.0" dy="15.0">dur. 13.0</tspan></text>
<line x1="1032.0" y1="645.0" x2="1053.0" y2="645.0" stroke="#9a3412" stroke-width="1.7" marker-end="url(#arrow-4)"/>
<rect x="1058.0" y="602.0" width="126.0" height="86.0" rx="5" ry="5" fill="#fff1ed" stroke="#9a3412" stroke-width="1.6"/>
<text x="1121.0" y="619.0" font-size="12" text-anchor="middle"><tspan x="1121.0" font-weight="700">C16</tspan><tspan x="1121.0" dy="15.0">TW [348, 468]</tspan><tspan x="1121.0" dy="15.0">start 364.5</tspan><tspan x="1121.0" dy="15.0">end 377.5</tspan><tspan x="1121.0" dy="15.0">dur. 13.0</tspan></text>
<line x1="1184.0" y1="645.0" x2="1205.0" y2="645.0" stroke="#9a3412" stroke-width="1.7" marker-end="url(#arrow-4)"/>
<rect x="1210.0" y="613.0" width="100.0" height="64.0" rx="0" ry="0" fill="#fff1ed" stroke="#9a3412" stroke-width="1.6"/>
<text x="1260.0" y="632.0" font-size="12" text-anchor="middle"><tspan x="1260.0" font-weight="700">1013</tspan><tspan x="1260.0" dy="15.0">return</tspan><tspan x="1260.0" dy="15.0">389.8</tspan></text>
<rect x="28.0" y="720.0" width="390.0" height="98.0" rx="5" ry="5" fill="#e7fbfd" stroke="#006d77" stroke-width="1.6"/>
<text x="39.0" y="740.0" font-size="12" text-anchor="start"><tspan x="39.0" font-weight="700">Vehicle 5, base 1016</tspan><tspan x="39.0" dy="16.0">1016 -&gt; 23 -&gt; 26 -&gt; 14 -&gt; 20 -&gt; 36 -&gt; 30 -&gt; 9</tspan><tspan x="39.0" dy="16.0">-&gt; 1016</tspan><tspan x="39.0" dy="16.0">travel 84.4; service 91.0; wait 289.1</tspan><tspan x="39.0" dy="16.0">depart 0.0; finish 464.5; elapsed 464.5</tspan></text>
<line x1="418.0" y1="769.0" x2="445.0" y2="769.0" stroke="#006d77" stroke-width="1.7" marker-end="url(#arrow-5)"/>
<rect x="450.0" y="726.0" width="126.0" height="86.0" rx="5" ry="5" fill="#e7fbfd" stroke="#006d77" stroke-width="1.6"/>
<text x="513.0" y="743.0" font-size="12" text-anchor="middle"><tspan x="513.0" font-weight="700">C23</tspan><tspan x="513.0" dy="15.0">TW [128, 248]</tspan><tspan x="513.0" dy="15.0">start 128.0</tspan><tspan x="513.0" dy="15.0">end 141.0</tspan><tspan x="513.0" dy="15.0">dur. 13.0</tspan></text>
<line x1="576.0" y1="769.0" x2="597.0" y2="769.0" stroke="#006d77" stroke-width="1.7" marker-end="url(#arrow-5)"/>
<rect x="602.0" y="726.0" width="126.0" height="86.0" rx="5" ry="5" fill="#e7fbfd" stroke="#006d77" stroke-width="1.6"/>
<text x="665.0" y="743.0" font-size="12" text-anchor="middle"><tspan x="665.0" font-weight="700">C26</tspan><tspan x="665.0" dy="15.0">TW [147, 267]</tspan><tspan x="665.0" dy="15.0">start 159.0</tspan><tspan x="665.0" dy="15.0">end 172.0</tspan><tspan x="665.0" dy="15.0">dur. 13.0</tspan></text>
<line x1="728.0" y1="769.0" x2="749.0" y2="769.0" stroke="#006d77" stroke-width="1.7" marker-end="url(#arrow-5)"/>
<rect x="754.0" y="726.0" width="126.0" height="86.0" rx="5" ry="5" fill="#e7fbfd" stroke="#006d77" stroke-width="1.6"/>
<text x="817.0" y="743.0" font-size="12" text-anchor="middle"><tspan x="817.0" font-weight="700">C14</tspan><tspan x="817.0" dy="15.0">TW [137, 257]</tspan><tspan x="817.0" dy="15.0">start 193.5</tspan><tspan x="817.0" dy="15.0">end 206.5</tspan><tspan x="817.0" dy="15.0">dur. 13.0</tspan></text>
<line x1="880.0" y1="769.0" x2="901.0" y2="769.0" stroke="#006d77" stroke-width="1.7" marker-end="url(#arrow-5)"/>
<rect x="906.0" y="726.0" width="126.0" height="86.0" rx="5" ry="5" fill="#e7fbfd" stroke="#006d77" stroke-width="1.6"/>
<text x="969.0" y="743.0" font-size="12" text-anchor="middle"><tspan x="969.0" font-weight="700">C20</tspan><tspan x="969.0" dy="15.0">TW [255, 375]</tspan><tspan x="969.0" dy="15.0">start 255.0</tspan><tspan x="969.0" dy="15.0">end 268.0</tspan><tspan x="969.0" dy="15.0">dur. 13.0</tspan></text>
<line x1="1032.0" y1="769.0" x2="1053.0" y2="769.0" stroke="#006d77" stroke-width="1.7" marker-end="url(#arrow-5)"/>
<rect x="1058.0" y="726.0" width="126.0" height="86.0" rx="5" ry="5" fill="#e7fbfd" stroke="#006d77" stroke-width="1.6"/>
<text x="1121.0" y="743.0" font-size="12" text-anchor="middle"><tspan x="1121.0" font-weight="700">C36</tspan><tspan x="1121.0" dy="15.0">TW [253, 373]</tspan><tspan x="1121.0" dy="15.0">start 281.9</tspan><tspan x="1121.0" dy="15.0">end 294.9</tspan><tspan x="1121.0" dy="15.0">dur. 13.0</tspan></text>
<line x1="1184.0" y1="769.0" x2="1205.0" y2="769.0" stroke="#006d77" stroke-width="1.7" marker-end="url(#arrow-5)"/>
<rect x="1210.0" y="726.0" width="126.0" height="86.0" rx="5" ry="5" fill="#e7fbfd" stroke="#006d77" stroke-width="1.6"/>
<text x="1273.0" y="743.0" font-size="12" text-anchor="middle"><tspan x="1273.0" font-weight="700">C30</tspan><tspan x="1273.0" dy="15.0">TW [419, 539]</tspan><tspan x="1273.0" dy="15.0">start 419.0</tspan><tspan x="1273.0" dy="15.0">end 432.0</tspan><tspan x="1273.0" dy="15.0">dur. 13.0</tspan></text>
<line x1="1336.0" y1="769.0" x2="1357.0" y2="769.0" stroke="#006d77" stroke-width="1.7" marker-end="url(#arrow-5)"/>
<rect x="1362.0" y="726.0" width="126.0" height="86.0" rx="5" ry="5" fill="#e7fbfd" stroke="#006d77" stroke-width="1.6"/>
<text x="1425.0" y="743.0" font-size="12" text-anchor="middle"><tspan x="1425.0" font-weight="700">C9</tspan><tspan x="1425.0" dy="15.0">TW [413, 533]</tspan><tspan x="1425.0" dy="15.0">start 447.3</tspan><tspan x="1425.0" dy="15.0">end 460.3</tspan><tspan x="1425.0" dy="15.0">dur. 13.0</tspan></text>
<line x1="1488.0" y1="769.0" x2="1509.0" y2="769.0" stroke="#006d77" stroke-width="1.7" marker-end="url(#arrow-5)"/>
<rect x="1514.0" y="737.0" width="100.0" height="64.0" rx="0" ry="0" fill="#e7fbfd" stroke="#006d77" stroke-width="1.6"/>
<text x="1564.0" y="756.0" font-size="12" text-anchor="middle"><tspan x="1564.0" font-weight="700">1016</tspan><tspan x="1564.0" dy="15.0">return</tspan><tspan x="1564.0" dy="15.0">464.5</tspan></text>
<rect x="28.0" y="850.0" width="390.0" height="98.0" rx="5" ry="5" fill="#fff0f6" stroke="#9d174d" stroke-width="1.6"/>
<text x="39.0" y="870.0" font-size="12" text-anchor="start"><tspan x="39.0" font-weight="700">Vehicle 6, base 1010</tspan><tspan x="39.0" dy="16.0">1010 -&gt; 42 -&gt; 10 -&gt; 15 -&gt; 27 -&gt; 3 -&gt; 18 -&gt; 41</tspan><tspan x="39.0" dy="16.0">-&gt; 28 -&gt; 1010</tspan><tspan x="39.0" dy="16.0">travel 117.8; service 104.0; wait 319.1</tspan><tspan x="39.0" dy="16.0">depart 0.0; finish 540.9; elapsed 540.9</tspan></text>
<line x1="418.0" y1="899.0" x2="445.0" y2="899.0" stroke="#9d174d" stroke-width="1.7" marker-end="url(#arrow-6)"/>
<rect x="450.0" y="856.0" width="126.0" height="86.0" rx="5" ry="5" fill="#fff0f6" stroke="#9d174d" stroke-width="1.6"/>
<text x="513.0" y="873.0" font-size="12" text-anchor="middle"><tspan x="513.0" font-weight="700">C42</tspan><tspan x="513.0" dy="15.0">TW [36, 156]</tspan><tspan x="513.0" dy="15.0">start 36.0</tspan><tspan x="513.0" dy="15.0">end 49.0</tspan><tspan x="513.0" dy="15.0">dur. 13.0</tspan></text>
<line x1="576.0" y1="899.0" x2="597.0" y2="899.0" stroke="#9d174d" stroke-width="1.7" marker-end="url(#arrow-6)"/>
<rect x="602.0" y="856.0" width="126.0" height="86.0" rx="5" ry="5" fill="#fff0f6" stroke="#9d174d" stroke-width="1.6"/>
<text x="665.0" y="873.0" font-size="12" text-anchor="middle"><tspan x="665.0" font-weight="700">C10</tspan><tspan x="665.0" dy="15.0">TW [0, 120]</tspan><tspan x="665.0" dy="15.0">start 60.0</tspan><tspan x="665.0" dy="15.0">end 73.0</tspan><tspan x="665.0" dy="15.0">dur. 13.0</tspan></text>
<line x1="728.0" y1="899.0" x2="749.0" y2="899.0" stroke="#9d174d" stroke-width="1.7" marker-end="url(#arrow-6)"/>
<rect x="754.0" y="856.0" width="126.0" height="86.0" rx="5" ry="5" fill="#fff0f6" stroke="#9d174d" stroke-width="1.6"/>
<text x="817.0" y="873.0" font-size="12" text-anchor="middle"><tspan x="817.0" font-weight="700">C15</tspan><tspan x="817.0" dy="15.0">TW [268, 388]</tspan><tspan x="817.0" dy="15.0">start 268.0</tspan><tspan x="817.0" dy="15.0">end 281.0</tspan><tspan x="817.0" dy="15.0">dur. 13.0</tspan></text>
<line x1="880.0" y1="899.0" x2="901.0" y2="899.0" stroke="#9d174d" stroke-width="1.7" marker-end="url(#arrow-6)"/>
<rect x="906.0" y="856.0" width="126.0" height="86.0" rx="5" ry="5" fill="#fff0f6" stroke="#9d174d" stroke-width="1.6"/>
<text x="969.0" y="873.0" font-size="12" text-anchor="middle"><tspan x="969.0" font-weight="700">C27</tspan><tspan x="969.0" dy="15.0">TW [355, 475]</tspan><tspan x="969.0" dy="15.0">start 355.0</tspan><tspan x="969.0" dy="15.0">end 368.0</tspan><tspan x="969.0" dy="15.0">dur. 13.0</tspan></text>
<line x1="1032.0" y1="899.0" x2="1053.0" y2="899.0" stroke="#9d174d" stroke-width="1.7" marker-end="url(#arrow-6)"/>
<rect x="1058.0" y="856.0" width="126.0" height="86.0" rx="5" ry="5" fill="#fff0f6" stroke="#9d174d" stroke-width="1.6"/>
<text x="1121.0" y="873.0" font-size="12" text-anchor="middle"><tspan x="1121.0" font-weight="700">C3</tspan><tspan x="1121.0" dy="15.0">TW [370, 490]</tspan><tspan x="1121.0" dy="15.0">start 383.0</tspan><tspan x="1121.0" dy="15.0">end 396.0</tspan><tspan x="1121.0" dy="15.0">dur. 13.0</tspan></text>
<line x1="1184.0" y1="899.0" x2="1205.0" y2="899.0" stroke="#9d174d" stroke-width="1.7" marker-end="url(#arrow-6)"/>
<rect x="1210.0" y="856.0" width="126.0" height="86.0" rx="5" ry="5" fill="#fff0f6" stroke="#9d174d" stroke-width="1.6"/>
<text x="1273.0" y="873.0" font-size="12" text-anchor="middle"><tspan x="1273.0" font-weight="700">C18</tspan><tspan x="1273.0" dy="15.0">TW [469, 589]</tspan><tspan x="1273.0" dy="15.0">start 469.0</tspan><tspan x="1273.0" dy="15.0">end 482.0</tspan><tspan x="1273.0" dy="15.0">dur. 13.0</tspan></text>
<line x1="1336.0" y1="899.0" x2="1357.0" y2="899.0" stroke="#9d174d" stroke-width="1.7" marker-end="url(#arrow-6)"/>
<rect x="1362.0" y="856.0" width="126.0" height="86.0" rx="5" ry="5" fill="#fff0f6" stroke="#9d174d" stroke-width="1.6"/>
<text x="1425.0" y="873.0" font-size="12" text-anchor="middle"><tspan x="1425.0" font-weight="700">C41</tspan><tspan x="1425.0" dy="15.0">TW [377, 497]</tspan><tspan x="1425.0" dy="15.0">start 496.9</tspan><tspan x="1425.0" dy="15.0">end 509.9</tspan><tspan x="1425.0" dy="15.0">dur. 13.0</tspan></text>
<line x1="1488.0" y1="899.0" x2="1509.0" y2="899.0" stroke="#9d174d" stroke-width="1.7" marker-end="url(#arrow-6)"/>
<rect x="1514.0" y="856.0" width="126.0" height="86.0" rx="5" ry="5" fill="#fff0f6" stroke="#9d174d" stroke-width="1.6"/>
<text x="1577.0" y="873.0" font-size="12" text-anchor="middle"><tspan x="1577.0" font-weight="700">C28</tspan><tspan x="1577.0" dy="15.0">TW [405, 525]</tspan><tspan x="1577.0" dy="15.0">start 515.9</tspan><tspan x="1577.0" dy="15.0">end 528.9</tspan><tspan x="1577.0" dy="15.0">dur. 13.0</tspan></text>
<line x1="1640.0" y1="899.0" x2="1661.0" y2="899.0" stroke="#9d174d" stroke-width="1.7" marker-end="url(#arrow-6)"/>
<rect x="1666.0" y="867.0" width="100.0" height="64.0" rx="0" ry="0" fill="#fff0f6" stroke="#9d174d" stroke-width="1.6"/>
<text x="1716.0" y="886.0" font-size="12" text-anchor="middle"><tspan x="1716.0" font-weight="700">1010</tspan><tspan x="1716.0" dy="15.0">return</tspan><tspan x="1716.0" dy="15.0">540.9</tspan></text>
<rect x="28.0" y="980.0" width="390.0" height="86.0" rx="5" ry="5" fill="#f3fae8" stroke="#4d7c0f" stroke-width="1.6"/>
<text x="39.0" y="1000.0" font-size="12" text-anchor="start"><tspan x="39.0" font-weight="700">Vehicle 7, base 1008</tspan><tspan x="39.0" dy="16.0">1008 -&gt; 43 -&gt; 11 -&gt; 32 -&gt; 38 -&gt; 4 -&gt; 5 -&gt; 1008</tspan><tspan x="39.0" dy="16.0">travel 47.5; service 78.0; wait 312.1</tspan><tspan x="39.0" dy="16.0">depart 0.0; finish 437.6; elapsed 437.6</tspan></text>
<line x1="418.0" y1="1023.0" x2="445.0" y2="1023.0" stroke="#4d7c0f" stroke-width="1.7" marker-end="url(#arrow-7)"/>
<rect x="450.0" y="980.0" width="126.0" height="86.0" rx="5" ry="5" fill="#f3fae8" stroke="#4d7c0f" stroke-width="1.6"/>
<text x="513.0" y="997.0" font-size="12" text-anchor="middle"><tspan x="513.0" font-weight="700">C43</tspan><tspan x="513.0" dy="15.0">TW [28, 148]</tspan><tspan x="513.0" dy="15.0">start 28.0</tspan><tspan x="513.0" dy="15.0">end 41.0</tspan><tspan x="513.0" dy="15.0">dur. 13.0</tspan></text>
<line x1="576.0" y1="1023.0" x2="597.0" y2="1023.0" stroke="#4d7c0f" stroke-width="1.7" marker-end="url(#arrow-7)"/>
<rect x="602.0" y="980.0" width="126.0" height="86.0" rx="5" ry="5" fill="#f3fae8" stroke="#4d7c0f" stroke-width="1.6"/>
<text x="665.0" y="997.0" font-size="12" text-anchor="middle"><tspan x="665.0" font-weight="700">C11</tspan><tspan x="665.0" dy="15.0">TW [114, 234]</tspan><tspan x="665.0" dy="15.0">start 114.0</tspan><tspan x="665.0" dy="15.0">end 127.0</tspan><tspan x="665.0" dy="15.0">dur. 13.0</tspan></text>
<line x1="728.0" y1="1023.0" x2="749.0" y2="1023.0" stroke="#4d7c0f" stroke-width="1.7" marker-end="url(#arrow-7)"/>
<rect x="754.0" y="980.0" width="126.0" height="86.0" rx="5" ry="5" fill="#f3fae8" stroke="#4d7c0f" stroke-width="1.6"/>
<text x="817.0" y="997.0" font-size="12" text-anchor="middle"><tspan x="817.0" font-weight="700">C32</tspan><tspan x="817.0" dy="15.0">TW [361, 481]</tspan><tspan x="817.0" dy="15.0">start 361.0</tspan><tspan x="817.0" dy="15.0">end 374.0</tspan><tspan x="817.0" dy="15.0">dur. 13.0</tspan></text>
<line x1="880.0" y1="1023.0" x2="901.0" y2="1023.0" stroke="#4d7c0f" stroke-width="1.7" marker-end="url(#arrow-7)"/>
<rect x="906.0" y="980.0" width="126.0" height="86.0" rx="5" ry="5" fill="#f3fae8" stroke="#4d7c0f" stroke-width="1.6"/>
<text x="969.0" y="997.0" font-size="12" text-anchor="middle"><tspan x="969.0" font-weight="700">C38</tspan><tspan x="969.0" dy="15.0">TW [316, 436]</tspan><tspan x="969.0" dy="15.0">start 384.4</tspan><tspan x="969.0" dy="15.0">end 397.4</tspan><tspan x="969.0" dy="15.0">dur. 13.0</tspan></text>
<line x1="1032.0" y1="1023.0" x2="1053.0" y2="1023.0" stroke="#4d7c0f" stroke-width="1.7" marker-end="url(#arrow-7)"/>
<rect x="1058.0" y="980.0" width="126.0" height="86.0" rx="5" ry="5" fill="#f3fae8" stroke="#4d7c0f" stroke-width="1.6"/>
<text x="1121.0" y="997.0" font-size="12" text-anchor="middle"><tspan x="1121.0" font-weight="700">C4</tspan><tspan x="1121.0" dy="15.0">TW [301, 421]</tspan><tspan x="1121.0" dy="15.0">start 400.6</tspan><tspan x="1121.0" dy="15.0">end 413.6</tspan><tspan x="1121.0" dy="15.0">dur. 13.0</tspan></text>
<line x1="1184.0" y1="1023.0" x2="1205.0" y2="1023.0" stroke="#4d7c0f" stroke-width="1.7" marker-end="url(#arrow-7)"/>
<rect x="1210.0" y="980.0" width="126.0" height="86.0" rx="5" ry="5" fill="#f3fae8" stroke="#4d7c0f" stroke-width="1.6"/>
<text x="1273.0" y="997.0" font-size="12" text-anchor="middle"><tspan x="1273.0" font-weight="700">C5</tspan><tspan x="1273.0" dy="15.0">TW [372, 492]</tspan><tspan x="1273.0" dy="15.0">start 417.7</tspan><tspan x="1273.0" dy="15.0">end 430.7</tspan><tspan x="1273.0" dy="15.0">dur. 13.0</tspan></text>
<line x1="1336.0" y1="1023.0" x2="1357.0" y2="1023.0" stroke="#4d7c0f" stroke-width="1.7" marker-end="url(#arrow-7)"/>
<rect x="1362.0" y="991.0" width="100.0" height="64.0" rx="0" ry="0" fill="#f3fae8" stroke="#4d7c0f" stroke-width="1.6"/>
<text x="1412.0" y="1010.0" font-size="12" text-anchor="middle"><tspan x="1412.0" font-weight="700">1008</tspan><tspan x="1412.0" dy="15.0">return</tspan><tspan x="1412.0" dy="15.0">437.6</tspan></text>
<rect x="28.0" y="1098.0" width="390.0" height="86.0" rx="5" ry="5" fill="#f1f5f9" stroke="#334155" stroke-width="1.6"/>
<text x="39.0" y="1118.0" font-size="12" text-anchor="start"><tspan x="39.0" font-weight="700">Vehicle 8, base 1003</tspan><tspan x="39.0" dy="16.0">1003 -&gt; 50 -&gt; 1003</tspan><tspan x="39.0" dy="16.0">travel 15.6; service 13.0; wait 98.2</tspan><tspan x="39.0" dy="16.0">depart 0.0; finish 126.8; elapsed 126.8</tspan></text>
<line x1="418.0" y1="1141.0" x2="445.0" y2="1141.0" stroke="#334155" stroke-width="1.7" marker-end="url(#arrow-8)"/>
<rect x="450.0" y="1098.0" width="126.0" height="86.0" rx="5" ry="5" fill="#f1f5f9" stroke="#334155" stroke-width="1.6"/>
<text x="513.0" y="1115.0" font-size="12" text-anchor="middle"><tspan x="513.0" font-weight="700">C50</tspan><tspan x="513.0" dy="15.0">TW [106, 226]</tspan><tspan x="513.0" dy="15.0">start 106.0</tspan><tspan x="513.0" dy="15.0">end 119.0</tspan><tspan x="513.0" dy="15.0">dur. 13.0</tspan></text>
<line x1="576.0" y1="1141.0" x2="597.0" y2="1141.0" stroke="#334155" stroke-width="1.7" marker-end="url(#arrow-8)"/>
<rect x="602.0" y="1109.0" width="100.0" height="64.0" rx="0" ry="0" fill="#f1f5f9" stroke="#334155" stroke-width="1.6"/>
<text x="652.0" y="1128.0" font-size="12" text-anchor="middle"><tspan x="652.0" font-weight="700">1003</tspan><tspan x="652.0" dy="15.0">return</tspan><tspan x="652.0" dy="15.0">126.8</tspan></text>
<rect x="28.0" y="1216.0" width="390.0" height="86.0" rx="5" ry="5" fill="#ecfeff" stroke="#0e7490" stroke-width="1.6"/>
<text x="39.0" y="1236.0" font-size="12" text-anchor="start"><tspan x="39.0" font-weight="700">Vehicle 9, base 1019</tspan><tspan x="39.0" dy="16.0">1019 -&gt; 21 -&gt; 6 -&gt; 19 -&gt; 2 -&gt; 1019</tspan><tspan x="39.0" dy="16.0">travel 41.5; service 52.0; wait 241.7</tspan><tspan x="39.0" dy="16.0">depart 0.0; finish 335.2; elapsed 335.2</tspan></text>
<line x1="418.0" y1="1259.0" x2="445.0" y2="1259.0" stroke="#0e7490" stroke-width="1.7" marker-end="url(#arrow-9)"/>
<rect x="450.0" y="1216.0" width="126.0" height="86.0" rx="5" ry="5" fill="#ecfeff" stroke="#0e7490" stroke-width="1.6"/>
<text x="513.0" y="1233.0" font-size="12" text-anchor="middle"><tspan x="513.0" font-weight="700">C21</tspan><tspan x="513.0" dy="15.0">TW [78, 198]</tspan><tspan x="513.0" dy="15.0">start 78.0</tspan><tspan x="513.0" dy="15.0">end 91.0</tspan><tspan x="513.0" dy="15.0">dur. 13.0</tspan></text>
<line x1="576.0" y1="1259.0" x2="597.0" y2="1259.0" stroke="#0e7490" stroke-width="1.7" marker-end="url(#arrow-9)"/>
<rect x="602.0" y="1216.0" width="126.0" height="86.0" rx="5" ry="5" fill="#ecfeff" stroke="#0e7490" stroke-width="1.6"/>
<text x="665.0" y="1233.0" font-size="12" text-anchor="middle"><tspan x="665.0" font-weight="700">C6</tspan><tspan x="665.0" dy="15.0">TW [278, 398]</tspan><tspan x="665.0" dy="15.0">start 278.0</tspan><tspan x="665.0" dy="15.0">end 291.0</tspan><tspan x="665.0" dy="15.0">dur. 13.0</tspan></text>
<line x1="728.0" y1="1259.0" x2="749.0" y2="1259.0" stroke="#0e7490" stroke-width="1.7" marker-end="url(#arrow-9)"/>
<rect x="754.0" y="1216.0" width="126.0" height="86.0" rx="5" ry="5" fill="#ecfeff" stroke="#0e7490" stroke-width="1.6"/>
<text x="817.0" y="1233.0" font-size="12" text-anchor="middle"><tspan x="817.0" font-weight="700">C19</tspan><tspan x="817.0" dy="15.0">TW [243, 363]</tspan><tspan x="817.0" dy="15.0">start 296.7</tspan><tspan x="817.0" dy="15.0">end 309.7</tspan><tspan x="817.0" dy="15.0">dur. 13.0</tspan></text>
<line x1="880.0" y1="1259.0" x2="901.0" y2="1259.0" stroke="#0e7490" stroke-width="1.7" marker-end="url(#arrow-9)"/>
<rect x="906.0" y="1216.0" width="126.0" height="86.0" rx="5" ry="5" fill="#ecfeff" stroke="#0e7490" stroke-width="1.6"/>
<text x="969.0" y="1233.0" font-size="12" text-anchor="middle"><tspan x="969.0" font-weight="700">C2</tspan><tspan x="969.0" dy="15.0">TW [316, 436]</tspan><tspan x="969.0" dy="15.0">start 316.0</tspan><tspan x="969.0" dy="15.0">end 329.0</tspan><tspan x="969.0" dy="15.0">dur. 13.0</tspan></text>
<line x1="1032.0" y1="1259.0" x2="1053.0" y2="1259.0" stroke="#0e7490" stroke-width="1.7" marker-end="url(#arrow-9)"/>
<rect x="1058.0" y="1227.0" width="100.0" height="64.0" rx="0" ry="0" fill="#ecfeff" stroke="#0e7490" stroke-width="1.6"/>
<text x="1108.0" y="1246.0" font-size="12" text-anchor="middle"><tspan x="1108.0" font-weight="700">1019</tspan><tspan x="1108.0" dy="15.0">return</tspan><tspan x="1108.0" dy="15.0">335.2</tspan></text>
<rect x="28.0" y="1340.0" width="1790.0" height="74.0" rx="5" ry="5" fill="#f8fafc" stroke="#c9ced6" stroke-width="1.6"/>
<text x="40.0" y="1362.0" font-size="12" text-anchor="start"><tspan x="40.0">Open facilities: 1000, 1002, 1003, 1005, 1006, 1008, 1010, 1013, 1016, 1019; unselected candidates: 1001, 1004, 1007, 1009, 1011, 1012, 1014, 1015, 1017, 1018.</tspan><tspan x="40.0" dy="17.0">Times use nominal service durations and earliest-start propagation from a time-zero facility departure.</tspan><tspan x="40.0" dy="17.0">TW denotes the customer time window; start and end denote nominal service start and service completion.</tspan></text>
</svg>
