<?xml version="1.0" encoding="UTF-8"?>
<svg xmlns="http://www.w3.org/2000/svg" width="2474" height="1450" viewBox="0 0 2474 1450" role="img" aria-labelledby="title desc">
<title id="title">Route schedule for flrp-ssr_instance_50_10</title>
<desc id="desc">Non-geographic route schedule with route totals and customer service times.</desc>
<style>
text{font-family:Arial,Helvetica,sans-serif;fill:#111827}
.title{font-size:24px;font-weight:700}
.meta{font-size:13px;fill:#374151}
.caption{font-size:12px;fill:#374151}
</style>
<rect x="0" y="0" width="100%" height="100%" fill="#ffffff"/>
<text class="title" x="28" y="34">FLRP-SSR route schedule: flrp-ssr_instance_50_10</text>
<text class="meta" x="28" y="58">cost = 10550.104; No. of customers = 50; No. of routes= 10</text>
<defs>
<marker id="arrow-0" viewBox="0 0 10 10" refX="8.5" refY="5" markerWidth="6" markerHeight="6" orient="auto">
<path d="M 0 0 L 10 5 L 0 10 z" fill="#174ea6"/>
</marker>
<marker id="arrow-1" viewBox="0 0 10 10" refX="8.5" refY="5" markerWidth="6" markerHeight="6" orient="auto">
<path d="M 0 0 L 10 5 L 0 10 z" fill="#c65f00"/>
</marker>
<marker id="arrow-2" viewBox="0 0 10 10" refX="8.5" refY="5" markerWidth="6" markerHeight="6" orient="auto">
<path d="M 0 0 L 10 5 L 0 10 z" fill="#0b7d25"/>
</marker>
<marker id="arrow-3" viewBox="0 0 10 10" refX="8.5" refY="5" markerWidth="6" markerHeight="6" orient="auto">
<path d="M 0 0 L 10 5 L 0 10 z" fill="#7a3db8"/>
</marker>
<marker id="arrow-4" viewBox="0 0 10 10" refX="8.5" refY="5" markerWidth="6" markerHeight="6" orient="auto">
<path d="M 0 0 L 10 5 L 0 10 z" fill="#9a3412"/>
</marker>
<marker id="arrow-5" viewBox="0 0 10 10" refX="8.5" refY="5" markerWidth="6" markerHeight="6" orient="auto">
<path d="M 0 0 L 10 5 L 0 10 z" fill="#006d77"/>
</marker>
<marker id="arrow-6" viewBox="0 0 10 10" refX="8.5" refY="5" markerWidth="6" markerHeight="6" orient="auto">
<path d="M 0 0 L 10 5 L 0 10 z" fill="#9d174d"/>
</marker>
<marker id="arrow-7" viewBox="0 0 10 10" refX="8.5" refY="5" markerWidth="6" markerHeight="6" orient="auto">
<path d="M 0 0 L 10 5 L 0 10 z" fill="#4d7c0f"/>
</marker>
<marker id="arrow-8" viewBox="0 0 10 10" refX="8.5" refY="5" markerWidth="6" markerHeight="6" orient="auto">
<path d="M 0 0 L 10 5 L 0 10 z" fill="#334155"/>
</marker>
<marker id="arrow-9" viewBox="0 0 10 10" refX="8.5" refY="5" markerWidth="6" markerHeight="6" orient="auto">
<path d="M 0 0 L 10 5 L 0 10 z" fill="#0e7490"/>
</marker>
</defs>
<rect x="28.0" y="106.0" width="390.0" height="98.0" rx="5" ry="5" fill="#edf4ff" stroke="#174ea6" stroke-width="1.6"/>
<text x="39.0" y="126.0" font-size="12" text-anchor="start"><tspan x="39.0" font-weight="700">Vehicle 0, base 1003</tspan><tspan x="39.0" dy="16.0">1003 -&gt; 22 -&gt; 27 -&gt; 16 -&gt; 38 -&gt; 30 -&gt; 13 -&gt;</tspan><tspan x="39.0" dy="16.0">1003</tspan><tspan x="39.0" dy="16.0">travel 72.1; service 90.0; wait 370.1</tspan><tspan x="39.0" dy="16.0">depart 0.0; finish 532.2; elapsed 532.2</tspan></text>
<line x1="418.0" y1="155.0" x2="445.0" y2="155.0" stroke="#174ea6" stroke-width="1.7" marker-end="url(#arrow-0)"/>
<rect x="450.0" y="112.0" width="126.0" height="86.0" rx="5" ry="5" fill="#edf4ff" stroke="#174ea6" stroke-width="1.6"/>
<text x="513.0" y="129.0" font-size="12" text-anchor="middle"><tspan x="513.0" font-weight="700">C22</tspan><tspan x="513.0" dy="15.0">TW [49, 169]</tspan><tspan x="513.0" dy="15.0">start 49.0</tspan><tspan x="513.0" dy="15.0">end 64.0</tspan><tspan x="513.0" dy="15.0">dur. 15.0</tspan></text>
<line x1="576.0" y1="155.0" x2="597.0" y2="155.0" stroke="#174ea6" stroke-width="1.7" marker-end="url(#arrow-0)"/>
<rect x="602.0" y="112.0" width="126.0" height="86.0" rx="5" ry="5" fill="#edf4ff" stroke="#174ea6" stroke-width="1.6"/>
<text x="665.0" y="129.0" font-size="12" text-anchor="middle"><tspan x="665.0" font-weight="700">C27</tspan><tspan x="665.0" dy="15.0">TW [254, 374]</tspan><tspan x="665.0" dy="15.0">start 254.0</tspan><tspan x="665.0" dy="15.0">end 269.0</tspan><tspan x="665.0" dy="15.0">dur. 15.0</tspan></text>
<line x1="728.0" y1="155.0" x2="749.0" y2="155.0" stroke="#174ea6" stroke-width="1.7" marker-end="url(#arrow-0)"/>
<rect x="754.0" y="112.0" width="126.0" height="86.0" rx="5" ry="5" fill="#edf4ff" stroke="#174ea6" stroke-width="1.6"/>
<text x="817.0" y="129.0" font-size="12" text-anchor="middle"><tspan x="817.0" font-weight="700">C16</tspan><tspan x="817.0" dy="15.0">TW [240, 360]</tspan><tspan x="817.0" dy="15.0">start 278.1</tspan><tspan x="817.0" dy="15.0">end 293.1</tspan><tspan x="817.0" dy="15.0">dur. 15.0</tspan></text>
<line x1="880.0" y1="155.0" x2="901.0" y2="155.0" stroke="#174ea6" stroke-width="1.7" marker-end="url(#arrow-0)"/>
<rect x="906.0" y="112.0" width="126.0" height="86.0" rx="5" ry="5" fill="#edf4ff" stroke="#174ea6" stroke-width="1.6"/>
<text x="969.0" y="129.0" font-size="12" text-anchor="middle"><tspan x="969.0" font-weight="700">C38</tspan><tspan x="969.0" dy="15.0">TW [190, 310]</tspan><tspan x="969.0" dy="15.0">start 302.3</tspan><tspan x="969.0" dy="15.0">end 317.3</tspan><tspan x="969.0" dy="15.0">dur. 15.0</tspan></text>
<line x1="1032.0" y1="155.0" x2="1053.0" y2="155.0" stroke="#174ea6" stroke-width="1.7" marker-end="url(#arrow-0)"/>
<rect x="1058.0" y="112.0" width="126.0" height="86.0" rx="5" ry="5" fill="#edf4ff" stroke="#174ea6" stroke-width="1.6"/>
<text x="1121.0" y="129.0" font-size="12" text-anchor="middle"><tspan x="1121.0" font-weight="700">C30</tspan><tspan x="1121.0" dy="15.0">TW [470, 590]</tspan><tspan x="1121.0" dy="15.0">start 470.0</tspan><tspan x="1121.0" dy="15.0">end 485.0</tspan><tspan x="1121.0" dy="15.0">dur. 15.0</tspan></text>
<line x1="1184.0" y1="155.0" x2="1205.0" y2="155.0" stroke="#174ea6" stroke-width="1.7" marker-end="url(#arrow-0)"/>
<rect x="1210.0" y="112.0" width="126.0" height="86.0" rx="5" ry="5" fill="#edf4ff" stroke="#174ea6" stroke-width="1.6"/>
<text x="1273.0" y="129.0" font-size="12" text-anchor="middle"><tspan x="1273.0" font-weight="700">C13</tspan><tspan x="1273.0" dy="15.0">TW [471, 591]</tspan><tspan x="1273.0" dy="15.0">start 506.3</tspan><tspan x="1273.0" dy="15.0">end 521.3</tspan><tspan x="1273.0" dy="15.0">dur. 15.0</tspan></text>
<line x1="1336.0" y1="155.0" x2="1357.0" y2="155.0" stroke="#174ea6" stroke-width="1.7" marker-end="url(#arrow-0)"/>
<rect x="1362.0" y="123.0" width="100.0" height="64.0" rx="0" ry="0" fill="#edf4ff" stroke="#174ea6" stroke-width="1.6"/>
<text x="1412.0" y="142.0" font-size="12" text-anchor="middle"><tspan x="1412.0" font-weight="700">1003</tspan><tspan x="1412.0" dy="15.0">return</tspan><tspan x="1412.0" dy="15.0">532.2</tspan></text>
<rect x="28.0" y="236.0" width="390.0" height="86.0" rx="5" ry="5" fill="#fff3e5" stroke="#c65f00" stroke-width="1.6"/>
<text x="39.0" y="256.0" font-size="12" text-anchor="start"><tspan x="39.0" font-weight="700">Vehicle 1, base 1014</tspan><tspan x="39.0" dy="16.0">1014 -&gt; 3 -&gt; 8 -&gt; 23 -&gt; 21 -&gt; 1014</tspan><tspan x="39.0" dy="16.0">travel 67.7; service 60.0; wait 315.5</tspan><tspan x="39.0" dy="16.0">depart 0.0; finish 443.3; elapsed 443.3</tspan></text>
<line x1="418.0" y1="279.0" x2="445.0" y2="279.0" stroke="#c65f00" stroke-width="1.7" marker-end="url(#arrow-1)"/>
<rect x="450.0" y="236.0" width="126.0" height="86.0" rx="5" ry="5" fill="#fff3e5" stroke="#c65f00" stroke-width="1.6"/>
<text x="513.0" y="253.0" font-size="12" text-anchor="middle"><tspan x="513.0" font-weight="700">C3</tspan><tspan x="513.0" dy="15.0">TW [93, 213]</tspan><tspan x="513.0" dy="15.0">start 93.0</tspan><tspan x="513.0" dy="15.0">end 108.0</tspan><tspan x="513.0" dy="15.0">dur. 15.0</tspan></text>
<line x1="576.0" y1="279.0" x2="597.0" y2="279.0" stroke="#c65f00" stroke-width="1.7" marker-end="url(#arrow-1)"/>
<rect x="602.0" y="236.0" width="126.0" height="86.0" rx="5" ry="5" fill="#fff3e5" stroke="#c65f00" stroke-width="1.6"/>
<text x="665.0" y="253.0" font-size="12" text-anchor="middle"><tspan x="665.0" font-weight="700">C8</tspan><tspan x="665.0" dy="15.0">TW [208, 328]</tspan><tspan x="665.0" dy="15.0">start 208.0</tspan><tspan x="665.0" dy="15.0">end 223.0</tspan><tspan x="665.0" dy="15.0">dur. 15.0</tspan></text>
<line x1="728.0" y1="279.0" x2="749.0" y2="279.0" stroke="#c65f00" stroke-width="1.7" marker-end="url(#arrow-1)"/>
<rect x="754.0" y="236.0" width="126.0" height="86.0" rx="5" ry="5" fill="#fff3e5" stroke="#c65f00" stroke-width="1.6"/>
<text x="817.0" y="253.0" font-size="12" text-anchor="middle"><tspan x="817.0" font-weight="700">C23</tspan><tspan x="817.0" dy="15.0">TW [315, 435]</tspan><tspan x="817.0" dy="15.0">start 315.0</tspan><tspan x="817.0" dy="15.0">end 330.0</tspan><tspan x="817.0" dy="15.0">dur. 15.0</tspan></text>
<line x1="880.0" y1="279.0" x2="901.0" y2="279.0" stroke="#c65f00" stroke-width="1.7" marker-end="url(#arrow-1)"/>
<rect x="906.0" y="236.0" width="126.0" height="86.0" rx="5" ry="5" fill="#fff3e5" stroke="#c65f00" stroke-width="1.6"/>
<text x="969.0" y="253.0" font-size="12" text-anchor="middle"><tspan x="969.0" font-weight="700">C21</tspan><tspan x="969.0" dy="15.0">TW [413, 533]</tspan><tspan x="969.0" dy="15.0">start 413.0</tspan><tspan x="969.0" dy="15.0">end 428.0</tspan><tspan x="969.0" dy="15.0">dur. 15.0</tspan></text>
<line x1="1032.0" y1="279.0" x2="1053.0" y2="279.0" stroke="#c65f00" stroke-width="1.7" marker-end="url(#arrow-1)"/>
<rect x="1058.0" y="247.0" width="100.0" height="64.0" rx="0" ry="0" fill="#fff3e5" stroke="#c65f00" stroke-width="1.6"/>
<text x="1108.0" y="266.0" font-size="12" text-anchor="middle"><tspan x="1108.0" font-weight="700">1014</tspan><tspan x="1108.0" dy="15.0">return</tspan><tspan x="1108.0" dy="15.0">443.3</tspan></text>
<rect x="28.0" y="354.0" width="390.0" height="86.0" rx="5" ry="5" fill="#ecf9ee" stroke="#0b7d25" stroke-width="1.6"/>
<text x="39.0" y="374.0" font-size="12" text-anchor="start"><tspan x="39.0" font-weight="700">Vehicle 2, base 1007</tspan><tspan x="39.0" dy="16.0">1007 -&gt; 49 -&gt; 35 -&gt; 40 -&gt; 28 -&gt; 1007</tspan><tspan x="39.0" dy="16.0">travel 79.5; service 60.0; wait 368.0</tspan><tspan x="39.0" dy="16.0">depart 0.0; finish 507.5; elapsed 507.5</tspan></text>
<line x1="418.0" y1="397.0" x2="445.0" y2="397.0" stroke="#0b7d25" stroke-width="1.7" marker-end="url(#arrow-2)"/>
<rect x="450.0" y="354.0" width="126.0" height="86.0" rx="5" ry="5" fill="#ecf9ee" stroke="#0b7d25" stroke-width="1.6"/>
<text x="513.0" y="371.0" font-size="12" text-anchor="middle"><tspan x="513.0" font-weight="700">C49</tspan><tspan x="513.0" dy="15.0">TW [41, 161]</tspan><tspan x="513.0" dy="15.0">start 41.0</tspan><tspan x="513.0" dy="15.0">end 56.0</tspan><tspan x="513.0" dy="15.0">dur. 15.0</tspan></text>
<line x1="576.0" y1="397.0" x2="597.0" y2="397.0" stroke="#0b7d25" stroke-width="1.7" marker-end="url(#arrow-2)"/>
<rect x="602.0" y="354.0" width="126.0" height="86.0" rx="5" ry="5" fill="#ecf9ee" stroke="#0b7d25" stroke-width="1.6"/>
<text x="665.0" y="371.0" font-size="12" text-anchor="middle"><tspan x="665.0" font-weight="700">C35</tspan><tspan x="665.0" dy="15.0">TW [157, 277]</tspan><tspan x="665.0" dy="15.0">start 157.0</tspan><tspan x="665.0" dy="15.0">end 172.0</tspan><tspan x="665.0" dy="15.0">dur. 15.0</tspan></text>
<line x1="728.0" y1="397.0" x2="749.0" y2="397.0" stroke="#0b7d25" stroke-width="1.7" marker-end="url(#arrow-2)"/>
<rect x="754.0" y="354.0" width="126.0" height="86.0" rx="5" ry="5" fill="#ecf9ee" stroke="#0b7d25" stroke-width="1.6"/>
<text x="817.0" y="371.0" font-size="12" text-anchor="middle"><tspan x="817.0" font-weight="700">C40</tspan><tspan x="817.0" dy="15.0">TW [313, 433]</tspan><tspan x="817.0" dy="15.0">start 313.0</tspan><tspan x="817.0" dy="15.0">end 328.0</tspan><tspan x="817.0" dy="15.0">dur. 15.0</tspan></text>
<line x1="880.0" y1="397.0" x2="901.0" y2="397.0" stroke="#0b7d25" stroke-width="1.7" marker-end="url(#arrow-2)"/>
<rect x="906.0" y="354.0" width="126.0" height="86.0" rx="5" ry="5" fill="#ecf9ee" stroke="#0b7d25" stroke-width="1.6"/>
<text x="969.0" y="371.0" font-size="12" text-anchor="middle"><tspan x="969.0" font-weight="700">C28</tspan><tspan x="969.0" dy="15.0">TW [470, 590]</tspan><tspan x="969.0" dy="15.0">start 470.0</tspan><tspan x="969.0" dy="15.0">end 485.0</tspan><tspan x="969.0" dy="15.0">dur. 15.0</tspan></text>
<line x1="1032.0" y1="397.0" x2="1053.0" y2="397.0" stroke="#0b7d25" stroke-width="1.7" marker-end="url(#arrow-2)"/>
<rect x="1058.0" y="365.0" width="100.0" height="64.0" rx="0" ry="0" fill="#ecf9ee" stroke="#0b7d25" stroke-width="1.6"/>
<text x="1108.0" y="384.0" font-size="12" text-anchor="middle"><tspan x="1108.0" font-weight="700">1007</tspan><tspan x="1108.0" dy="15.0">return</tspan><tspan x="1108.0" dy="15.0">507.5</tspan></text>
<rect x="28.0" y="472.0" width="390.0" height="98.0" rx="5" ry="5" fill="#f5edff" stroke="#7a3db8" stroke-width="1.6"/>
<text x="39.0" y="492.0" font-size="12" text-anchor="start"><tspan x="39.0" font-weight="700">Vehicle 3, base 1008</tspan><tspan x="39.0" dy="16.0">1008 -&gt; 5 -&gt; 12 -&gt; 45 -&gt; 32 -&gt; 31 -&gt; 47 -&gt; 48</tspan><tspan x="39.0" dy="16.0">-&gt; 1008</tspan><tspan x="39.0" dy="16.0">travel 67.3; service 105.0; wait 330.4</tspan><tspan x="39.0" dy="16.0">depart 0.0; finish 502.7; elapsed 502.7</tspan></text>
<line x1="418.0" y1="521.0" x2="445.0" y2="521.0" stroke="#7a3db8" stroke-width="1.7" marker-end="url(#arrow-3)"/>
<rect x="450.0" y="478.0" width="126.0" height="86.0" rx="5" ry="5" fill="#f5edff" stroke="#7a3db8" stroke-width="1.6"/>
<text x="513.0" y="495.0" font-size="12" text-anchor="middle"><tspan x="513.0" font-weight="700">C5</tspan><tspan x="513.0" dy="15.0">TW [46, 166]</tspan><tspan x="513.0" dy="15.0">start 46.0</tspan><tspan x="513.0" dy="15.0">end 61.0</tspan><tspan x="513.0" dy="15.0">dur. 15.0</tspan></text>
<line x1="576.0" y1="521.0" x2="597.0" y2="521.0" stroke="#7a3db8" stroke-width="1.7" marker-end="url(#arrow-3)"/>
<rect x="602.0" y="478.0" width="126.0" height="86.0" rx="5" ry="5" fill="#f5edff" stroke="#7a3db8" stroke-width="1.6"/>
<text x="665.0" y="495.0" font-size="12" text-anchor="middle"><tspan x="665.0" font-weight="700">C12</tspan><tspan x="665.0" dy="15.0">TW [59, 179]</tspan><tspan x="665.0" dy="15.0">start 76.0</tspan><tspan x="665.0" dy="15.0">end 91.0</tspan><tspan x="665.0" dy="15.0">dur. 15.0</tspan></text>
<line x1="728.0" y1="521.0" x2="749.0" y2="521.0" stroke="#7a3db8" stroke-width="1.7" marker-end="url(#arrow-3)"/>
<rect x="754.0" y="478.0" width="126.0" height="86.0" rx="5" ry="5" fill="#f5edff" stroke="#7a3db8" stroke-width="1.6"/>
<text x="817.0" y="495.0" font-size="12" text-anchor="middle"><tspan x="817.0" font-weight="700">C45</tspan><tspan x="817.0" dy="15.0">TW [28, 148]</tspan><tspan x="817.0" dy="15.0">start 95.5</tspan><tspan x="817.0" dy="15.0">end 110.5</tspan><tspan x="817.0" dy="15.0">dur. 15.0</tspan></text>
<line x1="880.0" y1="521.0" x2="901.0" y2="521.0" stroke="#7a3db8" stroke-width="1.7" marker-end="url(#arrow-3)"/>
<rect x="906.0" y="478.0" width="126.0" height="86.0" rx="5" ry="5" fill="#f5edff" stroke="#7a3db8" stroke-width="1.6"/>
<text x="969.0" y="495.0" font-size="12" text-anchor="middle"><tspan x="969.0" font-weight="700">C32</tspan><tspan x="969.0" dy="15.0">TW [182, 302]</tspan><tspan x="969.0" dy="15.0">start 182.0</tspan><tspan x="969.0" dy="15.0">end 197.0</tspan><tspan x="969.0" dy="15.0">dur. 15.0</tspan></text>
<line x1="1032.0" y1="521.0" x2="1053.0" y2="521.0" stroke="#7a3db8" stroke-width="1.7" marker-end="url(#arrow-3)"/>
<rect x="1058.0" y="478.0" width="126.0" height="86.0" rx="5" ry="5" fill="#f5edff" stroke="#7a3db8" stroke-width="1.6"/>
<text x="1121.0" y="495.0" font-size="12" text-anchor="middle"><tspan x="1121.0" font-weight="700">C31</tspan><tspan x="1121.0" dy="15.0">TW [308, 428]</tspan><tspan x="1121.0" dy="15.0">start 308.0</tspan><tspan x="1121.0" dy="15.0">end 323.0</tspan><tspan x="1121.0" dy="15.0">dur. 15.0</tspan></text>
<line x1="1184.0" y1="521.0" x2="1205.0" y2="521.0" stroke="#7a3db8" stroke-width="1.7" marker-end="url(#arrow-3)"/>
<rect x="1210.0" y="478.0" width="126.0" height="86.0" rx="5" ry="5" fill="#f5edff" stroke="#7a3db8" stroke-width="1.6"/>
<text x="1273.0" y="495.0" font-size="12" text-anchor="middle"><tspan x="1273.0" font-weight="700">C47</tspan><tspan x="1273.0" dy="15.0">TW [438, 558]</tspan><tspan x="1273.0" dy="15.0">start 438.0</tspan><tspan x="1273.0" dy="15.0">end 453.0</tspan><tspan x="1273.0" dy="15.0">dur. 15.0</tspan></text>
<line x1="1336.0" y1="521.0" x2="1357.0" y2="521.0" stroke="#7a3db8" stroke-width="1.7" marker-end="url(#arrow-3)"/>
<rect x="1362.0" y="478.0" width="126.0" height="86.0" rx="5" ry="5" fill="#f5edff" stroke="#7a3db8" stroke-width="1.6"/>
<text x="1425.0" y="495.0" font-size="12" text-anchor="middle"><tspan x="1425.0" font-weight="700">C48</tspan><tspan x="1425.0" dy="15.0">TW [474, 594]</tspan><tspan x="1425.0" dy="15.0">start 474.0</tspan><tspan x="1425.0" dy="15.0">end 489.0</tspan><tspan x="1425.0" dy="15.0">dur. 15.0</tspan></text>
<line x1="1488.0" y1="521.0" x2="1509.0" y2="521.0" stroke="#7a3db8" stroke-width="1.7" marker-end="url(#arrow-3)"/>
<rect x="1514.0" y="489.0" width="100.0" height="64.0" rx="0" ry="0" fill="#f5edff" stroke="#7a3db8" stroke-width="1.6"/>
<text x="1564.0" y="508.0" font-size="12" text-anchor="middle"><tspan x="1564.0" font-weight="700">1008</tspan><tspan x="1564.0" dy="15.0">return</tspan><tspan x="1564.0" dy="15.0">502.7</tspan></text>
<rect x="28.0" y="602.0" width="390.0" height="86.0" rx="5" ry="5" fill="#fff1ed" stroke="#9a3412" stroke-width="1.6"/>
<text x="39.0" y="622.0" font-size="12" text-anchor="start"><tspan x="39.0" font-weight="700">Vehicle 4, base 1001</tspan><tspan x="39.0" dy="16.0">1001 -&gt; 6 -&gt; 10 -&gt; 1001</tspan><tspan x="39.0" dy="16.0">travel 13.1; service 30.0; wait 432.2</tspan><tspan x="39.0" dy="16.0">depart 0.0; finish 475.2; elapsed 475.2</tspan></text>
<line x1="418.0" y1="645.0" x2="445.0" y2="645.0" stroke="#9a3412" stroke-width="1.7" marker-end="url(#arrow-4)"/>
<rect x="450.0" y="602.0" width="126.0" height="86.0" rx="5" ry="5" fill="#fff1ed" stroke="#9a3412" stroke-width="1.6"/>
<text x="513.0" y="619.0" font-size="12" text-anchor="middle"><tspan x="513.0" font-weight="700">C6</tspan><tspan x="513.0" dy="15.0">TW [256, 376]</tspan><tspan x="513.0" dy="15.0">start 256.0</tspan><tspan x="513.0" dy="15.0">end 271.0</tspan><tspan x="513.0" dy="15.0">dur. 15.0</tspan></text>
<line x1="576.0" y1="645.0" x2="597.0" y2="645.0" stroke="#9a3412" stroke-width="1.7" marker-end="url(#arrow-4)"/>
<rect x="602.0" y="602.0" width="126.0" height="86.0" rx="5" ry="5" fill="#fff1ed" stroke="#9a3412" stroke-width="1.6"/>
<text x="665.0" y="619.0" font-size="12" text-anchor="middle"><tspan x="665.0" font-weight="700">C10</tspan><tspan x="665.0" dy="15.0">TW [454, 574]</tspan><tspan x="665.0" dy="15.0">start 454.0</tspan><tspan x="665.0" dy="15.0">end 469.0</tspan><tspan x="665.0" dy="15.0">dur. 15.0</tspan></text>
<line x1="728.0" y1="645.0" x2="749.0" y2="645.0" stroke="#9a3412" stroke-width="1.7" marker-end="url(#arrow-4)"/>
<rect x="754.0" y="613.0" width="100.0" height="64.0" rx="0" ry="0" fill="#fff1ed" stroke="#9a3412" stroke-width="1.6"/>
<text x="804.0" y="632.0" font-size="12" text-anchor="middle"><tspan x="804.0" font-weight="700">1001</tspan><tspan x="804.0" dy="15.0">return</tspan><tspan x="804.0" dy="15.0">475.2</tspan></text>
<rect x="28.0" y="720.0" width="390.0" height="98.0" rx="5" ry="5" fill="#e7fbfd" stroke="#006d77" stroke-width="1.6"/>
<text x="39.0" y="740.0" font-size="12" text-anchor="start"><tspan x="39.0" font-weight="700">Vehicle 5, base 1004</tspan><tspan x="39.0" dy="16.0">1004 -&gt; 29 -&gt; 18 -&gt; 46 -&gt; 17 -&gt; 41 -&gt; 14 -&gt; 25</tspan><tspan x="39.0" dy="16.0">-&gt; 1004</tspan><tspan x="39.0" dy="16.0">travel 49.4; service 105.0; wait 288.0</tspan><tspan x="39.0" dy="16.0">depart 0.0; finish 442.4; elapsed 442.4</tspan></text>
<line x1="418.0" y1="769.0" x2="445.0" y2="769.0" stroke="#006d77" stroke-width="1.7" marker-end="url(#arrow-5)"/>
<rect x="450.0" y="726.0" width="126.0" height="86.0" rx="5" ry="5" fill="#e7fbfd" stroke="#006d77" stroke-width="1.6"/>
<text x="513.0" y="743.0" font-size="12" text-anchor="middle"><tspan x="513.0" font-weight="700">C29</tspan><tspan x="513.0" dy="15.0">TW [188, 308]</tspan><tspan x="513.0" dy="15.0">start 188.0</tspan><tspan x="513.0" dy="15.0">end 203.0</tspan><tspan x="513.0" dy="15.0">dur. 15.0</tspan></text>
<line x1="576.0" y1="769.0" x2="597.0" y2="769.0" stroke="#006d77" stroke-width="1.7" marker-end="url(#arrow-5)"/>
<rect x="602.0" y="726.0" width="126.0" height="86.0" rx="5" ry="5" fill="#e7fbfd" stroke="#006d77" stroke-width="1.6"/>
<text x="665.0" y="743.0" font-size="12" text-anchor="middle"><tspan x="665.0" font-weight="700">C18</tspan><tspan x="665.0" dy="15.0">TW [193, 313]</tspan><tspan x="665.0" dy="15.0">start 208.4</tspan><tspan x="665.0" dy="15.0">end 223.4</tspan><tspan x="665.0" dy="15.0">dur. 15.0</tspan></text>
<line x1="728.0" y1="769.0" x2="749.0" y2="769.0" stroke="#006d77" stroke-width="1.7" marker-end="url(#arrow-5)"/>
<rect x="754.0" y="726.0" width="126.0" height="86.0" rx="5" ry="5" fill="#e7fbfd" stroke="#006d77" stroke-width="1.6"/>
<text x="817.0" y="743.0" font-size="12" text-anchor="middle"><tspan x="817.0" font-weight="700">C46</tspan><tspan x="817.0" dy="15.0">TW [299, 419]</tspan><tspan x="817.0" dy="15.0">start 299.0</tspan><tspan x="817.0" dy="15.0">end 314.0</tspan><tspan x="817.0" dy="15.0">dur. 15.0</tspan></text>
<line x1="880.0" y1="769.0" x2="901.0" y2="769.0" stroke="#006d77" stroke-width="1.7" marker-end="url(#arrow-5)"/>
<rect x="906.0" y="726.0" width="126.0" height="86.0" rx="5" ry="5" fill="#e7fbfd" stroke="#006d77" stroke-width="1.6"/>
<text x="969.0" y="743.0" font-size="12" text-anchor="middle"><tspan x="969.0" font-weight="700">C17</tspan><tspan x="969.0" dy="15.0">TW [286, 406]</tspan><tspan x="969.0" dy="15.0">start 329.6</tspan><tspan x="969.0" dy="15.0">end 344.6</tspan><tspan x="969.0" dy="15.0">dur. 15.0</tspan></text>
<line x1="1032.0" y1="769.0" x2="1053.0" y2="769.0" stroke="#006d77" stroke-width="1.7" marker-end="url(#arrow-5)"/>
<rect x="1058.0" y="726.0" width="126.0" height="86.0" rx="5" ry="5" fill="#e7fbfd" stroke="#006d77" stroke-width="1.6"/>
<text x="1121.0" y="743.0" font-size="12" text-anchor="middle"><tspan x="1121.0" font-weight="700">C41</tspan><tspan x="1121.0" dy="15.0">TW [299, 419]</tspan><tspan x="1121.0" dy="15.0">start 353.6</tspan><tspan x="1121.0" dy="15.0">end 368.6</tspan><tspan x="1121.0" dy="15.0">dur. 15.0</tspan></text>
<line x1="1184.0" y1="769.0" x2="1205.0" y2="769.0" stroke="#006d77" stroke-width="1.7" marker-end="url(#arrow-5)"/>
<rect x="1210.0" y="726.0" width="126.0" height="86.0" rx="5" ry="5" fill="#e7fbfd" stroke="#006d77" stroke-width="1.6"/>
<text x="1273.0" y="743.0" font-size="12" text-anchor="middle"><tspan x="1273.0" font-weight="700">C14</tspan><tspan x="1273.0" dy="15.0">TW [408, 528]</tspan><tspan x="1273.0" dy="15.0">start 408.0</tspan><tspan x="1273.0" dy="15.0">end 423.0</tspan><tspan x="1273.0" dy="15.0">dur. 15.0</tspan></text>
<line x1="1336.0" y1="769.0" x2="1357.0" y2="769.0" stroke="#006d77" stroke-width="1.7" marker-end="url(#arrow-5)"/>
<rect x="1362.0" y="726.0" width="126.0" height="86.0" rx="5" ry="5" fill="#e7fbfd" stroke="#006d77" stroke-width="1.6"/>
<text x="1425.0" y="743.0" font-size="12" text-anchor="middle"><tspan x="1425.0" font-weight="700">C25</tspan><tspan x="1425.0" dy="15.0">TW [335, 455]</tspan><tspan x="1425.0" dy="15.0">start 426.2</tspan><tspan x="1425.0" dy="15.0">end 441.2</tspan><tspan x="1425.0" dy="15.0">dur. 15.0</tspan></text>
<line x1="1488.0" y1="769.0" x2="1509.0" y2="769.0" stroke="#006d77" stroke-width="1.7" marker-end="url(#arrow-5)"/>
<rect x="1514.0" y="737.0" width="100.0" height="64.0" rx="0" ry="0" fill="#e7fbfd" stroke="#006d77" stroke-width="1.6"/>
<text x="1564.0" y="756.0" font-size="12" text-anchor="middle"><tspan x="1564.0" font-weight="700">1004</tspan><tspan x="1564.0" dy="15.0">return</tspan><tspan x="1564.0" dy="15.0">442.4</tspan></text>
<rect x="28.0" y="850.0" width="390.0" height="86.0" rx="5" ry="5" fill="#fff0f6" stroke="#9d174d" stroke-width="1.6"/>
<text x="39.0" y="870.0" font-size="12" text-anchor="start"><tspan x="39.0" font-weight="700">Vehicle 6, base 1019</tspan><tspan x="39.0" dy="16.0">1019 -&gt; 2 -&gt; 24 -&gt; 15 -&gt; 19 -&gt; 1019</tspan><tspan x="39.0" dy="16.0">travel 39.3; service 60.0; wait 174.8</tspan><tspan x="39.0" dy="16.0">depart 0.0; finish 274.1; elapsed 274.1</tspan></text>
<line x1="418.0" y1="893.0" x2="445.0" y2="893.0" stroke="#9d174d" stroke-width="1.7" marker-end="url(#arrow-6)"/>
<rect x="450.0" y="850.0" width="126.0" height="86.0" rx="5" ry="5" fill="#fff0f6" stroke="#9d174d" stroke-width="1.6"/>
<text x="513.0" y="867.0" font-size="12" text-anchor="middle"><tspan x="513.0" font-weight="700">C2</tspan><tspan x="513.0" dy="15.0">TW [60, 180]</tspan><tspan x="513.0" dy="15.0">start 60.0</tspan><tspan x="513.0" dy="15.0">end 75.0</tspan><tspan x="513.0" dy="15.0">dur. 15.0</tspan></text>
<line x1="576.0" y1="893.0" x2="597.0" y2="893.0" stroke="#9d174d" stroke-width="1.7" marker-end="url(#arrow-6)"/>
<rect x="602.0" y="850.0" width="126.0" height="86.0" rx="5" ry="5" fill="#fff0f6" stroke="#9d174d" stroke-width="1.6"/>
<text x="665.0" y="867.0" font-size="12" text-anchor="middle"><tspan x="665.0" font-weight="700">C24</tspan><tspan x="665.0" dy="15.0">TW [188, 308]</tspan><tspan x="665.0" dy="15.0">start 188.0</tspan><tspan x="665.0" dy="15.0">end 203.0</tspan><tspan x="665.0" dy="15.0">dur. 15.0</tspan></text>
<line x1="728.0" y1="893.0" x2="749.0" y2="893.0" stroke="#9d174d" stroke-width="1.7" marker-end="url(#arrow-6)"/>
<rect x="754.0" y="850.0" width="126.0" height="86.0" rx="5" ry="5" fill="#fff0f6" stroke="#9d174d" stroke-width="1.6"/>
<text x="817.0" y="867.0" font-size="12" text-anchor="middle"><tspan x="817.0" font-weight="700">C15</tspan><tspan x="817.0" dy="15.0">TW [135, 255]</tspan><tspan x="817.0" dy="15.0">start 211.6</tspan><tspan x="817.0" dy="15.0">end 226.6</tspan><tspan x="817.0" dy="15.0">dur. 15.0</tspan></text>
<line x1="880.0" y1="893.0" x2="901.0" y2="893.0" stroke="#9d174d" stroke-width="1.7" marker-end="url(#arrow-6)"/>
<rect x="906.0" y="850.0" width="126.0" height="86.0" rx="5" ry="5" fill="#fff0f6" stroke="#9d174d" stroke-width="1.6"/>
<text x="969.0" y="867.0" font-size="12" text-anchor="middle"><tspan x="969.0" font-weight="700">C19</tspan><tspan x="969.0" dy="15.0">TW [253, 373]</tspan><tspan x="969.0" dy="15.0">start 253.0</tspan><tspan x="969.0" dy="15.0">end 268.0</tspan><tspan x="969.0" dy="15.0">dur. 15.0</tspan></text>
<line x1="1032.0" y1="893.0" x2="1053.0" y2="893.0" stroke="#9d174d" stroke-width="1.7" marker-end="url(#arrow-6)"/>
<rect x="1058.0" y="861.0" width="100.0" height="64.0" rx="0" ry="0" fill="#fff0f6" stroke="#9d174d" stroke-width="1.6"/>
<text x="1108.0" y="880.0" font-size="12" text-anchor="middle"><tspan x="1108.0" font-weight="700">1019</tspan><tspan x="1108.0" dy="15.0">return</tspan><tspan x="1108.0" dy="15.0">274.1</tspan></text>
<rect x="28.0" y="968.0" width="390.0" height="86.0" rx="5" ry="5" fill="#f3fae8" stroke="#4d7c0f" stroke-width="1.6"/>
<text x="39.0" y="988.0" font-size="12" text-anchor="start"><tspan x="39.0" font-weight="700">Vehicle 7, base 1018</tspan><tspan x="39.0" dy="16.0">1018 -&gt; 50 -&gt; 1018</tspan><tspan x="39.0" dy="16.0">travel 5.2; service 15.0; wait 40.4</tspan><tspan x="39.0" dy="16.0">depart 0.0; finish 60.6; elapsed 60.6</tspan></text>
<line x1="418.0" y1="1011.0" x2="445.0" y2="1011.0" stroke="#4d7c0f" stroke-width="1.7" marker-end="url(#arrow-7)"/>
<rect x="450.0" y="968.0" width="126.0" height="86.0" rx="5" ry="5" fill="#f3fae8" stroke="#4d7c0f" stroke-width="1.6"/>
<text x="513.0" y="985.0" font-size="12" text-anchor="middle"><tspan x="513.0" font-weight="700">C50</tspan><tspan x="513.0" dy="15.0">TW [43, 163]</tspan><tspan x="513.0" dy="15.0">start 43.0</tspan><tspan x="513.0" dy="15.0">end 58.0</tspan><tspan x="513.0" dy="15.0">dur. 15.0</tspan></text>
<line x1="576.0" y1="1011.0" x2="597.0" y2="1011.0" stroke="#4d7c0f" stroke-width="1.7" marker-end="url(#arrow-7)"/>
<rect x="602.0" y="979.0" width="100.0" height="64.0" rx="0" ry="0" fill="#f3fae8" stroke="#4d7c0f" stroke-width="1.6"/>
<text x="652.0" y="998.0" font-size="12" text-anchor="middle"><tspan x="652.0" font-weight="700">1018</tspan><tspan x="652.0" dy="15.0">return</tspan><tspan x="652.0" dy="15.0">60.6</tspan></text>
<rect x="28.0" y="1086.0" width="390.0" height="86.0" rx="5" ry="5" fill="#f1f5f9" stroke="#334155" stroke-width="1.6"/>
<text x="39.0" y="1106.0" font-size="12" text-anchor="start"><tspan x="39.0" font-weight="700">Vehicle 8, base 1015</tspan><tspan x="39.0" dy="16.0">1015 -&gt; 37 -&gt; 20 -&gt; 44 -&gt; 1015</tspan><tspan x="39.0" dy="16.0">travel 36.1; service 45.0; wait 194.2</tspan><tspan x="39.0" dy="16.0">depart 0.0; finish 275.3; elapsed 275.3</tspan></text>
<line x1="418.0" y1="1129.0" x2="445.0" y2="1129.0" stroke="#334155" stroke-width="1.7" marker-end="url(#arrow-8)"/>
<rect x="450.0" y="1086.0" width="126.0" height="86.0" rx="5" ry="5" fill="#f1f5f9" stroke="#334155" stroke-width="1.6"/>
<text x="513.0" y="1103.0" font-size="12" text-anchor="middle"><tspan x="513.0" font-weight="700">C37</tspan><tspan x="513.0" dy="15.0">TW [70, 190]</tspan><tspan x="513.0" dy="15.0">start 70.0</tspan><tspan x="513.0" dy="15.0">end 85.0</tspan><tspan x="513.0" dy="15.0">dur. 15.0</tspan></text>
<line x1="576.0" y1="1129.0" x2="597.0" y2="1129.0" stroke="#334155" stroke-width="1.7" marker-end="url(#arrow-8)"/>
<rect x="602.0" y="1086.0" width="126.0" height="86.0" rx="5" ry="5" fill="#f1f5f9" stroke="#334155" stroke-width="1.6"/>
<text x="665.0" y="1103.0" font-size="12" text-anchor="middle"><tspan x="665.0" font-weight="700">C20</tspan><tspan x="665.0" dy="15.0">TW [118, 238]</tspan><tspan x="665.0" dy="15.0">start 118.0</tspan><tspan x="665.0" dy="15.0">end 133.0</tspan><tspan x="665.0" dy="15.0">dur. 15.0</tspan></text>
<line x1="728.0" y1="1129.0" x2="749.0" y2="1129.0" stroke="#334155" stroke-width="1.7" marker-end="url(#arrow-8)"/>
<rect x="754.0" y="1086.0" width="126.0" height="86.0" rx="5" ry="5" fill="#f1f5f9" stroke="#334155" stroke-width="1.6"/>
<text x="817.0" y="1103.0" font-size="12" text-anchor="middle"><tspan x="817.0" font-weight="700">C44</tspan><tspan x="817.0" dy="15.0">TW [252, 372]</tspan><tspan x="817.0" dy="15.0">start 252.0</tspan><tspan x="817.0" dy="15.0">end 267.0</tspan><tspan x="817.0" dy="15.0">dur. 15.0</tspan></text>
<line x1="880.0" y1="1129.0" x2="901.0" y2="1129.0" stroke="#334155" stroke-width="1.7" marker-end="url(#arrow-8)"/>
<rect x="906.0" y="1097.0" width="100.0" height="64.0" rx="0" ry="0" fill="#f1f5f9" stroke="#334155" stroke-width="1.6"/>
<text x="956.0" y="1116.0" font-size="12" text-anchor="middle"><tspan x="956.0" font-weight="700">1015</tspan><tspan x="956.0" dy="15.0">return</tspan><tspan x="956.0" dy="15.0">275.3</tspan></text>
<rect x="28.0" y="1204.0" width="390.0" height="98.0" rx="5" ry="5" fill="#ecfeff" stroke="#0e7490" stroke-width="1.6"/>
<text x="39.0" y="1224.0" font-size="12" text-anchor="start"><tspan x="39.0" font-weight="700">Vehicle 9, base 1006</tspan><tspan x="39.0" dy="16.0">1006 -&gt; 33 -&gt; 11 -&gt; 34 -&gt; 7 -&gt; 4 -&gt; 39 -&gt; 26</tspan><tspan x="39.0" dy="16.0">-&gt; 36 -&gt; 9 -&gt; 1 -&gt; 42 -&gt; 43 -&gt; 1006</tspan><tspan x="39.0" dy="16.0">travel 120.4; service 180.0; wait 207.8</tspan><tspan x="39.0" dy="16.0">depart 0.0; finish 508.3; elapsed 508.3</tspan></text>
<line x1="418.0" y1="1253.0" x2="445.0" y2="1253.0" stroke="#0e7490" stroke-width="1.7" marker-end="url(#arrow-9)"/>
<rect x="450.0" y="1210.0" width="126.0" height="86.0" rx="5" ry="5" fill="#ecfeff" stroke="#0e7490" stroke-width="1.6"/>
<text x="513.0" y="1227.0" font-size="12" text-anchor="middle"><tspan x="513.0" font-weight="700">C33</tspan><tspan x="513.0" dy="15.0">TW [72, 192]</tspan><tspan x="513.0" dy="15.0">start 72.0</tspan><tspan x="513.0" dy="15.0">end 87.0</tspan><tspan x="513.0" dy="15.0">dur. 15.0</tspan></text>
<line x1="576.0" y1="1253.0" x2="597.0" y2="1253.0" stroke="#0e7490" stroke-width="1.7" marker-end="url(#arrow-9)"/>
<rect x="602.0" y="1210.0" width="126.0" height="86.0" rx="5" ry="5" fill="#ecfeff" stroke="#0e7490" stroke-width="1.6"/>
<text x="665.0" y="1227.0" font-size="12" text-anchor="middle"><tspan x="665.0" font-weight="700">C11</tspan><tspan x="665.0" dy="15.0">TW [43, 163]</tspan><tspan x="665.0" dy="15.0">start 93.4</tspan><tspan x="665.0" dy="15.0">end 108.4</tspan><tspan x="665.0" dy="15.0">dur. 15.0</tspan></text>
<line x1="728.0" y1="1253.0" x2="749.0" y2="1253.0" stroke="#0e7490" stroke-width="1.7" marker-end="url(#arrow-9)"/>
<rect x="754.0" y="1210.0" width="126.0" height="86.0" rx="5" ry="5" fill="#ecfeff" stroke="#0e7490" stroke-width="1.6"/>
<text x="817.0" y="1227.0" font-size="12" text-anchor="middle"><tspan x="817.0" font-weight="700">C34</tspan><tspan x="817.0" dy="15.0">TW [116, 236]</tspan><tspan x="817.0" dy="15.0">start 116.0</tspan><tspan x="817.0" dy="15.0">end 131.0</tspan><tspan x="817.0" dy="15.0">dur. 15.0</tspan></text>
<line x1="880.0" y1="1253.0" x2="901.0" y2="1253.0" stroke="#0e7490" stroke-width="1.7" marker-end="url(#arrow-9)"/>
<rect x="906.0" y="1210.0" width="126.0" height="86.0" rx="5" ry="5" fill="#ecfeff" stroke="#0e7490" stroke-width="1.6"/>
<text x="969.0" y="1227.0" font-size="12" text-anchor="middle"><tspan x="969.0" font-weight="700">C7</tspan><tspan x="969.0" dy="15.0">TW [37, 157]</tspan><tspan x="969.0" dy="15.0">start 137.4</tspan><tspan x="969.0" dy="15.0">end 152.4</tspan><tspan x="969.0" dy="15.0">dur. 15.0</tspan></text>
<line x1="1032.0" y1="1253.0" x2="1053.0" y2="1253.0" stroke="#0e7490" stroke-width="1.7" marker-end="url(#arrow-9)"/>
<rect x="1058.0" y="1210.0" width="126.0" height="86.0" rx="5" ry="5" fill="#ecfeff" stroke="#0e7490" stroke-width="1.6"/>
<text x="1121.0" y="1227.0" font-size="12" text-anchor="middle"><tspan x="1121.0" font-weight="700">C4</tspan><tspan x="1121.0" dy="15.0">TW [90, 210]</tspan><tspan x="1121.0" dy="15.0">start 167.3</tspan><tspan x="1121.0" dy="15.0">end 182.3</tspan><tspan x="1121.0" dy="15.0">dur. 15.0</tspan></text>
<line x1="1184.0" y1="1253.0" x2="1205.0" y2="1253.0" stroke="#0e7490" stroke-width="1.7" marker-end="url(#arrow-9)"/>
<rect x="1210.0" y="1210.0" width="126.0" height="86.0" rx="5" ry="5" fill="#ecfeff" stroke="#0e7490" stroke-width="1.6"/>
<text x="1273.0" y="1227.0" font-size="12" text-anchor="middle"><tspan x="1273.0" font-weight="700">C39</tspan><tspan x="1273.0" dy="15.0">TW [75, 195]</tspan><tspan x="1273.0" dy="15.0">start 184.3</tspan><tspan x="1273.0" dy="15.0">end 199.3</tspan><tspan x="1273.0" dy="15.0">dur. 15.0</tspan></text>
<line x1="1336.0" y1="1253.0" x2="1357.0" y2="1253.0" stroke="#0e7490" stroke-width="1.7" marker-end="url(#arrow-9)"/>
<rect x="1362.0" y="1210.0" width="126.0" height="86.0" rx="5" ry="5" fill="#ecfeff" stroke="#0e7490" stroke-width="1.6"/>
<text x="1425.0" y="1227.0" font-size="12" text-anchor="middle"><tspan x="1425.0" font-weight="700">C26</tspan><tspan x="1425.0" dy="15.0">TW [109, 229]</tspan><tspan x="1425.0" dy="15.0">start 212.1</tspan><tspan x="1425.0" dy="15.0">end 227.1</tspan><tspan x="1425.0" dy="15.0">dur. 15.0</tspan></text>
<line x1="1488.0" y1="1253.0" x2="1509.0" y2="1253.0" stroke="#0e7490" stroke-width="1.7" marker-end="url(#arrow-9)"/>
<rect x="1514.0" y="1210.0" width="126.0" height="86.0" rx="5" ry="5" fill="#ecfeff" stroke="#0e7490" stroke-width="1.6"/>
<text x="1577.0" y="1227.0" font-size="12" text-anchor="middle"><tspan x="1577.0" font-weight="700">C36</tspan><tspan x="1577.0" dy="15.0">TW [355, 475]</tspan><tspan x="1577.0" dy="15.0">start 355.0</tspan><tspan x="1577.0" dy="15.0">end 370.0</tspan><tspan x="1577.0" dy="15.0">dur. 15.0</tspan></text>
<line x1="1640.0" y1="1253.0" x2="1661.0" y2="1253.0" stroke="#0e7490" stroke-width="1.7" marker-end="url(#arrow-9)"/>
<rect x="1666.0" y="1210.0" width="126.0" height="86.0" rx="5" ry="5" fill="#ecfeff" stroke="#0e7490" stroke-width="1.6"/>
<text x="1729.0" y="1227.0" font-size="12" text-anchor="middle"><tspan x="1729.0" font-weight="700">C9</tspan><tspan x="1729.0" dy="15.0">TW [261, 381]</tspan><tspan x="1729.0" dy="15.0">start 380.3</tspan><tspan x="1729.0" dy="15.0">end 395.3</tspan><tspan x="1729.0" dy="15.0">dur. 15.0</tspan></text>
<line x1="1792.0" y1="1253.0" x2="1813.0" y2="1253.0" stroke="#0e7490" stroke-width="1.7" marker-end="url(#arrow-9)"/>
<rect x="1818.0" y="1210.0" width="126.0" height="86.0" rx="5" ry="5" fill="#ecfeff" stroke="#0e7490" stroke-width="1.6"/>
<text x="1881.0" y="1227.0" font-size="12" text-anchor="middle"><tspan x="1881.0" font-weight="700">C1</tspan><tspan x="1881.0" dy="15.0">TW [393, 513]</tspan><tspan x="1881.0" dy="15.0">start 416.5</tspan><tspan x="1881.0" dy="15.0">end 431.5</tspan><tspan x="1881.0" dy="15.0">dur. 15.0</tspan></text>
<line x1="1944.0" y1="1253.0" x2="1965.0" y2="1253.0" stroke="#0e7490" stroke-width="1.7" marker-end="url(#arrow-9)"/>
<rect x="1970.0" y="1210.0" width="126.0" height="86.0" rx="5" ry="5" fill="#ecfeff" stroke="#0e7490" stroke-width="1.6"/>
<text x="2033.0" y="1227.0" font-size="12" text-anchor="middle"><tspan x="2033.0" font-weight="700">C42</tspan><tspan x="2033.0" dy="15.0">TW [457, 577]</tspan><tspan x="2033.0" dy="15.0">start 457.0</tspan><tspan x="2033.0" dy="15.0">end 472.0</tspan><tspan x="2033.0" dy="15.0">dur. 15.0</tspan></text>
<line x1="2096.0" y1="1253.0" x2="2117.0" y2="1253.0" stroke="#0e7490" stroke-width="1.7" marker-end="url(#arrow-9)"/>
<rect x="2122.0" y="1210.0" width="126.0" height="86.0" rx="5" ry="5" fill="#ecfeff" stroke="#0e7490" stroke-width="1.6"/>
<text x="2185.0" y="1227.0" font-size="12" text-anchor="middle"><tspan x="2185.0" font-weight="700">C43</tspan><tspan x="2185.0" dy="15.0">TW [392, 512]</tspan><tspan x="2185.0" dy="15.0">start 487.0</tspan><tspan x="2185.0" dy="15.0">end 502.0</tspan><tspan x="2185.0" dy="15.0">dur. 15.0</tspan></text>
<line x1="2248.0" y1="1253.0" x2="2269.0" y2="1253.0" stroke="#0e7490" stroke-width="1.7" marker-end="url(#arrow-9)"/>
<rect x="2274.0" y="1221.0" width="100.0" height="64.0" rx="0" ry="0" fill="#ecfeff" stroke="#0e7490" stroke-width="1.6"/>
<text x="2324.0" y="1240.0" font-size="12" text-anchor="middle"><tspan x="2324.0" font-weight="700">1006</tspan><tspan x="2324.0" dy="15.0">return</tspan><tspan x="2324.0" dy="15.0">508.3</tspan></text>
<rect x="28.0" y="1340.0" width="2398.0" height="74.0" rx="5" ry="5" fill="#f8fafc" stroke="#c9ced6" stroke-width="1.6"/>
<text x="40.0" y="1362.0" font-size="12" text-anchor="start"><tspan x="40.0">Open facilities: 1001, 1003, 1004, 1006, 1007, 1008, 1014, 1015, 1018, 1019; unselected candidates: 1000, 1002, 1005, 1009, 1010, 1011, 1012, 1013, 1016, 1017.</tspan><tspan x="40.0" dy="17.0">Times use nominal service durations and earliest-start propagation from a time-zero facility departure.</tspan><tspan x="40.0" dy="17.0">TW denotes the customer time window; start and end denote nominal service start and service completion.</tspan></text>
</svg>
