<?xml version="1.0" encoding="UTF-8"?>
<svg xmlns="http://www.w3.org/2000/svg" width="2474" height="824" viewBox="0 0 2474 824" role="img" aria-labelledby="title desc">
<title id="title">Route schedule for flrp-ssr_instance_25_9</title>
<desc id="desc">Non-geographic route schedule with route totals and customer service times.</desc>
<style>
text{font-family:Arial,Helvetica,sans-serif;fill:#111827}
.title{font-size:24px;font-weight:700}
.meta{font-size:13px;fill:#374151}
.caption{font-size:12px;fill:#374151}
</style>
<rect x="0" y="0" width="100%" height="100%" fill="#ffffff"/>
<text class="title" x="28" y="34">FLRP-SSR route schedule: flrp-ssr_instance_25_9</text>
<text class="meta" x="28" y="58">cost = 5365.372; No. of customers = 25; No. of routes= 5</text>
<defs>
<marker id="arrow-0" viewBox="0 0 10 10" refX="8.5" refY="5" markerWidth="6" markerHeight="6" orient="auto">
<path d="M 0 0 L 10 5 L 0 10 z" fill="#174ea6"/>
</marker>
<marker id="arrow-1" viewBox="0 0 10 10" refX="8.5" refY="5" markerWidth="6" markerHeight="6" orient="auto">
<path d="M 0 0 L 10 5 L 0 10 z" fill="#c65f00"/>
</marker>
<marker id="arrow-2" viewBox="0 0 10 10" refX="8.5" refY="5" markerWidth="6" markerHeight="6" orient="auto">
<path d="M 0 0 L 10 5 L 0 10 z" fill="#0b7d25"/>
</marker>
<marker id="arrow-3" viewBox="0 0 10 10" refX="8.5" refY="5" markerWidth="6" markerHeight="6" orient="auto">
<path d="M 0 0 L 10 5 L 0 10 z" fill="#7a3db8"/>
</marker>
<marker id="arrow-4" viewBox="0 0 10 10" refX="8.5" refY="5" markerWidth="6" markerHeight="6" orient="auto">
<path d="M 0 0 L 10 5 L 0 10 z" fill="#9a3412"/>
</marker>
</defs>
<rect x="28.0" y="106.0" width="390.0" height="86.0" rx="5" ry="5" fill="#edf4ff" stroke="#174ea6" stroke-width="1.6"/>
<text x="39.0" y="126.0" font-size="12" text-anchor="start"><tspan x="39.0" font-weight="700">Vehicle 0, base 1008</tspan><tspan x="39.0" dy="16.0">1008 -&gt; 16 -&gt; 23 -&gt; 3 -&gt; 13 -&gt; 1008</tspan><tspan x="39.0" dy="16.0">travel 59.1; service 68.0; wait 242.7</tspan><tspan x="39.0" dy="16.0">depart 0.0; finish 369.8; elapsed 369.8</tspan></text>
<line x1="418.0" y1="149.0" x2="445.0" y2="149.0" stroke="#174ea6" stroke-width="1.7" marker-end="url(#arrow-0)"/>
<rect x="450.0" y="106.0" width="126.0" height="86.0" rx="5" ry="5" fill="#edf4ff" stroke="#174ea6" stroke-width="1.6"/>
<text x="513.0" y="123.0" font-size="12" text-anchor="middle"><tspan x="513.0" font-weight="700">C16</tspan><tspan x="513.0" dy="15.0">TW [98, 218]</tspan><tspan x="513.0" dy="15.0">start 98.0</tspan><tspan x="513.0" dy="15.0">end 115.0</tspan><tspan x="513.0" dy="15.0">dur. 17.0</tspan></text>
<line x1="576.0" y1="149.0" x2="597.0" y2="149.0" stroke="#174ea6" stroke-width="1.7" marker-end="url(#arrow-0)"/>
<rect x="602.0" y="106.0" width="126.0" height="86.0" rx="5" ry="5" fill="#edf4ff" stroke="#174ea6" stroke-width="1.6"/>
<text x="665.0" y="123.0" font-size="12" text-anchor="middle"><tspan x="665.0" font-weight="700">C23</tspan><tspan x="665.0" dy="15.0">TW [146, 266]</tspan><tspan x="665.0" dy="15.0">start 146.0</tspan><tspan x="665.0" dy="15.0">end 163.0</tspan><tspan x="665.0" dy="15.0">dur. 17.0</tspan></text>
<line x1="728.0" y1="149.0" x2="749.0" y2="149.0" stroke="#174ea6" stroke-width="1.7" marker-end="url(#arrow-0)"/>
<rect x="754.0" y="106.0" width="126.0" height="86.0" rx="5" ry="5" fill="#edf4ff" stroke="#174ea6" stroke-width="1.6"/>
<text x="817.0" y="123.0" font-size="12" text-anchor="middle"><tspan x="817.0" font-weight="700">C3</tspan><tspan x="817.0" dy="15.0">TW [268, 388]</tspan><tspan x="817.0" dy="15.0">start 268.0</tspan><tspan x="817.0" dy="15.0">end 285.0</tspan><tspan x="817.0" dy="15.0">dur. 17.0</tspan></text>
<line x1="880.0" y1="149.0" x2="901.0" y2="149.0" stroke="#174ea6" stroke-width="1.7" marker-end="url(#arrow-0)"/>
<rect x="906.0" y="106.0" width="126.0" height="86.0" rx="5" ry="5" fill="#edf4ff" stroke="#174ea6" stroke-width="1.6"/>
<text x="969.0" y="123.0" font-size="12" text-anchor="middle"><tspan x="969.0" font-weight="700">C13</tspan><tspan x="969.0" dy="15.0">TW [346, 466]</tspan><tspan x="969.0" dy="15.0">start 346.0</tspan><tspan x="969.0" dy="15.0">end 363.0</tspan><tspan x="969.0" dy="15.0">dur. 17.0</tspan></text>
<line x1="1032.0" y1="149.0" x2="1053.0" y2="149.0" stroke="#174ea6" stroke-width="1.7" marker-end="url(#arrow-0)"/>
<rect x="1058.0" y="117.0" width="100.0" height="64.0" rx="0" ry="0" fill="#edf4ff" stroke="#174ea6" stroke-width="1.6"/>
<text x="1108.0" y="136.0" font-size="12" text-anchor="middle"><tspan x="1108.0" font-weight="700">1008</tspan><tspan x="1108.0" dy="15.0">return</tspan><tspan x="1108.0" dy="15.0">369.8</tspan></text>
<rect x="28.0" y="224.0" width="390.0" height="98.0" rx="5" ry="5" fill="#fff3e5" stroke="#c65f00" stroke-width="1.6"/>
<text x="39.0" y="244.0" font-size="12" text-anchor="start"><tspan x="39.0" font-weight="700">Vehicle 1, base 1000</tspan><tspan x="39.0" dy="16.0">1000 -&gt; 4 -&gt; 11 -&gt; 22 -&gt; 25 -&gt; 6 -&gt; 19 -&gt; 12</tspan><tspan x="39.0" dy="16.0">-&gt; 8 -&gt; 15 -&gt; 24 -&gt; 18 -&gt; 21 -&gt; 1000</tspan><tspan x="39.0" dy="16.0">travel 196.1; service 204.0; wait 108.9</tspan><tspan x="39.0" dy="16.0">depart 0.0; finish 509.0; elapsed 509.0</tspan></text>
<line x1="418.0" y1="273.0" x2="445.0" y2="273.0" stroke="#c65f00" stroke-width="1.7" marker-end="url(#arrow-1)"/>
<rect x="450.0" y="230.0" width="126.0" height="86.0" rx="5" ry="5" fill="#fff3e5" stroke="#c65f00" stroke-width="1.6"/>
<text x="513.0" y="247.0" font-size="12" text-anchor="middle"><tspan x="513.0" font-weight="700">C4</tspan><tspan x="513.0" dy="15.0">TW [55, 175]</tspan><tspan x="513.0" dy="15.0">start 55.0</tspan><tspan x="513.0" dy="15.0">end 72.0</tspan><tspan x="513.0" dy="15.0">dur. 17.0</tspan></text>
<line x1="576.0" y1="273.0" x2="597.0" y2="273.0" stroke="#c65f00" stroke-width="1.7" marker-end="url(#arrow-1)"/>
<rect x="602.0" y="230.0" width="126.0" height="86.0" rx="5" ry="5" fill="#fff3e5" stroke="#c65f00" stroke-width="1.6"/>
<text x="665.0" y="247.0" font-size="12" text-anchor="middle"><tspan x="665.0" font-weight="700">C11</tspan><tspan x="665.0" dy="15.0">TW [86, 206]</tspan><tspan x="665.0" dy="15.0">start 88.6</tspan><tspan x="665.0" dy="15.0">end 105.6</tspan><tspan x="665.0" dy="15.0">dur. 17.0</tspan></text>
<line x1="728.0" y1="273.0" x2="749.0" y2="273.0" stroke="#c65f00" stroke-width="1.7" marker-end="url(#arrow-1)"/>
<rect x="754.0" y="230.0" width="126.0" height="86.0" rx="5" ry="5" fill="#fff3e5" stroke="#c65f00" stroke-width="1.6"/>
<text x="817.0" y="247.0" font-size="12" text-anchor="middle"><tspan x="817.0" font-weight="700">C22</tspan><tspan x="817.0" dy="15.0">TW [46, 166]</tspan><tspan x="817.0" dy="15.0">start 109.2</tspan><tspan x="817.0" dy="15.0">end 126.2</tspan><tspan x="817.0" dy="15.0">dur. 17.0</tspan></text>
<line x1="880.0" y1="273.0" x2="901.0" y2="273.0" stroke="#c65f00" stroke-width="1.7" marker-end="url(#arrow-1)"/>
<rect x="906.0" y="230.0" width="126.0" height="86.0" rx="5" ry="5" fill="#fff3e5" stroke="#c65f00" stroke-width="1.6"/>
<text x="969.0" y="247.0" font-size="12" text-anchor="middle"><tspan x="969.0" font-weight="700">C25</tspan><tspan x="969.0" dy="15.0">TW [161, 281]</tspan><tspan x="969.0" dy="15.0">start 161.0</tspan><tspan x="969.0" dy="15.0">end 178.0</tspan><tspan x="969.0" dy="15.0">dur. 17.0</tspan></text>
<line x1="1032.0" y1="273.0" x2="1053.0" y2="273.0" stroke="#c65f00" stroke-width="1.7" marker-end="url(#arrow-1)"/>
<rect x="1058.0" y="230.0" width="126.0" height="86.0" rx="5" ry="5" fill="#fff3e5" stroke="#c65f00" stroke-width="1.6"/>
<text x="1121.0" y="247.0" font-size="12" text-anchor="middle"><tspan x="1121.0" font-weight="700">C6</tspan><tspan x="1121.0" dy="15.0">TW [177, 297]</tspan><tspan x="1121.0" dy="15.0">start 205.9</tspan><tspan x="1121.0" dy="15.0">end 222.9</tspan><tspan x="1121.0" dy="15.0">dur. 17.0</tspan></text>
<line x1="1184.0" y1="273.0" x2="1205.0" y2="273.0" stroke="#c65f00" stroke-width="1.7" marker-end="url(#arrow-1)"/>
<rect x="1210.0" y="230.0" width="126.0" height="86.0" rx="5" ry="5" fill="#fff3e5" stroke="#c65f00" stroke-width="1.6"/>
<text x="1273.0" y="247.0" font-size="12" text-anchor="middle"><tspan x="1273.0" font-weight="700">C19</tspan><tspan x="1273.0" dy="15.0">TW [239, 359]</tspan><tspan x="1273.0" dy="15.0">start 239.0</tspan><tspan x="1273.0" dy="15.0">end 256.0</tspan><tspan x="1273.0" dy="15.0">dur. 17.0</tspan></text>
<line x1="1336.0" y1="273.0" x2="1357.0" y2="273.0" stroke="#c65f00" stroke-width="1.7" marker-end="url(#arrow-1)"/>
<rect x="1362.0" y="230.0" width="126.0" height="86.0" rx="5" ry="5" fill="#fff3e5" stroke="#c65f00" stroke-width="1.6"/>
<text x="1425.0" y="247.0" font-size="12" text-anchor="middle"><tspan x="1425.0" font-weight="700">C12</tspan><tspan x="1425.0" dy="15.0">TW [166, 286]</tspan><tspan x="1425.0" dy="15.0">start 278.0</tspan><tspan x="1425.0" dy="15.0">end 295.0</tspan><tspan x="1425.0" dy="15.0">dur. 17.0</tspan></text>
<line x1="1488.0" y1="273.0" x2="1509.0" y2="273.0" stroke="#c65f00" stroke-width="1.7" marker-end="url(#arrow-1)"/>
<rect x="1514.0" y="230.0" width="126.0" height="86.0" rx="5" ry="5" fill="#fff3e5" stroke="#c65f00" stroke-width="1.6"/>
<text x="1577.0" y="247.0" font-size="12" text-anchor="middle"><tspan x="1577.0" font-weight="700">C8</tspan><tspan x="1577.0" dy="15.0">TW [216, 336]</tspan><tspan x="1577.0" dy="15.0">start 313.9</tspan><tspan x="1577.0" dy="15.0">end 330.9</tspan><tspan x="1577.0" dy="15.0">dur. 17.0</tspan></text>
<line x1="1640.0" y1="273.0" x2="1661.0" y2="273.0" stroke="#c65f00" stroke-width="1.7" marker-end="url(#arrow-1)"/>
<rect x="1666.0" y="230.0" width="126.0" height="86.0" rx="5" ry="5" fill="#fff3e5" stroke="#c65f00" stroke-width="1.6"/>
<text x="1729.0" y="247.0" font-size="12" text-anchor="middle"><tspan x="1729.0" font-weight="700">C15</tspan><tspan x="1729.0" dy="15.0">TW [335, 455]</tspan><tspan x="1729.0" dy="15.0">start 348.4</tspan><tspan x="1729.0" dy="15.0">end 365.4</tspan><tspan x="1729.0" dy="15.0">dur. 17.0</tspan></text>
<line x1="1792.0" y1="273.0" x2="1813.0" y2="273.0" stroke="#c65f00" stroke-width="1.7" marker-end="url(#arrow-1)"/>
<rect x="1818.0" y="230.0" width="126.0" height="86.0" rx="5" ry="5" fill="#fff3e5" stroke="#c65f00" stroke-width="1.6"/>
<text x="1881.0" y="247.0" font-size="12" text-anchor="middle"><tspan x="1881.0" font-weight="700">C24</tspan><tspan x="1881.0" dy="15.0">TW [412, 532]</tspan><tspan x="1881.0" dy="15.0">start 412.0</tspan><tspan x="1881.0" dy="15.0">end 429.0</tspan><tspan x="1881.0" dy="15.0">dur. 17.0</tspan></text>
<line x1="1944.0" y1="273.0" x2="1965.0" y2="273.0" stroke="#c65f00" stroke-width="1.7" marker-end="url(#arrow-1)"/>
<rect x="1970.0" y="230.0" width="126.0" height="86.0" rx="5" ry="5" fill="#fff3e5" stroke="#c65f00" stroke-width="1.6"/>
<text x="2033.0" y="247.0" font-size="12" text-anchor="middle"><tspan x="2033.0" font-weight="700">C18</tspan><tspan x="2033.0" dy="15.0">TW [368, 488]</tspan><tspan x="2033.0" dy="15.0">start 448.1</tspan><tspan x="2033.0" dy="15.0">end 465.1</tspan><tspan x="2033.0" dy="15.0">dur. 17.0</tspan></text>
<line x1="2096.0" y1="273.0" x2="2117.0" y2="273.0" stroke="#c65f00" stroke-width="1.7" marker-end="url(#arrow-1)"/>
<rect x="2122.0" y="230.0" width="126.0" height="86.0" rx="5" ry="5" fill="#fff3e5" stroke="#c65f00" stroke-width="1.6"/>
<text x="2185.0" y="247.0" font-size="12" text-anchor="middle"><tspan x="2185.0" font-weight="700">C21</tspan><tspan x="2185.0" dy="15.0">TW [391, 511]</tspan><tspan x="2185.0" dy="15.0">start 479.0</tspan><tspan x="2185.0" dy="15.0">end 496.0</tspan><tspan x="2185.0" dy="15.0">dur. 17.0</tspan></text>
<line x1="2248.0" y1="273.0" x2="2269.0" y2="273.0" stroke="#c65f00" stroke-width="1.7" marker-end="url(#arrow-1)"/>
<rect x="2274.0" y="241.0" width="100.0" height="64.0" rx="0" ry="0" fill="#fff3e5" stroke="#c65f00" stroke-width="1.6"/>
<text x="2324.0" y="260.0" font-size="12" text-anchor="middle"><tspan x="2324.0" font-weight="700">1000</tspan><tspan x="2324.0" dy="15.0">return</tspan><tspan x="2324.0" dy="15.0">509.0</tspan></text>
<rect x="28.0" y="354.0" width="390.0" height="86.0" rx="5" ry="5" fill="#ecf9ee" stroke="#0b7d25" stroke-width="1.6"/>
<text x="39.0" y="374.0" font-size="12" text-anchor="start"><tspan x="39.0" font-weight="700">Vehicle 2, base 1009</tspan><tspan x="39.0" dy="16.0">1009 -&gt; 5 -&gt; 9 -&gt; 17 -&gt; 1 -&gt; 1009</tspan><tspan x="39.0" dy="16.0">travel 26.8; service 68.0; wait 196.0</tspan><tspan x="39.0" dy="16.0">depart 0.0; finish 290.7; elapsed 290.7</tspan></text>
<line x1="418.0" y1="397.0" x2="445.0" y2="397.0" stroke="#0b7d25" stroke-width="1.7" marker-end="url(#arrow-2)"/>
<rect x="450.0" y="354.0" width="126.0" height="86.0" rx="5" ry="5" fill="#ecf9ee" stroke="#0b7d25" stroke-width="1.6"/>
<text x="513.0" y="371.0" font-size="12" text-anchor="middle"><tspan x="513.0" font-weight="700">C5</tspan><tspan x="513.0" dy="15.0">TW [119, 239]</tspan><tspan x="513.0" dy="15.0">start 119.0</tspan><tspan x="513.0" dy="15.0">end 136.0</tspan><tspan x="513.0" dy="15.0">dur. 17.0</tspan></text>
<line x1="576.0" y1="397.0" x2="597.0" y2="397.0" stroke="#0b7d25" stroke-width="1.7" marker-end="url(#arrow-2)"/>
<rect x="602.0" y="354.0" width="126.0" height="86.0" rx="5" ry="5" fill="#ecf9ee" stroke="#0b7d25" stroke-width="1.6"/>
<text x="665.0" y="371.0" font-size="12" text-anchor="middle"><tspan x="665.0" font-weight="700">C9</tspan><tspan x="665.0" dy="15.0">TW [73, 193]</tspan><tspan x="665.0" dy="15.0">start 143.3</tspan><tspan x="665.0" dy="15.0">end 160.3</tspan><tspan x="665.0" dy="15.0">dur. 17.0</tspan></text>
<line x1="728.0" y1="397.0" x2="749.0" y2="397.0" stroke="#0b7d25" stroke-width="1.7" marker-end="url(#arrow-2)"/>
<rect x="754.0" y="354.0" width="126.0" height="86.0" rx="5" ry="5" fill="#ecf9ee" stroke="#0b7d25" stroke-width="1.6"/>
<text x="817.0" y="371.0" font-size="12" text-anchor="middle"><tspan x="817.0" font-weight="700">C17</tspan><tspan x="817.0" dy="15.0">TW [251, 371]</tspan><tspan x="817.0" dy="15.0">start 251.0</tspan><tspan x="817.0" dy="15.0">end 268.0</tspan><tspan x="817.0" dy="15.0">dur. 17.0</tspan></text>
<line x1="880.0" y1="397.0" x2="901.0" y2="397.0" stroke="#0b7d25" stroke-width="1.7" marker-end="url(#arrow-2)"/>
<rect x="906.0" y="354.0" width="126.0" height="86.0" rx="5" ry="5" fill="#ecf9ee" stroke="#0b7d25" stroke-width="1.6"/>
<text x="969.0" y="371.0" font-size="12" text-anchor="middle"><tspan x="969.0" font-weight="700">C1</tspan><tspan x="969.0" dy="15.0">TW [229, 349]</tspan><tspan x="969.0" dy="15.0">start 272.5</tspan><tspan x="969.0" dy="15.0">end 289.5</tspan><tspan x="969.0" dy="15.0">dur. 17.0</tspan></text>
<line x1="1032.0" y1="397.0" x2="1053.0" y2="397.0" stroke="#0b7d25" stroke-width="1.7" marker-end="url(#arrow-2)"/>
<rect x="1058.0" y="365.0" width="100.0" height="64.0" rx="0" ry="0" fill="#ecf9ee" stroke="#0b7d25" stroke-width="1.6"/>
<text x="1108.0" y="384.0" font-size="12" text-anchor="middle"><tspan x="1108.0" font-weight="700">1009</tspan><tspan x="1108.0" dy="15.0">return</tspan><tspan x="1108.0" dy="15.0">290.7</tspan></text>
<rect x="28.0" y="472.0" width="390.0" height="86.0" rx="5" ry="5" fill="#f5edff" stroke="#7a3db8" stroke-width="1.6"/>
<text x="39.0" y="492.0" font-size="12" text-anchor="start"><tspan x="39.0" font-weight="700">Vehicle 3, base 1003</tspan><tspan x="39.0" dy="16.0">1003 -&gt; 7 -&gt; 10 -&gt; 14 -&gt; 1003</tspan><tspan x="39.0" dy="16.0">travel 56.8; service 51.0; wait 345.6</tspan><tspan x="39.0" dy="16.0">depart 0.0; finish 453.4; elapsed 453.4</tspan></text>
<line x1="418.0" y1="515.0" x2="445.0" y2="515.0" stroke="#7a3db8" stroke-width="1.7" marker-end="url(#arrow-3)"/>
<rect x="450.0" y="472.0" width="126.0" height="86.0" rx="5" ry="5" fill="#f5edff" stroke="#7a3db8" stroke-width="1.6"/>
<text x="513.0" y="489.0" font-size="12" text-anchor="middle"><tspan x="513.0" font-weight="700">C7</tspan><tspan x="513.0" dy="15.0">TW [233, 353]</tspan><tspan x="513.0" dy="15.0">start 233.0</tspan><tspan x="513.0" dy="15.0">end 250.0</tspan><tspan x="513.0" dy="15.0">dur. 17.0</tspan></text>
<line x1="576.0" y1="515.0" x2="597.0" y2="515.0" stroke="#7a3db8" stroke-width="1.7" marker-end="url(#arrow-3)"/>
<rect x="602.0" y="472.0" width="126.0" height="86.0" rx="5" ry="5" fill="#f5edff" stroke="#7a3db8" stroke-width="1.6"/>
<text x="665.0" y="489.0" font-size="12" text-anchor="middle"><tspan x="665.0" font-weight="700">C10</tspan><tspan x="665.0" dy="15.0">TW [253, 373]</tspan><tspan x="665.0" dy="15.0">start 274.3</tspan><tspan x="665.0" dy="15.0">end 291.3</tspan><tspan x="665.0" dy="15.0">dur. 17.0</tspan></text>
<line x1="728.0" y1="515.0" x2="749.0" y2="515.0" stroke="#7a3db8" stroke-width="1.7" marker-end="url(#arrow-3)"/>
<rect x="754.0" y="472.0" width="126.0" height="86.0" rx="5" ry="5" fill="#f5edff" stroke="#7a3db8" stroke-width="1.6"/>
<text x="817.0" y="489.0" font-size="12" text-anchor="middle"><tspan x="817.0" font-weight="700">C14</tspan><tspan x="817.0" dy="15.0">TW [418, 538]</tspan><tspan x="817.0" dy="15.0">start 418.0</tspan><tspan x="817.0" dy="15.0">end 435.0</tspan><tspan x="817.0" dy="15.0">dur. 17.0</tspan></text>
<line x1="880.0" y1="515.0" x2="901.0" y2="515.0" stroke="#7a3db8" stroke-width="1.7" marker-end="url(#arrow-3)"/>
<rect x="906.0" y="483.0" width="100.0" height="64.0" rx="0" ry="0" fill="#f5edff" stroke="#7a3db8" stroke-width="1.6"/>
<text x="956.0" y="502.0" font-size="12" text-anchor="middle"><tspan x="956.0" font-weight="700">1003</tspan><tspan x="956.0" dy="15.0">return</tspan><tspan x="956.0" dy="15.0">453.4</tspan></text>
<rect x="28.0" y="590.0" width="390.0" height="86.0" rx="5" ry="5" fill="#fff1ed" stroke="#9a3412" stroke-width="1.6"/>
<text x="39.0" y="610.0" font-size="12" text-anchor="start"><tspan x="39.0" font-weight="700">Vehicle 4, base 1002</tspan><tspan x="39.0" dy="16.0">1002 -&gt; 2 -&gt; 20 -&gt; 1002</tspan><tspan x="39.0" dy="16.0">travel 26.6; service 34.0; wait 285.0</tspan><tspan x="39.0" dy="16.0">depart 0.0; finish 345.6; elapsed 345.6</tspan></text>
<line x1="418.0" y1="633.0" x2="445.0" y2="633.0" stroke="#9a3412" stroke-width="1.7" marker-end="url(#arrow-4)"/>
<rect x="450.0" y="590.0" width="126.0" height="86.0" rx="5" ry="5" fill="#fff1ed" stroke="#9a3412" stroke-width="1.6"/>
<text x="513.0" y="607.0" font-size="12" text-anchor="middle"><tspan x="513.0" font-weight="700">C2</tspan><tspan x="513.0" dy="15.0">TW [76, 196]</tspan><tspan x="513.0" dy="15.0">start 76.0</tspan><tspan x="513.0" dy="15.0">end 93.0</tspan><tspan x="513.0" dy="15.0">dur. 17.0</tspan></text>
<line x1="576.0" y1="633.0" x2="597.0" y2="633.0" stroke="#9a3412" stroke-width="1.7" marker-end="url(#arrow-4)"/>
<rect x="602.0" y="590.0" width="126.0" height="86.0" rx="5" ry="5" fill="#fff1ed" stroke="#9a3412" stroke-width="1.6"/>
<text x="665.0" y="607.0" font-size="12" text-anchor="middle"><tspan x="665.0" font-weight="700">C20</tspan><tspan x="665.0" dy="15.0">TW [324, 444]</tspan><tspan x="665.0" dy="15.0">start 324.0</tspan><tspan x="665.0" dy="15.0">end 341.0</tspan><tspan x="665.0" dy="15.0">dur. 17.0</tspan></text>
<line x1="728.0" y1="633.0" x2="749.0" y2="633.0" stroke="#9a3412" stroke-width="1.7" marker-end="url(#arrow-4)"/>
<rect x="754.0" y="601.0" width="100.0" height="64.0" rx="0" ry="0" fill="#fff1ed" stroke="#9a3412" stroke-width="1.6"/>
<text x="804.0" y="620.0" font-size="12" text-anchor="middle"><tspan x="804.0" font-weight="700">1002</tspan><tspan x="804.0" dy="15.0">return</tspan><tspan x="804.0" dy="15.0">345.6</tspan></text>
<rect x="28.0" y="714.0" width="2398.0" height="74.0" rx="5" ry="5" fill="#f8fafc" stroke="#c9ced6" stroke-width="1.6"/>
<text x="40.0" y="736.0" font-size="12" text-anchor="start"><tspan x="40.0">Open facilities: 1000, 1002, 1003, 1008, 1009; unselected candidates: 1001, 1004, 1005, 1006, 1007.</tspan><tspan x="40.0" dy="17.0">Times use nominal service durations and earliest-start propagation from a time-zero facility departure.</tspan><tspan x="40.0" dy="17.0">TW denotes the customer time window; start and end denote nominal service start and service completion.</tspan></text>
</svg>
