<?xml version="1.0" encoding="UTF-8"?>
<svg xmlns="http://www.w3.org/2000/svg" width="2170" height="1438" viewBox="0 0 2170 1438" role="img" aria-labelledby="title desc">
<title id="title">Route schedule for flrp-ssr_instance_50_3</title>
<desc id="desc">Non-geographic route schedule with route totals and customer service times.</desc>
<style>
text{font-family:Arial,Helvetica,sans-serif;fill:#111827}
.title{font-size:24px;font-weight:700}
.meta{font-size:13px;fill:#374151}
.caption{font-size:12px;fill:#374151}
</style>
<rect x="0" y="0" width="100%" height="100%" fill="#ffffff"/>
<text class="title" x="28" y="34">FLRP-SSR route schedule: flrp-ssr_instance_50_3</text>
<text class="meta" x="28" y="58">cost = 10550.924; No. of customers = 50; No. of routes= 10</text>
<defs>
<marker id="arrow-0" viewBox="0 0 10 10" refX="8.5" refY="5" markerWidth="6" markerHeight="6" orient="auto">
<path d="M 0 0 L 10 5 L 0 10 z" fill="#174ea6"/>
</marker>
<marker id="arrow-1" viewBox="0 0 10 10" refX="8.5" refY="5" markerWidth="6" markerHeight="6" orient="auto">
<path d="M 0 0 L 10 5 L 0 10 z" fill="#c65f00"/>
</marker>
<marker id="arrow-2" viewBox="0 0 10 10" refX="8.5" refY="5" markerWidth="6" markerHeight="6" orient="auto">
<path d="M 0 0 L 10 5 L 0 10 z" fill="#0b7d25"/>
</marker>
<marker id="arrow-3" viewBox="0 0 10 10" refX="8.5" refY="5" markerWidth="6" markerHeight="6" orient="auto">
<path d="M 0 0 L 10 5 L 0 10 z" fill="#7a3db8"/>
</marker>
<marker id="arrow-4" viewBox="0 0 10 10" refX="8.5" refY="5" markerWidth="6" markerHeight="6" orient="auto">
<path d="M 0 0 L 10 5 L 0 10 z" fill="#9a3412"/>
</marker>
<marker id="arrow-5" viewBox="0 0 10 10" refX="8.5" refY="5" markerWidth="6" markerHeight="6" orient="auto">
<path d="M 0 0 L 10 5 L 0 10 z" fill="#006d77"/>
</marker>
<marker id="arrow-6" viewBox="0 0 10 10" refX="8.5" refY="5" markerWidth="6" markerHeight="6" orient="auto">
<path d="M 0 0 L 10 5 L 0 10 z" fill="#9d174d"/>
</marker>
<marker id="arrow-7" viewBox="0 0 10 10" refX="8.5" refY="5" markerWidth="6" markerHeight="6" orient="auto">
<path d="M 0 0 L 10 5 L 0 10 z" fill="#4d7c0f"/>
</marker>
<marker id="arrow-8" viewBox="0 0 10 10" refX="8.5" refY="5" markerWidth="6" markerHeight="6" orient="auto">
<path d="M 0 0 L 10 5 L 0 10 z" fill="#334155"/>
</marker>
<marker id="arrow-9" viewBox="0 0 10 10" refX="8.5" refY="5" markerWidth="6" markerHeight="6" orient="auto">
<path d="M 0 0 L 10 5 L 0 10 z" fill="#0e7490"/>
</marker>
</defs>
<rect x="28.0" y="106.0" width="390.0" height="98.0" rx="5" ry="5" fill="#edf4ff" stroke="#174ea6" stroke-width="1.6"/>
<text x="39.0" y="126.0" font-size="12" text-anchor="start"><tspan x="39.0" font-weight="700">Vehicle 0, base 1006</tspan><tspan x="39.0" dy="16.0">1006 -&gt; 9 -&gt; 22 -&gt; 8 -&gt; 12 -&gt; 47 -&gt; 32 -&gt; 31</tspan><tspan x="39.0" dy="16.0">-&gt; 17 -&gt; 1006</tspan><tspan x="39.0" dy="16.0">travel 97.4; service 128.0; wait 224.5</tspan><tspan x="39.0" dy="16.0">depart 0.0; finish 449.9; elapsed 449.9</tspan></text>
<line x1="418.0" y1="155.0" x2="445.0" y2="155.0" stroke="#174ea6" stroke-width="1.7" marker-end="url(#arrow-0)"/>
<rect x="450.0" y="112.0" width="126.0" height="86.0" rx="5" ry="5" fill="#edf4ff" stroke="#174ea6" stroke-width="1.6"/>
<text x="513.0" y="129.0" font-size="12" text-anchor="middle"><tspan x="513.0" font-weight="700">C9</tspan><tspan x="513.0" dy="15.0">TW [19, 139]</tspan><tspan x="513.0" dy="15.0">start 19.0</tspan><tspan x="513.0" dy="15.0">end 35.0</tspan><tspan x="513.0" dy="15.0">dur. 16.0</tspan></text>
<line x1="576.0" y1="155.0" x2="597.0" y2="155.0" stroke="#174ea6" stroke-width="1.7" marker-end="url(#arrow-0)"/>
<rect x="602.0" y="112.0" width="126.0" height="86.0" rx="5" ry="5" fill="#edf4ff" stroke="#174ea6" stroke-width="1.6"/>
<text x="665.0" y="129.0" font-size="12" text-anchor="middle"><tspan x="665.0" font-weight="700">C22</tspan><tspan x="665.0" dy="15.0">TW [132, 252]</tspan><tspan x="665.0" dy="15.0">start 132.0</tspan><tspan x="665.0" dy="15.0">end 148.0</tspan><tspan x="665.0" dy="15.0">dur. 16.0</tspan></text>
<line x1="728.0" y1="155.0" x2="749.0" y2="155.0" stroke="#174ea6" stroke-width="1.7" marker-end="url(#arrow-0)"/>
<rect x="754.0" y="112.0" width="126.0" height="86.0" rx="5" ry="5" fill="#edf4ff" stroke="#174ea6" stroke-width="1.6"/>
<text x="817.0" y="129.0" font-size="12" text-anchor="middle"><tspan x="817.0" font-weight="700">C8</tspan><tspan x="817.0" dy="15.0">TW [244, 364]</tspan><tspan x="817.0" dy="15.0">start 244.0</tspan><tspan x="817.0" dy="15.0">end 260.0</tspan><tspan x="817.0" dy="15.0">dur. 16.0</tspan></text>
<line x1="880.0" y1="155.0" x2="901.0" y2="155.0" stroke="#174ea6" stroke-width="1.7" marker-end="url(#arrow-0)"/>
<rect x="906.0" y="112.0" width="126.0" height="86.0" rx="5" ry="5" fill="#edf4ff" stroke="#174ea6" stroke-width="1.6"/>
<text x="969.0" y="129.0" font-size="12" text-anchor="middle"><tspan x="969.0" font-weight="700">C12</tspan><tspan x="969.0" dy="15.0">TW [322, 442]</tspan><tspan x="969.0" dy="15.0">start 322.0</tspan><tspan x="969.0" dy="15.0">end 338.0</tspan><tspan x="969.0" dy="15.0">dur. 16.0</tspan></text>
<line x1="1032.0" y1="155.0" x2="1053.0" y2="155.0" stroke="#174ea6" stroke-width="1.7" marker-end="url(#arrow-0)"/>
<rect x="1058.0" y="112.0" width="126.0" height="86.0" rx="5" ry="5" fill="#edf4ff" stroke="#174ea6" stroke-width="1.6"/>
<text x="1121.0" y="129.0" font-size="12" text-anchor="middle"><tspan x="1121.0" font-weight="700">C47</tspan><tspan x="1121.0" dy="15.0">TW [248, 368]</tspan><tspan x="1121.0" dy="15.0">start 339.4</tspan><tspan x="1121.0" dy="15.0">end 355.4</tspan><tspan x="1121.0" dy="15.0">dur. 16.0</tspan></text>
<line x1="1184.0" y1="155.0" x2="1205.0" y2="155.0" stroke="#174ea6" stroke-width="1.7" marker-end="url(#arrow-0)"/>
<rect x="1210.0" y="112.0" width="126.0" height="86.0" rx="5" ry="5" fill="#edf4ff" stroke="#174ea6" stroke-width="1.6"/>
<text x="1273.0" y="129.0" font-size="12" text-anchor="middle"><tspan x="1273.0" font-weight="700">C32</tspan><tspan x="1273.0" dy="15.0">TW [275, 395]</tspan><tspan x="1273.0" dy="15.0">start 363.7</tspan><tspan x="1273.0" dy="15.0">end 379.7</tspan><tspan x="1273.0" dy="15.0">dur. 16.0</tspan></text>
<line x1="1336.0" y1="155.0" x2="1357.0" y2="155.0" stroke="#174ea6" stroke-width="1.7" marker-end="url(#arrow-0)"/>
<rect x="1362.0" y="112.0" width="126.0" height="86.0" rx="5" ry="5" fill="#edf4ff" stroke="#174ea6" stroke-width="1.6"/>
<text x="1425.0" y="129.0" font-size="12" text-anchor="middle"><tspan x="1425.0" font-weight="700">C31</tspan><tspan x="1425.0" dy="15.0">TW [398, 518]</tspan><tspan x="1425.0" dy="15.0">start 398.0</tspan><tspan x="1425.0" dy="15.0">end 414.0</tspan><tspan x="1425.0" dy="15.0">dur. 16.0</tspan></text>
<line x1="1488.0" y1="155.0" x2="1509.0" y2="155.0" stroke="#174ea6" stroke-width="1.7" marker-end="url(#arrow-0)"/>
<rect x="1514.0" y="112.0" width="126.0" height="86.0" rx="5" ry="5" fill="#edf4ff" stroke="#174ea6" stroke-width="1.6"/>
<text x="1577.0" y="129.0" font-size="12" text-anchor="middle"><tspan x="1577.0" font-weight="700">C17</tspan><tspan x="1577.0" dy="15.0">TW [336, 456]</tspan><tspan x="1577.0" dy="15.0">start 431.1</tspan><tspan x="1577.0" dy="15.0">end 447.1</tspan><tspan x="1577.0" dy="15.0">dur. 16.0</tspan></text>
<line x1="1640.0" y1="155.0" x2="1661.0" y2="155.0" stroke="#174ea6" stroke-width="1.7" marker-end="url(#arrow-0)"/>
<rect x="1666.0" y="123.0" width="100.0" height="64.0" rx="0" ry="0" fill="#edf4ff" stroke="#174ea6" stroke-width="1.6"/>
<text x="1716.0" y="142.0" font-size="12" text-anchor="middle"><tspan x="1716.0" font-weight="700">1006</tspan><tspan x="1716.0" dy="15.0">return</tspan><tspan x="1716.0" dy="15.0">449.9</tspan></text>
<rect x="28.0" y="236.0" width="390.0" height="86.0" rx="5" ry="5" fill="#fff3e5" stroke="#c65f00" stroke-width="1.6"/>
<text x="39.0" y="256.0" font-size="12" text-anchor="start"><tspan x="39.0" font-weight="700">Vehicle 1, base 1008</tspan><tspan x="39.0" dy="16.0">1008 -&gt; 35 -&gt; 6 -&gt; 7 -&gt; 45 -&gt; 11 -&gt; 5 -&gt; 1008</tspan><tspan x="39.0" dy="16.0">travel 81.7; service 96.0; wait 333.2</tspan><tspan x="39.0" dy="16.0">depart 0.0; finish 510.8; elapsed 510.8</tspan></text>
<line x1="418.0" y1="279.0" x2="445.0" y2="279.0" stroke="#c65f00" stroke-width="1.7" marker-end="url(#arrow-1)"/>
<rect x="450.0" y="236.0" width="126.0" height="86.0" rx="5" ry="5" fill="#fff3e5" stroke="#c65f00" stroke-width="1.6"/>
<text x="513.0" y="253.0" font-size="12" text-anchor="middle"><tspan x="513.0" font-weight="700">C35</tspan><tspan x="513.0" dy="15.0">TW [32, 152]</tspan><tspan x="513.0" dy="15.0">start 32.0</tspan><tspan x="513.0" dy="15.0">end 48.0</tspan><tspan x="513.0" dy="15.0">dur. 16.0</tspan></text>
<line x1="576.0" y1="279.0" x2="597.0" y2="279.0" stroke="#c65f00" stroke-width="1.7" marker-end="url(#arrow-1)"/>
<rect x="602.0" y="236.0" width="126.0" height="86.0" rx="5" ry="5" fill="#fff3e5" stroke="#c65f00" stroke-width="1.6"/>
<text x="665.0" y="253.0" font-size="12" text-anchor="middle"><tspan x="665.0" font-weight="700">C6</tspan><tspan x="665.0" dy="15.0">TW [162, 282]</tspan><tspan x="665.0" dy="15.0">start 162.0</tspan><tspan x="665.0" dy="15.0">end 178.0</tspan><tspan x="665.0" dy="15.0">dur. 16.0</tspan></text>
<line x1="728.0" y1="279.0" x2="749.0" y2="279.0" stroke="#c65f00" stroke-width="1.7" marker-end="url(#arrow-1)"/>
<rect x="754.0" y="236.0" width="126.0" height="86.0" rx="5" ry="5" fill="#fff3e5" stroke="#c65f00" stroke-width="1.6"/>
<text x="817.0" y="253.0" font-size="12" text-anchor="middle"><tspan x="817.0" font-weight="700">C7</tspan><tspan x="817.0" dy="15.0">TW [69, 189]</tspan><tspan x="817.0" dy="15.0">start 182.5</tspan><tspan x="817.0" dy="15.0">end 198.5</tspan><tspan x="817.0" dy="15.0">dur. 16.0</tspan></text>
<line x1="880.0" y1="279.0" x2="901.0" y2="279.0" stroke="#c65f00" stroke-width="1.7" marker-end="url(#arrow-1)"/>
<rect x="906.0" y="236.0" width="126.0" height="86.0" rx="5" ry="5" fill="#fff3e5" stroke="#c65f00" stroke-width="1.6"/>
<text x="969.0" y="253.0" font-size="12" text-anchor="middle"><tspan x="969.0" font-weight="700">C45</tspan><tspan x="969.0" dy="15.0">TW [230, 350]</tspan><tspan x="969.0" dy="15.0">start 230.0</tspan><tspan x="969.0" dy="15.0">end 246.0</tspan><tspan x="969.0" dy="15.0">dur. 16.0</tspan></text>
<line x1="1032.0" y1="279.0" x2="1053.0" y2="279.0" stroke="#c65f00" stroke-width="1.7" marker-end="url(#arrow-1)"/>
<rect x="1058.0" y="236.0" width="126.0" height="86.0" rx="5" ry="5" fill="#fff3e5" stroke="#c65f00" stroke-width="1.6"/>
<text x="1121.0" y="253.0" font-size="12" text-anchor="middle"><tspan x="1121.0" font-weight="700">C11</tspan><tspan x="1121.0" dy="15.0">TW [465, 585]</tspan><tspan x="1121.0" dy="15.0">start 465.0</tspan><tspan x="1121.0" dy="15.0">end 481.0</tspan><tspan x="1121.0" dy="15.0">dur. 16.0</tspan></text>
<line x1="1184.0" y1="279.0" x2="1205.0" y2="279.0" stroke="#c65f00" stroke-width="1.7" marker-end="url(#arrow-1)"/>
<rect x="1210.0" y="236.0" width="126.0" height="86.0" rx="5" ry="5" fill="#fff3e5" stroke="#c65f00" stroke-width="1.6"/>
<text x="1273.0" y="253.0" font-size="12" text-anchor="middle"><tspan x="1273.0" font-weight="700">C5</tspan><tspan x="1273.0" dy="15.0">TW [408, 528]</tspan><tspan x="1273.0" dy="15.0">start 488.0</tspan><tspan x="1273.0" dy="15.0">end 504.0</tspan><tspan x="1273.0" dy="15.0">dur. 16.0</tspan></text>
<line x1="1336.0" y1="279.0" x2="1357.0" y2="279.0" stroke="#c65f00" stroke-width="1.7" marker-end="url(#arrow-1)"/>
<rect x="1362.0" y="247.0" width="100.0" height="64.0" rx="0" ry="0" fill="#fff3e5" stroke="#c65f00" stroke-width="1.6"/>
<text x="1412.0" y="266.0" font-size="12" text-anchor="middle"><tspan x="1412.0" font-weight="700">1008</tspan><tspan x="1412.0" dy="15.0">return</tspan><tspan x="1412.0" dy="15.0">510.8</tspan></text>
<rect x="28.0" y="354.0" width="390.0" height="86.0" rx="5" ry="5" fill="#ecf9ee" stroke="#0b7d25" stroke-width="1.6"/>
<text x="39.0" y="374.0" font-size="12" text-anchor="start"><tspan x="39.0" font-weight="700">Vehicle 2, base 1018</tspan><tspan x="39.0" dy="16.0">1018 -&gt; 50 -&gt; 46 -&gt; 1018</tspan><tspan x="39.0" dy="16.0">travel 23.8; service 32.0; wait 232.8</tspan><tspan x="39.0" dy="16.0">depart 0.0; finish 288.6; elapsed 288.6</tspan></text>
<line x1="418.0" y1="397.0" x2="445.0" y2="397.0" stroke="#0b7d25" stroke-width="1.7" marker-end="url(#arrow-2)"/>
<rect x="450.0" y="354.0" width="126.0" height="86.0" rx="5" ry="5" fill="#ecf9ee" stroke="#0b7d25" stroke-width="1.6"/>
<text x="513.0" y="371.0" font-size="12" text-anchor="middle"><tspan x="513.0" font-weight="700">C50</tspan><tspan x="513.0" dy="15.0">TW [14, 134]</tspan><tspan x="513.0" dy="15.0">start 14.0</tspan><tspan x="513.0" dy="15.0">end 30.0</tspan><tspan x="513.0" dy="15.0">dur. 16.0</tspan></text>
<line x1="576.0" y1="397.0" x2="597.0" y2="397.0" stroke="#0b7d25" stroke-width="1.7" marker-end="url(#arrow-2)"/>
<rect x="602.0" y="354.0" width="126.0" height="86.0" rx="5" ry="5" fill="#ecf9ee" stroke="#0b7d25" stroke-width="1.6"/>
<text x="665.0" y="371.0" font-size="12" text-anchor="middle"><tspan x="665.0" font-weight="700">C46</tspan><tspan x="665.0" dy="15.0">TW [262, 382]</tspan><tspan x="665.0" dy="15.0">start 262.0</tspan><tspan x="665.0" dy="15.0">end 278.0</tspan><tspan x="665.0" dy="15.0">dur. 16.0</tspan></text>
<line x1="728.0" y1="397.0" x2="749.0" y2="397.0" stroke="#0b7d25" stroke-width="1.7" marker-end="url(#arrow-2)"/>
<rect x="754.0" y="365.0" width="100.0" height="64.0" rx="0" ry="0" fill="#ecf9ee" stroke="#0b7d25" stroke-width="1.6"/>
<text x="804.0" y="384.0" font-size="12" text-anchor="middle"><tspan x="804.0" font-weight="700">1018</tspan><tspan x="804.0" dy="15.0">return</tspan><tspan x="804.0" dy="15.0">288.6</tspan></text>
<rect x="28.0" y="472.0" width="390.0" height="86.0" rx="5" ry="5" fill="#f5edff" stroke="#7a3db8" stroke-width="1.6"/>
<text x="39.0" y="492.0" font-size="12" text-anchor="start"><tspan x="39.0" font-weight="700">Vehicle 3, base 1015</tspan><tspan x="39.0" dy="16.0">1015 -&gt; 42 -&gt; 27 -&gt; 29 -&gt; 37 -&gt; 30 -&gt; 1015</tspan><tspan x="39.0" dy="16.0">travel 34.4; service 80.0; wait 382.3</tspan><tspan x="39.0" dy="16.0">depart 0.0; finish 496.8; elapsed 496.8</tspan></text>
<line x1="418.0" y1="515.0" x2="445.0" y2="515.0" stroke="#7a3db8" stroke-width="1.7" marker-end="url(#arrow-3)"/>
<rect x="450.0" y="472.0" width="126.0" height="86.0" rx="5" ry="5" fill="#f5edff" stroke="#7a3db8" stroke-width="1.6"/>
<text x="513.0" y="489.0" font-size="12" text-anchor="middle"><tspan x="513.0" font-weight="700">C42</tspan><tspan x="513.0" dy="15.0">TW [89, 209]</tspan><tspan x="513.0" dy="15.0">start 89.0</tspan><tspan x="513.0" dy="15.0">end 105.0</tspan><tspan x="513.0" dy="15.0">dur. 16.0</tspan></text>
<line x1="576.0" y1="515.0" x2="597.0" y2="515.0" stroke="#7a3db8" stroke-width="1.7" marker-end="url(#arrow-3)"/>
<rect x="602.0" y="472.0" width="126.0" height="86.0" rx="5" ry="5" fill="#f5edff" stroke="#7a3db8" stroke-width="1.6"/>
<text x="665.0" y="489.0" font-size="12" text-anchor="middle"><tspan x="665.0" font-weight="700">C27</tspan><tspan x="665.0" dy="15.0">TW [77, 197]</tspan><tspan x="665.0" dy="15.0">start 108.6</tspan><tspan x="665.0" dy="15.0">end 124.6</tspan><tspan x="665.0" dy="15.0">dur. 16.0</tspan></text>
<line x1="728.0" y1="515.0" x2="749.0" y2="515.0" stroke="#7a3db8" stroke-width="1.7" marker-end="url(#arrow-3)"/>
<rect x="754.0" y="472.0" width="126.0" height="86.0" rx="5" ry="5" fill="#f5edff" stroke="#7a3db8" stroke-width="1.6"/>
<text x="817.0" y="489.0" font-size="12" text-anchor="middle"><tspan x="817.0" font-weight="700">C29</tspan><tspan x="817.0" dy="15.0">TW [266, 386]</tspan><tspan x="817.0" dy="15.0">start 266.0</tspan><tspan x="817.0" dy="15.0">end 282.0</tspan><tspan x="817.0" dy="15.0">dur. 16.0</tspan></text>
<line x1="880.0" y1="515.0" x2="901.0" y2="515.0" stroke="#7a3db8" stroke-width="1.7" marker-end="url(#arrow-3)"/>
<rect x="906.0" y="472.0" width="126.0" height="86.0" rx="5" ry="5" fill="#f5edff" stroke="#7a3db8" stroke-width="1.6"/>
<text x="969.0" y="489.0" font-size="12" text-anchor="middle"><tspan x="969.0" font-weight="700">C37</tspan><tspan x="969.0" dy="15.0">TW [441, 561]</tspan><tspan x="969.0" dy="15.0">start 441.0</tspan><tspan x="969.0" dy="15.0">end 457.0</tspan><tspan x="969.0" dy="15.0">dur. 16.0</tspan></text>
<line x1="1032.0" y1="515.0" x2="1053.0" y2="515.0" stroke="#7a3db8" stroke-width="1.7" marker-end="url(#arrow-3)"/>
<rect x="1058.0" y="472.0" width="126.0" height="86.0" rx="5" ry="5" fill="#f5edff" stroke="#7a3db8" stroke-width="1.6"/>
<text x="1121.0" y="489.0" font-size="12" text-anchor="middle"><tspan x="1121.0" font-weight="700">C30</tspan><tspan x="1121.0" dy="15.0">TW [473, 593]</tspan><tspan x="1121.0" dy="15.0">start 473.0</tspan><tspan x="1121.0" dy="15.0">end 489.0</tspan><tspan x="1121.0" dy="15.0">dur. 16.0</tspan></text>
<line x1="1184.0" y1="515.0" x2="1205.0" y2="515.0" stroke="#7a3db8" stroke-width="1.7" marker-end="url(#arrow-3)"/>
<rect x="1210.0" y="483.0" width="100.0" height="64.0" rx="0" ry="0" fill="#f5edff" stroke="#7a3db8" stroke-width="1.6"/>
<text x="1260.0" y="502.0" font-size="12" text-anchor="middle"><tspan x="1260.0" font-weight="700">1015</tspan><tspan x="1260.0" dy="15.0">return</tspan><tspan x="1260.0" dy="15.0">496.8</tspan></text>
<rect x="28.0" y="590.0" width="390.0" height="86.0" rx="5" ry="5" fill="#fff1ed" stroke="#9a3412" stroke-width="1.6"/>
<text x="39.0" y="610.0" font-size="12" text-anchor="start"><tspan x="39.0" font-weight="700">Vehicle 4, base 1013</tspan><tspan x="39.0" dy="16.0">1013 -&gt; 10 -&gt; 1 -&gt; 28 -&gt; 16 -&gt; 1013</tspan><tspan x="39.0" dy="16.0">travel 35.1; service 64.0; wait 113.1</tspan><tspan x="39.0" dy="16.0">depart 0.0; finish 212.3; elapsed 212.3</tspan></text>
<line x1="418.0" y1="633.0" x2="445.0" y2="633.0" stroke="#9a3412" stroke-width="1.7" marker-end="url(#arrow-4)"/>
<rect x="450.0" y="590.0" width="126.0" height="86.0" rx="5" ry="5" fill="#fff1ed" stroke="#9a3412" stroke-width="1.6"/>
<text x="513.0" y="607.0" font-size="12" text-anchor="middle"><tspan x="513.0" font-weight="700">C10</tspan><tspan x="513.0" dy="15.0">TW [121, 241]</tspan><tspan x="513.0" dy="15.0">start 121.0</tspan><tspan x="513.0" dy="15.0">end 137.0</tspan><tspan x="513.0" dy="15.0">dur. 16.0</tspan></text>
<line x1="576.0" y1="633.0" x2="597.0" y2="633.0" stroke="#9a3412" stroke-width="1.7" marker-end="url(#arrow-4)"/>
<rect x="602.0" y="590.0" width="126.0" height="86.0" rx="5" ry="5" fill="#fff1ed" stroke="#9a3412" stroke-width="1.6"/>
<text x="665.0" y="607.0" font-size="12" text-anchor="middle"><tspan x="665.0" font-weight="700">C1</tspan><tspan x="665.0" dy="15.0">TW [134, 254]</tspan><tspan x="665.0" dy="15.0">start 140.2</tspan><tspan x="665.0" dy="15.0">end 156.2</tspan><tspan x="665.0" dy="15.0">dur. 16.0</tspan></text>
<line x1="728.0" y1="633.0" x2="749.0" y2="633.0" stroke="#9a3412" stroke-width="1.7" marker-end="url(#arrow-4)"/>
<rect x="754.0" y="590.0" width="126.0" height="86.0" rx="5" ry="5" fill="#fff1ed" stroke="#9a3412" stroke-width="1.6"/>
<text x="817.0" y="607.0" font-size="12" text-anchor="middle"><tspan x="817.0" font-weight="700">C28</tspan><tspan x="817.0" dy="15.0">TW [59, 179]</tspan><tspan x="817.0" dy="15.0">start 160.4</tspan><tspan x="817.0" dy="15.0">end 176.4</tspan><tspan x="817.0" dy="15.0">dur. 16.0</tspan></text>
<line x1="880.0" y1="633.0" x2="901.0" y2="633.0" stroke="#9a3412" stroke-width="1.7" marker-end="url(#arrow-4)"/>
<rect x="906.0" y="590.0" width="126.0" height="86.0" rx="5" ry="5" fill="#fff1ed" stroke="#9a3412" stroke-width="1.6"/>
<text x="969.0" y="607.0" font-size="12" text-anchor="middle"><tspan x="969.0" font-weight="700">C16</tspan><tspan x="969.0" dy="15.0">TW [166, 286]</tspan><tspan x="969.0" dy="15.0">start 191.4</tspan><tspan x="969.0" dy="15.0">end 207.4</tspan><tspan x="969.0" dy="15.0">dur. 16.0</tspan></text>
<line x1="1032.0" y1="633.0" x2="1053.0" y2="633.0" stroke="#9a3412" stroke-width="1.7" marker-end="url(#arrow-4)"/>
<rect x="1058.0" y="601.0" width="100.0" height="64.0" rx="0" ry="0" fill="#fff1ed" stroke="#9a3412" stroke-width="1.6"/>
<text x="1108.0" y="620.0" font-size="12" text-anchor="middle"><tspan x="1108.0" font-weight="700">1013</tspan><tspan x="1108.0" dy="15.0">return</tspan><tspan x="1108.0" dy="15.0">212.3</tspan></text>
<rect x="28.0" y="708.0" width="390.0" height="98.0" rx="5" ry="5" fill="#e7fbfd" stroke="#006d77" stroke-width="1.6"/>
<text x="39.0" y="728.0" font-size="12" text-anchor="start"><tspan x="39.0" font-weight="700">Vehicle 5, base 1010</tspan><tspan x="39.0" dy="16.0">1010 -&gt; 36 -&gt; 20 -&gt; 26 -&gt; 4 -&gt; 34 -&gt; 41 -&gt; 14</tspan><tspan x="39.0" dy="16.0">-&gt; 19 -&gt; 18 -&gt; 3 -&gt; 1010</tspan><tspan x="39.0" dy="16.0">travel 103.8; service 160.0; wait 216.7</tspan><tspan x="39.0" dy="16.0">depart 0.0; finish 480.5; elapsed 480.5</tspan></text>
<line x1="418.0" y1="757.0" x2="445.0" y2="757.0" stroke="#006d77" stroke-width="1.7" marker-end="url(#arrow-5)"/>
<rect x="450.0" y="714.0" width="126.0" height="86.0" rx="5" ry="5" fill="#e7fbfd" stroke="#006d77" stroke-width="1.6"/>
<text x="513.0" y="731.0" font-size="12" text-anchor="middle"><tspan x="513.0" font-weight="700">C36</tspan><tspan x="513.0" dy="15.0">TW [57, 177]</tspan><tspan x="513.0" dy="15.0">start 57.0</tspan><tspan x="513.0" dy="15.0">end 73.0</tspan><tspan x="513.0" dy="15.0">dur. 16.0</tspan></text>
<line x1="576.0" y1="757.0" x2="597.0" y2="757.0" stroke="#006d77" stroke-width="1.7" marker-end="url(#arrow-5)"/>
<rect x="602.0" y="714.0" width="126.0" height="86.0" rx="5" ry="5" fill="#e7fbfd" stroke="#006d77" stroke-width="1.6"/>
<text x="665.0" y="731.0" font-size="12" text-anchor="middle"><tspan x="665.0" font-weight="700">C20</tspan><tspan x="665.0" dy="15.0">TW [19, 139]</tspan><tspan x="665.0" dy="15.0">start 84.2</tspan><tspan x="665.0" dy="15.0">end 100.2</tspan><tspan x="665.0" dy="15.0">dur. 16.0</tspan></text>
<line x1="728.0" y1="757.0" x2="749.0" y2="757.0" stroke="#006d77" stroke-width="1.7" marker-end="url(#arrow-5)"/>
<rect x="754.0" y="714.0" width="126.0" height="86.0" rx="5" ry="5" fill="#e7fbfd" stroke="#006d77" stroke-width="1.6"/>
<text x="817.0" y="731.0" font-size="12" text-anchor="middle"><tspan x="817.0" font-weight="700">C26</tspan><tspan x="817.0" dy="15.0">TW [73, 193]</tspan><tspan x="817.0" dy="15.0">start 110.2</tspan><tspan x="817.0" dy="15.0">end 126.2</tspan><tspan x="817.0" dy="15.0">dur. 16.0</tspan></text>
<line x1="880.0" y1="757.0" x2="901.0" y2="757.0" stroke="#006d77" stroke-width="1.7" marker-end="url(#arrow-5)"/>
<rect x="906.0" y="714.0" width="126.0" height="86.0" rx="5" ry="5" fill="#e7fbfd" stroke="#006d77" stroke-width="1.6"/>
<text x="969.0" y="731.0" font-size="12" text-anchor="middle"><tspan x="969.0" font-weight="700">C4</tspan><tspan x="969.0" dy="15.0">TW [181, 301]</tspan><tspan x="969.0" dy="15.0">start 181.0</tspan><tspan x="969.0" dy="15.0">end 197.0</tspan><tspan x="969.0" dy="15.0">dur. 16.0</tspan></text>
<line x1="1032.0" y1="757.0" x2="1053.0" y2="757.0" stroke="#006d77" stroke-width="1.7" marker-end="url(#arrow-5)"/>
<rect x="1058.0" y="714.0" width="126.0" height="86.0" rx="5" ry="5" fill="#e7fbfd" stroke="#006d77" stroke-width="1.6"/>
<text x="1121.0" y="731.0" font-size="12" text-anchor="middle"><tspan x="1121.0" font-weight="700">C34</tspan><tspan x="1121.0" dy="15.0">TW [168, 288]</tspan><tspan x="1121.0" dy="15.0">start 207.3</tspan><tspan x="1121.0" dy="15.0">end 223.3</tspan><tspan x="1121.0" dy="15.0">dur. 16.0</tspan></text>
<line x1="1184.0" y1="757.0" x2="1205.0" y2="757.0" stroke="#006d77" stroke-width="1.7" marker-end="url(#arrow-5)"/>
<rect x="1210.0" y="714.0" width="126.0" height="86.0" rx="5" ry="5" fill="#e7fbfd" stroke="#006d77" stroke-width="1.6"/>
<text x="1273.0" y="731.0" font-size="12" text-anchor="middle"><tspan x="1273.0" font-weight="700">C41</tspan><tspan x="1273.0" dy="15.0">TW [217, 337]</tspan><tspan x="1273.0" dy="15.0">start 231.1</tspan><tspan x="1273.0" dy="15.0">end 247.1</tspan><tspan x="1273.0" dy="15.0">dur. 16.0</tspan></text>
<line x1="1336.0" y1="757.0" x2="1357.0" y2="757.0" stroke="#006d77" stroke-width="1.7" marker-end="url(#arrow-5)"/>
<rect x="1362.0" y="714.0" width="126.0" height="86.0" rx="5" ry="5" fill="#e7fbfd" stroke="#006d77" stroke-width="1.6"/>
<text x="1425.0" y="731.0" font-size="12" text-anchor="middle"><tspan x="1425.0" font-weight="700">C14</tspan><tspan x="1425.0" dy="15.0">TW [334, 454]</tspan><tspan x="1425.0" dy="15.0">start 334.0</tspan><tspan x="1425.0" dy="15.0">end 350.0</tspan><tspan x="1425.0" dy="15.0">dur. 16.0</tspan></text>
<line x1="1488.0" y1="757.0" x2="1509.0" y2="757.0" stroke="#006d77" stroke-width="1.7" marker-end="url(#arrow-5)"/>
<rect x="1514.0" y="714.0" width="126.0" height="86.0" rx="5" ry="5" fill="#e7fbfd" stroke="#006d77" stroke-width="1.6"/>
<text x="1577.0" y="731.0" font-size="12" text-anchor="middle"><tspan x="1577.0" font-weight="700">C19</tspan><tspan x="1577.0" dy="15.0">TW [286, 406]</tspan><tspan x="1577.0" dy="15.0">start 359.2</tspan><tspan x="1577.0" dy="15.0">end 375.2</tspan><tspan x="1577.0" dy="15.0">dur. 16.0</tspan></text>
<line x1="1640.0" y1="757.0" x2="1661.0" y2="757.0" stroke="#006d77" stroke-width="1.7" marker-end="url(#arrow-5)"/>
<rect x="1666.0" y="714.0" width="126.0" height="86.0" rx="5" ry="5" fill="#e7fbfd" stroke="#006d77" stroke-width="1.6"/>
<text x="1729.0" y="731.0" font-size="12" text-anchor="middle"><tspan x="1729.0" font-weight="700">C18</tspan><tspan x="1729.0" dy="15.0">TW [297, 417]</tspan><tspan x="1729.0" dy="15.0">start 385.2</tspan><tspan x="1729.0" dy="15.0">end 401.2</tspan><tspan x="1729.0" dy="15.0">dur. 16.0</tspan></text>
<line x1="1792.0" y1="757.0" x2="1813.0" y2="757.0" stroke="#006d77" stroke-width="1.7" marker-end="url(#arrow-5)"/>
<rect x="1818.0" y="714.0" width="126.0" height="86.0" rx="5" ry="5" fill="#e7fbfd" stroke="#006d77" stroke-width="1.6"/>
<text x="1881.0" y="731.0" font-size="12" text-anchor="middle"><tspan x="1881.0" font-weight="700">C3</tspan><tspan x="1881.0" dy="15.0">TW [450, 570]</tspan><tspan x="1881.0" dy="15.0">start 450.0</tspan><tspan x="1881.0" dy="15.0">end 466.0</tspan><tspan x="1881.0" dy="15.0">dur. 16.0</tspan></text>
<line x1="1944.0" y1="757.0" x2="1965.0" y2="757.0" stroke="#006d77" stroke-width="1.7" marker-end="url(#arrow-5)"/>
<rect x="1970.0" y="725.0" width="100.0" height="64.0" rx="0" ry="0" fill="#e7fbfd" stroke="#006d77" stroke-width="1.6"/>
<text x="2020.0" y="744.0" font-size="12" text-anchor="middle"><tspan x="2020.0" font-weight="700">1010</tspan><tspan x="2020.0" dy="15.0">return</tspan><tspan x="2020.0" dy="15.0">480.5</tspan></text>
<rect x="28.0" y="838.0" width="390.0" height="86.0" rx="5" ry="5" fill="#fff0f6" stroke="#9d174d" stroke-width="1.6"/>
<text x="39.0" y="858.0" font-size="12" text-anchor="start"><tspan x="39.0" font-weight="700">Vehicle 6, base 1009</tspan><tspan x="39.0" dy="16.0">1009 -&gt; 15 -&gt; 2 -&gt; 1009</tspan><tspan x="39.0" dy="16.0">travel 27.2; service 32.0; wait 103.7</tspan><tspan x="39.0" dy="16.0">depart 0.0; finish 162.9; elapsed 162.9</tspan></text>
<line x1="418.0" y1="881.0" x2="445.0" y2="881.0" stroke="#9d174d" stroke-width="1.7" marker-end="url(#arrow-6)"/>
<rect x="450.0" y="838.0" width="126.0" height="86.0" rx="5" ry="5" fill="#fff0f6" stroke="#9d174d" stroke-width="1.6"/>
<text x="513.0" y="855.0" font-size="12" text-anchor="middle"><tspan x="513.0" font-weight="700">C15</tspan><tspan x="513.0" dy="15.0">TW [21, 141]</tspan><tspan x="513.0" dy="15.0">start 21.0</tspan><tspan x="513.0" dy="15.0">end 37.0</tspan><tspan x="513.0" dy="15.0">dur. 16.0</tspan></text>
<line x1="576.0" y1="881.0" x2="597.0" y2="881.0" stroke="#9d174d" stroke-width="1.7" marker-end="url(#arrow-6)"/>
<rect x="602.0" y="838.0" width="126.0" height="86.0" rx="5" ry="5" fill="#fff0f6" stroke="#9d174d" stroke-width="1.6"/>
<text x="665.0" y="855.0" font-size="12" text-anchor="middle"><tspan x="665.0" font-weight="700">C2</tspan><tspan x="665.0" dy="15.0">TW [140, 260]</tspan><tspan x="665.0" dy="15.0">start 140.0</tspan><tspan x="665.0" dy="15.0">end 156.0</tspan><tspan x="665.0" dy="15.0">dur. 16.0</tspan></text>
<line x1="728.0" y1="881.0" x2="749.0" y2="881.0" stroke="#9d174d" stroke-width="1.7" marker-end="url(#arrow-6)"/>
<rect x="754.0" y="849.0" width="100.0" height="64.0" rx="0" ry="0" fill="#fff0f6" stroke="#9d174d" stroke-width="1.6"/>
<text x="804.0" y="868.0" font-size="12" text-anchor="middle"><tspan x="804.0" font-weight="700">1009</tspan><tspan x="804.0" dy="15.0">return</tspan><tspan x="804.0" dy="15.0">162.9</tspan></text>
<rect x="28.0" y="956.0" width="390.0" height="98.0" rx="5" ry="5" fill="#f3fae8" stroke="#4d7c0f" stroke-width="1.6"/>
<text x="39.0" y="976.0" font-size="12" text-anchor="start"><tspan x="39.0" font-weight="700">Vehicle 7, base 1014</tspan><tspan x="39.0" dy="16.0">1014 -&gt; 23 -&gt; 24 -&gt; 49 -&gt; 21 -&gt; 13 -&gt; 25 -&gt;</tspan><tspan x="39.0" dy="16.0">1014</tspan><tspan x="39.0" dy="16.0">travel 77.9; service 96.0; wait 205.2</tspan><tspan x="39.0" dy="16.0">depart 0.0; finish 379.1; elapsed 379.1</tspan></text>
<line x1="418.0" y1="1005.0" x2="445.0" y2="1005.0" stroke="#4d7c0f" stroke-width="1.7" marker-end="url(#arrow-7)"/>
<rect x="450.0" y="962.0" width="126.0" height="86.0" rx="5" ry="5" fill="#f3fae8" stroke="#4d7c0f" stroke-width="1.6"/>
<text x="513.0" y="979.0" font-size="12" text-anchor="middle"><tspan x="513.0" font-weight="700">C23</tspan><tspan x="513.0" dy="15.0">TW [25, 145]</tspan><tspan x="513.0" dy="15.0">start 25.0</tspan><tspan x="513.0" dy="15.0">end 41.0</tspan><tspan x="513.0" dy="15.0">dur. 16.0</tspan></text>
<line x1="576.0" y1="1005.0" x2="597.0" y2="1005.0" stroke="#4d7c0f" stroke-width="1.7" marker-end="url(#arrow-7)"/>
<rect x="602.0" y="962.0" width="126.0" height="86.0" rx="5" ry="5" fill="#f3fae8" stroke="#4d7c0f" stroke-width="1.6"/>
<text x="665.0" y="979.0" font-size="12" text-anchor="middle"><tspan x="665.0" font-weight="700">C24</tspan><tspan x="665.0" dy="15.0">TW [155, 275]</tspan><tspan x="665.0" dy="15.0">start 155.0</tspan><tspan x="665.0" dy="15.0">end 171.0</tspan><tspan x="665.0" dy="15.0">dur. 16.0</tspan></text>
<line x1="728.0" y1="1005.0" x2="749.0" y2="1005.0" stroke="#4d7c0f" stroke-width="1.7" marker-end="url(#arrow-7)"/>
<rect x="754.0" y="962.0" width="126.0" height="86.0" rx="5" ry="5" fill="#f3fae8" stroke="#4d7c0f" stroke-width="1.6"/>
<text x="817.0" y="979.0" font-size="12" text-anchor="middle"><tspan x="817.0" font-weight="700">C49</tspan><tspan x="817.0" dy="15.0">TW [124, 244]</tspan><tspan x="817.0" dy="15.0">start 183.4</tspan><tspan x="817.0" dy="15.0">end 199.4</tspan><tspan x="817.0" dy="15.0">dur. 16.0</tspan></text>
<line x1="880.0" y1="1005.0" x2="901.0" y2="1005.0" stroke="#4d7c0f" stroke-width="1.7" marker-end="url(#arrow-7)"/>
<rect x="906.0" y="962.0" width="126.0" height="86.0" rx="5" ry="5" fill="#f3fae8" stroke="#4d7c0f" stroke-width="1.6"/>
<text x="969.0" y="979.0" font-size="12" text-anchor="middle"><tspan x="969.0" font-weight="700">C21</tspan><tspan x="969.0" dy="15.0">TW [271, 391]</tspan><tspan x="969.0" dy="15.0">start 271.0</tspan><tspan x="969.0" dy="15.0">end 287.0</tspan><tspan x="969.0" dy="15.0">dur. 16.0</tspan></text>
<line x1="1032.0" y1="1005.0" x2="1053.0" y2="1005.0" stroke="#4d7c0f" stroke-width="1.7" marker-end="url(#arrow-7)"/>
<rect x="1058.0" y="962.0" width="126.0" height="86.0" rx="5" ry="5" fill="#f3fae8" stroke="#4d7c0f" stroke-width="1.6"/>
<text x="1121.0" y="979.0" font-size="12" text-anchor="middle"><tspan x="1121.0" font-weight="700">C13</tspan><tspan x="1121.0" dy="15.0">TW [197, 317]</tspan><tspan x="1121.0" dy="15.0">start 312.7</tspan><tspan x="1121.0" dy="15.0">end 328.7</tspan><tspan x="1121.0" dy="15.0">dur. 16.0</tspan></text>
<line x1="1184.0" y1="1005.0" x2="1205.0" y2="1005.0" stroke="#4d7c0f" stroke-width="1.7" marker-end="url(#arrow-7)"/>
<rect x="1210.0" y="962.0" width="126.0" height="86.0" rx="5" ry="5" fill="#f3fae8" stroke="#4d7c0f" stroke-width="1.6"/>
<text x="1273.0" y="979.0" font-size="12" text-anchor="middle"><tspan x="1273.0" font-weight="700">C25</tspan><tspan x="1273.0" dy="15.0">TW [358, 478]</tspan><tspan x="1273.0" dy="15.0">start 358.0</tspan><tspan x="1273.0" dy="15.0">end 374.0</tspan><tspan x="1273.0" dy="15.0">dur. 16.0</tspan></text>
<line x1="1336.0" y1="1005.0" x2="1357.0" y2="1005.0" stroke="#4d7c0f" stroke-width="1.7" marker-end="url(#arrow-7)"/>
<rect x="1362.0" y="973.0" width="100.0" height="64.0" rx="0" ry="0" fill="#f3fae8" stroke="#4d7c0f" stroke-width="1.6"/>
<text x="1412.0" y="992.0" font-size="12" text-anchor="middle"><tspan x="1412.0" font-weight="700">1014</tspan><tspan x="1412.0" dy="15.0">return</tspan><tspan x="1412.0" dy="15.0">379.1</tspan></text>
<rect x="28.0" y="1086.0" width="390.0" height="86.0" rx="5" ry="5" fill="#f1f5f9" stroke="#334155" stroke-width="1.6"/>
<text x="39.0" y="1106.0" font-size="12" text-anchor="start"><tspan x="39.0" font-weight="700">Vehicle 8, base 1007</tspan><tspan x="39.0" dy="16.0">1007 -&gt; 40 -&gt; 44 -&gt; 33 -&gt; 43 -&gt; 1007</tspan><tspan x="39.0" dy="16.0">travel 31.8; service 64.0; wait 195.7</tspan><tspan x="39.0" dy="16.0">depart 0.0; finish 291.5; elapsed 291.5</tspan></text>
<line x1="418.0" y1="1129.0" x2="445.0" y2="1129.0" stroke="#334155" stroke-width="1.7" marker-end="url(#arrow-8)"/>
<rect x="450.0" y="1086.0" width="126.0" height="86.0" rx="5" ry="5" fill="#f1f5f9" stroke="#334155" stroke-width="1.6"/>
<text x="513.0" y="1103.0" font-size="12" text-anchor="middle"><tspan x="513.0" font-weight="700">C40</tspan><tspan x="513.0" dy="15.0">TW [67, 187]</tspan><tspan x="513.0" dy="15.0">start 67.0</tspan><tspan x="513.0" dy="15.0">end 83.0</tspan><tspan x="513.0" dy="15.0">dur. 16.0</tspan></text>
<line x1="576.0" y1="1129.0" x2="597.0" y2="1129.0" stroke="#334155" stroke-width="1.7" marker-end="url(#arrow-8)"/>
<rect x="602.0" y="1086.0" width="126.0" height="86.0" rx="5" ry="5" fill="#f1f5f9" stroke="#334155" stroke-width="1.6"/>
<text x="665.0" y="1103.0" font-size="12" text-anchor="middle"><tspan x="665.0" font-weight="700">C44</tspan><tspan x="665.0" dy="15.0">TW [34, 154]</tspan><tspan x="665.0" dy="15.0">start 93.6</tspan><tspan x="665.0" dy="15.0">end 109.6</tspan><tspan x="665.0" dy="15.0">dur. 16.0</tspan></text>
<line x1="728.0" y1="1129.0" x2="749.0" y2="1129.0" stroke="#334155" stroke-width="1.7" marker-end="url(#arrow-8)"/>
<rect x="754.0" y="1086.0" width="126.0" height="86.0" rx="5" ry="5" fill="#f1f5f9" stroke="#334155" stroke-width="1.6"/>
<text x="817.0" y="1103.0" font-size="12" text-anchor="middle"><tspan x="817.0" font-weight="700">C33</tspan><tspan x="817.0" dy="15.0">TW [42, 162]</tspan><tspan x="817.0" dy="15.0">start 113.9</tspan><tspan x="817.0" dy="15.0">end 129.9</tspan><tspan x="817.0" dy="15.0">dur. 16.0</tspan></text>
<line x1="880.0" y1="1129.0" x2="901.0" y2="1129.0" stroke="#334155" stroke-width="1.7" marker-end="url(#arrow-8)"/>
<rect x="906.0" y="1086.0" width="126.0" height="86.0" rx="5" ry="5" fill="#f1f5f9" stroke="#334155" stroke-width="1.6"/>
<text x="969.0" y="1103.0" font-size="12" text-anchor="middle"><tspan x="969.0" font-weight="700">C43</tspan><tspan x="969.0" dy="15.0">TW [272, 392]</tspan><tspan x="969.0" dy="15.0">start 272.0</tspan><tspan x="969.0" dy="15.0">end 288.0</tspan><tspan x="969.0" dy="15.0">dur. 16.0</tspan></text>
<line x1="1032.0" y1="1129.0" x2="1053.0" y2="1129.0" stroke="#334155" stroke-width="1.7" marker-end="url(#arrow-8)"/>
<rect x="1058.0" y="1097.0" width="100.0" height="64.0" rx="0" ry="0" fill="#f1f5f9" stroke="#334155" stroke-width="1.6"/>
<text x="1108.0" y="1116.0" font-size="12" text-anchor="middle"><tspan x="1108.0" font-weight="700">1007</tspan><tspan x="1108.0" dy="15.0">return</tspan><tspan x="1108.0" dy="15.0">291.5</tspan></text>
<rect x="28.0" y="1204.0" width="390.0" height="86.0" rx="5" ry="5" fill="#ecfeff" stroke="#0e7490" stroke-width="1.6"/>
<text x="39.0" y="1224.0" font-size="12" text-anchor="start"><tspan x="39.0" font-weight="700">Vehicle 9, base 1002</tspan><tspan x="39.0" dy="16.0">1002 -&gt; 38 -&gt; 48 -&gt; 39 -&gt; 1002</tspan><tspan x="39.0" dy="16.0">travel 37.7; service 48.0; wait 329.2</tspan><tspan x="39.0" dy="16.0">depart 0.0; finish 414.9; elapsed 414.9</tspan></text>
<line x1="418.0" y1="1247.0" x2="445.0" y2="1247.0" stroke="#0e7490" stroke-width="1.7" marker-end="url(#arrow-9)"/>
<rect x="450.0" y="1204.0" width="126.0" height="86.0" rx="5" ry="5" fill="#ecfeff" stroke="#0e7490" stroke-width="1.6"/>
<text x="513.0" y="1221.0" font-size="12" text-anchor="middle"><tspan x="513.0" font-weight="700">C38</tspan><tspan x="513.0" dy="15.0">TW [294, 414]</tspan><tspan x="513.0" dy="15.0">start 294.0</tspan><tspan x="513.0" dy="15.0">end 310.0</tspan><tspan x="513.0" dy="15.0">dur. 16.0</tspan></text>
<line x1="576.0" y1="1247.0" x2="597.0" y2="1247.0" stroke="#0e7490" stroke-width="1.7" marker-end="url(#arrow-9)"/>
<rect x="602.0" y="1204.0" width="126.0" height="86.0" rx="5" ry="5" fill="#ecfeff" stroke="#0e7490" stroke-width="1.6"/>
<text x="665.0" y="1221.0" font-size="12" text-anchor="middle"><tspan x="665.0" font-weight="700">C48</tspan><tspan x="665.0" dy="15.0">TW [335, 455]</tspan><tspan x="665.0" dy="15.0">start 335.0</tspan><tspan x="665.0" dy="15.0">end 351.0</tspan><tspan x="665.0" dy="15.0">dur. 16.0</tspan></text>
<line x1="728.0" y1="1247.0" x2="749.0" y2="1247.0" stroke="#0e7490" stroke-width="1.7" marker-end="url(#arrow-9)"/>
<rect x="754.0" y="1204.0" width="126.0" height="86.0" rx="5" ry="5" fill="#ecfeff" stroke="#0e7490" stroke-width="1.6"/>
<text x="817.0" y="1221.0" font-size="12" text-anchor="middle"><tspan x="817.0" font-weight="700">C39</tspan><tspan x="817.0" dy="15.0">TW [393, 513]</tspan><tspan x="817.0" dy="15.0">start 393.0</tspan><tspan x="817.0" dy="15.0">end 409.0</tspan><tspan x="817.0" dy="15.0">dur. 16.0</tspan></text>
<line x1="880.0" y1="1247.0" x2="901.0" y2="1247.0" stroke="#0e7490" stroke-width="1.7" marker-end="url(#arrow-9)"/>
<rect x="906.0" y="1215.0" width="100.0" height="64.0" rx="0" ry="0" fill="#ecfeff" stroke="#0e7490" stroke-width="1.6"/>
<text x="956.0" y="1234.0" font-size="12" text-anchor="middle"><tspan x="956.0" font-weight="700">1002</tspan><tspan x="956.0" dy="15.0">return</tspan><tspan x="956.0" dy="15.0">414.9</tspan></text>
<rect x="28.0" y="1328.0" width="2094.0" height="74.0" rx="5" ry="5" fill="#f8fafc" stroke="#c9ced6" stroke-width="1.6"/>
<text x="40.0" y="1350.0" font-size="12" text-anchor="start"><tspan x="40.0">Open facilities: 1002, 1006, 1007, 1008, 1009, 1010, 1013, 1014, 1015, 1018; unselected candidates: 1000, 1001, 1003, 1004, 1005, 1011, 1012, 1016, 1017, 1019.</tspan><tspan x="40.0" dy="17.0">Times use nominal service durations and earliest-start propagation from a time-zero facility departure.</tspan><tspan x="40.0" dy="17.0">TW denotes the customer time window; start and end denote nominal service start and service completion.</tspan></text>
</svg>
