<?xml version="1.0" encoding="UTF-8"?>
<svg xmlns="http://www.w3.org/2000/svg" width="1866" height="1438" viewBox="0 0 1866 1438" role="img" aria-labelledby="title desc">
<title id="title">Route schedule for flrp-ssr_instance_50_1</title>
<desc id="desc">Non-geographic route schedule with route totals and customer service times.</desc>
<style>
text{font-family:Arial,Helvetica,sans-serif;fill:#111827}
.title{font-size:24px;font-weight:700}
.meta{font-size:13px;fill:#374151}
.caption{font-size:12px;fill:#374151}
</style>
<rect x="0" y="0" width="100%" height="100%" fill="#ffffff"/>
<text class="title" x="28" y="34">FLRP-SSR route schedule: flrp-ssr_instance_50_1</text>
<text class="meta" x="28" y="58">cost = 10556.041; No. of customers = 50; No. of routes= 10</text>
<defs>
<marker id="arrow-0" viewBox="0 0 10 10" refX="8.5" refY="5" markerWidth="6" markerHeight="6" orient="auto">
<path d="M 0 0 L 10 5 L 0 10 z" fill="#174ea6"/>
</marker>
<marker id="arrow-1" viewBox="0 0 10 10" refX="8.5" refY="5" markerWidth="6" markerHeight="6" orient="auto">
<path d="M 0 0 L 10 5 L 0 10 z" fill="#c65f00"/>
</marker>
<marker id="arrow-2" viewBox="0 0 10 10" refX="8.5" refY="5" markerWidth="6" markerHeight="6" orient="auto">
<path d="M 0 0 L 10 5 L 0 10 z" fill="#0b7d25"/>
</marker>
<marker id="arrow-3" viewBox="0 0 10 10" refX="8.5" refY="5" markerWidth="6" markerHeight="6" orient="auto">
<path d="M 0 0 L 10 5 L 0 10 z" fill="#7a3db8"/>
</marker>
<marker id="arrow-4" viewBox="0 0 10 10" refX="8.5" refY="5" markerWidth="6" markerHeight="6" orient="auto">
<path d="M 0 0 L 10 5 L 0 10 z" fill="#9a3412"/>
</marker>
<marker id="arrow-5" viewBox="0 0 10 10" refX="8.5" refY="5" markerWidth="6" markerHeight="6" orient="auto">
<path d="M 0 0 L 10 5 L 0 10 z" fill="#006d77"/>
</marker>
<marker id="arrow-6" viewBox="0 0 10 10" refX="8.5" refY="5" markerWidth="6" markerHeight="6" orient="auto">
<path d="M 0 0 L 10 5 L 0 10 z" fill="#9d174d"/>
</marker>
<marker id="arrow-7" viewBox="0 0 10 10" refX="8.5" refY="5" markerWidth="6" markerHeight="6" orient="auto">
<path d="M 0 0 L 10 5 L 0 10 z" fill="#4d7c0f"/>
</marker>
<marker id="arrow-8" viewBox="0 0 10 10" refX="8.5" refY="5" markerWidth="6" markerHeight="6" orient="auto">
<path d="M 0 0 L 10 5 L 0 10 z" fill="#334155"/>
</marker>
<marker id="arrow-9" viewBox="0 0 10 10" refX="8.5" refY="5" markerWidth="6" markerHeight="6" orient="auto">
<path d="M 0 0 L 10 5 L 0 10 z" fill="#0e7490"/>
</marker>
</defs>
<rect x="28.0" y="106.0" width="390.0" height="86.0" rx="5" ry="5" fill="#edf4ff" stroke="#174ea6" stroke-width="1.6"/>
<text x="39.0" y="126.0" font-size="12" text-anchor="start"><tspan x="39.0" font-weight="700">Vehicle 0, base 1007</tspan><tspan x="39.0" dy="16.0">1007 -&gt; 31 -&gt; 13 -&gt; 9 -&gt; 4 -&gt; 22 -&gt; 40 -&gt; 1007</tspan><tspan x="39.0" dy="16.0">travel 82.9; service 84.0; wait 293.9</tspan><tspan x="39.0" dy="16.0">depart 0.0; finish 460.8; elapsed 460.8</tspan></text>
<line x1="418.0" y1="149.0" x2="445.0" y2="149.0" stroke="#174ea6" stroke-width="1.7" marker-end="url(#arrow-0)"/>
<rect x="450.0" y="106.0" width="126.0" height="86.0" rx="5" ry="5" fill="#edf4ff" stroke="#174ea6" stroke-width="1.6"/>
<text x="513.0" y="123.0" font-size="12" text-anchor="middle"><tspan x="513.0" font-weight="700">C31</tspan><tspan x="513.0" dy="15.0">TW [85, 205]</tspan><tspan x="513.0" dy="15.0">start 85.0</tspan><tspan x="513.0" dy="15.0">end 99.0</tspan><tspan x="513.0" dy="15.0">dur. 14.0</tspan></text>
<line x1="576.0" y1="149.0" x2="597.0" y2="149.0" stroke="#174ea6" stroke-width="1.7" marker-end="url(#arrow-0)"/>
<rect x="602.0" y="106.0" width="126.0" height="86.0" rx="5" ry="5" fill="#edf4ff" stroke="#174ea6" stroke-width="1.6"/>
<text x="665.0" y="123.0" font-size="12" text-anchor="middle"><tspan x="665.0" font-weight="700">C13</tspan><tspan x="665.0" dy="15.0">TW [157, 277]</tspan><tspan x="665.0" dy="15.0">start 157.0</tspan><tspan x="665.0" dy="15.0">end 171.0</tspan><tspan x="665.0" dy="15.0">dur. 14.0</tspan></text>
<line x1="728.0" y1="149.0" x2="749.0" y2="149.0" stroke="#174ea6" stroke-width="1.7" marker-end="url(#arrow-0)"/>
<rect x="754.0" y="106.0" width="126.0" height="86.0" rx="5" ry="5" fill="#edf4ff" stroke="#174ea6" stroke-width="1.6"/>
<text x="817.0" y="123.0" font-size="12" text-anchor="middle"><tspan x="817.0" font-weight="700">C9</tspan><tspan x="817.0" dy="15.0">TW [298, 418]</tspan><tspan x="817.0" dy="15.0">start 298.0</tspan><tspan x="817.0" dy="15.0">end 312.0</tspan><tspan x="817.0" dy="15.0">dur. 14.0</tspan></text>
<line x1="880.0" y1="149.0" x2="901.0" y2="149.0" stroke="#174ea6" stroke-width="1.7" marker-end="url(#arrow-0)"/>
<rect x="906.0" y="106.0" width="126.0" height="86.0" rx="5" ry="5" fill="#edf4ff" stroke="#174ea6" stroke-width="1.6"/>
<text x="969.0" y="123.0" font-size="12" text-anchor="middle"><tspan x="969.0" font-weight="700">C4</tspan><tspan x="969.0" dy="15.0">TW [393, 513]</tspan><tspan x="969.0" dy="15.0">start 393.0</tspan><tspan x="969.0" dy="15.0">end 407.0</tspan><tspan x="969.0" dy="15.0">dur. 14.0</tspan></text>
<line x1="1032.0" y1="149.0" x2="1053.0" y2="149.0" stroke="#174ea6" stroke-width="1.7" marker-end="url(#arrow-0)"/>
<rect x="1058.0" y="106.0" width="126.0" height="86.0" rx="5" ry="5" fill="#edf4ff" stroke="#174ea6" stroke-width="1.6"/>
<text x="1121.0" y="123.0" font-size="12" text-anchor="middle"><tspan x="1121.0" font-weight="700">C22</tspan><tspan x="1121.0" dy="15.0">TW [332, 452]</tspan><tspan x="1121.0" dy="15.0">start 411.1</tspan><tspan x="1121.0" dy="15.0">end 425.1</tspan><tspan x="1121.0" dy="15.0">dur. 14.0</tspan></text>
<line x1="1184.0" y1="149.0" x2="1205.0" y2="149.0" stroke="#174ea6" stroke-width="1.7" marker-end="url(#arrow-0)"/>
<rect x="1210.0" y="106.0" width="126.0" height="86.0" rx="5" ry="5" fill="#edf4ff" stroke="#174ea6" stroke-width="1.6"/>
<text x="1273.0" y="123.0" font-size="12" text-anchor="middle"><tspan x="1273.0" font-weight="700">C40</tspan><tspan x="1273.0" dy="15.0">TW [434, 554]</tspan><tspan x="1273.0" dy="15.0">start 436.3</tspan><tspan x="1273.0" dy="15.0">end 450.3</tspan><tspan x="1273.0" dy="15.0">dur. 14.0</tspan></text>
<line x1="1336.0" y1="149.0" x2="1357.0" y2="149.0" stroke="#174ea6" stroke-width="1.7" marker-end="url(#arrow-0)"/>
<rect x="1362.0" y="117.0" width="100.0" height="64.0" rx="0" ry="0" fill="#edf4ff" stroke="#174ea6" stroke-width="1.6"/>
<text x="1412.0" y="136.0" font-size="12" text-anchor="middle"><tspan x="1412.0" font-weight="700">1007</tspan><tspan x="1412.0" dy="15.0">return</tspan><tspan x="1412.0" dy="15.0">460.8</tspan></text>
<rect x="28.0" y="224.0" width="390.0" height="86.0" rx="5" ry="5" fill="#fff3e5" stroke="#c65f00" stroke-width="1.6"/>
<text x="39.0" y="244.0" font-size="12" text-anchor="start"><tspan x="39.0" font-weight="700">Vehicle 1, base 1008</tspan><tspan x="39.0" dy="16.0">1008 -&gt; 26 -&gt; 10 -&gt; 19 -&gt; 5 -&gt; 46 -&gt; 1008</tspan><tspan x="39.0" dy="16.0">travel 29.5; service 70.0; wait 350.7</tspan><tspan x="39.0" dy="16.0">depart 0.0; finish 450.2; elapsed 450.2</tspan></text>
<line x1="418.0" y1="267.0" x2="445.0" y2="267.0" stroke="#c65f00" stroke-width="1.7" marker-end="url(#arrow-1)"/>
<rect x="450.0" y="224.0" width="126.0" height="86.0" rx="5" ry="5" fill="#fff3e5" stroke="#c65f00" stroke-width="1.6"/>
<text x="513.0" y="241.0" font-size="12" text-anchor="middle"><tspan x="513.0" font-weight="700">C26</tspan><tspan x="513.0" dy="15.0">TW [239, 359]</tspan><tspan x="513.0" dy="15.0">start 239.0</tspan><tspan x="513.0" dy="15.0">end 253.0</tspan><tspan x="513.0" dy="15.0">dur. 14.0</tspan></text>
<line x1="576.0" y1="267.0" x2="597.0" y2="267.0" stroke="#c65f00" stroke-width="1.7" marker-end="url(#arrow-1)"/>
<rect x="602.0" y="224.0" width="126.0" height="86.0" rx="5" ry="5" fill="#fff3e5" stroke="#c65f00" stroke-width="1.6"/>
<text x="665.0" y="241.0" font-size="12" text-anchor="middle"><tspan x="665.0" font-weight="700">C10</tspan><tspan x="665.0" dy="15.0">TW [148, 268]</tspan><tspan x="665.0" dy="15.0">start 257.0</tspan><tspan x="665.0" dy="15.0">end 271.0</tspan><tspan x="665.0" dy="15.0">dur. 14.0</tspan></text>
<line x1="728.0" y1="267.0" x2="749.0" y2="267.0" stroke="#c65f00" stroke-width="1.7" marker-end="url(#arrow-1)"/>
<rect x="754.0" y="224.0" width="126.0" height="86.0" rx="5" ry="5" fill="#fff3e5" stroke="#c65f00" stroke-width="1.6"/>
<text x="817.0" y="241.0" font-size="12" text-anchor="middle"><tspan x="817.0" font-weight="700">C19</tspan><tspan x="817.0" dy="15.0">TW [276, 396]</tspan><tspan x="817.0" dy="15.0">start 276.0</tspan><tspan x="817.0" dy="15.0">end 290.0</tspan><tspan x="817.0" dy="15.0">dur. 14.0</tspan></text>
<line x1="880.0" y1="267.0" x2="901.0" y2="267.0" stroke="#c65f00" stroke-width="1.7" marker-end="url(#arrow-1)"/>
<rect x="906.0" y="224.0" width="126.0" height="86.0" rx="5" ry="5" fill="#fff3e5" stroke="#c65f00" stroke-width="1.6"/>
<text x="969.0" y="241.0" font-size="12" text-anchor="middle"><tspan x="969.0" font-weight="700">C5</tspan><tspan x="969.0" dy="15.0">TW [254, 374]</tspan><tspan x="969.0" dy="15.0">start 297.8</tspan><tspan x="969.0" dy="15.0">end 311.8</tspan><tspan x="969.0" dy="15.0">dur. 14.0</tspan></text>
<line x1="1032.0" y1="267.0" x2="1053.0" y2="267.0" stroke="#c65f00" stroke-width="1.7" marker-end="url(#arrow-1)"/>
<rect x="1058.0" y="224.0" width="126.0" height="86.0" rx="5" ry="5" fill="#fff3e5" stroke="#c65f00" stroke-width="1.6"/>
<text x="1121.0" y="241.0" font-size="12" text-anchor="middle"><tspan x="1121.0" font-weight="700">C46</tspan><tspan x="1121.0" dy="15.0">TW [432, 552]</tspan><tspan x="1121.0" dy="15.0">start 432.0</tspan><tspan x="1121.0" dy="15.0">end 446.0</tspan><tspan x="1121.0" dy="15.0">dur. 14.0</tspan></text>
<line x1="1184.0" y1="267.0" x2="1205.0" y2="267.0" stroke="#c65f00" stroke-width="1.7" marker-end="url(#arrow-1)"/>
<rect x="1210.0" y="235.0" width="100.0" height="64.0" rx="0" ry="0" fill="#fff3e5" stroke="#c65f00" stroke-width="1.6"/>
<text x="1260.0" y="254.0" font-size="12" text-anchor="middle"><tspan x="1260.0" font-weight="700">1008</tspan><tspan x="1260.0" dy="15.0">return</tspan><tspan x="1260.0" dy="15.0">450.2</tspan></text>
<rect x="28.0" y="342.0" width="390.0" height="86.0" rx="5" ry="5" fill="#ecf9ee" stroke="#0b7d25" stroke-width="1.6"/>
<text x="39.0" y="362.0" font-size="12" text-anchor="start"><tspan x="39.0" font-weight="700">Vehicle 2, base 1015</tspan><tspan x="39.0" dy="16.0">1015 -&gt; 37 -&gt; 23 -&gt; 45 -&gt; 1015</tspan><tspan x="39.0" dy="16.0">travel 36.7; service 42.0; wait 156.6</tspan><tspan x="39.0" dy="16.0">depart 0.0; finish 235.3; elapsed 235.3</tspan></text>
<line x1="418.0" y1="385.0" x2="445.0" y2="385.0" stroke="#0b7d25" stroke-width="1.7" marker-end="url(#arrow-2)"/>
<rect x="450.0" y="342.0" width="126.0" height="86.0" rx="5" ry="5" fill="#ecf9ee" stroke="#0b7d25" stroke-width="1.6"/>
<text x="513.0" y="359.0" font-size="12" text-anchor="middle"><tspan x="513.0" font-weight="700">C37</tspan><tspan x="513.0" dy="15.0">TW [129, 249]</tspan><tspan x="513.0" dy="15.0">start 129.0</tspan><tspan x="513.0" dy="15.0">end 143.0</tspan><tspan x="513.0" dy="15.0">dur. 14.0</tspan></text>
<line x1="576.0" y1="385.0" x2="597.0" y2="385.0" stroke="#0b7d25" stroke-width="1.7" marker-end="url(#arrow-2)"/>
<rect x="602.0" y="342.0" width="126.0" height="86.0" rx="5" ry="5" fill="#ecf9ee" stroke="#0b7d25" stroke-width="1.6"/>
<text x="665.0" y="359.0" font-size="12" text-anchor="middle"><tspan x="665.0" font-weight="700">C23</tspan><tspan x="665.0" dy="15.0">TW [190, 310]</tspan><tspan x="665.0" dy="15.0">start 190.0</tspan><tspan x="665.0" dy="15.0">end 204.0</tspan><tspan x="665.0" dy="15.0">dur. 14.0</tspan></text>
<line x1="728.0" y1="385.0" x2="749.0" y2="385.0" stroke="#0b7d25" stroke-width="1.7" marker-end="url(#arrow-2)"/>
<rect x="754.0" y="342.0" width="126.0" height="86.0" rx="5" ry="5" fill="#ecf9ee" stroke="#0b7d25" stroke-width="1.6"/>
<text x="817.0" y="359.0" font-size="12" text-anchor="middle"><tspan x="817.0" font-weight="700">C45</tspan><tspan x="817.0" dy="15.0">TW [117, 237]</tspan><tspan x="817.0" dy="15.0">start 218.3</tspan><tspan x="817.0" dy="15.0">end 232.3</tspan><tspan x="817.0" dy="15.0">dur. 14.0</tspan></text>
<line x1="880.0" y1="385.0" x2="901.0" y2="385.0" stroke="#0b7d25" stroke-width="1.7" marker-end="url(#arrow-2)"/>
<rect x="906.0" y="353.0" width="100.0" height="64.0" rx="0" ry="0" fill="#ecf9ee" stroke="#0b7d25" stroke-width="1.6"/>
<text x="956.0" y="372.0" font-size="12" text-anchor="middle"><tspan x="956.0" font-weight="700">1015</tspan><tspan x="956.0" dy="15.0">return</tspan><tspan x="956.0" dy="15.0">235.3</tspan></text>
<rect x="28.0" y="460.0" width="390.0" height="86.0" rx="5" ry="5" fill="#f5edff" stroke="#7a3db8" stroke-width="1.6"/>
<text x="39.0" y="480.0" font-size="12" text-anchor="start"><tspan x="39.0" font-weight="700">Vehicle 3, base 1012</tspan><tspan x="39.0" dy="16.0">1012 -&gt; 48 -&gt; 39 -&gt; 16 -&gt; 30 -&gt; 11 -&gt; 1012</tspan><tspan x="39.0" dy="16.0">travel 42.2; service 70.0; wait 359.2</tspan><tspan x="39.0" dy="16.0">depart 0.0; finish 471.4; elapsed 471.4</tspan></text>
<line x1="418.0" y1="503.0" x2="445.0" y2="503.0" stroke="#7a3db8" stroke-width="1.7" marker-end="url(#arrow-3)"/>
<rect x="450.0" y="460.0" width="126.0" height="86.0" rx="5" ry="5" fill="#f5edff" stroke="#7a3db8" stroke-width="1.6"/>
<text x="513.0" y="477.0" font-size="12" text-anchor="middle"><tspan x="513.0" font-weight="700">C48</tspan><tspan x="513.0" dy="15.0">TW [288, 408]</tspan><tspan x="513.0" dy="15.0">start 288.0</tspan><tspan x="513.0" dy="15.0">end 302.0</tspan><tspan x="513.0" dy="15.0">dur. 14.0</tspan></text>
<line x1="576.0" y1="503.0" x2="597.0" y2="503.0" stroke="#7a3db8" stroke-width="1.7" marker-end="url(#arrow-3)"/>
<rect x="602.0" y="460.0" width="126.0" height="86.0" rx="5" ry="5" fill="#f5edff" stroke="#7a3db8" stroke-width="1.6"/>
<text x="665.0" y="477.0" font-size="12" text-anchor="middle"><tspan x="665.0" font-weight="700">C39</tspan><tspan x="665.0" dy="15.0">TW [315, 435]</tspan><tspan x="665.0" dy="15.0">start 315.0</tspan><tspan x="665.0" dy="15.0">end 329.0</tspan><tspan x="665.0" dy="15.0">dur. 14.0</tspan></text>
<line x1="728.0" y1="503.0" x2="749.0" y2="503.0" stroke="#7a3db8" stroke-width="1.7" marker-end="url(#arrow-3)"/>
<rect x="754.0" y="460.0" width="126.0" height="86.0" rx="5" ry="5" fill="#f5edff" stroke="#7a3db8" stroke-width="1.6"/>
<text x="817.0" y="477.0" font-size="12" text-anchor="middle"><tspan x="817.0" font-weight="700">C16</tspan><tspan x="817.0" dy="15.0">TW [274, 394]</tspan><tspan x="817.0" dy="15.0">start 338.1</tspan><tspan x="817.0" dy="15.0">end 352.1</tspan><tspan x="817.0" dy="15.0">dur. 14.0</tspan></text>
<line x1="880.0" y1="503.0" x2="901.0" y2="503.0" stroke="#7a3db8" stroke-width="1.7" marker-end="url(#arrow-3)"/>
<rect x="906.0" y="460.0" width="126.0" height="86.0" rx="5" ry="5" fill="#f5edff" stroke="#7a3db8" stroke-width="1.6"/>
<text x="969.0" y="477.0" font-size="12" text-anchor="middle"><tspan x="969.0" font-weight="700">C30</tspan><tspan x="969.0" dy="15.0">TW [422, 542]</tspan><tspan x="969.0" dy="15.0">start 422.0</tspan><tspan x="969.0" dy="15.0">end 436.0</tspan><tspan x="969.0" dy="15.0">dur. 14.0</tspan></text>
<line x1="1032.0" y1="503.0" x2="1053.0" y2="503.0" stroke="#7a3db8" stroke-width="1.7" marker-end="url(#arrow-3)"/>
<rect x="1058.0" y="460.0" width="126.0" height="86.0" rx="5" ry="5" fill="#f5edff" stroke="#7a3db8" stroke-width="1.6"/>
<text x="1121.0" y="477.0" font-size="12" text-anchor="middle"><tspan x="1121.0" font-weight="700">C11</tspan><tspan x="1121.0" dy="15.0">TW [409, 529]</tspan><tspan x="1121.0" dy="15.0">start 446.2</tspan><tspan x="1121.0" dy="15.0">end 460.2</tspan><tspan x="1121.0" dy="15.0">dur. 14.0</tspan></text>
<line x1="1184.0" y1="503.0" x2="1205.0" y2="503.0" stroke="#7a3db8" stroke-width="1.7" marker-end="url(#arrow-3)"/>
<rect x="1210.0" y="471.0" width="100.0" height="64.0" rx="0" ry="0" fill="#f5edff" stroke="#7a3db8" stroke-width="1.6"/>
<text x="1260.0" y="490.0" font-size="12" text-anchor="middle"><tspan x="1260.0" font-weight="700">1012</tspan><tspan x="1260.0" dy="15.0">return</tspan><tspan x="1260.0" dy="15.0">471.4</tspan></text>
<rect x="28.0" y="578.0" width="390.0" height="98.0" rx="5" ry="5" fill="#fff1ed" stroke="#9a3412" stroke-width="1.6"/>
<text x="39.0" y="598.0" font-size="12" text-anchor="start"><tspan x="39.0" font-weight="700">Vehicle 4, base 1001</tspan><tspan x="39.0" dy="16.0">1001 -&gt; 42 -&gt; 43 -&gt; 12 -&gt; 8 -&gt; 18 -&gt; 32 -&gt; 21</tspan><tspan x="39.0" dy="16.0">-&gt; 1001</tspan><tspan x="39.0" dy="16.0">travel 86.5; service 98.0; wait 331.4</tspan><tspan x="39.0" dy="16.0">depart 0.0; finish 515.9; elapsed 515.9</tspan></text>
<line x1="418.0" y1="627.0" x2="445.0" y2="627.0" stroke="#9a3412" stroke-width="1.7" marker-end="url(#arrow-4)"/>
<rect x="450.0" y="584.0" width="126.0" height="86.0" rx="5" ry="5" fill="#fff1ed" stroke="#9a3412" stroke-width="1.6"/>
<text x="513.0" y="601.0" font-size="12" text-anchor="middle"><tspan x="513.0" font-weight="700">C42</tspan><tspan x="513.0" dy="15.0">TW [20, 140]</tspan><tspan x="513.0" dy="15.0">start 20.0</tspan><tspan x="513.0" dy="15.0">end 34.0</tspan><tspan x="513.0" dy="15.0">dur. 14.0</tspan></text>
<line x1="576.0" y1="627.0" x2="597.0" y2="627.0" stroke="#9a3412" stroke-width="1.7" marker-end="url(#arrow-4)"/>
<rect x="602.0" y="584.0" width="126.0" height="86.0" rx="5" ry="5" fill="#fff1ed" stroke="#9a3412" stroke-width="1.6"/>
<text x="665.0" y="601.0" font-size="12" text-anchor="middle"><tspan x="665.0" font-weight="700">C43</tspan><tspan x="665.0" dy="15.0">TW [37, 157]</tspan><tspan x="665.0" dy="15.0">start 40.1</tspan><tspan x="665.0" dy="15.0">end 54.1</tspan><tspan x="665.0" dy="15.0">dur. 14.0</tspan></text>
<line x1="728.0" y1="627.0" x2="749.0" y2="627.0" stroke="#9a3412" stroke-width="1.7" marker-end="url(#arrow-4)"/>
<rect x="754.0" y="584.0" width="126.0" height="86.0" rx="5" ry="5" fill="#fff1ed" stroke="#9a3412" stroke-width="1.6"/>
<text x="817.0" y="601.0" font-size="12" text-anchor="middle"><tspan x="817.0" font-weight="700">C12</tspan><tspan x="817.0" dy="15.0">TW [73, 193]</tspan><tspan x="817.0" dy="15.0">start 73.0</tspan><tspan x="817.0" dy="15.0">end 87.0</tspan><tspan x="817.0" dy="15.0">dur. 14.0</tspan></text>
<line x1="880.0" y1="627.0" x2="901.0" y2="627.0" stroke="#9a3412" stroke-width="1.7" marker-end="url(#arrow-4)"/>
<rect x="906.0" y="584.0" width="126.0" height="86.0" rx="5" ry="5" fill="#fff1ed" stroke="#9a3412" stroke-width="1.6"/>
<text x="969.0" y="601.0" font-size="12" text-anchor="middle"><tspan x="969.0" font-weight="700">C8</tspan><tspan x="969.0" dy="15.0">TW [46, 166]</tspan><tspan x="969.0" dy="15.0">start 105.1</tspan><tspan x="969.0" dy="15.0">end 119.1</tspan><tspan x="969.0" dy="15.0">dur. 14.0</tspan></text>
<line x1="1032.0" y1="627.0" x2="1053.0" y2="627.0" stroke="#9a3412" stroke-width="1.7" marker-end="url(#arrow-4)"/>
<rect x="1058.0" y="584.0" width="126.0" height="86.0" rx="5" ry="5" fill="#fff1ed" stroke="#9a3412" stroke-width="1.6"/>
<text x="1121.0" y="601.0" font-size="12" text-anchor="middle"><tspan x="1121.0" font-weight="700">C18</tspan><tspan x="1121.0" dy="15.0">TW [222, 342]</tspan><tspan x="1121.0" dy="15.0">start 222.0</tspan><tspan x="1121.0" dy="15.0">end 236.0</tspan><tspan x="1121.0" dy="15.0">dur. 14.0</tspan></text>
<line x1="1184.0" y1="627.0" x2="1205.0" y2="627.0" stroke="#9a3412" stroke-width="1.7" marker-end="url(#arrow-4)"/>
<rect x="1210.0" y="584.0" width="126.0" height="86.0" rx="5" ry="5" fill="#fff1ed" stroke="#9a3412" stroke-width="1.6"/>
<text x="1273.0" y="601.0" font-size="12" text-anchor="middle"><tspan x="1273.0" font-weight="700">C32</tspan><tspan x="1273.0" dy="15.0">TW [454, 574]</tspan><tspan x="1273.0" dy="15.0">start 454.0</tspan><tspan x="1273.0" dy="15.0">end 468.0</tspan><tspan x="1273.0" dy="15.0">dur. 14.0</tspan></text>
<line x1="1336.0" y1="627.0" x2="1357.0" y2="627.0" stroke="#9a3412" stroke-width="1.7" marker-end="url(#arrow-4)"/>
<rect x="1362.0" y="584.0" width="126.0" height="86.0" rx="5" ry="5" fill="#fff1ed" stroke="#9a3412" stroke-width="1.6"/>
<text x="1425.0" y="601.0" font-size="12" text-anchor="middle"><tspan x="1425.0" font-weight="700">C21</tspan><tspan x="1425.0" dy="15.0">TW [416, 536]</tspan><tspan x="1425.0" dy="15.0">start 489.2</tspan><tspan x="1425.0" dy="15.0">end 503.2</tspan><tspan x="1425.0" dy="15.0">dur. 14.0</tspan></text>
<line x1="1488.0" y1="627.0" x2="1509.0" y2="627.0" stroke="#9a3412" stroke-width="1.7" marker-end="url(#arrow-4)"/>
<rect x="1514.0" y="595.0" width="100.0" height="64.0" rx="0" ry="0" fill="#fff1ed" stroke="#9a3412" stroke-width="1.6"/>
<text x="1564.0" y="614.0" font-size="12" text-anchor="middle"><tspan x="1564.0" font-weight="700">1001</tspan><tspan x="1564.0" dy="15.0">return</tspan><tspan x="1564.0" dy="15.0">515.9</tspan></text>
<rect x="28.0" y="708.0" width="390.0" height="86.0" rx="5" ry="5" fill="#e7fbfd" stroke="#006d77" stroke-width="1.6"/>
<text x="39.0" y="728.0" font-size="12" text-anchor="start"><tspan x="39.0" font-weight="700">Vehicle 5, base 1010</tspan><tspan x="39.0" dy="16.0">1010 -&gt; 38 -&gt; 1010</tspan><tspan x="39.0" dy="16.0">travel 7.2; service 14.0; wait 416.4</tspan><tspan x="39.0" dy="16.0">depart 0.0; finish 437.6; elapsed 437.6</tspan></text>
<line x1="418.0" y1="751.0" x2="445.0" y2="751.0" stroke="#006d77" stroke-width="1.7" marker-end="url(#arrow-5)"/>
<rect x="450.0" y="708.0" width="126.0" height="86.0" rx="5" ry="5" fill="#e7fbfd" stroke="#006d77" stroke-width="1.6"/>
<text x="513.0" y="725.0" font-size="12" text-anchor="middle"><tspan x="513.0" font-weight="700">C38</tspan><tspan x="513.0" dy="15.0">TW [420, 540]</tspan><tspan x="513.0" dy="15.0">start 420.0</tspan><tspan x="513.0" dy="15.0">end 434.0</tspan><tspan x="513.0" dy="15.0">dur. 14.0</tspan></text>
<line x1="576.0" y1="751.0" x2="597.0" y2="751.0" stroke="#006d77" stroke-width="1.7" marker-end="url(#arrow-5)"/>
<rect x="602.0" y="719.0" width="100.0" height="64.0" rx="0" ry="0" fill="#e7fbfd" stroke="#006d77" stroke-width="1.6"/>
<text x="652.0" y="738.0" font-size="12" text-anchor="middle"><tspan x="652.0" font-weight="700">1010</tspan><tspan x="652.0" dy="15.0">return</tspan><tspan x="652.0" dy="15.0">437.6</tspan></text>
<rect x="28.0" y="826.0" width="390.0" height="86.0" rx="5" ry="5" fill="#fff0f6" stroke="#9d174d" stroke-width="1.6"/>
<text x="39.0" y="846.0" font-size="12" text-anchor="start"><tspan x="39.0" font-weight="700">Vehicle 6, base 1000</tspan><tspan x="39.0" dy="16.0">1000 -&gt; 47 -&gt; 27 -&gt; 2 -&gt; 25 -&gt; 1000</tspan><tspan x="39.0" dy="16.0">travel 42.5; service 56.0; wait 351.8</tspan><tspan x="39.0" dy="16.0">depart 0.0; finish 450.2; elapsed 450.2</tspan></text>
<line x1="418.0" y1="869.0" x2="445.0" y2="869.0" stroke="#9d174d" stroke-width="1.7" marker-end="url(#arrow-6)"/>
<rect x="450.0" y="826.0" width="126.0" height="86.0" rx="5" ry="5" fill="#fff0f6" stroke="#9d174d" stroke-width="1.6"/>
<text x="513.0" y="843.0" font-size="12" text-anchor="middle"><tspan x="513.0" font-weight="700">C47</tspan><tspan x="513.0" dy="15.0">TW [60, 180]</tspan><tspan x="513.0" dy="15.0">start 60.0</tspan><tspan x="513.0" dy="15.0">end 74.0</tspan><tspan x="513.0" dy="15.0">dur. 14.0</tspan></text>
<line x1="576.0" y1="869.0" x2="597.0" y2="869.0" stroke="#9d174d" stroke-width="1.7" marker-end="url(#arrow-6)"/>
<rect x="602.0" y="826.0" width="126.0" height="86.0" rx="5" ry="5" fill="#fff0f6" stroke="#9d174d" stroke-width="1.6"/>
<text x="665.0" y="843.0" font-size="12" text-anchor="middle"><tspan x="665.0" font-weight="700">C27</tspan><tspan x="665.0" dy="15.0">TW [178, 298]</tspan><tspan x="665.0" dy="15.0">start 178.0</tspan><tspan x="665.0" dy="15.0">end 192.0</tspan><tspan x="665.0" dy="15.0">dur. 14.0</tspan></text>
<line x1="728.0" y1="869.0" x2="749.0" y2="869.0" stroke="#9d174d" stroke-width="1.7" marker-end="url(#arrow-6)"/>
<rect x="754.0" y="826.0" width="126.0" height="86.0" rx="5" ry="5" fill="#fff0f6" stroke="#9d174d" stroke-width="1.6"/>
<text x="817.0" y="843.0" font-size="12" text-anchor="middle"><tspan x="817.0" font-weight="700">C2</tspan><tspan x="817.0" dy="15.0">TW [268, 388]</tspan><tspan x="817.0" dy="15.0">start 268.0</tspan><tspan x="817.0" dy="15.0">end 282.0</tspan><tspan x="817.0" dy="15.0">dur. 14.0</tspan></text>
<line x1="880.0" y1="869.0" x2="901.0" y2="869.0" stroke="#9d174d" stroke-width="1.7" marker-end="url(#arrow-6)"/>
<rect x="906.0" y="826.0" width="126.0" height="86.0" rx="5" ry="5" fill="#fff0f6" stroke="#9d174d" stroke-width="1.6"/>
<text x="969.0" y="843.0" font-size="12" text-anchor="middle"><tspan x="969.0" font-weight="700">C25</tspan><tspan x="969.0" dy="15.0">TW [434, 554]</tspan><tspan x="969.0" dy="15.0">start 434.0</tspan><tspan x="969.0" dy="15.0">end 448.0</tspan><tspan x="969.0" dy="15.0">dur. 14.0</tspan></text>
<line x1="1032.0" y1="869.0" x2="1053.0" y2="869.0" stroke="#9d174d" stroke-width="1.7" marker-end="url(#arrow-6)"/>
<rect x="1058.0" y="837.0" width="100.0" height="64.0" rx="0" ry="0" fill="#fff0f6" stroke="#9d174d" stroke-width="1.6"/>
<text x="1108.0" y="856.0" font-size="12" text-anchor="middle"><tspan x="1108.0" font-weight="700">1000</tspan><tspan x="1108.0" dy="15.0">return</tspan><tspan x="1108.0" dy="15.0">450.2</tspan></text>
<rect x="28.0" y="944.0" width="390.0" height="98.0" rx="5" ry="5" fill="#f3fae8" stroke="#4d7c0f" stroke-width="1.6"/>
<text x="39.0" y="964.0" font-size="12" text-anchor="start"><tspan x="39.0" font-weight="700">Vehicle 7, base 1006</tspan><tspan x="39.0" dy="16.0">1006 -&gt; 24 -&gt; 50 -&gt; 33 -&gt; 20 -&gt; 6 -&gt; 15 -&gt; 29</tspan><tspan x="39.0" dy="16.0">-&gt; 36 -&gt; 1006</tspan><tspan x="39.0" dy="16.0">travel 92.7; service 112.0; wait 328.3</tspan><tspan x="39.0" dy="16.0">depart 0.0; finish 533.1; elapsed 533.1</tspan></text>
<line x1="418.0" y1="993.0" x2="445.0" y2="993.0" stroke="#4d7c0f" stroke-width="1.7" marker-end="url(#arrow-7)"/>
<rect x="450.0" y="950.0" width="126.0" height="86.0" rx="5" ry="5" fill="#f3fae8" stroke="#4d7c0f" stroke-width="1.6"/>
<text x="513.0" y="967.0" font-size="12" text-anchor="middle"><tspan x="513.0" font-weight="700">C24</tspan><tspan x="513.0" dy="15.0">TW [59, 179]</tspan><tspan x="513.0" dy="15.0">start 59.0</tspan><tspan x="513.0" dy="15.0">end 73.0</tspan><tspan x="513.0" dy="15.0">dur. 14.0</tspan></text>
<line x1="576.0" y1="993.0" x2="597.0" y2="993.0" stroke="#4d7c0f" stroke-width="1.7" marker-end="url(#arrow-7)"/>
<rect x="602.0" y="950.0" width="126.0" height="86.0" rx="5" ry="5" fill="#f3fae8" stroke="#4d7c0f" stroke-width="1.6"/>
<text x="665.0" y="967.0" font-size="12" text-anchor="middle"><tspan x="665.0" font-weight="700">C50</tspan><tspan x="665.0" dy="15.0">TW [77, 197]</tspan><tspan x="665.0" dy="15.0">start 89.0</tspan><tspan x="665.0" dy="15.0">end 103.0</tspan><tspan x="665.0" dy="15.0">dur. 14.0</tspan></text>
<line x1="728.0" y1="993.0" x2="749.0" y2="993.0" stroke="#4d7c0f" stroke-width="1.7" marker-end="url(#arrow-7)"/>
<rect x="754.0" y="950.0" width="126.0" height="86.0" rx="5" ry="5" fill="#f3fae8" stroke="#4d7c0f" stroke-width="1.6"/>
<text x="817.0" y="967.0" font-size="12" text-anchor="middle"><tspan x="817.0" font-weight="700">C33</tspan><tspan x="817.0" dy="15.0">TW [0, 120]</tspan><tspan x="817.0" dy="15.0">start 112.4</tspan><tspan x="817.0" dy="15.0">end 126.4</tspan><tspan x="817.0" dy="15.0">dur. 14.0</tspan></text>
<line x1="880.0" y1="993.0" x2="901.0" y2="993.0" stroke="#4d7c0f" stroke-width="1.7" marker-end="url(#arrow-7)"/>
<rect x="906.0" y="950.0" width="126.0" height="86.0" rx="5" ry="5" fill="#f3fae8" stroke="#4d7c0f" stroke-width="1.6"/>
<text x="969.0" y="967.0" font-size="12" text-anchor="middle"><tspan x="969.0" font-weight="700">C20</tspan><tspan x="969.0" dy="15.0">TW [29, 149]</tspan><tspan x="969.0" dy="15.0">start 134.0</tspan><tspan x="969.0" dy="15.0">end 148.0</tspan><tspan x="969.0" dy="15.0">dur. 14.0</tspan></text>
<line x1="1032.0" y1="993.0" x2="1053.0" y2="993.0" stroke="#4d7c0f" stroke-width="1.7" marker-end="url(#arrow-7)"/>
<rect x="1058.0" y="950.0" width="126.0" height="86.0" rx="5" ry="5" fill="#f3fae8" stroke="#4d7c0f" stroke-width="1.6"/>
<text x="1121.0" y="967.0" font-size="12" text-anchor="middle"><tspan x="1121.0" font-weight="700">C6</tspan><tspan x="1121.0" dy="15.0">TW [184, 304]</tspan><tspan x="1121.0" dy="15.0">start 184.0</tspan><tspan x="1121.0" dy="15.0">end 198.0</tspan><tspan x="1121.0" dy="15.0">dur. 14.0</tspan></text>
<line x1="1184.0" y1="993.0" x2="1205.0" y2="993.0" stroke="#4d7c0f" stroke-width="1.7" marker-end="url(#arrow-7)"/>
<rect x="1210.0" y="950.0" width="126.0" height="86.0" rx="5" ry="5" fill="#f3fae8" stroke="#4d7c0f" stroke-width="1.6"/>
<text x="1273.0" y="967.0" font-size="12" text-anchor="middle"><tspan x="1273.0" font-weight="700">C15</tspan><tspan x="1273.0" dy="15.0">TW [282, 402]</tspan><tspan x="1273.0" dy="15.0">start 282.0</tspan><tspan x="1273.0" dy="15.0">end 296.0</tspan><tspan x="1273.0" dy="15.0">dur. 14.0</tspan></text>
<line x1="1336.0" y1="993.0" x2="1357.0" y2="993.0" stroke="#4d7c0f" stroke-width="1.7" marker-end="url(#arrow-7)"/>
<rect x="1362.0" y="950.0" width="126.0" height="86.0" rx="5" ry="5" fill="#f3fae8" stroke="#4d7c0f" stroke-width="1.6"/>
<text x="1425.0" y="967.0" font-size="12" text-anchor="middle"><tspan x="1425.0" font-weight="700">C29</tspan><tspan x="1425.0" dy="15.0">TW [477, 597]</tspan><tspan x="1425.0" dy="15.0">start 477.0</tspan><tspan x="1425.0" dy="15.0">end 491.0</tspan><tspan x="1425.0" dy="15.0">dur. 14.0</tspan></text>
<line x1="1488.0" y1="993.0" x2="1509.0" y2="993.0" stroke="#4d7c0f" stroke-width="1.7" marker-end="url(#arrow-7)"/>
<rect x="1514.0" y="950.0" width="126.0" height="86.0" rx="5" ry="5" fill="#f3fae8" stroke="#4d7c0f" stroke-width="1.6"/>
<text x="1577.0" y="967.0" font-size="12" text-anchor="middle"><tspan x="1577.0" font-weight="700">C36</tspan><tspan x="1577.0" dy="15.0">TW [435, 555]</tspan><tspan x="1577.0" dy="15.0">start 503.1</tspan><tspan x="1577.0" dy="15.0">end 517.1</tspan><tspan x="1577.0" dy="15.0">dur. 14.0</tspan></text>
<line x1="1640.0" y1="993.0" x2="1661.0" y2="993.0" stroke="#4d7c0f" stroke-width="1.7" marker-end="url(#arrow-7)"/>
<rect x="1666.0" y="961.0" width="100.0" height="64.0" rx="0" ry="0" fill="#f3fae8" stroke="#4d7c0f" stroke-width="1.6"/>
<text x="1716.0" y="980.0" font-size="12" text-anchor="middle"><tspan x="1716.0" font-weight="700">1006</tspan><tspan x="1716.0" dy="15.0">return</tspan><tspan x="1716.0" dy="15.0">533.1</tspan></text>
<rect x="28.0" y="1074.0" width="390.0" height="98.0" rx="5" ry="5" fill="#f1f5f9" stroke="#334155" stroke-width="1.6"/>
<text x="39.0" y="1094.0" font-size="12" text-anchor="start"><tspan x="39.0" font-weight="700">Vehicle 8, base 1013</tspan><tspan x="39.0" dy="16.0">1013 -&gt; 14 -&gt; 49 -&gt; 3 -&gt; 41 -&gt; 1 -&gt; 35 -&gt; 44</tspan><tspan x="39.0" dy="16.0">-&gt; 28 -&gt; 1013</tspan><tspan x="39.0" dy="16.0">travel 124.0; service 112.0; wait 255.3</tspan><tspan x="39.0" dy="16.0">depart 0.0; finish 491.2; elapsed 491.2</tspan></text>
<line x1="418.0" y1="1123.0" x2="445.0" y2="1123.0" stroke="#334155" stroke-width="1.7" marker-end="url(#arrow-8)"/>
<rect x="450.0" y="1080.0" width="126.0" height="86.0" rx="5" ry="5" fill="#f1f5f9" stroke="#334155" stroke-width="1.6"/>
<text x="513.0" y="1097.0" font-size="12" text-anchor="middle"><tspan x="513.0" font-weight="700">C14</tspan><tspan x="513.0" dy="15.0">TW [63, 183]</tspan><tspan x="513.0" dy="15.0">start 63.0</tspan><tspan x="513.0" dy="15.0">end 77.0</tspan><tspan x="513.0" dy="15.0">dur. 14.0</tspan></text>
<line x1="576.0" y1="1123.0" x2="597.0" y2="1123.0" stroke="#334155" stroke-width="1.7" marker-end="url(#arrow-8)"/>
<rect x="602.0" y="1080.0" width="126.0" height="86.0" rx="5" ry="5" fill="#f1f5f9" stroke="#334155" stroke-width="1.6"/>
<text x="665.0" y="1097.0" font-size="12" text-anchor="middle"><tspan x="665.0" font-weight="700">C49</tspan><tspan x="665.0" dy="15.0">TW [100, 220]</tspan><tspan x="665.0" dy="15.0">start 100.0</tspan><tspan x="665.0" dy="15.0">end 114.0</tspan><tspan x="665.0" dy="15.0">dur. 14.0</tspan></text>
<line x1="728.0" y1="1123.0" x2="749.0" y2="1123.0" stroke="#334155" stroke-width="1.7" marker-end="url(#arrow-8)"/>
<rect x="754.0" y="1080.0" width="126.0" height="86.0" rx="5" ry="5" fill="#f1f5f9" stroke="#334155" stroke-width="1.6"/>
<text x="817.0" y="1097.0" font-size="12" text-anchor="middle"><tspan x="817.0" font-weight="700">C3</tspan><tspan x="817.0" dy="15.0">TW [247, 367]</tspan><tspan x="817.0" dy="15.0">start 247.0</tspan><tspan x="817.0" dy="15.0">end 261.0</tspan><tspan x="817.0" dy="15.0">dur. 14.0</tspan></text>
<line x1="880.0" y1="1123.0" x2="901.0" y2="1123.0" stroke="#334155" stroke-width="1.7" marker-end="url(#arrow-8)"/>
<rect x="906.0" y="1080.0" width="126.0" height="86.0" rx="5" ry="5" fill="#f1f5f9" stroke="#334155" stroke-width="1.6"/>
<text x="969.0" y="1097.0" font-size="12" text-anchor="middle"><tspan x="969.0" font-weight="700">C41</tspan><tspan x="969.0" dy="15.0">TW [295, 415]</tspan><tspan x="969.0" dy="15.0">start 295.0</tspan><tspan x="969.0" dy="15.0">end 309.0</tspan><tspan x="969.0" dy="15.0">dur. 14.0</tspan></text>
<line x1="1032.0" y1="1123.0" x2="1053.0" y2="1123.0" stroke="#334155" stroke-width="1.7" marker-end="url(#arrow-8)"/>
<rect x="1058.0" y="1080.0" width="126.0" height="86.0" rx="5" ry="5" fill="#f1f5f9" stroke="#334155" stroke-width="1.6"/>
<text x="1121.0" y="1097.0" font-size="12" text-anchor="middle"><tspan x="1121.0" font-weight="700">C1</tspan><tspan x="1121.0" dy="15.0">TW [345, 465]</tspan><tspan x="1121.0" dy="15.0">start 345.0</tspan><tspan x="1121.0" dy="15.0">end 359.0</tspan><tspan x="1121.0" dy="15.0">dur. 14.0</tspan></text>
<line x1="1184.0" y1="1123.0" x2="1205.0" y2="1123.0" stroke="#334155" stroke-width="1.7" marker-end="url(#arrow-8)"/>
<rect x="1210.0" y="1080.0" width="126.0" height="86.0" rx="5" ry="5" fill="#f1f5f9" stroke="#334155" stroke-width="1.6"/>
<text x="1273.0" y="1097.0" font-size="12" text-anchor="middle"><tspan x="1273.0" font-weight="700">C35</tspan><tspan x="1273.0" dy="15.0">TW [323, 443]</tspan><tspan x="1273.0" dy="15.0">start 387.6</tspan><tspan x="1273.0" dy="15.0">end 401.6</tspan><tspan x="1273.0" dy="15.0">dur. 14.0</tspan></text>
<line x1="1336.0" y1="1123.0" x2="1357.0" y2="1123.0" stroke="#334155" stroke-width="1.7" marker-end="url(#arrow-8)"/>
<rect x="1362.0" y="1080.0" width="126.0" height="86.0" rx="5" ry="5" fill="#f1f5f9" stroke="#334155" stroke-width="1.6"/>
<text x="1425.0" y="1097.0" font-size="12" text-anchor="middle"><tspan x="1425.0" font-weight="700">C44</tspan><tspan x="1425.0" dy="15.0">TW [417, 537]</tspan><tspan x="1425.0" dy="15.0">start 417.0</tspan><tspan x="1425.0" dy="15.0">end 431.0</tspan><tspan x="1425.0" dy="15.0">dur. 14.0</tspan></text>
<line x1="1488.0" y1="1123.0" x2="1509.0" y2="1123.0" stroke="#334155" stroke-width="1.7" marker-end="url(#arrow-8)"/>
<rect x="1514.0" y="1080.0" width="126.0" height="86.0" rx="5" ry="5" fill="#f1f5f9" stroke="#334155" stroke-width="1.6"/>
<text x="1577.0" y="1097.0" font-size="12" text-anchor="middle"><tspan x="1577.0" font-weight="700">C28</tspan><tspan x="1577.0" dy="15.0">TW [473, 593]</tspan><tspan x="1577.0" dy="15.0">start 473.0</tspan><tspan x="1577.0" dy="15.0">end 487.0</tspan><tspan x="1577.0" dy="15.0">dur. 14.0</tspan></text>
<line x1="1640.0" y1="1123.0" x2="1661.0" y2="1123.0" stroke="#334155" stroke-width="1.7" marker-end="url(#arrow-8)"/>
<rect x="1666.0" y="1091.0" width="100.0" height="64.0" rx="0" ry="0" fill="#f1f5f9" stroke="#334155" stroke-width="1.6"/>
<text x="1716.0" y="1110.0" font-size="12" text-anchor="middle"><tspan x="1716.0" font-weight="700">1013</tspan><tspan x="1716.0" dy="15.0">return</tspan><tspan x="1716.0" dy="15.0">491.2</tspan></text>
<rect x="28.0" y="1204.0" width="390.0" height="86.0" rx="5" ry="5" fill="#ecfeff" stroke="#0e7490" stroke-width="1.6"/>
<text x="39.0" y="1224.0" font-size="12" text-anchor="start"><tspan x="39.0" font-weight="700">Vehicle 9, base 1019</tspan><tspan x="39.0" dy="16.0">1019 -&gt; 17 -&gt; 34 -&gt; 7 -&gt; 1019</tspan><tspan x="39.0" dy="16.0">travel 11.9; service 42.0; wait 396.3</tspan><tspan x="39.0" dy="16.0">depart 0.0; finish 450.2; elapsed 450.2</tspan></text>
<line x1="418.0" y1="1247.0" x2="445.0" y2="1247.0" stroke="#0e7490" stroke-width="1.7" marker-end="url(#arrow-9)"/>
<rect x="450.0" y="1204.0" width="126.0" height="86.0" rx="5" ry="5" fill="#ecfeff" stroke="#0e7490" stroke-width="1.6"/>
<text x="513.0" y="1221.0" font-size="12" text-anchor="middle"><tspan x="513.0" font-weight="700">C17</tspan><tspan x="513.0" dy="15.0">TW [152, 272]</tspan><tspan x="513.0" dy="15.0">start 152.0</tspan><tspan x="513.0" dy="15.0">end 166.0</tspan><tspan x="513.0" dy="15.0">dur. 14.0</tspan></text>
<line x1="576.0" y1="1247.0" x2="597.0" y2="1247.0" stroke="#0e7490" stroke-width="1.7" marker-end="url(#arrow-9)"/>
<rect x="602.0" y="1204.0" width="126.0" height="86.0" rx="5" ry="5" fill="#ecfeff" stroke="#0e7490" stroke-width="1.6"/>
<text x="665.0" y="1221.0" font-size="12" text-anchor="middle"><tspan x="665.0" font-weight="700">C34</tspan><tspan x="665.0" dy="15.0">TW [286, 406]</tspan><tspan x="665.0" dy="15.0">start 286.0</tspan><tspan x="665.0" dy="15.0">end 300.0</tspan><tspan x="665.0" dy="15.0">dur. 14.0</tspan></text>
<line x1="728.0" y1="1247.0" x2="749.0" y2="1247.0" stroke="#0e7490" stroke-width="1.7" marker-end="url(#arrow-9)"/>
<rect x="754.0" y="1204.0" width="126.0" height="86.0" rx="5" ry="5" fill="#ecfeff" stroke="#0e7490" stroke-width="1.6"/>
<text x="817.0" y="1221.0" font-size="12" text-anchor="middle"><tspan x="817.0" font-weight="700">C7</tspan><tspan x="817.0" dy="15.0">TW [434, 554]</tspan><tspan x="817.0" dy="15.0">start 434.0</tspan><tspan x="817.0" dy="15.0">end 448.0</tspan><tspan x="817.0" dy="15.0">dur. 14.0</tspan></text>
<line x1="880.0" y1="1247.0" x2="901.0" y2="1247.0" stroke="#0e7490" stroke-width="1.7" marker-end="url(#arrow-9)"/>
<rect x="906.0" y="1215.0" width="100.0" height="64.0" rx="0" ry="0" fill="#ecfeff" stroke="#0e7490" stroke-width="1.6"/>
<text x="956.0" y="1234.0" font-size="12" text-anchor="middle"><tspan x="956.0" font-weight="700">1019</tspan><tspan x="956.0" dy="15.0">return</tspan><tspan x="956.0" dy="15.0">450.2</tspan></text>
<rect x="28.0" y="1328.0" width="1790.0" height="74.0" rx="5" ry="5" fill="#f8fafc" stroke="#c9ced6" stroke-width="1.6"/>
<text x="40.0" y="1350.0" font-size="12" text-anchor="start"><tspan x="40.0">Open facilities: 1000, 1001, 1006, 1007, 1008, 1010, 1012, 1013, 1015, 1019; unselected candidates: 1002, 1003, 1004, 1005, 1009, 1011, 1014, 1016, 1017, 1018.</tspan><tspan x="40.0" dy="17.0">Times use nominal service durations and earliest-start propagation from a time-zero facility departure.</tspan><tspan x="40.0" dy="17.0">TW denotes the customer time window; start and end denote nominal service start and service completion.</tspan></text>
</svg>
