<?xml version="1.0" encoding="UTF-8"?>
<svg xmlns="http://www.w3.org/2000/svg" width="1714" height="836" viewBox="0 0 1714 836" role="img" aria-labelledby="title desc">
<title id="title">Route schedule for flrp-ssr_instance_25_3</title>
<desc id="desc">Non-geographic route schedule with route totals and customer service times.</desc>
<style>
text{font-family:Arial,Helvetica,sans-serif;fill:#111827}
.title{font-size:24px;font-weight:700}
.meta{font-size:13px;fill:#374151}
.caption{font-size:12px;fill:#374151}
</style>
<rect x="0" y="0" width="100%" height="100%" fill="#ffffff"/>
<text class="title" x="28" y="34">FLRP-SSR route schedule: flrp-ssr_instance_25_3</text>
<text class="meta" x="28" y="58">cost = 5388.543; No. of customers = 25; No. of routes= 5</text>
<defs>
<marker id="arrow-0" viewBox="0 0 10 10" refX="8.5" refY="5" markerWidth="6" markerHeight="6" orient="auto">
<path d="M 0 0 L 10 5 L 0 10 z" fill="#174ea6"/>
</marker>
<marker id="arrow-1" viewBox="0 0 10 10" refX="8.5" refY="5" markerWidth="6" markerHeight="6" orient="auto">
<path d="M 0 0 L 10 5 L 0 10 z" fill="#c65f00"/>
</marker>
<marker id="arrow-2" viewBox="0 0 10 10" refX="8.5" refY="5" markerWidth="6" markerHeight="6" orient="auto">
<path d="M 0 0 L 10 5 L 0 10 z" fill="#0b7d25"/>
</marker>
<marker id="arrow-3" viewBox="0 0 10 10" refX="8.5" refY="5" markerWidth="6" markerHeight="6" orient="auto">
<path d="M 0 0 L 10 5 L 0 10 z" fill="#7a3db8"/>
</marker>
<marker id="arrow-4" viewBox="0 0 10 10" refX="8.5" refY="5" markerWidth="6" markerHeight="6" orient="auto">
<path d="M 0 0 L 10 5 L 0 10 z" fill="#9a3412"/>
</marker>
</defs>
<rect x="28.0" y="106.0" width="390.0" height="86.0" rx="5" ry="5" fill="#edf4ff" stroke="#174ea6" stroke-width="1.6"/>
<text x="39.0" y="126.0" font-size="12" text-anchor="start"><tspan x="39.0" font-weight="700">Vehicle 0, base 1009</tspan><tspan x="39.0" dy="16.0">1009 -&gt; 1 -&gt; 10 -&gt; 2 -&gt; 25 -&gt; 1009</tspan><tspan x="39.0" dy="16.0">travel 83.4; service 64.0; wait 249.3</tspan><tspan x="39.0" dy="16.0">depart 0.0; finish 396.7; elapsed 396.7</tspan></text>
<line x1="418.0" y1="149.0" x2="445.0" y2="149.0" stroke="#174ea6" stroke-width="1.7" marker-end="url(#arrow-0)"/>
<rect x="450.0" y="106.0" width="126.0" height="86.0" rx="5" ry="5" fill="#edf4ff" stroke="#174ea6" stroke-width="1.6"/>
<text x="513.0" y="123.0" font-size="12" text-anchor="middle"><tspan x="513.0" font-weight="700">C1</tspan><tspan x="513.0" dy="15.0">TW [134, 254]</tspan><tspan x="513.0" dy="15.0">start 134.0</tspan><tspan x="513.0" dy="15.0">end 150.0</tspan><tspan x="513.0" dy="15.0">dur. 16.0</tspan></text>
<line x1="576.0" y1="149.0" x2="597.0" y2="149.0" stroke="#174ea6" stroke-width="1.7" marker-end="url(#arrow-0)"/>
<rect x="602.0" y="106.0" width="126.0" height="86.0" rx="5" ry="5" fill="#edf4ff" stroke="#174ea6" stroke-width="1.6"/>
<text x="665.0" y="123.0" font-size="12" text-anchor="middle"><tspan x="665.0" font-weight="700">C10</tspan><tspan x="665.0" dy="15.0">TW [121, 241]</tspan><tspan x="665.0" dy="15.0">start 155.1</tspan><tspan x="665.0" dy="15.0">end 171.1</tspan><tspan x="665.0" dy="15.0">dur. 16.0</tspan></text>
<line x1="728.0" y1="149.0" x2="749.0" y2="149.0" stroke="#174ea6" stroke-width="1.7" marker-end="url(#arrow-0)"/>
<rect x="754.0" y="106.0" width="126.0" height="86.0" rx="5" ry="5" fill="#edf4ff" stroke="#174ea6" stroke-width="1.6"/>
<text x="817.0" y="123.0" font-size="12" text-anchor="middle"><tspan x="817.0" font-weight="700">C2</tspan><tspan x="817.0" dy="15.0">TW [140, 260]</tspan><tspan x="817.0" dy="15.0">start 196.6</tspan><tspan x="817.0" dy="15.0">end 212.6</tspan><tspan x="817.0" dy="15.0">dur. 16.0</tspan></text>
<line x1="880.0" y1="149.0" x2="901.0" y2="149.0" stroke="#174ea6" stroke-width="1.7" marker-end="url(#arrow-0)"/>
<rect x="906.0" y="106.0" width="126.0" height="86.0" rx="5" ry="5" fill="#edf4ff" stroke="#174ea6" stroke-width="1.6"/>
<text x="969.0" y="123.0" font-size="12" text-anchor="middle"><tspan x="969.0" font-weight="700">C25</tspan><tspan x="969.0" dy="15.0">TW [358, 478]</tspan><tspan x="969.0" dy="15.0">start 358.0</tspan><tspan x="969.0" dy="15.0">end 374.0</tspan><tspan x="969.0" dy="15.0">dur. 16.0</tspan></text>
<line x1="1032.0" y1="149.0" x2="1053.0" y2="149.0" stroke="#174ea6" stroke-width="1.7" marker-end="url(#arrow-0)"/>
<rect x="1058.0" y="117.0" width="100.0" height="64.0" rx="0" ry="0" fill="#edf4ff" stroke="#174ea6" stroke-width="1.6"/>
<text x="1108.0" y="136.0" font-size="12" text-anchor="middle"><tspan x="1108.0" font-weight="700">1009</tspan><tspan x="1108.0" dy="15.0">return</tspan><tspan x="1108.0" dy="15.0">396.7</tspan></text>
<rect x="28.0" y="224.0" width="390.0" height="86.0" rx="5" ry="5" fill="#fff3e5" stroke="#c65f00" stroke-width="1.6"/>
<text x="39.0" y="244.0" font-size="12" text-anchor="start"><tspan x="39.0" font-weight="700">Vehicle 1, base 1001</tspan><tspan x="39.0" dy="16.0">1001 -&gt; 22 -&gt; 7 -&gt; 8 -&gt; 12 -&gt; 11 -&gt; 5 -&gt; 1001</tspan><tspan x="39.0" dy="16.0">travel 74.4; service 96.0; wait 349.6</tspan><tspan x="39.0" dy="16.0">depart 0.0; finish 519.9; elapsed 519.9</tspan></text>
<line x1="418.0" y1="267.0" x2="445.0" y2="267.0" stroke="#c65f00" stroke-width="1.7" marker-end="url(#arrow-1)"/>
<rect x="450.0" y="224.0" width="126.0" height="86.0" rx="5" ry="5" fill="#fff3e5" stroke="#c65f00" stroke-width="1.6"/>
<text x="513.0" y="241.0" font-size="12" text-anchor="middle"><tspan x="513.0" font-weight="700">C22</tspan><tspan x="513.0" dy="15.0">TW [132, 252]</tspan><tspan x="513.0" dy="15.0">start 132.0</tspan><tspan x="513.0" dy="15.0">end 148.0</tspan><tspan x="513.0" dy="15.0">dur. 16.0</tspan></text>
<line x1="576.0" y1="267.0" x2="597.0" y2="267.0" stroke="#c65f00" stroke-width="1.7" marker-end="url(#arrow-1)"/>
<rect x="602.0" y="224.0" width="126.0" height="86.0" rx="5" ry="5" fill="#fff3e5" stroke="#c65f00" stroke-width="1.6"/>
<text x="665.0" y="241.0" font-size="12" text-anchor="middle"><tspan x="665.0" font-weight="700">C7</tspan><tspan x="665.0" dy="15.0">TW [69, 189]</tspan><tspan x="665.0" dy="15.0">start 159.0</tspan><tspan x="665.0" dy="15.0">end 175.0</tspan><tspan x="665.0" dy="15.0">dur. 16.0</tspan></text>
<line x1="728.0" y1="267.0" x2="749.0" y2="267.0" stroke="#c65f00" stroke-width="1.7" marker-end="url(#arrow-1)"/>
<rect x="754.0" y="224.0" width="126.0" height="86.0" rx="5" ry="5" fill="#fff3e5" stroke="#c65f00" stroke-width="1.6"/>
<text x="817.0" y="241.0" font-size="12" text-anchor="middle"><tspan x="817.0" font-weight="700">C8</tspan><tspan x="817.0" dy="15.0">TW [244, 364]</tspan><tspan x="817.0" dy="15.0">start 244.0</tspan><tspan x="817.0" dy="15.0">end 260.0</tspan><tspan x="817.0" dy="15.0">dur. 16.0</tspan></text>
<line x1="880.0" y1="267.0" x2="901.0" y2="267.0" stroke="#c65f00" stroke-width="1.7" marker-end="url(#arrow-1)"/>
<rect x="906.0" y="224.0" width="126.0" height="86.0" rx="5" ry="5" fill="#fff3e5" stroke="#c65f00" stroke-width="1.6"/>
<text x="969.0" y="241.0" font-size="12" text-anchor="middle"><tspan x="969.0" font-weight="700">C12</tspan><tspan x="969.0" dy="15.0">TW [322, 442]</tspan><tspan x="969.0" dy="15.0">start 322.0</tspan><tspan x="969.0" dy="15.0">end 338.0</tspan><tspan x="969.0" dy="15.0">dur. 16.0</tspan></text>
<line x1="1032.0" y1="267.0" x2="1053.0" y2="267.0" stroke="#c65f00" stroke-width="1.7" marker-end="url(#arrow-1)"/>
<rect x="1058.0" y="224.0" width="126.0" height="86.0" rx="5" ry="5" fill="#fff3e5" stroke="#c65f00" stroke-width="1.6"/>
<text x="1121.0" y="241.0" font-size="12" text-anchor="middle"><tspan x="1121.0" font-weight="700">C11</tspan><tspan x="1121.0" dy="15.0">TW [465, 585]</tspan><tspan x="1121.0" dy="15.0">start 465.0</tspan><tspan x="1121.0" dy="15.0">end 481.0</tspan><tspan x="1121.0" dy="15.0">dur. 16.0</tspan></text>
<line x1="1184.0" y1="267.0" x2="1205.0" y2="267.0" stroke="#c65f00" stroke-width="1.7" marker-end="url(#arrow-1)"/>
<rect x="1210.0" y="224.0" width="126.0" height="86.0" rx="5" ry="5" fill="#fff3e5" stroke="#c65f00" stroke-width="1.6"/>
<text x="1273.0" y="241.0" font-size="12" text-anchor="middle"><tspan x="1273.0" font-weight="700">C5</tspan><tspan x="1273.0" dy="15.0">TW [408, 528]</tspan><tspan x="1273.0" dy="15.0">start 494.0</tspan><tspan x="1273.0" dy="15.0">end 510.0</tspan><tspan x="1273.0" dy="15.0">dur. 16.0</tspan></text>
<line x1="1336.0" y1="267.0" x2="1357.0" y2="267.0" stroke="#c65f00" stroke-width="1.7" marker-end="url(#arrow-1)"/>
<rect x="1362.0" y="235.0" width="100.0" height="64.0" rx="0" ry="0" fill="#fff3e5" stroke="#c65f00" stroke-width="1.6"/>
<text x="1412.0" y="254.0" font-size="12" text-anchor="middle"><tspan x="1412.0" font-weight="700">1001</tspan><tspan x="1412.0" dy="15.0">return</tspan><tspan x="1412.0" dy="15.0">519.9</tspan></text>
<rect x="28.0" y="342.0" width="390.0" height="98.0" rx="5" ry="5" fill="#ecf9ee" stroke="#0b7d25" stroke-width="1.6"/>
<text x="39.0" y="362.0" font-size="12" text-anchor="start"><tspan x="39.0" font-weight="700">Vehicle 2, base 1008</tspan><tspan x="39.0" dy="16.0">1008 -&gt; 15 -&gt; 23 -&gt; 16 -&gt; 24 -&gt; 21 -&gt; 3 -&gt;</tspan><tspan x="39.0" dy="16.0">1008</tspan><tspan x="39.0" dy="16.0">travel 76.0; service 96.0; wait 304.9</tspan><tspan x="39.0" dy="16.0">depart 0.0; finish 476.9; elapsed 476.9</tspan></text>
<line x1="418.0" y1="391.0" x2="445.0" y2="391.0" stroke="#0b7d25" stroke-width="1.7" marker-end="url(#arrow-2)"/>
<rect x="450.0" y="348.0" width="126.0" height="86.0" rx="5" ry="5" fill="#ecf9ee" stroke="#0b7d25" stroke-width="1.6"/>
<text x="513.0" y="365.0" font-size="12" text-anchor="middle"><tspan x="513.0" font-weight="700">C15</tspan><tspan x="513.0" dy="15.0">TW [21, 141]</tspan><tspan x="513.0" dy="15.0">start 21.0</tspan><tspan x="513.0" dy="15.0">end 37.0</tspan><tspan x="513.0" dy="15.0">dur. 16.0</tspan></text>
<line x1="576.0" y1="391.0" x2="597.0" y2="391.0" stroke="#0b7d25" stroke-width="1.7" marker-end="url(#arrow-2)"/>
<rect x="602.0" y="348.0" width="126.0" height="86.0" rx="5" ry="5" fill="#ecf9ee" stroke="#0b7d25" stroke-width="1.6"/>
<text x="665.0" y="365.0" font-size="12" text-anchor="middle"><tspan x="665.0" font-weight="700">C23</tspan><tspan x="665.0" dy="15.0">TW [25, 145]</tspan><tspan x="665.0" dy="15.0">start 49.8</tspan><tspan x="665.0" dy="15.0">end 65.8</tspan><tspan x="665.0" dy="15.0">dur. 16.0</tspan></text>
<line x1="728.0" y1="391.0" x2="749.0" y2="391.0" stroke="#0b7d25" stroke-width="1.7" marker-end="url(#arrow-2)"/>
<rect x="754.0" y="348.0" width="126.0" height="86.0" rx="5" ry="5" fill="#ecf9ee" stroke="#0b7d25" stroke-width="1.6"/>
<text x="817.0" y="365.0" font-size="12" text-anchor="middle"><tspan x="817.0" font-weight="700">C16</tspan><tspan x="817.0" dy="15.0">TW [166, 286]</tspan><tspan x="817.0" dy="15.0">start 166.0</tspan><tspan x="817.0" dy="15.0">end 182.0</tspan><tspan x="817.0" dy="15.0">dur. 16.0</tspan></text>
<line x1="880.0" y1="391.0" x2="901.0" y2="391.0" stroke="#0b7d25" stroke-width="1.7" marker-end="url(#arrow-2)"/>
<rect x="906.0" y="348.0" width="126.0" height="86.0" rx="5" ry="5" fill="#ecf9ee" stroke="#0b7d25" stroke-width="1.6"/>
<text x="969.0" y="365.0" font-size="12" text-anchor="middle"><tspan x="969.0" font-weight="700">C24</tspan><tspan x="969.0" dy="15.0">TW [155, 275]</tspan><tspan x="969.0" dy="15.0">start 197.1</tspan><tspan x="969.0" dy="15.0">end 213.1</tspan><tspan x="969.0" dy="15.0">dur. 16.0</tspan></text>
<line x1="1032.0" y1="391.0" x2="1053.0" y2="391.0" stroke="#0b7d25" stroke-width="1.7" marker-end="url(#arrow-2)"/>
<rect x="1058.0" y="348.0" width="126.0" height="86.0" rx="5" ry="5" fill="#ecf9ee" stroke="#0b7d25" stroke-width="1.6"/>
<text x="1121.0" y="365.0" font-size="12" text-anchor="middle"><tspan x="1121.0" font-weight="700">C21</tspan><tspan x="1121.0" dy="15.0">TW [271, 391]</tspan><tspan x="1121.0" dy="15.0">start 271.0</tspan><tspan x="1121.0" dy="15.0">end 287.0</tspan><tspan x="1121.0" dy="15.0">dur. 16.0</tspan></text>
<line x1="1184.0" y1="391.0" x2="1205.0" y2="391.0" stroke="#0b7d25" stroke-width="1.7" marker-end="url(#arrow-2)"/>
<rect x="1210.0" y="348.0" width="126.0" height="86.0" rx="5" ry="5" fill="#ecf9ee" stroke="#0b7d25" stroke-width="1.6"/>
<text x="1273.0" y="365.0" font-size="12" text-anchor="middle"><tspan x="1273.0" font-weight="700">C3</tspan><tspan x="1273.0" dy="15.0">TW [450, 570]</tspan><tspan x="1273.0" dy="15.0">start 450.0</tspan><tspan x="1273.0" dy="15.0">end 466.0</tspan><tspan x="1273.0" dy="15.0">dur. 16.0</tspan></text>
<line x1="1336.0" y1="391.0" x2="1357.0" y2="391.0" stroke="#0b7d25" stroke-width="1.7" marker-end="url(#arrow-2)"/>
<rect x="1362.0" y="359.0" width="100.0" height="64.0" rx="0" ry="0" fill="#ecf9ee" stroke="#0b7d25" stroke-width="1.6"/>
<text x="1412.0" y="378.0" font-size="12" text-anchor="middle"><tspan x="1412.0" font-weight="700">1008</tspan><tspan x="1412.0" dy="15.0">return</tspan><tspan x="1412.0" dy="15.0">476.9</tspan></text>
<rect x="28.0" y="472.0" width="390.0" height="98.0" rx="5" ry="5" fill="#f5edff" stroke="#7a3db8" stroke-width="1.6"/>
<text x="39.0" y="492.0" font-size="12" text-anchor="start"><tspan x="39.0" font-weight="700">Vehicle 3, base 1002</tspan><tspan x="39.0" dy="16.0">1002 -&gt; 20 -&gt; 4 -&gt; 13 -&gt; 6 -&gt; 18 -&gt; 19 -&gt; 14</tspan><tspan x="39.0" dy="16.0">-&gt; 1002</tspan><tspan x="39.0" dy="16.0">travel 114.6; service 112.0; wait 154.3</tspan><tspan x="39.0" dy="16.0">depart 0.0; finish 381.0; elapsed 381.0</tspan></text>
<line x1="418.0" y1="521.0" x2="445.0" y2="521.0" stroke="#7a3db8" stroke-width="1.7" marker-end="url(#arrow-3)"/>
<rect x="450.0" y="478.0" width="126.0" height="86.0" rx="5" ry="5" fill="#f5edff" stroke="#7a3db8" stroke-width="1.6"/>
<text x="513.0" y="495.0" font-size="12" text-anchor="middle"><tspan x="513.0" font-weight="700">C20</tspan><tspan x="513.0" dy="15.0">TW [19, 139]</tspan><tspan x="513.0" dy="15.0">start 19.0</tspan><tspan x="513.0" dy="15.0">end 35.0</tspan><tspan x="513.0" dy="15.0">dur. 16.0</tspan></text>
<line x1="576.0" y1="521.0" x2="597.0" y2="521.0" stroke="#7a3db8" stroke-width="1.7" marker-end="url(#arrow-3)"/>
<rect x="602.0" y="478.0" width="126.0" height="86.0" rx="5" ry="5" fill="#f5edff" stroke="#7a3db8" stroke-width="1.6"/>
<text x="665.0" y="495.0" font-size="12" text-anchor="middle"><tspan x="665.0" font-weight="700">C4</tspan><tspan x="665.0" dy="15.0">TW [181, 301]</tspan><tspan x="665.0" dy="15.0">start 181.0</tspan><tspan x="665.0" dy="15.0">end 197.0</tspan><tspan x="665.0" dy="15.0">dur. 16.0</tspan></text>
<line x1="728.0" y1="521.0" x2="749.0" y2="521.0" stroke="#7a3db8" stroke-width="1.7" marker-end="url(#arrow-3)"/>
<rect x="754.0" y="478.0" width="126.0" height="86.0" rx="5" ry="5" fill="#f5edff" stroke="#7a3db8" stroke-width="1.6"/>
<text x="817.0" y="495.0" font-size="12" text-anchor="middle"><tspan x="817.0" font-weight="700">C13</tspan><tspan x="817.0" dy="15.0">TW [197, 317]</tspan><tspan x="817.0" dy="15.0">start 204.3</tspan><tspan x="817.0" dy="15.0">end 220.3</tspan><tspan x="817.0" dy="15.0">dur. 16.0</tspan></text>
<line x1="880.0" y1="521.0" x2="901.0" y2="521.0" stroke="#7a3db8" stroke-width="1.7" marker-end="url(#arrow-3)"/>
<rect x="906.0" y="478.0" width="126.0" height="86.0" rx="5" ry="5" fill="#f5edff" stroke="#7a3db8" stroke-width="1.6"/>
<text x="969.0" y="495.0" font-size="12" text-anchor="middle"><tspan x="969.0" font-weight="700">C6</tspan><tspan x="969.0" dy="15.0">TW [162, 282]</tspan><tspan x="969.0" dy="15.0">start 255.5</tspan><tspan x="969.0" dy="15.0">end 271.5</tspan><tspan x="969.0" dy="15.0">dur. 16.0</tspan></text>
<line x1="1032.0" y1="521.0" x2="1053.0" y2="521.0" stroke="#7a3db8" stroke-width="1.7" marker-end="url(#arrow-3)"/>
<rect x="1058.0" y="478.0" width="126.0" height="86.0" rx="5" ry="5" fill="#f5edff" stroke="#7a3db8" stroke-width="1.6"/>
<text x="1121.0" y="495.0" font-size="12" text-anchor="middle"><tspan x="1121.0" font-weight="700">C18</tspan><tspan x="1121.0" dy="15.0">TW [297, 417]</tspan><tspan x="1121.0" dy="15.0">start 297.0</tspan><tspan x="1121.0" dy="15.0">end 313.0</tspan><tspan x="1121.0" dy="15.0">dur. 16.0</tspan></text>
<line x1="1184.0" y1="521.0" x2="1205.0" y2="521.0" stroke="#7a3db8" stroke-width="1.7" marker-end="url(#arrow-3)"/>
<rect x="1210.0" y="478.0" width="126.0" height="86.0" rx="5" ry="5" fill="#f5edff" stroke="#7a3db8" stroke-width="1.6"/>
<text x="1273.0" y="495.0" font-size="12" text-anchor="middle"><tspan x="1273.0" font-weight="700">C19</tspan><tspan x="1273.0" dy="15.0">TW [286, 406]</tspan><tspan x="1273.0" dy="15.0">start 325.0</tspan><tspan x="1273.0" dy="15.0">end 341.0</tspan><tspan x="1273.0" dy="15.0">dur. 16.0</tspan></text>
<line x1="1336.0" y1="521.0" x2="1357.0" y2="521.0" stroke="#7a3db8" stroke-width="1.7" marker-end="url(#arrow-3)"/>
<rect x="1362.0" y="478.0" width="126.0" height="86.0" rx="5" ry="5" fill="#f5edff" stroke="#7a3db8" stroke-width="1.6"/>
<text x="1425.0" y="495.0" font-size="12" text-anchor="middle"><tspan x="1425.0" font-weight="700">C14</tspan><tspan x="1425.0" dy="15.0">TW [334, 454]</tspan><tspan x="1425.0" dy="15.0">start 354.9</tspan><tspan x="1425.0" dy="15.0">end 370.9</tspan><tspan x="1425.0" dy="15.0">dur. 16.0</tspan></text>
<line x1="1488.0" y1="521.0" x2="1509.0" y2="521.0" stroke="#7a3db8" stroke-width="1.7" marker-end="url(#arrow-3)"/>
<rect x="1514.0" y="489.0" width="100.0" height="64.0" rx="0" ry="0" fill="#f5edff" stroke="#7a3db8" stroke-width="1.6"/>
<text x="1564.0" y="508.0" font-size="12" text-anchor="middle"><tspan x="1564.0" font-weight="700">1002</tspan><tspan x="1564.0" dy="15.0">return</tspan><tspan x="1564.0" dy="15.0">381.0</tspan></text>
<rect x="28.0" y="602.0" width="390.0" height="86.0" rx="5" ry="5" fill="#fff1ed" stroke="#9a3412" stroke-width="1.6"/>
<text x="39.0" y="622.0" font-size="12" text-anchor="start"><tspan x="39.0" font-weight="700">Vehicle 4, base 1006</tspan><tspan x="39.0" dy="16.0">1006 -&gt; 9 -&gt; 17 -&gt; 1006</tspan><tspan x="39.0" dy="16.0">travel 40.2; service 32.0; wait 288.9</tspan><tspan x="39.0" dy="16.0">depart 0.0; finish 361.1; elapsed 361.1</tspan></text>
<line x1="418.0" y1="645.0" x2="445.0" y2="645.0" stroke="#9a3412" stroke-width="1.7" marker-end="url(#arrow-4)"/>
<rect x="450.0" y="602.0" width="126.0" height="86.0" rx="5" ry="5" fill="#fff1ed" stroke="#9a3412" stroke-width="1.6"/>
<text x="513.0" y="619.0" font-size="12" text-anchor="middle"><tspan x="513.0" font-weight="700">C9</tspan><tspan x="513.0" dy="15.0">TW [19, 139]</tspan><tspan x="513.0" dy="15.0">start 19.0</tspan><tspan x="513.0" dy="15.0">end 35.0</tspan><tspan x="513.0" dy="15.0">dur. 16.0</tspan></text>
<line x1="576.0" y1="645.0" x2="597.0" y2="645.0" stroke="#9a3412" stroke-width="1.7" marker-end="url(#arrow-4)"/>
<rect x="602.0" y="602.0" width="126.0" height="86.0" rx="5" ry="5" fill="#fff1ed" stroke="#9a3412" stroke-width="1.6"/>
<text x="665.0" y="619.0" font-size="12" text-anchor="middle"><tspan x="665.0" font-weight="700">C17</tspan><tspan x="665.0" dy="15.0">TW [336, 456]</tspan><tspan x="665.0" dy="15.0">start 336.0</tspan><tspan x="665.0" dy="15.0">end 352.0</tspan><tspan x="665.0" dy="15.0">dur. 16.0</tspan></text>
<line x1="728.0" y1="645.0" x2="749.0" y2="645.0" stroke="#9a3412" stroke-width="1.7" marker-end="url(#arrow-4)"/>
<rect x="754.0" y="613.0" width="100.0" height="64.0" rx="0" ry="0" fill="#fff1ed" stroke="#9a3412" stroke-width="1.6"/>
<text x="804.0" y="632.0" font-size="12" text-anchor="middle"><tspan x="804.0" font-weight="700">1006</tspan><tspan x="804.0" dy="15.0">return</tspan><tspan x="804.0" dy="15.0">361.1</tspan></text>
<rect x="28.0" y="726.0" width="1638.0" height="74.0" rx="5" ry="5" fill="#f8fafc" stroke="#c9ced6" stroke-width="1.6"/>
<text x="40.0" y="748.0" font-size="12" text-anchor="start"><tspan x="40.0">Open facilities: 1001, 1002, 1006, 1008, 1009; unselected candidates: 1000, 1003, 1004, 1005, 1007.</tspan><tspan x="40.0" dy="17.0">Times use nominal service durations and earliest-start propagation from a time-zero facility departure.</tspan><tspan x="40.0" dy="17.0">TW denotes the customer time window; start and end denote nominal service start and service completion.</tspan></text>
</svg>
