<?xml version="1.0" encoding="UTF-8"?>
<svg xmlns="http://www.w3.org/2000/svg" width="2018" height="824" viewBox="0 0 2018 824" role="img" aria-labelledby="title desc">
<title id="title">Route schedule for flrp-ssr_instance_25_1</title>
<desc id="desc">Non-geographic route schedule with route totals and customer service times.</desc>
<style>
text{font-family:Arial,Helvetica,sans-serif;fill:#111827}
.title{font-size:24px;font-weight:700}
.meta{font-size:13px;fill:#374151}
.caption{font-size:12px;fill:#374151}
</style>
<rect x="0" y="0" width="100%" height="100%" fill="#ffffff"/>
<text class="title" x="28" y="34">FLRP-SSR route schedule: flrp-ssr_instance_25_1</text>
<text class="meta" x="28" y="58">cost = 5416.537; No. of customers = 25; No. of routes= 5</text>
<defs>
<marker id="arrow-0" viewBox="0 0 10 10" refX="8.5" refY="5" markerWidth="6" markerHeight="6" orient="auto">
<path d="M 0 0 L 10 5 L 0 10 z" fill="#174ea6"/>
</marker>
<marker id="arrow-1" viewBox="0 0 10 10" refX="8.5" refY="5" markerWidth="6" markerHeight="6" orient="auto">
<path d="M 0 0 L 10 5 L 0 10 z" fill="#c65f00"/>
</marker>
<marker id="arrow-2" viewBox="0 0 10 10" refX="8.5" refY="5" markerWidth="6" markerHeight="6" orient="auto">
<path d="M 0 0 L 10 5 L 0 10 z" fill="#0b7d25"/>
</marker>
<marker id="arrow-3" viewBox="0 0 10 10" refX="8.5" refY="5" markerWidth="6" markerHeight="6" orient="auto">
<path d="M 0 0 L 10 5 L 0 10 z" fill="#7a3db8"/>
</marker>
<marker id="arrow-4" viewBox="0 0 10 10" refX="8.5" refY="5" markerWidth="6" markerHeight="6" orient="auto">
<path d="M 0 0 L 10 5 L 0 10 z" fill="#9a3412"/>
</marker>
</defs>
<rect x="28.0" y="106.0" width="390.0" height="86.0" rx="5" ry="5" fill="#edf4ff" stroke="#174ea6" stroke-width="1.6"/>
<text x="39.0" y="126.0" font-size="12" text-anchor="start"><tspan x="39.0" font-weight="700">Vehicle 0, base 1000</tspan><tspan x="39.0" dy="16.0">1000 -&gt; 12 -&gt; 13 -&gt; 9 -&gt; 19 -&gt; 5 -&gt; 4 -&gt; 1000</tspan><tspan x="39.0" dy="16.0">travel 96.7; service 84.0; wait 233.2</tspan><tspan x="39.0" dy="16.0">depart 0.0; finish 413.8; elapsed 413.8</tspan></text>
<line x1="418.0" y1="149.0" x2="445.0" y2="149.0" stroke="#174ea6" stroke-width="1.7" marker-end="url(#arrow-0)"/>
<rect x="450.0" y="106.0" width="126.0" height="86.0" rx="5" ry="5" fill="#edf4ff" stroke="#174ea6" stroke-width="1.6"/>
<text x="513.0" y="123.0" font-size="12" text-anchor="middle"><tspan x="513.0" font-weight="700">C12</tspan><tspan x="513.0" dy="15.0">TW [73, 193]</tspan><tspan x="513.0" dy="15.0">start 73.0</tspan><tspan x="513.0" dy="15.0">end 87.0</tspan><tspan x="513.0" dy="15.0">dur. 14.0</tspan></text>
<line x1="576.0" y1="149.0" x2="597.0" y2="149.0" stroke="#174ea6" stroke-width="1.7" marker-end="url(#arrow-0)"/>
<rect x="602.0" y="106.0" width="126.0" height="86.0" rx="5" ry="5" fill="#edf4ff" stroke="#174ea6" stroke-width="1.6"/>
<text x="665.0" y="123.0" font-size="12" text-anchor="middle"><tspan x="665.0" font-weight="700">C13</tspan><tspan x="665.0" dy="15.0">TW [157, 277]</tspan><tspan x="665.0" dy="15.0">start 157.0</tspan><tspan x="665.0" dy="15.0">end 171.0</tspan><tspan x="665.0" dy="15.0">dur. 14.0</tspan></text>
<line x1="728.0" y1="149.0" x2="749.0" y2="149.0" stroke="#174ea6" stroke-width="1.7" marker-end="url(#arrow-0)"/>
<rect x="754.0" y="106.0" width="126.0" height="86.0" rx="5" ry="5" fill="#edf4ff" stroke="#174ea6" stroke-width="1.6"/>
<text x="817.0" y="123.0" font-size="12" text-anchor="middle"><tspan x="817.0" font-weight="700">C9</tspan><tspan x="817.0" dy="15.0">TW [298, 418]</tspan><tspan x="817.0" dy="15.0">start 298.0</tspan><tspan x="817.0" dy="15.0">end 312.0</tspan><tspan x="817.0" dy="15.0">dur. 14.0</tspan></text>
<line x1="880.0" y1="149.0" x2="901.0" y2="149.0" stroke="#174ea6" stroke-width="1.7" marker-end="url(#arrow-0)"/>
<rect x="906.0" y="106.0" width="126.0" height="86.0" rx="5" ry="5" fill="#edf4ff" stroke="#174ea6" stroke-width="1.6"/>
<text x="969.0" y="123.0" font-size="12" text-anchor="middle"><tspan x="969.0" font-weight="700">C19</tspan><tspan x="969.0" dy="15.0">TW [276, 396]</tspan><tspan x="969.0" dy="15.0">start 333.8</tspan><tspan x="969.0" dy="15.0">end 347.8</tspan><tspan x="969.0" dy="15.0">dur. 14.0</tspan></text>
<line x1="1032.0" y1="149.0" x2="1053.0" y2="149.0" stroke="#174ea6" stroke-width="1.7" marker-end="url(#arrow-0)"/>
<rect x="1058.0" y="106.0" width="126.0" height="86.0" rx="5" ry="5" fill="#edf4ff" stroke="#174ea6" stroke-width="1.6"/>
<text x="1121.0" y="123.0" font-size="12" text-anchor="middle"><tspan x="1121.0" font-weight="700">C5</tspan><tspan x="1121.0" dy="15.0">TW [254, 374]</tspan><tspan x="1121.0" dy="15.0">start 365.9</tspan><tspan x="1121.0" dy="15.0">end 379.9</tspan><tspan x="1121.0" dy="15.0">dur. 14.0</tspan></text>
<line x1="1184.0" y1="149.0" x2="1205.0" y2="149.0" stroke="#174ea6" stroke-width="1.7" marker-end="url(#arrow-0)"/>
<rect x="1210.0" y="106.0" width="126.0" height="86.0" rx="5" ry="5" fill="#edf4ff" stroke="#174ea6" stroke-width="1.6"/>
<text x="1273.0" y="123.0" font-size="12" text-anchor="middle"><tspan x="1273.0" font-weight="700">C4</tspan><tspan x="1273.0" dy="15.0">TW [393, 513]</tspan><tspan x="1273.0" dy="15.0">start 393.0</tspan><tspan x="1273.0" dy="15.0">end 407.0</tspan><tspan x="1273.0" dy="15.0">dur. 14.0</tspan></text>
<line x1="1336.0" y1="149.0" x2="1357.0" y2="149.0" stroke="#174ea6" stroke-width="1.7" marker-end="url(#arrow-0)"/>
<rect x="1362.0" y="117.0" width="100.0" height="64.0" rx="0" ry="0" fill="#edf4ff" stroke="#174ea6" stroke-width="1.6"/>
<text x="1412.0" y="136.0" font-size="12" text-anchor="middle"><tspan x="1412.0" font-weight="700">1000</tspan><tspan x="1412.0" dy="15.0">return</tspan><tspan x="1412.0" dy="15.0">413.8</tspan></text>
<rect x="28.0" y="224.0" width="390.0" height="86.0" rx="5" ry="5" fill="#fff3e5" stroke="#c65f00" stroke-width="1.6"/>
<text x="39.0" y="244.0" font-size="12" text-anchor="start"><tspan x="39.0" font-weight="700">Vehicle 1, base 1009</tspan><tspan x="39.0" dy="16.0">1009 -&gt; 14 -&gt; 2 -&gt; 7 -&gt; 1 -&gt; 1009</tspan><tspan x="39.0" dy="16.0">travel 70.6; service 56.0; wait 352.2</tspan><tspan x="39.0" dy="16.0">depart 0.0; finish 478.8; elapsed 478.8</tspan></text>
<line x1="418.0" y1="267.0" x2="445.0" y2="267.0" stroke="#c65f00" stroke-width="1.7" marker-end="url(#arrow-1)"/>
<rect x="450.0" y="224.0" width="126.0" height="86.0" rx="5" ry="5" fill="#fff3e5" stroke="#c65f00" stroke-width="1.6"/>
<text x="513.0" y="241.0" font-size="12" text-anchor="middle"><tspan x="513.0" font-weight="700">C14</tspan><tspan x="513.0" dy="15.0">TW [63, 183]</tspan><tspan x="513.0" dy="15.0">start 63.0</tspan><tspan x="513.0" dy="15.0">end 77.0</tspan><tspan x="513.0" dy="15.0">dur. 14.0</tspan></text>
<line x1="576.0" y1="267.0" x2="597.0" y2="267.0" stroke="#c65f00" stroke-width="1.7" marker-end="url(#arrow-1)"/>
<rect x="602.0" y="224.0" width="126.0" height="86.0" rx="5" ry="5" fill="#fff3e5" stroke="#c65f00" stroke-width="1.6"/>
<text x="665.0" y="241.0" font-size="12" text-anchor="middle"><tspan x="665.0" font-weight="700">C2</tspan><tspan x="665.0" dy="15.0">TW [268, 388]</tspan><tspan x="665.0" dy="15.0">start 268.0</tspan><tspan x="665.0" dy="15.0">end 282.0</tspan><tspan x="665.0" dy="15.0">dur. 14.0</tspan></text>
<line x1="728.0" y1="267.0" x2="749.0" y2="267.0" stroke="#c65f00" stroke-width="1.7" marker-end="url(#arrow-1)"/>
<rect x="754.0" y="224.0" width="126.0" height="86.0" rx="5" ry="5" fill="#fff3e5" stroke="#c65f00" stroke-width="1.6"/>
<text x="817.0" y="241.0" font-size="12" text-anchor="middle"><tspan x="817.0" font-weight="700">C7</tspan><tspan x="817.0" dy="15.0">TW [434, 554]</tspan><tspan x="817.0" dy="15.0">start 434.0</tspan><tspan x="817.0" dy="15.0">end 448.0</tspan><tspan x="817.0" dy="15.0">dur. 14.0</tspan></text>
<line x1="880.0" y1="267.0" x2="901.0" y2="267.0" stroke="#c65f00" stroke-width="1.7" marker-end="url(#arrow-1)"/>
<rect x="906.0" y="224.0" width="126.0" height="86.0" rx="5" ry="5" fill="#fff3e5" stroke="#c65f00" stroke-width="1.6"/>
<text x="969.0" y="241.0" font-size="12" text-anchor="middle"><tspan x="969.0" font-weight="700">C1</tspan><tspan x="969.0" dy="15.0">TW [345, 465]</tspan><tspan x="969.0" dy="15.0">start 463.5</tspan><tspan x="969.0" dy="15.0">end 477.5</tspan><tspan x="969.0" dy="15.0">dur. 14.0</tspan></text>
<line x1="1032.0" y1="267.0" x2="1053.0" y2="267.0" stroke="#c65f00" stroke-width="1.7" marker-end="url(#arrow-1)"/>
<rect x="1058.0" y="235.0" width="100.0" height="64.0" rx="0" ry="0" fill="#fff3e5" stroke="#c65f00" stroke-width="1.6"/>
<text x="1108.0" y="254.0" font-size="12" text-anchor="middle"><tspan x="1108.0" font-weight="700">1009</tspan><tspan x="1108.0" dy="15.0">return</tspan><tspan x="1108.0" dy="15.0">478.8</tspan></text>
<rect x="28.0" y="342.0" width="390.0" height="86.0" rx="5" ry="5" fill="#ecf9ee" stroke="#0b7d25" stroke-width="1.6"/>
<text x="39.0" y="362.0" font-size="12" text-anchor="start"><tspan x="39.0" font-weight="700">Vehicle 2, base 1001</tspan><tspan x="39.0" dy="16.0">1001 -&gt; 8 -&gt; 18 -&gt; 10 -&gt; 1001</tspan><tspan x="39.0" dy="16.0">travel 49.1; service 42.0; wait 186.8</tspan><tspan x="39.0" dy="16.0">depart 0.0; finish 277.9; elapsed 277.9</tspan></text>
<line x1="418.0" y1="385.0" x2="445.0" y2="385.0" stroke="#0b7d25" stroke-width="1.7" marker-end="url(#arrow-2)"/>
<rect x="450.0" y="342.0" width="126.0" height="86.0" rx="5" ry="5" fill="#ecf9ee" stroke="#0b7d25" stroke-width="1.6"/>
<text x="513.0" y="359.0" font-size="12" text-anchor="middle"><tspan x="513.0" font-weight="700">C8</tspan><tspan x="513.0" dy="15.0">TW [46, 166]</tspan><tspan x="513.0" dy="15.0">start 46.0</tspan><tspan x="513.0" dy="15.0">end 60.0</tspan><tspan x="513.0" dy="15.0">dur. 14.0</tspan></text>
<line x1="576.0" y1="385.0" x2="597.0" y2="385.0" stroke="#0b7d25" stroke-width="1.7" marker-end="url(#arrow-2)"/>
<rect x="602.0" y="342.0" width="126.0" height="86.0" rx="5" ry="5" fill="#ecf9ee" stroke="#0b7d25" stroke-width="1.6"/>
<text x="665.0" y="359.0" font-size="12" text-anchor="middle"><tspan x="665.0" font-weight="700">C18</tspan><tspan x="665.0" dy="15.0">TW [222, 342]</tspan><tspan x="665.0" dy="15.0">start 222.0</tspan><tspan x="665.0" dy="15.0">end 236.0</tspan><tspan x="665.0" dy="15.0">dur. 14.0</tspan></text>
<line x1="728.0" y1="385.0" x2="749.0" y2="385.0" stroke="#0b7d25" stroke-width="1.7" marker-end="url(#arrow-2)"/>
<rect x="754.0" y="342.0" width="126.0" height="86.0" rx="5" ry="5" fill="#ecf9ee" stroke="#0b7d25" stroke-width="1.6"/>
<text x="817.0" y="359.0" font-size="12" text-anchor="middle"><tspan x="817.0" font-weight="700">C10</tspan><tspan x="817.0" dy="15.0">TW [148, 268]</tspan><tspan x="817.0" dy="15.0">start 255.8</tspan><tspan x="817.0" dy="15.0">end 269.8</tspan><tspan x="817.0" dy="15.0">dur. 14.0</tspan></text>
<line x1="880.0" y1="385.0" x2="901.0" y2="385.0" stroke="#0b7d25" stroke-width="1.7" marker-end="url(#arrow-2)"/>
<rect x="906.0" y="353.0" width="100.0" height="64.0" rx="0" ry="0" fill="#ecf9ee" stroke="#0b7d25" stroke-width="1.6"/>
<text x="956.0" y="372.0" font-size="12" text-anchor="middle"><tspan x="956.0" font-weight="700">1001</tspan><tspan x="956.0" dy="15.0">return</tspan><tspan x="956.0" dy="15.0">277.9</tspan></text>
<rect x="28.0" y="460.0" width="390.0" height="98.0" rx="5" ry="5" fill="#f5edff" stroke="#7a3db8" stroke-width="1.6"/>
<text x="39.0" y="480.0" font-size="12" text-anchor="start"><tspan x="39.0" font-weight="700">Vehicle 3, base 1007</tspan><tspan x="39.0" dy="16.0">1007 -&gt; 24 -&gt; 20 -&gt; 6 -&gt; 23 -&gt; 3 -&gt; 15 -&gt; 16</tspan><tspan x="39.0" dy="16.0">-&gt; 25 -&gt; 11 -&gt; 1007</tspan><tspan x="39.0" dy="16.0">travel 169.8; service 126.0; wait 182.8</tspan><tspan x="39.0" dy="16.0">depart 0.0; finish 478.5; elapsed 478.5</tspan></text>
<line x1="418.0" y1="509.0" x2="445.0" y2="509.0" stroke="#7a3db8" stroke-width="1.7" marker-end="url(#arrow-3)"/>
<rect x="450.0" y="466.0" width="126.0" height="86.0" rx="5" ry="5" fill="#f5edff" stroke="#7a3db8" stroke-width="1.6"/>
<text x="513.0" y="483.0" font-size="12" text-anchor="middle"><tspan x="513.0" font-weight="700">C24</tspan><tspan x="513.0" dy="15.0">TW [59, 179]</tspan><tspan x="513.0" dy="15.0">start 59.0</tspan><tspan x="513.0" dy="15.0">end 73.0</tspan><tspan x="513.0" dy="15.0">dur. 14.0</tspan></text>
<line x1="576.0" y1="509.0" x2="597.0" y2="509.0" stroke="#7a3db8" stroke-width="1.7" marker-end="url(#arrow-3)"/>
<rect x="602.0" y="466.0" width="126.0" height="86.0" rx="5" ry="5" fill="#f5edff" stroke="#7a3db8" stroke-width="1.6"/>
<text x="665.0" y="483.0" font-size="12" text-anchor="middle"><tspan x="665.0" font-weight="700">C20</tspan><tspan x="665.0" dy="15.0">TW [29, 149]</tspan><tspan x="665.0" dy="15.0">start 92.8</tspan><tspan x="665.0" dy="15.0">end 106.8</tspan><tspan x="665.0" dy="15.0">dur. 14.0</tspan></text>
<line x1="728.0" y1="509.0" x2="749.0" y2="509.0" stroke="#7a3db8" stroke-width="1.7" marker-end="url(#arrow-3)"/>
<rect x="754.0" y="466.0" width="126.0" height="86.0" rx="5" ry="5" fill="#f5edff" stroke="#7a3db8" stroke-width="1.6"/>
<text x="817.0" y="483.0" font-size="12" text-anchor="middle"><tspan x="817.0" font-weight="700">C6</tspan><tspan x="817.0" dy="15.0">TW [184, 304]</tspan><tspan x="817.0" dy="15.0">start 184.0</tspan><tspan x="817.0" dy="15.0">end 198.0</tspan><tspan x="817.0" dy="15.0">dur. 14.0</tspan></text>
<line x1="880.0" y1="509.0" x2="901.0" y2="509.0" stroke="#7a3db8" stroke-width="1.7" marker-end="url(#arrow-3)"/>
<rect x="906.0" y="466.0" width="126.0" height="86.0" rx="5" ry="5" fill="#f5edff" stroke="#7a3db8" stroke-width="1.6"/>
<text x="969.0" y="483.0" font-size="12" text-anchor="middle"><tspan x="969.0" font-weight="700">C23</tspan><tspan x="969.0" dy="15.0">TW [190, 310]</tspan><tspan x="969.0" dy="15.0">start 201.0</tspan><tspan x="969.0" dy="15.0">end 215.0</tspan><tspan x="969.0" dy="15.0">dur. 14.0</tspan></text>
<line x1="1032.0" y1="509.0" x2="1053.0" y2="509.0" stroke="#7a3db8" stroke-width="1.7" marker-end="url(#arrow-3)"/>
<rect x="1058.0" y="466.0" width="126.0" height="86.0" rx="5" ry="5" fill="#f5edff" stroke="#7a3db8" stroke-width="1.6"/>
<text x="1121.0" y="483.0" font-size="12" text-anchor="middle"><tspan x="1121.0" font-weight="700">C3</tspan><tspan x="1121.0" dy="15.0">TW [247, 367]</tspan><tspan x="1121.0" dy="15.0">start 247.0</tspan><tspan x="1121.0" dy="15.0">end 261.0</tspan><tspan x="1121.0" dy="15.0">dur. 14.0</tspan></text>
<line x1="1184.0" y1="509.0" x2="1205.0" y2="509.0" stroke="#7a3db8" stroke-width="1.7" marker-end="url(#arrow-3)"/>
<rect x="1210.0" y="466.0" width="126.0" height="86.0" rx="5" ry="5" fill="#f5edff" stroke="#7a3db8" stroke-width="1.6"/>
<text x="1273.0" y="483.0" font-size="12" text-anchor="middle"><tspan x="1273.0" font-weight="700">C15</tspan><tspan x="1273.0" dy="15.0">TW [282, 402]</tspan><tspan x="1273.0" dy="15.0">start 311.2</tspan><tspan x="1273.0" dy="15.0">end 325.2</tspan><tspan x="1273.0" dy="15.0">dur. 14.0</tspan></text>
<line x1="1336.0" y1="509.0" x2="1357.0" y2="509.0" stroke="#7a3db8" stroke-width="1.7" marker-end="url(#arrow-3)"/>
<rect x="1362.0" y="466.0" width="126.0" height="86.0" rx="5" ry="5" fill="#f5edff" stroke="#7a3db8" stroke-width="1.6"/>
<text x="1425.0" y="483.0" font-size="12" text-anchor="middle"><tspan x="1425.0" font-weight="700">C16</tspan><tspan x="1425.0" dy="15.0">TW [274, 394]</tspan><tspan x="1425.0" dy="15.0">start 363.5</tspan><tspan x="1425.0" dy="15.0">end 377.5</tspan><tspan x="1425.0" dy="15.0">dur. 14.0</tspan></text>
<line x1="1488.0" y1="509.0" x2="1509.0" y2="509.0" stroke="#7a3db8" stroke-width="1.7" marker-end="url(#arrow-3)"/>
<rect x="1514.0" y="466.0" width="126.0" height="86.0" rx="5" ry="5" fill="#f5edff" stroke="#7a3db8" stroke-width="1.6"/>
<text x="1577.0" y="483.0" font-size="12" text-anchor="middle"><tspan x="1577.0" font-weight="700">C25</tspan><tspan x="1577.0" dy="15.0">TW [434, 554]</tspan><tspan x="1577.0" dy="15.0">start 434.0</tspan><tspan x="1577.0" dy="15.0">end 448.0</tspan><tspan x="1577.0" dy="15.0">dur. 14.0</tspan></text>
<line x1="1640.0" y1="509.0" x2="1661.0" y2="509.0" stroke="#7a3db8" stroke-width="1.7" marker-end="url(#arrow-3)"/>
<rect x="1666.0" y="466.0" width="126.0" height="86.0" rx="5" ry="5" fill="#f5edff" stroke="#7a3db8" stroke-width="1.6"/>
<text x="1729.0" y="483.0" font-size="12" text-anchor="middle"><tspan x="1729.0" font-weight="700">C11</tspan><tspan x="1729.0" dy="15.0">TW [409, 529]</tspan><tspan x="1729.0" dy="15.0">start 458.0</tspan><tspan x="1729.0" dy="15.0">end 472.0</tspan><tspan x="1729.0" dy="15.0">dur. 14.0</tspan></text>
<line x1="1792.0" y1="509.0" x2="1813.0" y2="509.0" stroke="#7a3db8" stroke-width="1.7" marker-end="url(#arrow-3)"/>
<rect x="1818.0" y="477.0" width="100.0" height="64.0" rx="0" ry="0" fill="#f5edff" stroke="#7a3db8" stroke-width="1.6"/>
<text x="1868.0" y="496.0" font-size="12" text-anchor="middle"><tspan x="1868.0" font-weight="700">1007</tspan><tspan x="1868.0" dy="15.0">return</tspan><tspan x="1868.0" dy="15.0">478.5</tspan></text>
<rect x="28.0" y="590.0" width="390.0" height="86.0" rx="5" ry="5" fill="#fff1ed" stroke="#9a3412" stroke-width="1.6"/>
<text x="39.0" y="610.0" font-size="12" text-anchor="start"><tspan x="39.0" font-weight="700">Vehicle 4, base 1006</tspan><tspan x="39.0" dy="16.0">1006 -&gt; 17 -&gt; 21 -&gt; 22 -&gt; 1006</tspan><tspan x="39.0" dy="16.0">travel 30.5; service 42.0; wait 378.8</tspan><tspan x="39.0" dy="16.0">depart 0.0; finish 451.2; elapsed 451.2</tspan></text>
<line x1="418.0" y1="633.0" x2="445.0" y2="633.0" stroke="#9a3412" stroke-width="1.7" marker-end="url(#arrow-4)"/>
<rect x="450.0" y="590.0" width="126.0" height="86.0" rx="5" ry="5" fill="#fff1ed" stroke="#9a3412" stroke-width="1.6"/>
<text x="513.0" y="607.0" font-size="12" text-anchor="middle"><tspan x="513.0" font-weight="700">C17</tspan><tspan x="513.0" dy="15.0">TW [152, 272]</tspan><tspan x="513.0" dy="15.0">start 152.0</tspan><tspan x="513.0" dy="15.0">end 166.0</tspan><tspan x="513.0" dy="15.0">dur. 14.0</tspan></text>
<line x1="576.0" y1="633.0" x2="597.0" y2="633.0" stroke="#9a3412" stroke-width="1.7" marker-end="url(#arrow-4)"/>
<rect x="602.0" y="590.0" width="126.0" height="86.0" rx="5" ry="5" fill="#fff1ed" stroke="#9a3412" stroke-width="1.6"/>
<text x="665.0" y="607.0" font-size="12" text-anchor="middle"><tspan x="665.0" font-weight="700">C21</tspan><tspan x="665.0" dy="15.0">TW [416, 536]</tspan><tspan x="665.0" dy="15.0">start 416.0</tspan><tspan x="665.0" dy="15.0">end 430.0</tspan><tspan x="665.0" dy="15.0">dur. 14.0</tspan></text>
<line x1="728.0" y1="633.0" x2="749.0" y2="633.0" stroke="#9a3412" stroke-width="1.7" marker-end="url(#arrow-4)"/>
<rect x="754.0" y="590.0" width="126.0" height="86.0" rx="5" ry="5" fill="#fff1ed" stroke="#9a3412" stroke-width="1.6"/>
<text x="817.0" y="607.0" font-size="12" text-anchor="middle"><tspan x="817.0" font-weight="700">C22</tspan><tspan x="817.0" dy="15.0">TW [332, 452]</tspan><tspan x="817.0" dy="15.0">start 431.0</tspan><tspan x="817.0" dy="15.0">end 445.0</tspan><tspan x="817.0" dy="15.0">dur. 14.0</tspan></text>
<line x1="880.0" y1="633.0" x2="901.0" y2="633.0" stroke="#9a3412" stroke-width="1.7" marker-end="url(#arrow-4)"/>
<rect x="906.0" y="601.0" width="100.0" height="64.0" rx="0" ry="0" fill="#fff1ed" stroke="#9a3412" stroke-width="1.6"/>
<text x="956.0" y="620.0" font-size="12" text-anchor="middle"><tspan x="956.0" font-weight="700">1006</tspan><tspan x="956.0" dy="15.0">return</tspan><tspan x="956.0" dy="15.0">451.2</tspan></text>
<rect x="28.0" y="714.0" width="1942.0" height="74.0" rx="5" ry="5" fill="#f8fafc" stroke="#c9ced6" stroke-width="1.6"/>
<text x="40.0" y="736.0" font-size="12" text-anchor="start"><tspan x="40.0">Open facilities: 1000, 1001, 1006, 1007, 1009; unselected candidates: 1002, 1003, 1004, 1005, 1008.</tspan><tspan x="40.0" dy="17.0">Times use nominal service durations and earliest-start propagation from a time-zero facility departure.</tspan><tspan x="40.0" dy="17.0">TW denotes the customer time window; start and end denote nominal service start and service completion.</tspan></text>
</svg>
