<?xml version="1.0" encoding="UTF-8"?>
<svg xmlns="http://www.w3.org/2000/svg" width="2170" height="836" viewBox="0 0 2170 836" role="img" aria-labelledby="title desc">
<title id="title">Route schedule for flrp-ssr_instance_25_8</title>
<desc id="desc">Non-geographic route schedule with route totals and customer service times.</desc>
<style>
text{font-family:Arial,Helvetica,sans-serif;fill:#111827}
.title{font-size:24px;font-weight:700}
.meta{font-size:13px;fill:#374151}
.caption{font-size:12px;fill:#374151}
</style>
<rect x="0" y="0" width="100%" height="100%" fill="#ffffff"/>
<text class="title" x="28" y="34">FLRP-SSR route schedule: flrp-ssr_instance_25_8</text>
<text class="meta" x="28" y="58">cost = 5390.258; No. of customers = 25; No. of routes= 5</text>
<defs>
<marker id="arrow-0" viewBox="0 0 10 10" refX="8.5" refY="5" markerWidth="6" markerHeight="6" orient="auto">
<path d="M 0 0 L 10 5 L 0 10 z" fill="#174ea6"/>
</marker>
<marker id="arrow-1" viewBox="0 0 10 10" refX="8.5" refY="5" markerWidth="6" markerHeight="6" orient="auto">
<path d="M 0 0 L 10 5 L 0 10 z" fill="#c65f00"/>
</marker>
<marker id="arrow-2" viewBox="0 0 10 10" refX="8.5" refY="5" markerWidth="6" markerHeight="6" orient="auto">
<path d="M 0 0 L 10 5 L 0 10 z" fill="#0b7d25"/>
</marker>
<marker id="arrow-3" viewBox="0 0 10 10" refX="8.5" refY="5" markerWidth="6" markerHeight="6" orient="auto">
<path d="M 0 0 L 10 5 L 0 10 z" fill="#7a3db8"/>
</marker>
<marker id="arrow-4" viewBox="0 0 10 10" refX="8.5" refY="5" markerWidth="6" markerHeight="6" orient="auto">
<path d="M 0 0 L 10 5 L 0 10 z" fill="#9a3412"/>
</marker>
</defs>
<rect x="28.0" y="106.0" width="390.0" height="86.0" rx="5" ry="5" fill="#edf4ff" stroke="#174ea6" stroke-width="1.6"/>
<text x="39.0" y="126.0" font-size="12" text-anchor="start"><tspan x="39.0" font-weight="700">Vehicle 0, base 1000</tspan><tspan x="39.0" dy="16.0">1000 -&gt; 10 -&gt; 4 -&gt; 5 -&gt; 1000</tspan><tspan x="39.0" dy="16.0">travel 25.0; service 39.0; wait 330.4</tspan><tspan x="39.0" dy="16.0">depart 0.0; finish 394.3; elapsed 394.3</tspan></text>
<line x1="418.0" y1="149.0" x2="445.0" y2="149.0" stroke="#174ea6" stroke-width="1.7" marker-end="url(#arrow-0)"/>
<rect x="450.0" y="106.0" width="126.0" height="86.0" rx="5" ry="5" fill="#edf4ff" stroke="#174ea6" stroke-width="1.6"/>
<text x="513.0" y="123.0" font-size="12" text-anchor="middle"><tspan x="513.0" font-weight="700">C10</tspan><tspan x="513.0" dy="15.0">TW [0, 120]</tspan><tspan x="513.0" dy="15.0">start 3.2</tspan><tspan x="513.0" dy="15.0">end 16.2</tspan><tspan x="513.0" dy="15.0">dur. 13.0</tspan></text>
<line x1="576.0" y1="149.0" x2="597.0" y2="149.0" stroke="#174ea6" stroke-width="1.7" marker-end="url(#arrow-0)"/>
<rect x="602.0" y="106.0" width="126.0" height="86.0" rx="5" ry="5" fill="#edf4ff" stroke="#174ea6" stroke-width="1.6"/>
<text x="665.0" y="123.0" font-size="12" text-anchor="middle"><tspan x="665.0" font-weight="700">C4</tspan><tspan x="665.0" dy="15.0">TW [301, 421]</tspan><tspan x="665.0" dy="15.0">start 301.0</tspan><tspan x="665.0" dy="15.0">end 314.0</tspan><tspan x="665.0" dy="15.0">dur. 13.0</tspan></text>
<line x1="728.0" y1="149.0" x2="749.0" y2="149.0" stroke="#174ea6" stroke-width="1.7" marker-end="url(#arrow-0)"/>
<rect x="754.0" y="106.0" width="126.0" height="86.0" rx="5" ry="5" fill="#edf4ff" stroke="#174ea6" stroke-width="1.6"/>
<text x="817.0" y="123.0" font-size="12" text-anchor="middle"><tspan x="817.0" font-weight="700">C5</tspan><tspan x="817.0" dy="15.0">TW [372, 492]</tspan><tspan x="817.0" dy="15.0">start 372.0</tspan><tspan x="817.0" dy="15.0">end 385.0</tspan><tspan x="817.0" dy="15.0">dur. 13.0</tspan></text>
<line x1="880.0" y1="149.0" x2="901.0" y2="149.0" stroke="#174ea6" stroke-width="1.7" marker-end="url(#arrow-0)"/>
<rect x="906.0" y="117.0" width="100.0" height="64.0" rx="0" ry="0" fill="#edf4ff" stroke="#174ea6" stroke-width="1.6"/>
<text x="956.0" y="136.0" font-size="12" text-anchor="middle"><tspan x="956.0" font-weight="700">1000</tspan><tspan x="956.0" dy="15.0">return</tspan><tspan x="956.0" dy="15.0">394.3</tspan></text>
<rect x="28.0" y="224.0" width="390.0" height="86.0" rx="5" ry="5" fill="#fff3e5" stroke="#c65f00" stroke-width="1.6"/>
<text x="39.0" y="244.0" font-size="12" text-anchor="start"><tspan x="39.0" font-weight="700">Vehicle 1, base 1006</tspan><tspan x="39.0" dy="16.0">1006 -&gt; 17 -&gt; 1006</tspan><tspan x="39.0" dy="16.0">travel 18.2; service 13.0; wait 92.9</tspan><tspan x="39.0" dy="16.0">depart 0.0; finish 124.1; elapsed 124.1</tspan></text>
<line x1="418.0" y1="267.0" x2="445.0" y2="267.0" stroke="#c65f00" stroke-width="1.7" marker-end="url(#arrow-1)"/>
<rect x="450.0" y="224.0" width="126.0" height="86.0" rx="5" ry="5" fill="#fff3e5" stroke="#c65f00" stroke-width="1.6"/>
<text x="513.0" y="241.0" font-size="12" text-anchor="middle"><tspan x="513.0" font-weight="700">C17</tspan><tspan x="513.0" dy="15.0">TW [102, 222]</tspan><tspan x="513.0" dy="15.0">start 102.0</tspan><tspan x="513.0" dy="15.0">end 115.0</tspan><tspan x="513.0" dy="15.0">dur. 13.0</tspan></text>
<line x1="576.0" y1="267.0" x2="597.0" y2="267.0" stroke="#c65f00" stroke-width="1.7" marker-end="url(#arrow-1)"/>
<rect x="602.0" y="235.0" width="100.0" height="64.0" rx="0" ry="0" fill="#fff3e5" stroke="#c65f00" stroke-width="1.6"/>
<text x="652.0" y="254.0" font-size="12" text-anchor="middle"><tspan x="652.0" font-weight="700">1006</tspan><tspan x="652.0" dy="15.0">return</tspan><tspan x="652.0" dy="15.0">124.1</tspan></text>
<rect x="28.0" y="342.0" width="390.0" height="98.0" rx="5" ry="5" fill="#ecf9ee" stroke="#0b7d25" stroke-width="1.6"/>
<text x="39.0" y="362.0" font-size="12" text-anchor="start"><tspan x="39.0" font-weight="700">Vehicle 2, base 1007</tspan><tspan x="39.0" dy="16.0">1007 -&gt; 21 -&gt; 14 -&gt; 23 -&gt; 15 -&gt; 6 -&gt; 20 -&gt;</tspan><tspan x="39.0" dy="16.0">1007</tspan><tspan x="39.0" dy="16.0">travel 92.0; service 78.0; wait 175.4</tspan><tspan x="39.0" dy="16.0">depart 0.0; finish 345.4; elapsed 345.4</tspan></text>
<line x1="418.0" y1="391.0" x2="445.0" y2="391.0" stroke="#0b7d25" stroke-width="1.7" marker-end="url(#arrow-2)"/>
<rect x="450.0" y="348.0" width="126.0" height="86.0" rx="5" ry="5" fill="#ecf9ee" stroke="#0b7d25" stroke-width="1.6"/>
<text x="513.0" y="365.0" font-size="12" text-anchor="middle"><tspan x="513.0" font-weight="700">C21</tspan><tspan x="513.0" dy="15.0">TW [78, 198]</tspan><tspan x="513.0" dy="15.0">start 78.0</tspan><tspan x="513.0" dy="15.0">end 91.0</tspan><tspan x="513.0" dy="15.0">dur. 13.0</tspan></text>
<line x1="576.0" y1="391.0" x2="597.0" y2="391.0" stroke="#0b7d25" stroke-width="1.7" marker-end="url(#arrow-2)"/>
<rect x="602.0" y="348.0" width="126.0" height="86.0" rx="5" ry="5" fill="#ecf9ee" stroke="#0b7d25" stroke-width="1.6"/>
<text x="665.0" y="365.0" font-size="12" text-anchor="middle"><tspan x="665.0" font-weight="700">C14</tspan><tspan x="665.0" dy="15.0">TW [137, 257]</tspan><tspan x="665.0" dy="15.0">start 137.0</tspan><tspan x="665.0" dy="15.0">end 150.0</tspan><tspan x="665.0" dy="15.0">dur. 13.0</tspan></text>
<line x1="728.0" y1="391.0" x2="749.0" y2="391.0" stroke="#0b7d25" stroke-width="1.7" marker-end="url(#arrow-2)"/>
<rect x="754.0" y="348.0" width="126.0" height="86.0" rx="5" ry="5" fill="#ecf9ee" stroke="#0b7d25" stroke-width="1.6"/>
<text x="817.0" y="365.0" font-size="12" text-anchor="middle"><tspan x="817.0" font-weight="700">C23</tspan><tspan x="817.0" dy="15.0">TW [128, 248]</tspan><tspan x="817.0" dy="15.0">start 165.0</tspan><tspan x="817.0" dy="15.0">end 178.0</tspan><tspan x="817.0" dy="15.0">dur. 13.0</tspan></text>
<line x1="880.0" y1="391.0" x2="901.0" y2="391.0" stroke="#0b7d25" stroke-width="1.7" marker-end="url(#arrow-2)"/>
<rect x="906.0" y="348.0" width="126.0" height="86.0" rx="5" ry="5" fill="#ecf9ee" stroke="#0b7d25" stroke-width="1.6"/>
<text x="969.0" y="365.0" font-size="12" text-anchor="middle"><tspan x="969.0" font-weight="700">C15</tspan><tspan x="969.0" dy="15.0">TW [268, 388]</tspan><tspan x="969.0" dy="15.0">start 268.0</tspan><tspan x="969.0" dy="15.0">end 281.0</tspan><tspan x="969.0" dy="15.0">dur. 13.0</tspan></text>
<line x1="1032.0" y1="391.0" x2="1053.0" y2="391.0" stroke="#0b7d25" stroke-width="1.7" marker-end="url(#arrow-2)"/>
<rect x="1058.0" y="348.0" width="126.0" height="86.0" rx="5" ry="5" fill="#ecf9ee" stroke="#0b7d25" stroke-width="1.6"/>
<text x="1121.0" y="365.0" font-size="12" text-anchor="middle"><tspan x="1121.0" font-weight="700">C6</tspan><tspan x="1121.0" dy="15.0">TW [278, 398]</tspan><tspan x="1121.0" dy="15.0">start 296.5</tspan><tspan x="1121.0" dy="15.0">end 309.5</tspan><tspan x="1121.0" dy="15.0">dur. 13.0</tspan></text>
<line x1="1184.0" y1="391.0" x2="1205.0" y2="391.0" stroke="#0b7d25" stroke-width="1.7" marker-end="url(#arrow-2)"/>
<rect x="1210.0" y="348.0" width="126.0" height="86.0" rx="5" ry="5" fill="#ecf9ee" stroke="#0b7d25" stroke-width="1.6"/>
<text x="1273.0" y="365.0" font-size="12" text-anchor="middle"><tspan x="1273.0" font-weight="700">C20</tspan><tspan x="1273.0" dy="15.0">TW [255, 375]</tspan><tspan x="1273.0" dy="15.0">start 326.5</tspan><tspan x="1273.0" dy="15.0">end 339.5</tspan><tspan x="1273.0" dy="15.0">dur. 13.0</tspan></text>
<line x1="1336.0" y1="391.0" x2="1357.0" y2="391.0" stroke="#0b7d25" stroke-width="1.7" marker-end="url(#arrow-2)"/>
<rect x="1362.0" y="359.0" width="100.0" height="64.0" rx="0" ry="0" fill="#ecf9ee" stroke="#0b7d25" stroke-width="1.6"/>
<text x="1412.0" y="378.0" font-size="12" text-anchor="middle"><tspan x="1412.0" font-weight="700">1007</tspan><tspan x="1412.0" dy="15.0">return</tspan><tspan x="1412.0" dy="15.0">345.4</tspan></text>
<rect x="28.0" y="472.0" width="390.0" height="86.0" rx="5" ry="5" fill="#f5edff" stroke="#7a3db8" stroke-width="1.6"/>
<text x="39.0" y="492.0" font-size="12" text-anchor="start"><tspan x="39.0" font-weight="700">Vehicle 3, base 1005</tspan><tspan x="39.0" dy="16.0">1005 -&gt; 11 -&gt; 2 -&gt; 19 -&gt; 12 -&gt; 9 -&gt; 1005</tspan><tspan x="39.0" dy="16.0">travel 44.2; service 65.0; wait 331.5</tspan><tspan x="39.0" dy="16.0">depart 0.0; finish 440.7; elapsed 440.7</tspan></text>
<line x1="418.0" y1="515.0" x2="445.0" y2="515.0" stroke="#7a3db8" stroke-width="1.7" marker-end="url(#arrow-3)"/>
<rect x="450.0" y="472.0" width="126.0" height="86.0" rx="5" ry="5" fill="#f5edff" stroke="#7a3db8" stroke-width="1.6"/>
<text x="513.0" y="489.0" font-size="12" text-anchor="middle"><tspan x="513.0" font-weight="700">C11</tspan><tspan x="513.0" dy="15.0">TW [114, 234]</tspan><tspan x="513.0" dy="15.0">start 114.0</tspan><tspan x="513.0" dy="15.0">end 127.0</tspan><tspan x="513.0" dy="15.0">dur. 13.0</tspan></text>
<line x1="576.0" y1="515.0" x2="597.0" y2="515.0" stroke="#7a3db8" stroke-width="1.7" marker-end="url(#arrow-3)"/>
<rect x="602.0" y="472.0" width="126.0" height="86.0" rx="5" ry="5" fill="#f5edff" stroke="#7a3db8" stroke-width="1.6"/>
<text x="665.0" y="489.0" font-size="12" text-anchor="middle"><tspan x="665.0" font-weight="700">C2</tspan><tspan x="665.0" dy="15.0">TW [316, 436]</tspan><tspan x="665.0" dy="15.0">start 316.0</tspan><tspan x="665.0" dy="15.0">end 329.0</tspan><tspan x="665.0" dy="15.0">dur. 13.0</tspan></text>
<line x1="728.0" y1="515.0" x2="749.0" y2="515.0" stroke="#7a3db8" stroke-width="1.7" marker-end="url(#arrow-3)"/>
<rect x="754.0" y="472.0" width="126.0" height="86.0" rx="5" ry="5" fill="#f5edff" stroke="#7a3db8" stroke-width="1.6"/>
<text x="817.0" y="489.0" font-size="12" text-anchor="middle"><tspan x="817.0" font-weight="700">C19</tspan><tspan x="817.0" dy="15.0">TW [243, 363]</tspan><tspan x="817.0" dy="15.0">start 339.0</tspan><tspan x="817.0" dy="15.0">end 352.0</tspan><tspan x="817.0" dy="15.0">dur. 13.0</tspan></text>
<line x1="880.0" y1="515.0" x2="901.0" y2="515.0" stroke="#7a3db8" stroke-width="1.7" marker-end="url(#arrow-3)"/>
<rect x="906.0" y="472.0" width="126.0" height="86.0" rx="5" ry="5" fill="#f5edff" stroke="#7a3db8" stroke-width="1.6"/>
<text x="969.0" y="489.0" font-size="12" text-anchor="middle"><tspan x="969.0" font-weight="700">C12</tspan><tspan x="969.0" dy="15.0">TW [290, 410]</tspan><tspan x="969.0" dy="15.0">start 353.0</tspan><tspan x="969.0" dy="15.0">end 366.0</tspan><tspan x="969.0" dy="15.0">dur. 13.0</tspan></text>
<line x1="1032.0" y1="515.0" x2="1053.0" y2="515.0" stroke="#7a3db8" stroke-width="1.7" marker-end="url(#arrow-3)"/>
<rect x="1058.0" y="472.0" width="126.0" height="86.0" rx="5" ry="5" fill="#f5edff" stroke="#7a3db8" stroke-width="1.6"/>
<text x="1121.0" y="489.0" font-size="12" text-anchor="middle"><tspan x="1121.0" font-weight="700">C9</tspan><tspan x="1121.0" dy="15.0">TW [413, 533]</tspan><tspan x="1121.0" dy="15.0">start 413.0</tspan><tspan x="1121.0" dy="15.0">end 426.0</tspan><tspan x="1121.0" dy="15.0">dur. 13.0</tspan></text>
<line x1="1184.0" y1="515.0" x2="1205.0" y2="515.0" stroke="#7a3db8" stroke-width="1.7" marker-end="url(#arrow-3)"/>
<rect x="1210.0" y="483.0" width="100.0" height="64.0" rx="0" ry="0" fill="#f5edff" stroke="#7a3db8" stroke-width="1.6"/>
<text x="1260.0" y="502.0" font-size="12" text-anchor="middle"><tspan x="1260.0" font-weight="700">1005</tspan><tspan x="1260.0" dy="15.0">return</tspan><tspan x="1260.0" dy="15.0">440.7</tspan></text>
<rect x="28.0" y="590.0" width="390.0" height="98.0" rx="5" ry="5" fill="#fff1ed" stroke="#9a3412" stroke-width="1.6"/>
<text x="39.0" y="610.0" font-size="12" text-anchor="start"><tspan x="39.0" font-weight="700">Vehicle 4, base 1008</tspan><tspan x="39.0" dy="16.0">1008 -&gt; 25 -&gt; 8 -&gt; 1 -&gt; 7 -&gt; 22 -&gt; 13 -&gt; 24 -&gt;</tspan><tspan x="39.0" dy="16.0">3 -&gt; 16 -&gt; 18 -&gt; 1008</tspan><tspan x="39.0" dy="16.0">travel 210.9; service 130.0; wait 161.0</tspan><tspan x="39.0" dy="16.0">depart 0.0; finish 501.9; elapsed 501.9</tspan></text>
<line x1="418.0" y1="639.0" x2="445.0" y2="639.0" stroke="#9a3412" stroke-width="1.7" marker-end="url(#arrow-4)"/>
<rect x="450.0" y="596.0" width="126.0" height="86.0" rx="5" ry="5" fill="#fff1ed" stroke="#9a3412" stroke-width="1.6"/>
<text x="513.0" y="613.0" font-size="12" text-anchor="middle"><tspan x="513.0" font-weight="700">C25</tspan><tspan x="513.0" dy="15.0">TW [59, 179]</tspan><tspan x="513.0" dy="15.0">start 59.0</tspan><tspan x="513.0" dy="15.0">end 72.0</tspan><tspan x="513.0" dy="15.0">dur. 13.0</tspan></text>
<line x1="576.0" y1="639.0" x2="597.0" y2="639.0" stroke="#9a3412" stroke-width="1.7" marker-end="url(#arrow-4)"/>
<rect x="602.0" y="596.0" width="126.0" height="86.0" rx="5" ry="5" fill="#fff1ed" stroke="#9a3412" stroke-width="1.6"/>
<text x="665.0" y="613.0" font-size="12" text-anchor="middle"><tspan x="665.0" font-weight="700">C8</tspan><tspan x="665.0" dy="15.0">TW [11, 131]</tspan><tspan x="665.0" dy="15.0">start 103.1</tspan><tspan x="665.0" dy="15.0">end 116.1</tspan><tspan x="665.0" dy="15.0">dur. 13.0</tspan></text>
<line x1="728.0" y1="639.0" x2="749.0" y2="639.0" stroke="#9a3412" stroke-width="1.7" marker-end="url(#arrow-4)"/>
<rect x="754.0" y="596.0" width="126.0" height="86.0" rx="5" ry="5" fill="#fff1ed" stroke="#9a3412" stroke-width="1.6"/>
<text x="817.0" y="613.0" font-size="12" text-anchor="middle"><tspan x="817.0" font-weight="700">C1</tspan><tspan x="817.0" dy="15.0">TW [124, 244]</tspan><tspan x="817.0" dy="15.0">start 145.5</tspan><tspan x="817.0" dy="15.0">end 158.5</tspan><tspan x="817.0" dy="15.0">dur. 13.0</tspan></text>
<line x1="880.0" y1="639.0" x2="901.0" y2="639.0" stroke="#9a3412" stroke-width="1.7" marker-end="url(#arrow-4)"/>
<rect x="906.0" y="596.0" width="126.0" height="86.0" rx="5" ry="5" fill="#fff1ed" stroke="#9a3412" stroke-width="1.6"/>
<text x="969.0" y="613.0" font-size="12" text-anchor="middle"><tspan x="969.0" font-weight="700">C7</tspan><tspan x="969.0" dy="15.0">TW [51, 171]</tspan><tspan x="969.0" dy="15.0">start 164.8</tspan><tspan x="969.0" dy="15.0">end 177.8</tspan><tspan x="969.0" dy="15.0">dur. 13.0</tspan></text>
<line x1="1032.0" y1="639.0" x2="1053.0" y2="639.0" stroke="#9a3412" stroke-width="1.7" marker-end="url(#arrow-4)"/>
<rect x="1058.0" y="596.0" width="126.0" height="86.0" rx="5" ry="5" fill="#fff1ed" stroke="#9a3412" stroke-width="1.6"/>
<text x="1121.0" y="613.0" font-size="12" text-anchor="middle"><tspan x="1121.0" font-weight="700">C22</tspan><tspan x="1121.0" dy="15.0">TW [121, 241]</tspan><tspan x="1121.0" dy="15.0">start 190.4</tspan><tspan x="1121.0" dy="15.0">end 203.4</tspan><tspan x="1121.0" dy="15.0">dur. 13.0</tspan></text>
<line x1="1184.0" y1="639.0" x2="1205.0" y2="639.0" stroke="#9a3412" stroke-width="1.7" marker-end="url(#arrow-4)"/>
<rect x="1210.0" y="596.0" width="126.0" height="86.0" rx="5" ry="5" fill="#fff1ed" stroke="#9a3412" stroke-width="1.6"/>
<text x="1273.0" y="613.0" font-size="12" text-anchor="middle"><tspan x="1273.0" font-weight="700">C13</tspan><tspan x="1273.0" dy="15.0">TW [302, 422]</tspan><tspan x="1273.0" dy="15.0">start 302.0</tspan><tspan x="1273.0" dy="15.0">end 315.0</tspan><tspan x="1273.0" dy="15.0">dur. 13.0</tspan></text>
<line x1="1336.0" y1="639.0" x2="1357.0" y2="639.0" stroke="#9a3412" stroke-width="1.7" marker-end="url(#arrow-4)"/>
<rect x="1362.0" y="596.0" width="126.0" height="86.0" rx="5" ry="5" fill="#fff1ed" stroke="#9a3412" stroke-width="1.6"/>
<text x="1425.0" y="613.0" font-size="12" text-anchor="middle"><tspan x="1425.0" font-weight="700">C24</tspan><tspan x="1425.0" dy="15.0">TW [220, 340]</tspan><tspan x="1425.0" dy="15.0">start 319.5</tspan><tspan x="1425.0" dy="15.0">end 332.5</tspan><tspan x="1425.0" dy="15.0">dur. 13.0</tspan></text>
<line x1="1488.0" y1="639.0" x2="1509.0" y2="639.0" stroke="#9a3412" stroke-width="1.7" marker-end="url(#arrow-4)"/>
<rect x="1514.0" y="596.0" width="126.0" height="86.0" rx="5" ry="5" fill="#fff1ed" stroke="#9a3412" stroke-width="1.6"/>
<text x="1577.0" y="613.0" font-size="12" text-anchor="middle"><tspan x="1577.0" font-weight="700">C3</tspan><tspan x="1577.0" dy="15.0">TW [370, 490]</tspan><tspan x="1577.0" dy="15.0">start 370.0</tspan><tspan x="1577.0" dy="15.0">end 383.0</tspan><tspan x="1577.0" dy="15.0">dur. 13.0</tspan></text>
<line x1="1640.0" y1="639.0" x2="1661.0" y2="639.0" stroke="#9a3412" stroke-width="1.7" marker-end="url(#arrow-4)"/>
<rect x="1666.0" y="596.0" width="126.0" height="86.0" rx="5" ry="5" fill="#fff1ed" stroke="#9a3412" stroke-width="1.6"/>
<text x="1729.0" y="613.0" font-size="12" text-anchor="middle"><tspan x="1729.0" font-weight="700">C16</tspan><tspan x="1729.0" dy="15.0">TW [348, 468]</tspan><tspan x="1729.0" dy="15.0">start 404.5</tspan><tspan x="1729.0" dy="15.0">end 417.5</tspan><tspan x="1729.0" dy="15.0">dur. 13.0</tspan></text>
<line x1="1792.0" y1="639.0" x2="1813.0" y2="639.0" stroke="#9a3412" stroke-width="1.7" marker-end="url(#arrow-4)"/>
<rect x="1818.0" y="596.0" width="126.0" height="86.0" rx="5" ry="5" fill="#fff1ed" stroke="#9a3412" stroke-width="1.6"/>
<text x="1881.0" y="613.0" font-size="12" text-anchor="middle"><tspan x="1881.0" font-weight="700">C18</tspan><tspan x="1881.0" dy="15.0">TW [469, 589]</tspan><tspan x="1881.0" dy="15.0">start 469.0</tspan><tspan x="1881.0" dy="15.0">end 482.0</tspan><tspan x="1881.0" dy="15.0">dur. 13.0</tspan></text>
<line x1="1944.0" y1="639.0" x2="1965.0" y2="639.0" stroke="#9a3412" stroke-width="1.7" marker-end="url(#arrow-4)"/>
<rect x="1970.0" y="607.0" width="100.0" height="64.0" rx="0" ry="0" fill="#fff1ed" stroke="#9a3412" stroke-width="1.6"/>
<text x="2020.0" y="626.0" font-size="12" text-anchor="middle"><tspan x="2020.0" font-weight="700">1008</tspan><tspan x="2020.0" dy="15.0">return</tspan><tspan x="2020.0" dy="15.0">501.9</tspan></text>
<rect x="28.0" y="726.0" width="2094.0" height="74.0" rx="5" ry="5" fill="#f8fafc" stroke="#c9ced6" stroke-width="1.6"/>
<text x="40.0" y="748.0" font-size="12" text-anchor="start"><tspan x="40.0">Open facilities: 1000, 1005, 1006, 1007, 1008; unselected candidates: 1001, 1002, 1003, 1004, 1009.</tspan><tspan x="40.0" dy="17.0">Times use nominal service durations and earliest-start propagation from a time-zero facility departure.</tspan><tspan x="40.0" dy="17.0">TW denotes the customer time window; start and end denote nominal service start and service completion.</tspan></text>
</svg>
