<?xml version="1.0" encoding="UTF-8"?>
<svg xmlns="http://www.w3.org/2000/svg" width="1714" height="588" viewBox="0 0 1714 588" role="img" aria-labelledby="title desc">
<title id="title">Route schedule for flrp-ssr_instance_10_2</title>
<desc id="desc">Non-geographic route schedule with route totals and customer service times.</desc>
<style>
text{font-family:Arial,Helvetica,sans-serif;fill:#111827}
.title{font-size:24px;font-weight:700}
.meta{font-size:13px;fill:#374151}
.caption{font-size:12px;fill:#374151}
</style>
<rect x="0" y="0" width="100%" height="100%" fill="#ffffff"/>
<text class="title" x="28" y="34">FLRP-SSR route schedule: flrp-ssr_instance_10_2</text>
<text class="meta" x="28" y="58">cost = 3280.064; No. of customers = 10; No. of routes= 3</text>
<defs>
<marker id="arrow-0" viewBox="0 0 10 10" refX="8.5" refY="5" markerWidth="6" markerHeight="6" orient="auto">
<path d="M 0 0 L 10 5 L 0 10 z" fill="#174ea6"/>
</marker>
<marker id="arrow-1" viewBox="0 0 10 10" refX="8.5" refY="5" markerWidth="6" markerHeight="6" orient="auto">
<path d="M 0 0 L 10 5 L 0 10 z" fill="#c65f00"/>
</marker>
<marker id="arrow-2" viewBox="0 0 10 10" refX="8.5" refY="5" markerWidth="6" markerHeight="6" orient="auto">
<path d="M 0 0 L 10 5 L 0 10 z" fill="#0b7d25"/>
</marker>
</defs>
<rect x="28.0" y="106.0" width="390.0" height="86.0" rx="5" ry="5" fill="#edf4ff" stroke="#174ea6" stroke-width="1.6"/>
<text x="39.0" y="126.0" font-size="12" text-anchor="start"><tspan x="39.0" font-weight="700">Vehicle 0, base 1000</tspan><tspan x="39.0" dy="16.0">1000 -&gt; 2 -&gt; 1000</tspan><tspan x="39.0" dy="16.0">travel 13.0; service 11.0; wait 245.5</tspan><tspan x="39.0" dy="16.0">depart 0.0; finish 269.5; elapsed 269.5</tspan></text>
<line x1="418.0" y1="149.0" x2="445.0" y2="149.0" stroke="#174ea6" stroke-width="1.7" marker-end="url(#arrow-0)"/>
<rect x="450.0" y="106.0" width="126.0" height="86.0" rx="5" ry="5" fill="#edf4ff" stroke="#174ea6" stroke-width="1.6"/>
<text x="513.0" y="123.0" font-size="12" text-anchor="middle"><tspan x="513.0" font-weight="700">C2</tspan><tspan x="513.0" dy="15.0">TW [252, 372]</tspan><tspan x="513.0" dy="15.0">start 252.0</tspan><tspan x="513.0" dy="15.0">end 263.0</tspan><tspan x="513.0" dy="15.0">dur. 11.0</tspan></text>
<line x1="576.0" y1="149.0" x2="597.0" y2="149.0" stroke="#174ea6" stroke-width="1.7" marker-end="url(#arrow-0)"/>
<rect x="602.0" y="117.0" width="100.0" height="64.0" rx="0" ry="0" fill="#edf4ff" stroke="#174ea6" stroke-width="1.6"/>
<text x="652.0" y="136.0" font-size="12" text-anchor="middle"><tspan x="652.0" font-weight="700">1000</tspan><tspan x="652.0" dy="15.0">return</tspan><tspan x="652.0" dy="15.0">269.5</tspan></text>
<rect x="28.0" y="224.0" width="390.0" height="98.0" rx="5" ry="5" fill="#fff3e5" stroke="#c65f00" stroke-width="1.6"/>
<text x="39.0" y="244.0" font-size="12" text-anchor="start"><tspan x="39.0" font-weight="700">Vehicle 1, base 1001</tspan><tspan x="39.0" dy="16.0">1001 -&gt; 9 -&gt; 1 -&gt; 3 -&gt; 7 -&gt; 10 -&gt; 6 -&gt; 4 -&gt;</tspan><tspan x="39.0" dy="16.0">1001</tspan><tspan x="39.0" dy="16.0">travel 207.3; service 77.0; wait 239.2</tspan><tspan x="39.0" dy="16.0">depart 0.0; finish 523.4; elapsed 523.4</tspan></text>
<line x1="418.0" y1="273.0" x2="445.0" y2="273.0" stroke="#c65f00" stroke-width="1.7" marker-end="url(#arrow-1)"/>
<rect x="450.0" y="230.0" width="126.0" height="86.0" rx="5" ry="5" fill="#fff3e5" stroke="#c65f00" stroke-width="1.6"/>
<text x="513.0" y="247.0" font-size="12" text-anchor="middle"><tspan x="513.0" font-weight="700">C9</tspan><tspan x="513.0" dy="15.0">TW [7, 127]</tspan><tspan x="513.0" dy="15.0">start 12.4</tspan><tspan x="513.0" dy="15.0">end 23.4</tspan><tspan x="513.0" dy="15.0">dur. 11.0</tspan></text>
<line x1="576.0" y1="273.0" x2="597.0" y2="273.0" stroke="#c65f00" stroke-width="1.7" marker-end="url(#arrow-1)"/>
<rect x="602.0" y="230.0" width="126.0" height="86.0" rx="5" ry="5" fill="#fff3e5" stroke="#c65f00" stroke-width="1.6"/>
<text x="665.0" y="247.0" font-size="12" text-anchor="middle"><tspan x="665.0" font-weight="700">C1</tspan><tspan x="665.0" dy="15.0">TW [28, 148]</tspan><tspan x="665.0" dy="15.0">start 59.8</tspan><tspan x="665.0" dy="15.0">end 70.8</tspan><tspan x="665.0" dy="15.0">dur. 11.0</tspan></text>
<line x1="728.0" y1="273.0" x2="749.0" y2="273.0" stroke="#c65f00" stroke-width="1.7" marker-end="url(#arrow-1)"/>
<rect x="754.0" y="230.0" width="126.0" height="86.0" rx="5" ry="5" fill="#fff3e5" stroke="#c65f00" stroke-width="1.6"/>
<text x="817.0" y="247.0" font-size="12" text-anchor="middle"><tspan x="817.0" font-weight="700">C3</tspan><tspan x="817.0" dy="15.0">TW [200, 320]</tspan><tspan x="817.0" dy="15.0">start 200.0</tspan><tspan x="817.0" dy="15.0">end 211.0</tspan><tspan x="817.0" dy="15.0">dur. 11.0</tspan></text>
<line x1="880.0" y1="273.0" x2="901.0" y2="273.0" stroke="#c65f00" stroke-width="1.7" marker-end="url(#arrow-1)"/>
<rect x="906.0" y="230.0" width="126.0" height="86.0" rx="5" ry="5" fill="#fff3e5" stroke="#c65f00" stroke-width="1.6"/>
<text x="969.0" y="247.0" font-size="12" text-anchor="middle"><tspan x="969.0" font-weight="700">C7</tspan><tspan x="969.0" dy="15.0">TW [366, 486]</tspan><tspan x="969.0" dy="15.0">start 366.0</tspan><tspan x="969.0" dy="15.0">end 377.0</tspan><tspan x="969.0" dy="15.0">dur. 11.0</tspan></text>
<line x1="1032.0" y1="273.0" x2="1053.0" y2="273.0" stroke="#c65f00" stroke-width="1.7" marker-end="url(#arrow-1)"/>
<rect x="1058.0" y="230.0" width="126.0" height="86.0" rx="5" ry="5" fill="#fff3e5" stroke="#c65f00" stroke-width="1.6"/>
<text x="1121.0" y="247.0" font-size="12" text-anchor="middle"><tspan x="1121.0" font-weight="700">C10</tspan><tspan x="1121.0" dy="15.0">TW [348, 468]</tspan><tspan x="1121.0" dy="15.0">start 414.7</tspan><tspan x="1121.0" dy="15.0">end 425.7</tspan><tspan x="1121.0" dy="15.0">dur. 11.0</tspan></text>
<line x1="1184.0" y1="273.0" x2="1205.0" y2="273.0" stroke="#c65f00" stroke-width="1.7" marker-end="url(#arrow-1)"/>
<rect x="1210.0" y="230.0" width="126.0" height="86.0" rx="5" ry="5" fill="#fff3e5" stroke="#c65f00" stroke-width="1.6"/>
<text x="1273.0" y="247.0" font-size="12" text-anchor="middle"><tspan x="1273.0" font-weight="700">C6</tspan><tspan x="1273.0" dy="15.0">TW [390, 510]</tspan><tspan x="1273.0" dy="15.0">start 461.8</tspan><tspan x="1273.0" dy="15.0">end 472.8</tspan><tspan x="1273.0" dy="15.0">dur. 11.0</tspan></text>
<line x1="1336.0" y1="273.0" x2="1357.0" y2="273.0" stroke="#c65f00" stroke-width="1.7" marker-end="url(#arrow-1)"/>
<rect x="1362.0" y="230.0" width="126.0" height="86.0" rx="5" ry="5" fill="#fff3e5" stroke="#c65f00" stroke-width="1.6"/>
<text x="1425.0" y="247.0" font-size="12" text-anchor="middle"><tspan x="1425.0" font-weight="700">C4</tspan><tspan x="1425.0" dy="15.0">TW [427, 547]</tspan><tspan x="1425.0" dy="15.0">start 487.1</tspan><tspan x="1425.0" dy="15.0">end 498.1</tspan><tspan x="1425.0" dy="15.0">dur. 11.0</tspan></text>
<line x1="1488.0" y1="273.0" x2="1509.0" y2="273.0" stroke="#c65f00" stroke-width="1.7" marker-end="url(#arrow-1)"/>
<rect x="1514.0" y="241.0" width="100.0" height="64.0" rx="0" ry="0" fill="#fff3e5" stroke="#c65f00" stroke-width="1.6"/>
<text x="1564.0" y="260.0" font-size="12" text-anchor="middle"><tspan x="1564.0" font-weight="700">1001</tspan><tspan x="1564.0" dy="15.0">return</tspan><tspan x="1564.0" dy="15.0">523.4</tspan></text>
<rect x="28.0" y="354.0" width="390.0" height="86.0" rx="5" ry="5" fill="#ecf9ee" stroke="#0b7d25" stroke-width="1.6"/>
<text x="39.0" y="374.0" font-size="12" text-anchor="start"><tspan x="39.0" font-weight="700">Vehicle 2, base 1002</tspan><tspan x="39.0" dy="16.0">1002 -&gt; 8 -&gt; 5 -&gt; 1002</tspan><tspan x="39.0" dy="16.0">travel 59.7; service 22.0; wait 262.0</tspan><tspan x="39.0" dy="16.0">depart 0.0; finish 343.7; elapsed 343.7</tspan></text>
<line x1="418.0" y1="397.0" x2="445.0" y2="397.0" stroke="#0b7d25" stroke-width="1.7" marker-end="url(#arrow-2)"/>
<rect x="450.0" y="354.0" width="126.0" height="86.0" rx="5" ry="5" fill="#ecf9ee" stroke="#0b7d25" stroke-width="1.6"/>
<text x="513.0" y="371.0" font-size="12" text-anchor="middle"><tspan x="513.0" font-weight="700">C8</tspan><tspan x="513.0" dy="15.0">TW [39, 159]</tspan><tspan x="513.0" dy="15.0">start 39.0</tspan><tspan x="513.0" dy="15.0">end 50.0</tspan><tspan x="513.0" dy="15.0">dur. 11.0</tspan></text>
<line x1="576.0" y1="397.0" x2="597.0" y2="397.0" stroke="#0b7d25" stroke-width="1.7" marker-end="url(#arrow-2)"/>
<rect x="602.0" y="354.0" width="126.0" height="86.0" rx="5" ry="5" fill="#ecf9ee" stroke="#0b7d25" stroke-width="1.6"/>
<text x="665.0" y="371.0" font-size="12" text-anchor="middle"><tspan x="665.0" font-weight="700">C5</tspan><tspan x="665.0" dy="15.0">TW [309, 429]</tspan><tspan x="665.0" dy="15.0">start 309.0</tspan><tspan x="665.0" dy="15.0">end 320.0</tspan><tspan x="665.0" dy="15.0">dur. 11.0</tspan></text>
<line x1="728.0" y1="397.0" x2="749.0" y2="397.0" stroke="#0b7d25" stroke-width="1.7" marker-end="url(#arrow-2)"/>
<rect x="754.0" y="365.0" width="100.0" height="64.0" rx="0" ry="0" fill="#ecf9ee" stroke="#0b7d25" stroke-width="1.6"/>
<text x="804.0" y="384.0" font-size="12" text-anchor="middle"><tspan x="804.0" font-weight="700">1002</tspan><tspan x="804.0" dy="15.0">return</tspan><tspan x="804.0" dy="15.0">343.7</tspan></text>
<rect x="28.0" y="478.0" width="1638.0" height="74.0" rx="5" ry="5" fill="#f8fafc" stroke="#c9ced6" stroke-width="1.6"/>
<text x="40.0" y="500.0" font-size="12" text-anchor="start"><tspan x="40.0">Open facilities: 1000, 1001, 1002; unselected candidates: 1003, 1004, 1005.</tspan><tspan x="40.0" dy="17.0">Times use nominal service durations and earliest-start propagation from a time-zero facility departure.</tspan><tspan x="40.0" dy="17.0">TW denotes the customer time window; start and end denote nominal service start and service completion.</tspan></text>
</svg>
